<?xml version="1.0" encoding="UTF-8"?>
<svg version="1.1" xmlns="http://www.w3.org/2000/svg" width="500" height="500">
<path d="M0 0 C3.53378576 0.01069886 7.0670598 0.00004694 10.60083008 -0.01269531 C28.24631113 -0.02683444 45.59223012 0.99057247 63.0925293 3.265625 C83.960642 5.94832956 104.46869987 6.89452354 125.50537109 6.78222656 C129.80831194 6.75945645 134.11026094 6.77300491 138.41316795 6.79600525 C159.60181399 6.89157823 180.26020795 5.64930654 201.27761555 2.99829483 C219.15900516 0.74753464 236.89415147 -0.06642808 254.90893555 0 C258.36565587 0.01075794 261.82185927 0.00000418 265.27856445 -0.01269531 C284.58688552 -0.02633713 303.53101323 1.44802355 322.60986328 4.38305664 C324.72634661 4.70637695 326.84495878 5.01209955 328.96411133 5.31738281 C330.34512665 5.52533416 331.72599292 5.73427841 333.10668945 5.94433594 C334.31252686 6.12536865 335.51836426 6.30640137 336.76074219 6.49291992 C343.26169448 7.9294052 348.51633505 10.43422561 353.2355957 15.26074219 C356.81256411 21.99713406 357.36027599 29.24688544 357.40356445 36.76464844 C357.40775391 37.47623611 357.41194336 38.18782379 357.41625977 38.92097473 C357.42601566 41.2217872 357.42605107 43.52241248 357.4230957 45.82324219 C357.42268784 47.00348969 357.42268784 47.00348969 357.42227173 48.20758057 C357.40375766 59.84300629 357.05847906 71.32359466 355.54321289 82.87451172 C355.22233173 85.36363274 354.95062802 87.85544103 354.6809082 90.35058594 C351.86609753 114.5947913 345.20696739 142.68964769 325.88793945 159.27636719 C309.7884298 170.72269553 288.60051633 172.61630816 269.49169922 172.52148438 C266.93798846 172.51080447 264.38498776 172.52141247 261.83129883 172.53417969 C246.5452865 172.55027987 232.29834399 170.55512826 217.4230957 166.88574219 C215.57554687 166.44875 215.57554687 166.44875 213.69067383 166.00292969 C196.94958101 161.93149591 187.60772125 156.98572205 178.2355957 142.26074219 C173.40866592 133.75760639 169.79741404 124.93297858 166.49731445 115.75683594 C165.77192743 113.74686262 165.01849859 111.74554157 164.1887207 109.77636719 C162.92680949 106.44574906 162.12036586 103.03167372 161.2980957 99.57324219 C160.22660755 95.14033976 159.12545787 90.77475265 157.6730957 86.44824219 C155.4581052 79.333789 154.65639843 71.85833387 153.57202148 64.50634766 C153.11880014 61.48114452 152.61897339 58.46461645 152.1105957 55.44824219 C151.96364258 54.57554687 151.81668945 53.70285156 151.6652832 52.80371094 C151.37247348 51.07080974 151.04270764 49.34384472 150.6809082 47.62402344 C150.05217132 42.87540538 150.2355957 38.0508031 150.2355957 33.26074219 C137.6955957 33.26074219 125.1555957 33.26074219 112.2355957 33.26074219 C112.2355957 37.22074219 112.2355957 41.18074219 112.2355957 45.26074219 C112.04386328 47.34065079 111.80310123 49.41813649 111.46606445 51.47949219 C111.21566406 53.03216797 111.21566406 53.03216797 110.96020508 54.61621094 C110.78295898 55.65390625 110.60571289 56.69160156 110.4230957 57.76074219 C110.25745117 58.7984375 110.09180664 59.83613281 109.92114258 60.90527344 C108.87617809 67.23815255 107.51079319 73.42198099 105.90283203 79.63476562 C105.14519258 82.61653288 104.55296083 85.61249657 103.9855957 88.63574219 C102.62976507 95.04382592 100.8163391 101.26095769 98.8605957 107.51074219 C98.58054688 108.42130371 98.30049805 109.33186523 98.01196289 110.27001953 C96.23675152 115.81579594 94.04262659 120.90687402 91.35961914 126.07324219 C90.09202158 128.54015663 89.0339265 131.04416953 88.0480957 133.63574219 C86.91304475 136.60136467 85.69725693 139.44044431 84.2355957 142.26074219 C83.5755957 142.26074219 82.9155957 142.26074219 82.2355957 142.26074219 C82.1737207 142.96199219 82.1118457 143.66324219 82.0480957 144.38574219 C80.92778999 148.34990086 79.07493044 150.28290331 76.2355957 153.26074219 C75.5755957 153.26074219 74.9155957 153.26074219 74.2355957 153.26074219 C73.99196289 153.86917969 73.74833008 154.47761719 73.49731445 155.10449219 C70.0849195 160.93620121 61.33396356 162.65290513 55.2355957 164.32324219 C52.57161296 164.98722174 49.9082208 165.63433598 47.2355957 166.26074219 C46.50711426 166.43492676 45.77863281 166.60911133 45.02807617 166.78857422 C42.74535758 167.33132882 40.4600989 167.861351 38.1730957 168.38574219 C37.49053711 168.54437744 36.80797852 168.7030127 36.10473633 168.86645508 C23.5753733 171.64929563 11.35474874 172.63383753 -1.43945312 172.63134766 C-3.93193698 172.63570726 -6.42262337 172.6721375 -8.91479492 172.70996094 C-29.66973748 172.85504949 -53.2320893 169.05977192 -68.7644043 154.26074219 C-69.4244043 153.60074219 -70.0844043 152.94074219 -70.7644043 152.26074219 C-70.7644043 151.27074219 -70.7644043 150.28074219 -70.7644043 149.26074219 C-71.4244043 149.26074219 -72.0844043 149.26074219 -72.7644043 149.26074219 C-81.95997101 133.36217996 -87.26950312 118.23569944 -90.7644043 100.26074219 C-91.03172363 98.96583862 -91.03172363 98.96583862 -91.30444336 97.64477539 C-92.78375527 90.15421506 -93.41039002 82.68720366 -93.8894043 75.07324219 C-93.97287109 73.76403809 -94.05633789 72.45483398 -94.14233398 71.10595703 C-97.00771532 24.04163963 -97.00771532 24.04163963 -88.7644043 13.26074219 C-82.37151546 7.01314628 -74.25875453 6.51037658 -65.7644043 5.26074219 C-64.10678795 5.00203906 -62.44923764 4.74291248 -60.79174805 4.48339844 C-59.05376963 4.21967615 -57.31548968 3.95793294 -55.5769043 3.69824219 C-54.8142627 3.58335449 -54.05162109 3.4684668 -53.26586914 3.35009766 C-50.43571343 2.94856396 -47.60296143 2.5984036 -44.7644043 2.26074219 C-44.07526947 2.17709412 -43.38613464 2.09344604 -42.67611694 2.00726318 C-28.44138497 0.32540662 -14.32570316 -0.05137848 0 0 Z M-79.41064453 23.75952148 C-81.46688406 27.55865115 -81.21154666 31.14872969 -81.19799805 35.40527344 C-81.20487137 36.31507965 -81.21174469 37.22488586 -81.21882629 38.16226196 C-81.23260053 41.13293189 -81.21987409 44.10260407 -81.2019043 47.07324219 C-81.19952759 48.08339386 -81.19715088 49.09354553 -81.19470215 50.13430786 C-81.07963628 81.33045798 -79.52364369 120.04585343 -58.3894043 145.07324219 C-38.28859389 161.82391753 -8.46631535 160.43655819 16.2355957 158.26074219 C17.52208008 158.16019531 18.80856445 158.05964844 20.1340332 157.95605469 C34.22049349 156.55598054 57.7974556 153.700912 67.2355957 142.26074219 C67.5655957 141.27074219 67.8955957 140.28074219 68.2355957 139.26074219 C68.8955957 139.26074219 69.5555957 139.26074219 70.2355957 139.26074219 C78.03891247 123.59552773 78.03891247 123.59552773 84.2355957 107.26074219 C84.5346582 106.34679687 84.8337207 105.43285156 85.1418457 104.49121094 C86.00905817 101.76718468 86.83861944 99.03531436 87.64086914 96.29150391 C88.06637045 94.83858113 88.49733056 93.38725259 88.93188477 91.93701172 C94.33076402 73.80114159 97.9585244 55.42437658 99.1105957 36.51074219 C99.15998291 35.74286377 99.20937012 34.97498535 99.26025391 34.18383789 C99.43582617 30.0900856 99.54228625 26.7270123 97.2355957 23.26074219 C91.09529705 19.56971189 84.0431052 19.12153785 77.0480957 18.19824219 C75.91178711 18.03775391 74.77547852 17.87726563 73.60473633 17.71191406 C70.49327225 17.28410923 67.37992328 16.88676721 64.2618103 16.51074219 C62.91493604 16.34456109 61.56903494 16.17028564 60.22427368 15.98779297 C43.64552821 13.75275233 26.97138461 13.88585021 10.27636719 13.89013672 C6.97340843 13.89029859 3.67100837 13.87649047 0.36816406 13.84912109 C-41.76748971 11.53155083 -41.76748971 11.53155083 -79.41064453 23.75952148 Z M186.2355957 18.26074219 C185.17219971 18.41104385 184.10880371 18.56134552 183.01318359 18.71620178 C180.46139381 19.07937371 177.91027714 19.44557101 175.3605957 19.82324219 C174.32304893 19.975271 174.32304893 19.975271 173.26454163 20.13037109 C169.47983094 20.77264349 167.0219192 21.60221137 164.2355957 24.26074219 C163.33329091 27.95858774 163.57384592 31.77882759 163.6105957 35.57324219 C163.61607422 36.71446533 163.62155273 37.85568848 163.62719727 39.03149414 C163.95832607 53.10922583 166.977067 66.60754874 170.2355957 80.26074219 C170.43765625 81.11925781 170.6397168 81.97777344 170.84790039 82.86230469 C172.55249108 89.99115757 174.69338098 96.86864083 177.3059082 103.71386719 C178.22371601 106.22819782 178.96026107 108.74422252 179.6730957 111.32324219 C180.9823525 115.83051968 182.87997343 119.8202883 185.05981445 123.96777344 C186.2355957 126.26074219 186.2355957 126.26074219 187.5480957 129.63574219 C190.62751296 136.25078667 194.73185014 144.49899388 201.2355957 148.26074219 C203.88535111 149.19028205 206.47396882 150.01259674 209.1730957 150.76074219 C210.31089478 151.08328979 210.31089478 151.08328979 211.47167969 151.41235352 C239.91732252 159.37665427 278.07328178 165.31175259 306.3605957 153.38574219 C307.58262695 152.87140625 307.58262695 152.87140625 308.8293457 152.34667969 C312.35656841 150.75484866 315.80015322 149.04208273 319.2355957 147.26074219 C319.2355957 146.60074219 319.2355957 145.94074219 319.2355957 145.26074219 C319.8955957 145.26074219 320.5555957 145.26074219 321.2355957 145.26074219 C321.5655957 143.94074219 321.8955957 142.62074219 322.2355957 141.26074219 C322.8955957 141.26074219 323.5555957 141.26074219 324.2355957 141.26074219 C330.38203614 130.72096975 334.73482999 120.18785342 337.2355957 108.26074219 C337.56761831 106.76956432 337.90094669 105.27867658 338.2355957 103.78808594 C343.6874805 79.02286577 347.12964133 50.58896937 343.2355957 25.26074219 C340.31057344 20.8732088 336.38189574 20.84466704 331.4874115 19.85693359 C328.7382826 19.31691084 325.98752073 18.78633438 323.2355957 18.26074219 C322.3178688 18.08465927 321.40014191 17.90857635 320.4546051 17.72715759 C301.44048456 14.20581199 282.86481432 13.63130801 263.59570312 13.73925781 C259.51440999 13.76191312 255.43416908 13.74857619 251.3529129 13.72547245 C229.36291121 13.62052843 208.00545397 15.14714484 186.2355957 18.26074219 Z " fill="#29292C" transform="translate(118.764404296875,163.7392578125)"/>
<path d="M0 0 C1.67542976 0.28604898 3.34385343 0.61781233 5 1 C4.67 2.65 4.34 4.3 4 6 C4.66 6 5.32 6 6 6 C6.94443588 8.83330763 7.11708491 10.52561232 7.09765625 13.45556641 C7.09435303 14.35304596 7.0910498 15.25052551 7.08764648 16.17520142 C7.07934814 17.14090057 7.0710498 18.10659973 7.0625 19.1015625 C7.05871338 20.09376801 7.05492676 21.08597351 7.05102539 22.10824585 C7.03879413 25.28054097 7.02015653 28.45274591 7 31.625 C6.97353034 35.80468489 6.95348223 39.98432587 6.9375 44.1640625 C6.92920166 45.13381012 6.92090332 46.10355774 6.91235352 47.10269165 C6.90905029 47.99386688 6.90574707 48.88504211 6.90234375 49.80322266 C6.89710693 50.5913736 6.89187012 51.37952454 6.88647461 52.19155884 C6.80122085 54.02169285 6.80122085 54.02169285 8 55 C8.32353433 57.12237766 8.5895907 59.25355585 8.83203125 61.38671875 C8.99242481 62.73247125 9.15324759 64.07817265 9.31445312 65.42382812 C9.56262701 67.53342724 9.80753655 69.64322646 10.04418945 71.75415039 C11.14709369 81.50792333 12.95988026 90.62237111 16 100 C16.25982666 100.80203857 16.51965332 101.60407715 16.78735352 102.43041992 C19.64666018 110.889491 22.99991806 118.57049972 28 126 C28.39445312 126.61617188 28.78890625 127.23234375 29.1953125 127.8671875 C30.65871708 130.13275459 32.08735618 132.08735618 34 134 C33.34 134 32.68 134 32 134 C32 136.64 32 139.28 32 142 C32.66 142 33.32 142 34 142 C34 142.99 34 143.98 34 145 C26.97309323 145 23.81222055 142.69970192 18.6875 138.0078125 C17 136 17 136 17 133 C16.34 133 15.68 133 15 133 C5.80443329 117.10143777 0.49490118 101.97495725 -3 84 C-3.26731934 82.70509644 -3.26731934 82.70509644 -3.54003906 81.3840332 C-5.01936985 73.89337727 -5.64533615 66.42648581 -6.125 58.8125 C-6.20919189 57.50692139 -6.29338379 56.20134277 -6.38012695 54.85620117 C-6.89356271 46.50872329 -7.18081731 38.17589175 -7.1875 29.8125 C-7.18830566 28.87704346 -7.18911133 27.94158691 -7.18994141 26.9777832 C-7.06181461 11.18544383 -7.06181461 11.18544383 -5 5 C-4.34 5 -3.68 5 -3 5 C-2.690625 4.360625 -2.38125 3.72125 -2.0625 3.0625 C-1 1 -1 1 0 0 Z " fill="#242327" transform="translate(31,180)"/>
<path d="M0 0 C0.66 0 1.32 0 2 0 C2.66 0.66 3.32 1.32 4 2 C4.66 2 5.32 2 6 2 C6.66 3.65 7.32 5.3 8 7 C9.32 7 10.64 7 12 7 C12.33 6.01 12.66 5.02 13 4 C13.33 4.66 13.66 5.32 14 6 C13.04956626 7.33897583 12.08940853 8.67105427 11.125 10 C10.59132812 10.7425 10.05765625 11.485 9.5078125 12.25 C9.01023438 12.8275 8.51265625 13.405 8 14 C7.34 14 6.68 14 6 14 C5.76796875 14.60585938 5.5359375 15.21171875 5.296875 15.8359375 C2.19912678 21.00507158 -6.3891561 23.56466784 -12 25 C-14.875 25.125 -14.875 25.125 -17 25 C-14.03312999 23.35173889 -11.34373475 22.55728913 -8 22 C-8 21.01 -8 20.02 -8 19 C-8.66 18.67 -9.32 18.34 -10 18 C-9.34 16.35 -8.68 14.7 -8 13 C-9.98 12.34 -11.96 11.68 -14 11 C-11 9 -11 9 -7.5625 7.75 C-3.48147489 5.74528591 -2.29629028 3.82715047 0 0 Z " fill="#403F42" transform="translate(187,303)"/>
<path d="M0 0 C1.32 0 2.64 0 4 0 C5.35439668 2.70879335 5.06501451 5.00933268 5 8 C5.66 8 6.32 8 7 8 C7 8.99 7 9.98 7 11 C4.125 10.6875 4.125 10.6875 1 10 C0.34 9.01 -0.32 8.02 -1 7 C-0.01 5.68 0.98 4.36 2 3 C1.34 2.01 0.68 1.02 0 0 Z " fill="#0C0B10" transform="translate(58,314)"/>
<path d="M0 0 C0.82078795 3.11105109 1.34034484 5.76672403 1 9 C0.01 9.66 -0.98 10.32 -2 11 C-3.21284876 14.05429073 -3.21284876 14.05429073 -4 17 C-4.66 17 -5.32 17 -6 17 C-5.19534869 13.26345828 -3.82425115 9.80577218 -2.4375 6.25 C-1.98246094 5.07953125 -1.52742188 3.9090625 -1.05859375 2.703125 C-0.53458984 1.36507813 -0.53458984 1.36507813 0 0 Z " fill="#909092" transform="translate(453,281)"/>
<path d="M0 0 C2.4375 0.8125 2.4375 0.8125 5 2 C5.33 2.99 5.66 3.98 6 5 C4.02 5.99 4.02 5.99 2 7 C1.67 6.34 1.34 5.68 1 5 C0.01 4.67 -0.98 4.34 -2 4 C-1.34 2.68 -0.68 1.36 0 0 Z " fill="#0C0B0F" transform="translate(187,312)"/>
<path d="M0 0 C0.33 0 0.66 0 1 0 C2.44767442 8.98255814 2.44767442 8.98255814 0.625 13.125 C0.08875 13.74375 -0.4475 14.3625 -1 15 C-1.33 15 -1.66 15 -2 15 C-2.22577402 9.5814234 -1.46670113 5.22512279 0 0 Z " fill="#7F7F80" transform="translate(457,264)"/>
<path d="M0 0 C0.66 0.33 1.32 0.66 2 1 C2 1.99 2 2.98 2 4 C-4.6 3.34 -11.2 2.68 -18 2 C-18 1.67 -18 1.34 -18 1 C-16.17662109 1.01740234 -16.17662109 1.01740234 -14.31640625 1.03515625 C-12.73177236 1.04453278 -11.14713682 1.05363313 -9.5625 1.0625 C-8.76005859 1.07087891 -7.95761719 1.07925781 -7.13085938 1.08789062 C-5.08704779 1.0965143 -3.04316098 1.0522815 -1 1 C-0.67 0.67 -0.34 0.34 0 0 Z " fill="#757577" transform="translate(433,177)"/>
<path d="M0 0 C0.99 0.33 1.98 0.66 3 1 C3 1.99 3 2.98 3 4 C3.99 3.67 4.98 3.34 6 3 C6 5.64 6 8.28 6 11 C2.1334716 7.777893 1.11940982 4.85077588 0 0 Z " fill="#6D6D6F" transform="translate(295,299)"/>
<path d="M0 0 C0 4.38968456 -2.12805101 5.76905739 -5 9 C-5.625 7.1875 -5.625 7.1875 -6 5 C-3.9927092 1.9890638 -3.16115776 1.36983503 0 0 Z " fill="#6D6D6E" transform="translate(455,308)"/>
<path d="M0 0 C0.433125 0.495 0.86625 0.99 1.3125 1.5 C2.99740483 3.33218192 2.99740483 3.33218192 6 3 C5.01 4.485 5.01 4.485 4 6 C3.83300768 9.12521833 3.83300768 9.12521833 4 12 C1.07034088 9.07034088 0.05866431 6.319947 -0.125 2.1875 C-0.08375 1.465625 -0.0425 0.74375 0 0 Z " fill="#89898A" transform="translate(33,281)"/>
<path d="M0 0 C0.66 0.33 1.32 0.66 2 1 C0.38731308 3.71224618 -1.24901874 6.37352812 -3 9 C-3.66 9 -4.32 9 -5 9 C-3.90931332 5.22454612 -3.0916909 2.52956528 0 0 Z " fill="#89898A" transform="translate(31,176)"/>
<path d="M0 0 C1.0326802 2.78823655 1.04509293 3.8677274 0.0625 6.75 C-0.288125 7.4925 -0.63875 8.235 -1 9 C-1.66 9 -2.32 9 -3 9 C-2.30058404 5.85262818 -1.23921302 2.97411124 0 0 Z " fill="#929292" transform="translate(197,284)"/>
<path d="M0 0 C0.33 0 0.66 0 1 0 C1.36923077 7.50769231 1.36923077 7.50769231 -0.5 10 C-0.995 10.33 -1.49 10.66 -2 11 C-1 3.57142857 -1 3.57142857 0 0 Z " fill="#AFAEB1" transform="translate(209,247)"/>
</svg>
