<?xml version="1.0" encoding="UTF-8"?>
<svg version="1.1" xmlns="http://www.w3.org/2000/svg" width="259" height="133">
<path d="M0 0 C85.47 0 170.94 0 259 0 C259 43.89 259 87.78 259 133 C173.53 133 88.06 133 0 133 C0 89.11 0 45.22 0 0 Z " fill="#FCFDFD" transform="translate(0,0)"/>
<path d="M0 0 C1.08235931 -0.00392761 1.08235931 -0.00392761 2.18658447 -0.00793457 C17.78722189 -0.01399223 32.33470469 2.38443794 47.48193359 6.02709961 C65.31265509 10.23622472 80.10674579 7.324568 97.53125 2.94140625 C120.58245453 -2.74234571 145.43753094 -0.12528979 168.3125 5.3125 C169.40901823 8.72389003 169.25465473 11.51905581 168.875 15.0625 C168.77316406 16.04734375 168.67132813 17.0321875 168.56640625 18.046875 C168.48261719 18.79453125 168.39882812 19.5421875 168.3125 20.3125 C166.3325 20.9725 164.3525 21.6325 162.3125 22.3125 C161.9825 24.6225 161.6525 26.9325 161.3125 29.3125 C158.6725 29.3125 156.0325 29.3125 153.3125 29.3125 C153.20292969 28.43207031 153.09335938 27.55164063 152.98046875 26.64453125 C152.82191406 25.48308594 152.66335937 24.32164063 152.5 23.125 C152.34917969 21.97644531 152.19835937 20.82789062 152.04296875 19.64453125 C151.28777929 16.19973653 150.46834942 14.09060596 148.3125 11.3125 C146.1362196 9.90450459 146.1362196 9.90450459 143.625 9.0625 C142.81675781 8.74796875 142.00851563 8.4334375 141.17578125 8.109375 C126.45400705 4.01218273 106.32328115 3.99008622 92.3125 10.3125 C86.64619729 13.77924729 86.64619729 13.77924729 83.3125 19.3125 C82.78524025 22.97230294 82.49999229 26.62084144 82.3125 30.3125 C79.1875 30.875 79.1875 30.875 75.3125 30.3125 C73.7578125 28.30859375 73.7578125 28.30859375 72.3125 25.8125 C70.93322122 23.34434888 70.93322122 23.34434888 69.3125 21.3125 C65.68198329 20.31118515 65.68198329 20.31118515 62.3125 21.3125 C59.92836256 22.93030755 59.28581024 24.36988298 58.0625 27 C57.485 27.763125 56.9075 28.52625 56.3125 29.3125 C52.625 29.625 52.625 29.625 49.3125 29.3125 C49.22613281 28.50425781 49.13976562 27.69601563 49.05078125 26.86328125 C48.22671349 20.10271323 48.22671349 20.10271323 45 14.25 C30.92071386 4.09981697 10.97834432 4.68819076 -5.625 7.125 C-10.83440039 8.19359495 -15.16306687 9.24362646 -18.4375 13.6875 C-18.85 14.55375 -19.2625 15.42 -19.6875 16.3125 C-20.05875 17.055 -20.43 17.7975 -20.8125 18.5625 C-22.04030905 22.42132843 -22.35443546 26.28943095 -22.6875 30.3125 C-24.9975 30.3125 -27.3075 30.3125 -29.6875 30.3125 C-30.0175 27.3425 -30.3475 24.3725 -30.6875 21.3125 C-32.9975 20.9825 -35.3075 20.6525 -37.6875 20.3125 C-37.6875 15.3625 -37.6875 10.4125 -37.6875 5.3125 C-31.29187264 3.42660988 -25.33883069 1.97066942 -18.68359375 1.5234375 C-4.41024977 0.01509978 -4.41024977 0.01509978 0 0 Z " fill="#1C5C58" transform="translate(73.6875,23.6875)"/>
<path d="M0 0 C1.32 0 2.64 0 4 0 C4 3.96 4 7.92 4 12 C9.58500567 11.80101292 9.58500567 11.80101292 14 9 C14.16677282 5.41656024 14.16677282 5.41656024 14 2 C12.68 1.34 11.36 0.68 10 0 C16.75 0.75 16.75 0.75 19 3 C18.8125 6.5 18.8125 6.5 18 10 C17.01 10.66 16.02 11.32 15 12 C15.969375 12.639375 16.93875 13.27875 17.9375 13.9375 C21 16 21 16 22 17 C22.70983213 24.09832134 22.70983213 24.09832134 19.6875 27.9375 C15.32845362 31.28281466 11.57881019 31.12642347 6.3125 31.0625 C5.61060547 31.05798828 4.90871094 31.05347656 4.18554688 31.04882812 C2.45699462 31.03706927 0.72848635 31.01913454 -1 31 C-0.67 30.34 -0.34 29.68 0 29 C0.08559118 26.82175039 0.10713412 24.64084745 0.09765625 22.4609375 C0.09443359 21.15898438 0.09121094 19.85703125 0.08789062 18.515625 C0.07953466 17.13541601 0.07106971 15.75520768 0.0625 14.375 C0.05748501 12.98698074 0.0529221 11.59895978 0.04882812 10.2109375 C0.03700976 6.80724868 0.02053434 3.40364561 0 0 Z " fill="#376864" transform="translate(64,62)"/>
<path d="M0 0 C1.65 0 3.3 0 5 0 C4.67 4.62 4.34 9.24 4 14 C9.61 14 15.22 14 21 14 C20.67 9.38 20.34 4.76 20 0 C21.98 0 23.96 0 26 0 C25.99476318 0.86802246 25.98952637 1.73604492 25.98413086 2.63037109 C25.96710138 5.84700273 25.95455592 9.06361141 25.94506836 12.28027344 C25.9400357 13.67318477 25.93320902 15.0660908 25.92456055 16.45898438 C25.91244848 18.45961246 25.90729588 20.46027888 25.90234375 22.4609375 C25.89710693 23.66540527 25.89187012 24.86987305 25.88647461 26.11083984 C25.79912109 28.9413677 25.79912109 28.9413677 27 31 C24.69 31 22.38 31 20 31 C20.33 25.72 20.66 20.44 21 15 C15.39 15 9.78 15 4 15 C4.144375 17.26875 4.28875 19.5375 4.4375 21.875 C4.51871094 23.15117188 4.59992188 24.42734375 4.68359375 25.7421875 C4.79206027 28.88300152 4.79206027 28.88300152 6 31 C3.69 31 1.38 31 -1 31 C-0.67 30.34 -0.34 29.68 0 29 C0.08559118 26.82175039 0.10713412 24.64084745 0.09765625 22.4609375 C0.09443359 21.15898438 0.09121094 19.85703125 0.08789062 18.515625 C0.07953466 17.13541601 0.07106971 15.75520768 0.0625 14.375 C0.05748501 12.98698074 0.0529221 11.59895978 0.04882812 10.2109375 C0.03700976 6.80724868 0.02053434 3.40364561 0 0 Z " fill="#31615E" transform="translate(164,62)"/>
<path d="M0 0 C1.65 0 3.3 0 5 0 C5 4.62 5 9.24 5 14 C10.33195233 13.30950866 10.33195233 13.30950866 15 11 C15.50070321 7.62642666 15.50070321 7.62642666 15 4 C12.64167228 1.52791204 12.64167228 1.52791204 10 0 C16.27455919 0.59193955 16.27455919 0.59193955 19 2.125 C20.70657378 5.32482583 19.95196177 7.6086362 19 11 C16.4375 13.4375 16.4375 13.4375 14 15 C14.5775 15.474375 15.155 15.94875 15.75 16.4375 C18.88263794 20.00522654 22 25.10642001 22 30 C22.66 30.33 23.32 30.66 24 31 C21.6875 30.8125 21.6875 30.8125 19 30 C17.31441003 27.77502124 16.21959048 25.54325228 15.17578125 22.9609375 C14.87027344 22.25195312 14.56476563 21.54296875 14.25 20.8125 C13.98703125 20.13832031 13.7240625 19.46414062 13.453125 18.76953125 C11.59690692 16.16714159 11.59690692 16.16714159 5 15 C5.33 20.28 5.66 25.56 6 31 C4.02 31 2.04 31 0 31 C0 20.77 0 10.54 0 0 Z " fill="#256168" transform="translate(91,62)"/>
<path d="M0 0 C4.46641443 -0.35030701 7.94914438 -0.49325876 12.0625 1.4375 C14.52567706 4.69525031 14.72799275 6.85482634 14.4765625 10.87109375 C14 13 14 13 12 15.5625 C7.98473627 17.48648054 5.42333888 17.36861157 1 17 C0 16 0 16 -0.09765625 12.40234375 C-0.0909822 10.91403133 -0.07902183 9.42573568 -0.0625 7.9375 C-0.05798828 7.17888672 -0.05347656 6.42027344 -0.04882812 5.63867188 C-0.0370068 3.75908129 -0.01907078 1.87953101 0 0 Z " fill="#F6FBFB" transform="translate(68,75)"/>
<path d="M0 0 C0 1.65 0 3.3 0 5 C-0.845625 4.360625 -1.69125 3.72125 -2.5625 3.0625 C-5.99268286 0.80261482 -8.84204201 0.07424925 -13 0 C-16.3201606 1.31553533 -18.4805934 2.4805934 -21 5 C-21.7239358 11.8068769 -21.86111503 18.13110515 -18 24 C-17.67 24.99 -17.34 25.98 -17 27 C-13.3091987 28.62395257 -8.93338994 28.18730428 -5 28 C-4.01 27.34 -3.02 26.68 -2 26 C-1.59912669 24.09293424 -1.59912669 24.09293424 -1.75 22 C-1.76546875 21.29875 -1.7809375 20.5975 -1.796875 19.875 C-1.89956666 17.91063372 -1.89956666 17.91063372 -3 16 C-1.02 16 0.96 16 3 16 C3.42548614 19.09997046 3.57404452 21.91257135 3 25 C0.26940266 28.5823433 -3.59717025 30.17490761 -7.9375 31 C-12.39855259 31.28529987 -16.16772672 30.29281307 -20 28 C-23.12707975 25.08964855 -25.80505822 21.95580929 -26.23828125 17.609375 C-26.39636908 11.51883322 -26.26490941 7.7259807 -22 3 C-15.0416432 -3.27949273 -8.47763593 -2.76820765 0 0 Z " fill="#1F5E61" transform="translate(156,63)"/>
<path d="M0 0 C7.59 0 15.18 0 23 0 C23 1.65 23 3.3 23 5 C22.67 4.34 22.34 3.68 22 3 C19.36 2.67 16.72 2.34 14 2 C14.33 11.9 14.66 21.8 15 32 C12.69 32 10.38 32 8 32 C8.33 31.34 8.66 30.68 9 30 C9.15441209 27.89625004 9.24992639 25.78804881 9.31640625 23.6796875 C9.35830078 22.42285156 9.40019531 21.16601562 9.44335938 19.87109375 C9.48267578 18.55238281 9.52199219 17.23367187 9.5625 15.875 C9.60569512 14.53514249 9.64930973 13.19529844 9.69335938 11.85546875 C9.79970981 8.57042185 9.90173808 5.28529719 10 2 C4.6913151 2.58174845 4.6913151 2.58174845 0 5 C0 3.35 0 1.7 0 0 Z " fill="#135451" transform="translate(194,61)"/>
<path d="M0 0 C3.63 0 7.26 0 11 0 C11 0.66 11 1.32 11 2 C11.804375 2.309375 12.60875 2.61875 13.4375 2.9375 C16 4 16 4 17 5 C17.58139535 11.27906977 17.58139535 11.27906977 15.4375 13.9375 C13 15 13 15 6 15 C6 10.38 6 5.76 6 1 C4.02 1.33 2.04 1.66 0 2 C0 1.34 0 0.68 0 0 Z " fill="#F6F5F0" transform="translate(90,61)"/>
<path d="M0 0 C1.98 0 3.96 0 6 0 C5.99214478 1.30203369 5.99214478 1.30203369 5.98413086 2.63037109 C5.96710138 5.84700273 5.95455592 9.06361141 5.94506836 12.28027344 C5.9400357 13.67318477 5.93320902 15.0660908 5.92456055 16.45898438 C5.91244848 18.45961246 5.90729588 20.46027888 5.90234375 22.4609375 C5.89448853 24.26763916 5.89448853 24.26763916 5.88647461 26.11083984 C5.79912109 28.9413677 5.79912109 28.9413677 7 31 C4.69 31 2.38 31 0 31 C0 20.77 0 10.54 0 0 Z " fill="#35615C" transform="translate(118,62)"/>
<path d="M0 0 C11.01980198 -0.77970297 11.01980198 -0.77970297 14.75 2.1875 C16.07676226 5.17271508 16.59116797 6.79080246 16 10 C15 11.8125 15 11.8125 13 13 C10.28125957 13.24667073 7.74116148 13.13481122 5 13 C5 9.04 5 5.08 5 1 C3.35 1.33 1.7 1.66 0 2 C0 1.34 0 0.68 0 0 Z " fill="#E9F0EE" transform="translate(63,61)"/>
<path d="M0 0 C1.89128342 1.89128342 1.2366852 4.57067726 1.328125 7.08984375 C1.21984375 7.72019531 1.1115625 8.35054687 1 9 C-2.23253796 11.15502531 -3.25150923 11.46856135 -7 11 C-8.8125 9.875 -8.8125 9.875 -10 8 C-10.39310741 4.85514075 -10.47555213 2.86718329 -8.9375 0.0625 C-5.84787273 -1.63181173 -3.32782582 -0.73951685 0 0 Z " fill="#A8C1C3" transform="translate(173,106)"/>
<path d="M0 0 C1.32 0 2.64 0 4 0 C4 3.96 4 7.92 4 12 C6.64 12 9.28 12 12 12 C12 12.33 12 12.66 12 13 C9.36 13 6.72 13 4 13 C4.14053872 15.62538284 4.28718947 18.25017427 4.4375 20.875 C4.47681641 21.62136719 4.51613281 22.36773437 4.55664062 23.13671875 C4.71573624 27.19986864 4.71573624 27.19986864 6 31 C3.69 31 1.38 31 -1 31 C-0.67 30.34 -0.34 29.68 0 29 C0.08559118 26.82175039 0.10713412 24.64084745 0.09765625 22.4609375 C0.09443359 21.15898438 0.09121094 19.85703125 0.08789062 18.515625 C0.07953466 17.13541601 0.07106971 15.75520768 0.0625 14.375 C0.05748501 12.98698074 0.0529221 11.59895978 0.04882812 10.2109375 C0.03700976 6.80724868 0.02053434 3.40364561 0 0 Z " fill="#135558" transform="translate(64,62)"/>
<path d="M0 0 C1.65 0 3.3 0 5 0 C4.99214478 1.30203369 4.99214478 1.30203369 4.98413086 2.63037109 C4.96710138 5.84700273 4.95455592 9.06361141 4.94506836 12.28027344 C4.9400357 13.67318477 4.93320902 15.0660908 4.92456055 16.45898438 C4.91244848 18.45961246 4.90729588 20.46027888 4.90234375 22.4609375 C4.89448853 24.26763916 4.89448853 24.26763916 4.88647461 26.11083984 C4.79912109 28.9413677 4.79912109 28.9413677 6 31 C3.69 31 1.38 31 -1 31 C-0.67 30.34 -0.34 29.68 0 29 C0.08559118 26.82175039 0.10713412 24.64084745 0.09765625 22.4609375 C0.09443359 21.15898438 0.09121094 19.85703125 0.08789062 18.515625 C0.07953466 17.13541601 0.07106971 15.75520768 0.0625 14.375 C0.05748501 12.98698074 0.0529221 11.59895978 0.04882812 10.2109375 C0.03700976 6.80724868 0.02053434 3.40364561 0 0 Z " fill="#125457" transform="translate(164,62)"/>
<path d="M0 0 C7.59 0 15.18 0 23 0 C23 1.65 23 3.3 23 5 C22.67 4.34 22.34 3.68 22 3 C19.36 2.67 16.72 2.34 14 2 C14 11.24 14 20.48 14 30 C13.67 30 13.34 30 13 30 C13 20.43 13 10.86 13 1 C3.82495791 2.17504209 3.82495791 2.17504209 0 5 C0 3.35 0 1.7 0 0 Z " fill="#5BA4C0" transform="translate(194,61)"/>
<path d="M0 0 C0 1.65 0 3.3 0 5 C-0.845625 4.360625 -1.69125 3.72125 -2.5625 3.0625 C-5.99268286 0.80261482 -8.84204201 0.07424925 -13 0 C-16.3201606 1.31553533 -18.4805934 2.4805934 -21 5 C-21.46290221 7.66242821 -21.46290221 7.66242821 -21.625 10.625 C-21.69976562 11.62789062 -21.77453125 12.63078125 -21.8515625 13.6640625 C-21.90054688 14.43492188 -21.94953125 15.20578125 -22 16 C-22.33 16 -22.66 16 -23 16 C-23.33 14.02 -23.66 12.04 -24 10 C-24.66 10.99 -25.32 11.98 -26 13 C-25.71266372 7.10960628 -23.19213728 3.86574216 -19 0 C-12.85872664 -3.6217766 -6.39411885 -2.08787554 0 0 Z " fill="#5D8B94" transform="translate(156,63)"/>
<path d="M0 0 C3.99996286 1.33332095 4.83782337 3.4957827 7 7 C7.33 4.69 7.66 2.38 8 0 C8.66 0 9.32 0 10 0 C10 3.96 10 7.92 10 12 C5.82200357 9.91100178 5.07608099 8.94455388 3 5 C2.67 7.31 2.34 9.62 2 12 C1.34 12 0.68 12 0 12 C0 8.04 0 4.08 0 0 Z " fill="#5C827D" transform="translate(190,105)"/>
<path d="M0 0 C1.98 0 3.96 0 6 0 C6.42548614 3.09997046 6.57404452 5.91257135 6 9 C3.59530027 12.15478955 0.5717497 13.63644746 -3.24609375 14.51953125 C-5.15376527 14.77456755 -7.07801628 14.89884296 -9 15 C-8.67 14.34 -8.34 13.68 -8 13 C-6.1875 12.40234375 -6.1875 12.40234375 -4 11.9375 C-1.22885123 11.48293377 -1.22885123 11.48293377 1 10 C1.37052339 4.82264323 1.37052339 4.82264323 0 0 Z " fill="#40797F" transform="translate(153,79)"/>
<path d="M0 0 C6.27455919 0.59193955 6.27455919 0.59193955 9 2.125 C10.68385831 5.28223433 9.89702275 7.65111508 9 11 C6.9375 12.9375 6.9375 12.9375 5 14 C4.34 13.67 3.68 13.34 3 13 C3.66 12.34 4.32 11.68 5 11 C5.58369443 7.58461856 5.58369443 7.58461856 5 4 C2.64167228 1.52791204 2.64167228 1.52791204 0 0 Z " fill="#245E63" transform="translate(101,62)"/>
<path d="M0 0 C6.75 0.75 6.75 0.75 9 3 C8.9375 6.375 8.9375 6.375 8 10 C5.4375 12.4375 5.4375 12.4375 3 14 C3 10 3 10 4 9 C4.04092937 6.66702567 4.04241723 4.33294775 4 2 C2.68 1.34 1.36 0.68 0 0 Z " fill="#2A6569" transform="translate(74,62)"/>
<path d="M0 0 C0.66 0 1.32 0 2 0 C2 3.96 2 7.92 2 12 C1.01 11.67 0.02 11.34 -1 11 C-0.67 7.37 -0.34 3.74 0 0 Z " fill="#447D94" transform="translate(198,105)"/>
<path d="M0 0 C2.97 0 5.94 0 9 0 C9 1.65 9 3.3 9 5 C8.67 4.34 8.34 3.68 8 3 C6.10466658 2.53476937 6.10466658 2.53476937 3.9375 2.375 C2.638125 2.25125 1.33875 2.1275 0 2 C0 1.34 0 0.68 0 0 Z " fill="#7D9895" transform="translate(208,61)"/>
<path d="M0 0 C2.31 0.33 4.62 0.66 7 1 C7 2.65 7 4.3 7 6 C5.83054208 5.19152271 4.66449539 4.37810888 3.5 3.5625 C2.8503125 3.11003906 2.200625 2.65757813 1.53125 2.19140625 C1.0259375 1.79824219 0.520625 1.40507813 0 1 C0 0.67 0 0.34 0 0 Z " fill="#2F6065" transform="translate(149,62)"/>
<path d="M0 0 C1.98 0.495 1.98 0.495 4 1 C3.67 2.32 3.34 3.64 3 5 C1.68 4.34 0.36 3.68 -1 3 C-0.67 2.01 -0.34 1.02 0 0 Z " fill="#DCEAEA" transform="translate(124,106)"/>
</svg>
