<?xml version="1.0" encoding="UTF-8"?>
<svg version="1.1" xmlns="http://www.w3.org/2000/svg" width="500" height="500">
<path d="M0 0 C3.72336346 0.0031519 7.44592416 -0.02033265 11.16918945 -0.0456543 C28.29738261 -0.09204335 44.81926621 0.81132686 61.24926758 6.06567383 C62.07185059 6.32243896 62.89443359 6.5792041 63.74194336 6.84375 C85.93700143 13.97404643 106.0689206 26.21846146 122.06176758 43.31567383 C124.49989769 45.78593745 126.95485062 48.21646722 129.49926758 50.57739258 C169.89758027 88.82030749 189.45242178 153.0370553 191.18603516 207.19799805 C191.28083323 211.59132065 191.30835067 215.98391599 191.31176758 220.37817383 C191.31244232 221.16502563 191.31311707 221.95187744 191.31381226 222.76257324 C191.27336808 252.70336252 186.63266417 281.92254655 177.06176758 310.31567383 C176.59843018 311.69891846 176.59843018 311.69891846 176.12573242 313.11010742 C166.16473362 342.34443492 151.5831763 369.03468598 130.06176758 391.31567383 C128.98754429 392.57661313 127.92305973 393.84600433 126.87426758 395.12817383 C123.62867616 398.95300678 119.89582327 402.09688045 116.06176758 405.31567383 C115.17489258 406.09040039 114.28801758 406.86512695 113.37426758 407.66333008 C87.06105999 430.30248607 54.41411817 442.38754233 19.69848633 442.51879883 C18.51188919 442.5244989 17.32529205 442.53019897 16.10273743 442.53607178 C13.59389121 442.54549158 11.0850328 442.55204371 8.57617188 442.5559082 C4.79965611 442.56554524 1.02370119 442.5965702 -2.75268555 442.62817383 C-19.94053192 442.70434947 -36.50164992 441.8722105 -53.00073242 436.62817383 C-53.81670898 436.37471191 -54.63268555 436.12125 -55.47338867 435.86010742 C-68.96945497 431.52022654 -81.55326677 425.8429979 -92.93823242 417.31567383 C-93.49462402 416.89914551 -94.05101562 416.48261719 -94.62426758 416.0534668 C-104.87237546 408.32570968 -114.96844107 400.2139063 -123.22338867 390.32739258 C-124.3928587 388.95546304 -125.61245704 387.62510437 -126.87182617 386.33520508 C-167.03616976 344.69694062 -183.14451528 278.47490038 -183.18823242 222.25317383 C-183.18924454 221.07289612 -183.18924454 221.07289612 -183.1902771 219.86877441 C-183.13122689 176.15396301 -173.34808819 130.76099756 -151.93823242 92.31567383 C-151.59324707 91.6943457 -151.24826172 91.07301758 -150.89282227 90.43286133 C-143.07969608 76.54285922 -133.80678049 63.96627609 -122.93823242 52.31567383 C-121.58161268 50.75530321 -120.22739447 49.19284099 -118.87573242 47.62817383 C-115.16546466 43.46861583 -111.24014923 39.85234582 -106.93823242 36.31567383 C-106.41874023 35.87852051 -105.89924805 35.44136719 -105.36401367 34.9909668 C-87.78474365 20.22141718 -69.32624624 10.41811563 -47.06323242 4.44067383 C-46.35199219 4.24957031 -45.64075195 4.0584668 -44.90795898 3.86157227 C-42.59420854 3.28234624 -40.27665732 2.78563686 -37.93823242 2.31567383 C-36.59619751 2.03639038 -36.59619751 2.03639038 -35.22705078 1.75146484 C-23.57857021 -0.29281395 -11.78884742 -0.0208379 0 0 Z " fill="#E5AF19" transform="translate(245.938232421875,28.684326171875)"/>
<path d="M0 0 C3.72336346 0.0031519 7.44592416 -0.02033265 11.16918945 -0.0456543 C28.29738261 -0.09204335 44.81926621 0.81132686 61.24926758 6.06567383 C62.07185059 6.32243896 62.89443359 6.5792041 63.74194336 6.84375 C85.93700143 13.97404643 106.0689206 26.21846146 122.06176758 43.31567383 C124.49989769 45.78593745 126.95485062 48.21646722 129.49926758 50.57739258 C169.89758027 88.82030749 189.45242178 153.0370553 191.18603516 207.19799805 C191.28083323 211.59132065 191.30835067 215.98391599 191.31176758 220.37817383 C191.31244232 221.16502563 191.31311707 221.95187744 191.31381226 222.76257324 C191.27336808 252.70336252 186.63266417 281.92254655 177.06176758 310.31567383 C176.59843018 311.69891846 176.59843018 311.69891846 176.12573242 313.11010742 C166.16473362 342.34443492 151.5831763 369.03468598 130.06176758 391.31567383 C128.98754429 392.57661313 127.92305973 393.84600433 126.87426758 395.12817383 C123.62867616 398.95300678 119.89582327 402.09688045 116.06176758 405.31567383 C115.17489258 406.09040039 114.28801758 406.86512695 113.37426758 407.66333008 C87.06105999 430.30248607 54.41411817 442.38754233 19.69848633 442.51879883 C18.51188919 442.5244989 17.32529205 442.53019897 16.10273743 442.53607178 C13.59389121 442.54549158 11.0850328 442.55204371 8.57617188 442.5559082 C4.79965611 442.56554524 1.02370119 442.5965702 -2.75268555 442.62817383 C-19.94053192 442.70434947 -36.50164992 441.8722105 -53.00073242 436.62817383 C-53.81670898 436.37471191 -54.63268555 436.12125 -55.47338867 435.86010742 C-68.96945497 431.52022654 -81.55326677 425.8429979 -92.93823242 417.31567383 C-93.49462402 416.89914551 -94.05101562 416.48261719 -94.62426758 416.0534668 C-104.87237546 408.32570968 -114.96844107 400.2139063 -123.22338867 390.32739258 C-124.3928587 388.95546304 -125.61245704 387.62510437 -126.87182617 386.33520508 C-167.03616976 344.69694062 -183.14451528 278.47490038 -183.18823242 222.25317383 C-183.18924454 221.07289612 -183.18924454 221.07289612 -183.1902771 219.86877441 C-183.13122689 176.15396301 -173.34808819 130.76099756 -151.93823242 92.31567383 C-151.59324707 91.6943457 -151.24826172 91.07301758 -150.89282227 90.43286133 C-143.07969608 76.54285922 -133.80678049 63.96627609 -122.93823242 52.31567383 C-121.58161268 50.75530321 -120.22739447 49.19284099 -118.87573242 47.62817383 C-115.16546466 43.46861583 -111.24014923 39.85234582 -106.93823242 36.31567383 C-106.41874023 35.87852051 -105.89924805 35.44136719 -105.36401367 34.9909668 C-87.78474365 20.22141718 -69.32624624 10.41811563 -47.06323242 4.44067383 C-46.35199219 4.24957031 -45.64075195 4.0584668 -44.90795898 3.86157227 C-42.59420854 3.28234624 -40.27665732 2.78563686 -37.93823242 2.31567383 C-36.59619751 2.03639038 -36.59619751 2.03639038 -35.22705078 1.75146484 C-23.57857021 -0.29281395 -11.78884742 -0.0208379 0 0 Z M-14.93823242 57.31567383 C-16.11385742 57.64567383 -17.28948242 57.97567383 -18.50073242 58.31567383 C-21.85913536 59.29266377 -23.99713181 60.46893624 -26.93823242 62.31567383 C-28.51894491 63.07118191 -30.10261806 63.82050837 -31.68823242 64.56567383 C-36.24763331 66.80454382 -40.03375828 69.52246748 -43.93041992 72.76489258 C-45.93823242 74.31567383 -45.93823242 74.31567383 -47.88354492 75.21020508 C-50.77508705 76.76592071 -52.67506732 78.9470078 -54.93823242 81.31567383 C-55.84702148 82.21286133 -56.75581055 83.11004883 -57.69213867 84.03442383 C-58.61897461 84.95223633 -59.54581055 85.87004883 -60.50073242 86.81567383 C-61.43014648 87.73348633 -62.35956055 88.65129883 -63.31713867 89.59692383 C-67.9509698 93.81785367 -67.9509698 93.81785367 -69.93823242 99.31567383 C-70.59823242 99.31567383 -71.25823242 99.31567383 -71.93823242 99.31567383 C-73.59121287 101.52077555 -73.59121287 101.52077555 -75.25073242 104.31567383 C-75.87077148 105.32243164 -76.49081055 106.32918945 -77.12963867 107.36645508 C-77.72647461 108.33969727 -78.32331055 109.31293945 -78.93823242 110.31567383 C-79.42163086 111.05172852 -79.9050293 111.7877832 -80.40307617 112.54614258 C-83.915497 117.8948442 -85.91515523 123.24644224 -87.93823242 129.31567383 C-88.59823242 129.31567383 -89.25823242 129.31567383 -89.93823242 129.31567383 C-90.87518117 131.63449112 -91.80522735 133.95573019 -92.72729492 136.28051758 C-93.5410529 138.32016258 -94.36944535 140.35402398 -95.21166992 142.38208008 C-97.95029101 149.14564427 -99.79397561 155.69803728 -101.19213867 162.85473633 C-101.9187523 166.22531055 -102.86666387 169.41531336 -103.93823242 172.69067383 C-107.94068824 185.34211463 -109.60687889 198.07353814 -109.93823242 211.31567383 C-109.97078125 212.44021973 -110.00333008 213.56476563 -110.03686523 214.72338867 C-110.43411988 230.30259242 -110.22097066 245.02095012 -106.38769531 260.22705078 C-105.90986579 262.44749159 -105.65487548 264.62184285 -105.43823242 266.88208008 C-105.02723685 271.08761618 -104.09407974 274.83011661 -102.87573242 278.87817383 C-102.51350586 280.09633789 -102.1512793 281.31450195 -101.77807617 282.56958008 C-101.50092773 283.47579102 -101.2237793 284.38200195 -100.93823242 285.31567383 C-100.27823242 285.31567383 -99.61823242 285.31567383 -98.93823242 285.31567383 C-98.83510742 286.14067383 -98.73198242 286.96567383 -98.62573242 287.81567383 C-97.83248526 291.85402303 -96.46459177 295.51328305 -94.93823242 299.31567383 C-94.6262793 300.11360352 -94.31432617 300.9115332 -93.99291992 301.73364258 C-91.06749066 309.1623901 -88.16298863 316.51932688 -83.93823242 323.31567383 C-82.92322352 325.30809871 -81.91949798 327.30641578 -80.93823242 329.31567383 C-80.27823242 329.31567383 -79.61823242 329.31567383 -78.93823242 329.31567383 C-77.83726455 331.43896901 -76.87249897 333.49878844 -76.06323242 335.75317383 C-74.26724036 339.84404464 -71.55248592 342.71640212 -68.37573242 345.81567383 C-65.93823242 348.31567383 -65.93823242 348.31567383 -64.37573242 350.94067383 C-62.83526709 353.48579046 -61.46034742 354.76986141 -58.93823242 356.31567383 C-58.27823242 356.31567383 -57.61823242 356.31567383 -56.93823242 356.31567383 C-56.83510742 356.91379883 -56.73198242 357.51192383 -56.62573242 358.12817383 C-55.83186307 360.65412178 -54.98250833 361.6645279 -52.93823242 363.31567383 C-51.94823242 363.64567383 -50.95823242 363.97567383 -49.93823242 364.31567383 C-48.27156576 365.98234049 -46.60489909 367.64900716 -44.93823242 369.31567383 C-41.70161348 371.64652104 -41.70161348 371.64652104 -37.93823242 372.31567383 C-37.77323242 372.91379883 -37.60823242 373.51192383 -37.43823242 374.12817383 C-34.52631559 378.37471921 -28.7464284 379.16213802 -23.93823242 380.31567383 C-23.93823242 380.97567383 -23.93823242 381.63567383 -23.93823242 382.31567383 C-16.35841089 386.29508013 -8.86579978 388.69271925 -0.57495117 390.66723633 C2.06176758 391.31567383 2.06176758 391.31567383 5.06176758 392.31567383 C9.74535257 392.55489892 14.4352418 392.5008719 19.12426758 392.50317383 C20.41010742 392.51541992 21.69594727 392.52766602 23.02075195 392.5402832 C30.29567169 392.55142397 37.01702969 392.16333185 44.06176758 390.31567383 C45.0910437 390.04871704 45.0910437 390.04871704 46.14111328 389.77636719 C47.99683108 389.27354095 49.84225853 388.73317649 51.68676758 388.19067383 C53.50047852 387.66086914 53.50047852 387.66086914 55.35083008 387.12036133 C56.24543945 386.85481445 57.14004883 386.58926758 58.06176758 386.31567383 C58.06176758 385.65567383 58.06176758 384.99567383 58.06176758 384.31567383 C59.23932617 384.06043945 59.23932617 384.06043945 60.44067383 383.80004883 C69.71859984 381.65986467 75.33517658 379.22911458 82.06176758 372.31567383 C83.05176758 371.98567383 84.04176758 371.65567383 85.06176758 371.31567383 C85.06176758 370.65567383 85.06176758 369.99567383 85.06176758 369.31567383 C86.14458008 368.97536133 86.14458008 368.97536133 87.24926758 368.62817383 C90.60739637 367.06104706 92.52357278 364.98745782 95.06176758 362.31567383 C96.05176758 361.65567383 97.04176758 360.99567383 98.06176758 360.31567383 C98.06176758 359.65567383 98.06176758 358.99567383 98.06176758 358.31567383 C98.63926758 358.23317383 99.21676758 358.15067383 99.81176758 358.06567383 C104.58830627 356.47349426 106.62464903 352.44817919 109.06176758 348.31567383 C109.49360352 347.90188477 109.92543945 347.4880957 110.37036133 347.06176758 C112.76520613 344.5894913 114.6277136 341.77473312 116.56176758 338.94067383 C116.95235352 338.37606445 117.34293945 337.81145508 117.74536133 337.22973633 C119.47992033 334.70674141 121.13599738 332.18577167 122.65551758 329.52661133 C124.06176758 327.31567383 124.06176758 327.31567383 127.06176758 325.31567383 C128.38241159 322.75634239 128.38241159 322.75634239 129.49926758 319.75317383 C131.32554781 315.14873396 133.25163852 310.63598728 135.36254883 306.15551758 C136.2393938 304.17632707 136.2393938 304.17632707 136.06176758 301.31567383 C136.72176758 301.31567383 137.38176758 301.31567383 138.06176758 301.31567383 C138.56689002 299.71311275 139.06568385 298.10855591 139.56176758 296.50317383 C139.84020508 295.60985352 140.11864258 294.7165332 140.40551758 293.79614258 C141.18965109 291.25993987 141.18965109 291.25993987 141.06176758 288.31567383 C141.72176758 288.31567383 142.38176758 288.31567383 143.06176758 288.31567383 C143.31571289 287.06012695 143.5696582 285.80458008 143.83129883 284.51098633 C144.1787191 282.82083364 144.5263888 281.1307322 144.87426758 279.44067383 C145.03991211 278.61825195 145.20555664 277.79583008 145.3762207 276.94848633 C146.26096482 272.67500533 147.27226338 268.52335616 148.59301758 264.36254883 C161.26698472 223.16513014 151.97611185 171.96674989 135.06176758 133.31567383 C134.40176758 133.31567383 133.74176758 133.31567383 133.06176758 133.31567383 C132.90708008 132.29473633 132.90708008 132.29473633 132.74926758 131.25317383 C131.90483086 127.64512605 130.66937757 124.65950261 129.06176758 121.31567383 C128.40176758 120.98567383 127.74176758 120.65567383 127.06176758 120.31567383 C126.34017333 118.67204249 125.66825337 117.00516997 125.06176758 115.31567383 C124.40176758 115.31567383 123.74176758 115.31567383 123.06176758 115.31567383 C122.87614258 114.34629883 122.69051758 113.37692383 122.49926758 112.37817383 C121.05994663 107.25124958 117.71267734 103.11296441 114.06176758 99.31567383 C113.40176758 99.31567383 112.74176758 99.31567383 112.06176758 99.31567383 C111.79364258 98.55254883 111.52551758 97.78942383 111.24926758 97.00317383 C110.05998436 94.31163812 109.12774344 93.31311021 107.06176758 91.31567383 C105.25364134 89.20954905 103.46553159 87.0879083 101.68286133 84.96020508 C101.14790039 84.41750977 100.61293945 83.87481445 100.06176758 83.31567383 C99.40176758 83.31567383 98.74176758 83.31567383 98.06176758 83.31567383 C97.81168945 82.70723633 97.56161133 82.09879883 97.30395508 81.47192383 C95.86517511 78.97441898 94.67897536 78.20754837 92.18676758 76.81567383 C89.00415641 74.95338505 86.62860661 72.98123743 84.06176758 70.31567383 C83.40176758 70.31567383 82.74176758 70.31567383 82.06176758 70.31567383 C82.06176758 69.65567383 82.06176758 68.99567383 82.06176758 68.31567383 C72.88167056 62.53508149 61.29646529 55.31567383 50.06176758 55.31567383 C50.06176758 54.65567383 50.06176758 53.99567383 50.06176758 53.31567383 C28.98449192 47.89303629 4.77310589 47.29528597 -14.93823242 57.31567383 Z " fill="#FED84A" transform="translate(245.938232421875,28.684326171875)"/>
<path d="M0 0 C-2.43727414 2.43727414 -4.34777713 2.90455254 -7.625 3.9375 C-11.31423088 5.12000257 -14.95673692 6.33321041 -18.5625 7.75 C-22 9 -22 9 -25 9 C-25 9.66 -25 10.32 -25 11 C-25.69867188 11.25394531 -26.39734375 11.50789063 -27.1171875 11.76953125 C-28.02726563 12.11371094 -28.93734375 12.45789062 -29.875 12.8125 C-30.77992188 13.14894531 -31.68484375 13.48539063 -32.6171875 13.83203125 C-35.29425849 14.89649024 -35.29425849 14.89649024 -37 18 C-38.76953125 18.7734375 -38.76953125 18.7734375 -40.8125 19.375 C-44.89820744 20.76886048 -47.02030004 22.85923518 -50 26 C-50.74507813 26.27457031 -51.49015625 26.54914062 -52.2578125 26.83203125 C-55.77279977 28.32915546 -58.35559335 30.6256411 -61.1875 33.125 C-66.74070248 38 -66.74070248 38 -69 38 C-69.23847656 38.5671875 -69.47695312 39.134375 -69.72265625 39.71875 C-71.26968523 42.48163967 -73.15418215 44.31041441 -75.4375 46.5 C-77.71199133 48.68830797 -79.80188771 50.72777041 -81.66015625 53.28125 C-82.10230469 53.8484375 -82.54445313 54.415625 -83 55 C-83.66 55 -84.32 55 -85 55 C-85.33 56.32 -85.66 57.64 -86 59 C-86.66 59 -87.32 59 -88 59 C-88.66 60.65 -89.32 62.3 -90 64 C-90.66 64 -91.32 64 -92 64 C-92.04125 64.680625 -92.0825 65.36125 -92.125 66.0625 C-93.02308342 69.07749434 -93.72540897 69.96898007 -95.8125 72.1875 C-99.08053288 75.72851892 -100.4818128 79.31249409 -101.9453125 83.86328125 C-103 86 -103 86 -105.0546875 86.98046875 C-105.69664062 87.31691406 -106.33859375 87.65335937 -107 88 C-107.61883868 90.34734672 -107.61883868 90.34734672 -108 93 C-108.8993952 94.80148321 -109.86248331 96.57207952 -110.875 98.3125 C-113.0612195 102.19564225 -114.84773767 105.93253544 -116.296875 110.13671875 C-117 112 -117 112 -118.875 115.5 C-121.61726092 120.7954004 -123.12557233 126.54689565 -124.8359375 132.234375 C-125.68707472 134.98771824 -126.58395692 137.59703785 -127.6875 140.25 C-129.15522829 144.44350939 -129.84667698 148.48718339 -130.47265625 152.875 C-131 156 -131 156 -131.9921875 159.765625 C-133.1818939 164.38597208 -133.63438797 169.00726323 -134.0625 173.75 C-134.21740491 175.41170723 -134.37486537 177.07317866 -134.53515625 178.734375 C-134.600979 179.45850586 -134.66680176 180.18263672 -134.73461914 180.92871094 C-135.00181831 183.01419184 -135.48879359 184.96280429 -136 187 C-137.66396677 205.69394769 -137.29051556 224.41781883 -136.125 243.125 C-136.04660889 244.41688232 -135.96821777 245.70876465 -135.88745117 247.03979492 C-135.36496806 254.79689083 -134.44445226 262.36148027 -133 270 C-132.82484863 270.93739014 -132.64969727 271.87478027 -132.46923828 272.84057617 C-131.55615419 277.65065756 -130.36829377 282.29649018 -129 287 C-128.46605112 289.38912895 -127.95666607 291.78154561 -127.46484375 294.1796875 C-127.16309159 296.00696343 -127.16309159 296.00696343 -126 297 C-125.70049893 298.49454 -125.43582746 299.99611032 -125.1875 301.5 C-124.35325457 305.84298357 -123.04397232 309.44979215 -121.15234375 313.42578125 C-119.68470169 316.70434435 -118.45761177 320.0570481 -117.25 323.4375 C-116.82203125 324.63246094 -116.3940625 325.82742188 -115.953125 327.05859375 C-115 330 -115 330 -115 332 C-114.34 332 -113.68 332 -113 332 C-112.60167969 332.92232422 -112.60167969 332.92232422 -112.1953125 333.86328125 C-111.66550781 335.07564453 -111.66550781 335.07564453 -111.125 336.3125 C-110.77695313 337.11300781 -110.42890625 337.91351563 -110.0703125 338.73828125 C-108.97428106 341.1961834 -108.97428106 341.1961834 -107 344 C-107 345.32 -107 346.64 -107 348 C-106.34 348 -105.68 348 -105 348 C-102.2245164 351.52660457 -100.10350291 355.53164659 -98.4375 359.6875 C-97.0056148 362.98706155 -95.27855902 365.25001497 -93 368 C-93 368.66 -93 369.32 -93 370 C-92.4225 370.185625 -91.845 370.37125 -91.25 370.5625 C-88.58962797 372.26218213 -87.89410433 374.06629894 -86.4609375 376.80078125 C-83.13091644 381.81362044 -78.31596579 385.84932651 -74 390 C-72.33211456 391.66544701 -70.66526904 393.33193688 -69 395 C-68.071875 395.886875 -67.14375 396.77375 -66.1875 397.6875 C-64 400 -64 400 -64 402 C-63.13761719 402.41958984 -63.13761719 402.41958984 -62.2578125 402.84765625 C-60.06899537 403.9647861 -57.97232737 405.15757208 -55.875 406.4375 C-55.19179687 406.84871094 -54.50859375 407.25992187 -53.8046875 407.68359375 C-52 409 -52 409 -50 412 C-47.44816596 413.20450304 -47.44816596 413.20450304 -45 414 C-45 414.66 -45 415.32 -45 416 C-43.35 416.33 -41.7 416.66 -40 417 C-40 417.66 -40 418.32 -40 419 C-35.6960081 420.74849671 -31.35249409 422.3770361 -27 424 C-27 424.66 -27 425.32 -27 426 C-25.72125 426.0825 -24.4425 426.165 -23.125 426.25 C-19.63516001 426.63835932 -16.78232714 427.36127455 -13.5625 428.75 C-8.72614703 430.82925096 -3.81492579 432.28837744 1.25 433.6875 C2.01884521 433.90180664 2.78769043 434.11611328 3.57983398 434.33691406 C7.70050795 435.45914778 11.76604999 436.38648177 16 437 C16 437.33 16 437.66 16 438 C-19.61228023 439.8833576 -19.61228023 439.8833576 -35 436 C-36.20390381 435.69980957 -36.20390381 435.69980957 -37.43212891 435.39355469 C-54.50156297 430.99003022 -70.81518044 424.62441091 -85 414 C-85.5563916 413.58347168 -86.1127832 413.16694336 -86.68603516 412.73779297 C-96.93414304 405.01003585 -107.03020864 396.89823247 -115.28515625 387.01171875 C-116.45462628 385.63978921 -117.67422462 384.30943054 -118.93359375 383.01953125 C-159.09793734 341.3812668 -175.20628286 275.15922655 -175.25 218.9375 C-175.25101212 217.75722229 -175.25101212 217.75722229 -175.25204468 216.55310059 C-175.19299447 172.83828918 -165.40985576 127.44532373 -144 89 C-143.65501465 88.37867187 -143.3100293 87.75734375 -142.95458984 87.1171875 C-135.14146366 73.22718539 -125.86854807 60.65060227 -115 49 C-113.64338025 47.43962938 -112.28916205 45.87716716 -110.9375 44.3125 C-107.22723223 40.152942 -103.30191681 36.53667199 -99 33 C-98.48050781 32.56284668 -97.96101563 32.12569336 -97.42578125 31.67529297 C-83.06331393 19.60839978 -68.72137719 11.2371231 -51.08032227 4.765625 C-49.43407703 4.1597542 -47.80356452 3.51115171 -46.1796875 2.84765625 C-41.08945052 1.49067661 -35.93013643 1.24167585 -30.6875 0.875 C-29.53717285 0.79008301 -28.3868457 0.70516602 -27.20166016 0.61767578 C-18.11978824 -0.01299214 -9.09853587 -0.228097 0 0 Z " fill="#E4AF1C" transform="translate(238,32)"/>
<path d="M0 0 C3.63467079 1.62400184 4.77408696 2.66113044 7 6 C7.22705078 8.54370117 7.22705078 8.54370117 7.1953125 11.54296875 C7.18886719 12.61611328 7.18242187 13.68925781 7.17578125 14.79492188 C7.15064453 16.47424805 7.15064453 16.47424805 7.125 18.1875 C7.11597656 19.31865234 7.10695313 20.44980469 7.09765625 21.61523438 C7.07406862 24.41036828 7.041153 27.20507845 7 30 C8.03898437 29.855625 9.07796875 29.71125 10.1484375 29.5625 C17.8004126 28.53256765 25.25887573 27.66504751 33 28 C33 28.66 33 29.32 33 30 C33.804375 30.309375 34.60875 30.61875 35.4375 30.9375 C38 32 38 32 39 33 C39.12619896 34.91352846 39.17580701 36.83235023 39.1875 38.75 C39.20167969 39.79671875 39.21585937 40.8434375 39.23046875 41.921875 C38.99454611 45.07284183 38.46413343 47.20976593 37 50 C26.05722993 56.46618231 11.8884605 56.41338439 -0.42919922 57.22631836 C-7.68745196 57.73375186 -14.4951595 58.62831317 -21.55859375 60.4140625 C-24 61 -24 61 -27 61 C-27 61.66 -27 62.32 -27 63 C-28.79296875 64.296875 -28.79296875 64.296875 -31.1875 65.75 C-35.9352664 68.81548697 -39.91696981 71.83421946 -41.8125 77.375 C-41.874375 77.91125 -41.93625 78.4475 -42 79 C-42.66 79 -43.32 79 -44 79 C-46.85126727 89.59042129 -48.37894941 103.03898257 -43 113 C-41.515 113.99 -41.515 113.99 -40 115 C-40 115.66 -40 116.32 -40 117 C-39.34 117 -38.68 117 -38 117 C-35.375 119.375 -35.375 119.375 -33 122 C-33 122.66 -33 123.32 -33 124 C-22.97857311 126.71767509 -13.61633584 126.43522224 -3.375 125 C11.30135224 123.00225622 25.96967415 121.81592004 38.94921875 130.26953125 C40.5 131.5 40.5 131.5 43 134 C43.9075 134.845625 44.815 135.69125 45.75 136.5625 C47.71418818 138.69037053 48.9183365 140.34500778 50 143 C50.66 143 51.32 143 52 143 C52.2475 143.5775 52.495 144.155 52.75 144.75 C53.89291769 147.09357769 53.89291769 147.09357769 55.94140625 148.75 C58.43474044 151.47516223 59.16155264 153.71571602 60.1875 157.25 C60.51105469 158.32765625 60.83460938 159.4053125 61.16796875 160.515625 C62.88922096 167.7238737 63.13608733 174.62994573 63.0625 182 C63.05798828 182.87011719 63.05347656 183.74023438 63.04882812 184.63671875 C63.0371736 186.75784293 63.01924357 188.8789311 63 191 C62.34 191 61.68 191 61 191 C60.9175 192.11375 60.835 193.2275 60.75 194.375 C59.62849896 202.98327828 55.79706615 209.78569037 50.68359375 216.67578125 C48.94255426 219.00035165 48.94255426 219.00035165 47.453125 221.640625 C45.50852174 224.79799159 42.90623281 226.78416186 40 229 C39.38898438 229.48597656 38.77796875 229.97195313 38.1484375 230.47265625 C30.41839534 236.49346598 23.94597933 240.52638194 14 241 C14 241.66 14 242.32 14 243 C12.68 243 11.36 243 10 243 C10.01047363 243.63502441 10.02094727 244.27004883 10.03173828 244.92431641 C10.07352467 247.8245034 10.09939771 250.72462682 10.125 253.625 C10.14175781 254.62402344 10.15851563 255.62304688 10.17578125 256.65234375 C10.25507666 268.62595047 10.25507666 268.62595047 6.37109375 272.71484375 C1.74338249 275.64105309 -1.56552771 276.63899929 -7.015625 275.65234375 C-9.84707993 274.72153081 -11.29376478 273.41716656 -13 271 C-14.00005304 267.99984088 -14.11575585 266.02576244 -14.09765625 262.89453125 C-14.09443359 261.91162109 -14.09121094 260.92871094 -14.08789062 259.91601562 C-14.07532227 258.37977539 -14.07532227 258.37977539 -14.0625 256.8125 C-14.05798828 255.77673828 -14.05347656 254.74097656 -14.04882812 253.67382812 C-14.0370401 251.11582734 -14.02058515 248.55794267 -14 246 C-15.39798828 246.2165625 -15.39798828 246.2165625 -16.82421875 246.4375 C-25.28789007 247.66982424 -33.42409849 248.26031404 -42 248 C-42.495 246.02 -42.495 246.02 -43 244 C-43.66 244 -44.32 244 -45 244 C-46.62894001 239.11317997 -46.37360657 235.22459932 -44.875 230.3125 C-42.00727851 225.24619204 -38.8620393 223.52917987 -33.33007812 221.95703125 C-29.04645284 220.93588322 -24.78445667 220.41780859 -20.40625 220 C-19.61528931 219.91878906 -18.82432861 219.83757812 -18.00939941 219.75390625 C-14.6645013 219.41065359 -11.31830399 219.08092943 -7.97216797 218.75 C-5.51219243 218.50472104 -3.0529932 218.25249984 -0.59375 218 C0.14919312 217.92910156 0.89213623 217.85820312 1.65759277 217.78515625 C14.20754964 216.49427928 23.12336312 212.8499176 31.37109375 203.0859375 C34.44144812 199.1541168 35.69423405 195.78780848 37 191 C37.33 190.34 37.66 189.68 38 189 C38.09539378 187.53759542 38.13073481 186.07097986 38.1328125 184.60546875 C38.13410156 183.73212891 38.13539063 182.85878906 38.13671875 181.95898438 C38.13285156 181.04439453 38.12898438 180.12980469 38.125 179.1875 C38.12886719 178.28451172 38.13273437 177.38152344 38.13671875 176.45117188 C38.20423857 170.1478212 38.20423857 170.1478212 37 164 C35.67592331 163.31513275 34.34090759 162.65129797 33 162 C32.401875 161.030625 31.80375 160.06125 31.1875 159.0625 C28.41277782 155.17788895 26.42879459 154.53304428 22 153 C22 152.34 22 151.68 22 151 C14.10746969 149.15249759 5.59245647 149.29311047 -2.3125 151 C-15.25141318 153.67175198 -31.65070787 153.52545972 -43.3125 146.94140625 C-45.15180761 145.8559009 -45.15180761 145.8559009 -47.9375 144.9375 C-48.618125 144.628125 -49.29875 144.31875 -50 144 C-50.33 143.01 -50.66 142.02 -51 141 C-51.66 141 -52.32 141 -53 141 C-54.63139937 139.07412421 -56.13723225 137.15673283 -57.625 135.125 C-58.04523438 134.56941406 -58.46546875 134.01382813 -58.8984375 133.44140625 C-62 129.26235288 -62 129.26235288 -62 127 C-62.99 126.67 -63.98 126.34 -65 126 C-69.91162423 116.96261142 -70.18559648 107.13521074 -70.25 97.0625 C-70.25926514 96.13808105 -70.26853027 95.21366211 -70.27807617 94.26123047 C-70.27396729 93.38225098 -70.2698584 92.50327148 -70.265625 91.59765625 C-70.26336914 90.80883057 -70.26111328 90.02000488 -70.25878906 89.20727539 C-69.96985017 86.74284475 -69.18182401 85.16364272 -68 83 C-67.48083367 81.07283284 -67.00471947 79.13376537 -66.5625 77.1875 C-64.76371411 69.7573392 -62.64901458 61.43267639 -56 57 C-55.5875 56.278125 -55.175 55.55625 -54.75 54.8125 C-46.61037483 41.73095955 -33.06999829 37.06114587 -19 33 C-18.34 33 -17.68 33 -17 33 C-17.01571045 31.94087402 -17.01571045 31.94087402 -17.03173828 30.86035156 C-17.0733479 27.65693734 -17.09934204 24.45358004 -17.125 21.25 C-17.14175781 20.13882813 -17.15851563 19.02765625 -17.17578125 17.8828125 C-17.18544922 16.27792969 -17.18544922 16.27792969 -17.1953125 14.640625 C-17.21102295 13.16384277 -17.21102295 13.16384277 -17.22705078 11.65722656 C-16.99489618 8.94026889 -16.39036273 7.31887487 -15 5 C-14.34 5 -13.68 5 -13 5 C-12.71125 4.360625 -12.4225 3.72125 -12.125 3.0625 C-9.69598234 -1.39069905 -4.48718382 -0.44250775 0 0 Z " fill="#FED748" transform="translate(277,113)"/>
<path d="M0 0 C11.22 0.33 22.44 0.66 34 1 C33 15 33 15 32 16 C31.76798951 19.09925597 31.59595228 22.18113659 31.46484375 25.28515625 C31.42186661 26.21597519 31.37888947 27.14679413 31.33460999 28.1058197 C31.1977981 31.09119735 31.06758289 34.07682229 30.9375 37.0625 C30.84613609 39.08139985 30.75434489 41.10028041 30.66210938 43.11914062 C30.43563201 48.07919885 30.21806563 53.03953612 30 58 C18.45 58 6.9 58 -5 58 C-5 44 -5 44 -4 43 C-3.79469981 41.19120518 -3.65192212 39.37525348 -3.53515625 37.55859375 C-3.45716797 36.41583984 -3.37917969 35.27308594 -3.29882812 34.09570312 C-3.14506183 31.71550257 -2.99140992 29.33529462 -2.83789062 26.95507812 C-2.2186961 17.87859251 -1.13367274 9.06938189 0 0 Z " fill="#E3AE19" transform="translate(69,199)"/>
<path d="M0 0 C1.32 0.33 2.64 0.66 4 1 C4 1.66 4 2.32 4 3 C4.99 3.33 5.98 3.66 7 4 C7.6875 6.0625 7.6875 6.0625 8 8 C8.86278564 8.02505615 9.72557129 8.0501123 10.61450195 8.07592773 C13.81823769 8.17111385 17.02181537 8.27034444 20.2253418 8.37231445 C21.61135983 8.41560218 22.99742906 8.45728164 24.38354492 8.49731445 C26.37691798 8.55516584 28.37010565 8.61929776 30.36328125 8.68359375 C32.16212769 8.73858032 32.16212769 8.73858032 33.99731445 8.79467773 C37 9 37 9 40 10 C40.33 9.01 40.66 8.02 41 7 C43.02856359 9.41495665 44.20818856 11.4978422 45.4375 14.4375 C46.9329964 17.84723179 48.64522227 20.15802688 51 23 C51 23.66 51 24.32 51 25 C51.5775 25.185625 52.155 25.37125 52.75 25.5625 C55.57795942 27.36925185 56.54098819 29.32015509 58.0703125 32.24609375 C59.09791729 34.25566677 59.09791729 34.25566677 61 37 C50.11 37 39.22 37 28 37 C28 37.66 28 38.32 28 39 C28.59425781 39.25910156 29.18851563 39.51820313 29.80078125 39.78515625 C32.15938107 41.08804176 33.46682588 42.38065304 35.1875 44.4375 C35.69667969 45.03433594 36.20585937 45.63117188 36.73046875 46.24609375 C38 48 38 48 39 51 C35.34960593 49.49544569 33.32481901 47.39668947 30.75 44.4375 C30.04359375 43.63183594 29.3371875 42.82617188 28.609375 41.99609375 C27.74828125 41.00738281 26.8871875 40.01867187 26 39 C25.39768555 38.34870117 24.79537109 37.69740234 24.17480469 37.02636719 C19.0961139 31.48575387 14.84815957 25.66730695 10.75 19.375 C10.151875 18.47265625 9.55375 17.5703125 8.9375 16.640625 C0 3.07618916 0 3.07618916 0 0 Z " fill="#E4AF1C" transform="translate(94,377)"/>
<path d="M0 0 C-2.43727414 2.43727414 -4.34777713 2.90455254 -7.625 3.9375 C-11.31423088 5.12000257 -14.95673692 6.33321041 -18.5625 7.75 C-22 9 -22 9 -25 9 C-25 9.66 -25 10.32 -25 11 C-25.65226562 11.25394531 -26.30453125 11.50789063 -26.9765625 11.76953125 C-27.85054687 12.11371094 -28.72453125 12.45789062 -29.625 12.8125 C-30.48351562 13.14894531 -31.34203125 13.48539063 -32.2265625 13.83203125 C-35.04384151 14.95116211 -35.04384151 14.95116211 -37.69921875 16.5546875 C-41.58926289 18.25802044 -44.35149388 18.34378207 -48.5859375 18.29296875 C-49.28772125 18.28872391 -49.989505 18.28447906 -50.71255493 18.28010559 C-52.9337756 18.26343599 -55.15405788 18.22580872 -57.375 18.1875 C-58.88930973 18.17243788 -60.40363381 18.15875216 -61.91796875 18.14648438 C-65.61227932 18.11357183 -69.30604793 18.06187259 -73 18 C-73 17.67 -73 17.34 -73 17 C-69.535 16.505 -69.535 16.505 -66 16 C-65.67 15.01 -65.34 14.02 -65 13 C-64.34 13 -63.68 13 -63 13 C-63 12.34 -63 11.68 -63 11 C-51.28125 6.60546875 -51.28125 6.60546875 -49.11938477 5.80541992 C-47.7533464 5.28629072 -46.39586799 4.74374513 -45.05053711 4.1730957 C-39.61230428 1.92362296 -34.40651343 1.2602974 -28.5625 0.8125 C-27.13236572 0.69189209 -27.13236572 0.69189209 -25.67333984 0.56884766 C-17.10706467 -0.10130798 -8.58584041 -0.20496701 0 0 Z " fill="#C59314" transform="translate(238,32)"/>
<path d="M0 0 C0.72680969 0.00141495 1.45361938 0.0028299 2.20245361 0.00428772 C4.51521994 0.00986833 6.82788812 0.02241721 9.140625 0.03515625 C10.71223818 0.04017376 12.28385289 0.04473623 13.85546875 0.04882812 C17.70055843 0.0598314 21.5455751 0.07708264 25.390625 0.09765625 C23.80927401 3.45234193 22.08473736 5.5898542 19.390625 8.16015625 C17.01619702 10.43419481 15.22714548 12.34287554 13.390625 15.09765625 C10.70277683 15.43549721 8.2334825 15.58657869 5.5390625 15.609375 C4.76503082 15.6273262 3.99099915 15.6452774 3.19351196 15.66377258 C0.71760533 15.71802017 -1.75810703 15.75181634 -4.234375 15.78515625 C-5.91148546 15.81831671 -7.58857023 15.85280518 -9.265625 15.88867188 C-13.38006841 15.97375442 -17.49445277 16.04049578 -21.609375 16.09765625 C-20.1237396 13.06660935 -18.48758628 10.28058212 -16.609375 7.47265625 C-16.09375 6.69664063 -15.578125 5.920625 -15.046875 5.12109375 C-12.39901847 1.39394787 -12.39901847 1.39394787 -9.95996094 0.47875977 C-6.64052951 -0.05942391 -3.35220025 -0.02467473 0 0 Z " fill="#C69414" transform="translate(142.609375,70.90234375)"/>
<path d="M0 0 C11.55 0 23.1 0 35 0 C35.495 7.425 35.495 7.425 36 15 C24.45 15 12.9 15 1 15 C0 11 0 11 0 0 Z " fill="#C69415" transform="translate(67,285)"/>
<path d="M0 0 C11.22 0 22.44 0 34 0 C32.67522089 5.29911644 31.02561659 11.13682881 27 15 C24.28369557 15.35632458 21.97857076 15.46742617 19.26953125 15.390625 C18.51911057 15.38496521 17.76868988 15.37930542 16.99552917 15.37347412 C14.60053496 15.35109668 12.20704131 15.30090171 9.8125 15.25 C8.18817266 15.22993659 6.56382185 15.21168553 4.93945312 15.1953125 C0.95905793 15.15122794 -3.02021671 15.08219427 -7 15 C-7 14.01 -7 13.02 -7 12 C-6.34 12 -5.68 12 -5 12 C-4.9175 10.88625 -4.835 9.7725 -4.75 8.625 C-4 5 -4 5 -1.9375 3.5625 C-0.9784375 3.2840625 -0.9784375 3.2840625 0 3 C0 2.01 0 1.02 0 0 Z " fill="#C69414" transform="translate(100,114)"/>
<path d="M0 0 C4.69539034 -0.199087 9.38828185 -0.34352352 14.08691406 -0.43945312 C15.68175077 -0.47946926 17.27629795 -0.53390506 18.87011719 -0.60351562 C32.10187603 -1.16656919 32.10187603 -1.16656919 36.79101562 1.71533203 C38.79443733 3.70918326 40.40593789 5.6726919 42 8 C42.825 8.94875 43.65 9.8975 44.5 10.875 C46 13 46 13 46 15 C41.39194479 15.12394421 36.78486719 15.21449675 32.17553711 15.2746582 C30.60895886 15.29974547 29.04249701 15.33382415 27.47631836 15.37719727 C25.21959691 15.43811226 22.96442706 15.46626499 20.70703125 15.48828125 C20.01100296 15.51408768 19.31497467 15.5398941 18.59785461 15.56648254 C14.67012522 15.56872896 13.11774946 15.09499594 10.01831055 12.59448242 C8 10 8 10 8 8 C7.4225 7.7525 6.845 7.505 6.25 7.25 C3.67060021 5.81700012 1.93878408 4.21575324 0 2 C0 1.34 0 0.68 0 0 Z " fill="#C79414" transform="translate(122,414)"/>
<path d="M0 0 C2.09670407 -0.01197139 4.19053074 -0.06126806 6.28662109 -0.11157227 C7.62124222 -0.12102964 8.9558813 -0.12826796 10.29052734 -0.13305664 C12.10447998 -0.15323853 12.10447998 -0.15323853 13.95507812 -0.17382812 C16.97021484 0.42553711 16.97021484 0.42553711 18.88769531 2.71044922 C19.97021484 5.42553711 19.97021484 5.42553711 19.97021484 9.42553711 C20.63021484 9.42553711 21.29021484 9.42553711 21.97021484 9.42553711 C22.46521484 12.89053711 22.46521484 12.89053711 22.97021484 16.42553711 C12.41021484 16.09553711 1.85021484 15.76553711 -9.02978516 15.42553711 C-9.68978516 13.77553711 -10.34978516 12.12553711 -11.02978516 10.42553711 C-12.89321238 8.23803559 -14.59422356 7.04924484 -17.02978516 5.42553711 C-17.35978516 4.43553711 -17.68978516 3.44553711 -18.02978516 2.42553711 C-12.21577983 -0.32343894 -6.29018992 0.01704056 0 0 Z " fill="#C69514" transform="translate(111.02978515625,370.574462890625)"/>
<path d="M0 0 C11.22 0.33 22.44 0.66 34 1 C38 11 38 11 38 15 C26.45 15 14.9 15 3 15 C0 8 0 8 0 0 Z " fill="#C59314" transform="translate(76,328)"/>
<path d="M0 0 C11.55 0 23.1 0 35 0 C35 4.62 35 9.24 35 14 C23.45 14 11.9 14 0 14 C0 9.38 0 4.76 0 0 Z " fill="#C59314" transform="translate(64,243)"/>
<path d="M0 0 C11.22 0 22.44 0 34 0 C33 9 33 9 31 14 C19.78 14 8.56 14 -3 14 C-3 8 -3 8 0 0 Z " fill="#C59314" transform="translate(80,157)"/>
<path d="M0 0 C11.22 0.33 22.44 0.66 34 1 C33.67 5.62 33.34 10.24 33 15 C21.78 15 10.56 15 -1 15 C-1 5 -1 5 0 0 Z " fill="#C59314" transform="translate(69,199)"/>
<path d="M0 0 C4.99356473 0.9664964 9.45254221 2.10409034 14.125 4.125 C18.36773502 5.91490384 21.43074242 6.39732675 26 6 C25.67 7.32 25.34 8.64 25 10 C34.57 10 44.14 10 54 10 C54 9.34 54 8.68 54 8 C53.34 7.67 52.68 7.34 52 7 C56.21133287 7.52641661 59.81959045 8.67888621 63.77050781 10.19116211 C67.49710317 11.54313434 71.30286111 12.58084064 75.125 13.625 C75.89714844 13.8415625 76.66929687 14.058125 77.46484375 14.28125 C81.62476456 15.4293031 85.72034835 16.38471462 90 17 C90 17.33 90 17.66 90 18 C54.38771977 19.8833576 54.38771977 19.8833576 39 16 C38.19739746 15.79987305 37.39479492 15.59974609 36.56787109 15.39355469 C24.24569324 12.21471399 12.30089453 7.88229446 1 2 C0.67 1.34 0.34 0.68 0 0 Z " fill="#DFBA4C" transform="translate(164,452)"/>
<path d="M0 0 C4.35574208 -0.1501051 8.71005266 -0.25802123 13.06762695 -0.32958984 C14.54478221 -0.35947031 16.02176466 -0.40019224 17.49829102 -0.45263672 C26.31692732 -0.75765568 33.14947438 -0.42178893 40.78979492 4.60302734 C42.91442405 5.94591124 44.5472585 6.55417465 47 7 C47 7.66 47 8.32 47 9 C49.31 9.66 51.62 10.32 54 11 C54 11.66 54 12.32 54 13 C44.43 13 34.86 13 25 13 C24.67 12.01 24.34 11.02 24 10 C23.443125 9.97421875 22.88625 9.9484375 22.3125 9.921875 C17.15247687 9.53835977 13.44694477 8.48275063 8.9296875 5.98828125 C6.04844734 4.51266635 3.13320523 3.78330131 0 3 C0 2.01 0 1.02 0 0 Z " fill="#C49313" transform="translate(164,449)"/>
<path d="M0 0 C0.33 0 0.66 0 1 0 C6.96348708 41.30032012 4.31130781 81.56256705 -6 122 C-6.33 122 -6.66 122 -7 122 C-7.19466971 116.45191339 -6.59824957 112.35883679 -5 107 C-4.56367959 104.00808858 -4.25953796 101.01200628 -4 98 C-3.34 98 -2.68 98 -2 98 C-2.01160156 97.22914063 -2.02320313 96.45828125 -2.03515625 95.6640625 C-2.04869141 94.15972656 -2.04869141 94.15972656 -2.0625 92.625 C-2.07410156 91.62726563 -2.08570313 90.62953125 -2.09765625 89.6015625 C-2 87 -2 87 -1 85 C0.77767697 73.3839279 1.29769605 61.84492668 1.20581055 50.10864258 C1.18716565 47.64328986 1.18530453 45.17830762 1.18554688 42.71289062 C1.18064273 41.12499676 1.1748193 39.53710541 1.16796875 37.94921875 C1.16685593 37.22216232 1.1657431 36.4951059 1.16459656 35.74601746 C1.12978483 32.02308596 0.7580997 28.63365031 0 25 C-0.07869838 23.01561604 -0.10784044 21.02888652 -0.09765625 19.04296875 C-0.09282227 17.37524414 -0.09282227 17.37524414 -0.08789062 15.67382812 C-0.07951172 14.52333984 -0.07113281 13.37285156 -0.0625 12.1875 C-0.05798828 11.01767578 -0.05347656 9.84785156 -0.04882812 8.64257812 C-0.0370693 5.76166642 -0.02063426 2.88085956 0 0 Z " fill="#F9E184" transform="translate(433,205)"/>
<path d="M0 0 C4.20415677 0.5255196 7.80084357 1.6762304 11.74414062 3.18676758 C15.59944993 4.57659824 19.54525313 5.62152181 23.5 6.6875 C24.32242188 6.91244141 25.14484375 7.13738281 25.9921875 7.36914062 C27.99387823 7.91611425 29.99681088 8.45853969 32 9 C32 9.33 32 9.66 32 10 C27.54168018 10.02891546 23.08338431 10.04676981 18.625 10.0625 C17.35398438 10.07087891 16.08296875 10.07925781 14.7734375 10.08789062 C12.95585937 10.09272461 12.95585937 10.09272461 11.1015625 10.09765625 C9.98088379 10.10289307 8.86020508 10.10812988 7.70556641 10.11352539 C5 10 5 10 3 9 C0.70075503 8.72975292 -1.59801487 8.55502159 -3.90625 8.37890625 C-6 8 -6 8 -8 6 C-10.56916657 5.69400937 -13.04758384 5.48912913 -15.625 5.375 C-16.33140625 5.33632813 -17.0378125 5.29765625 -17.765625 5.2578125 C-19.50998524 5.16352276 -21.25495691 5.08067109 -23 5 C-23 4.67 -23 4.34 -23 4 C-13.76 3.67 -4.52 3.34 5 3 C3.35 2.34 1.7 1.68 0 1 C0 0.67 0 0.34 0 0 Z " fill="#E4B322" transform="translate(216,459)"/>
<path d="M0 0 C1.4606285 2.64738916 2 3.89448334 2 7 C1.34 7 0.68 7 0 7 C0.01804687 8.01578125 0.03609375 9.0315625 0.0546875 10.078125 C0.00366736 13.73699779 -0.35249294 17.13264345 -0.875 20.75 C-2.1244183 29.83780316 -2.70685385 38.97170405 -3.30224609 48.12207031 C-3.41753662 49.82314941 -3.41753662 49.82314941 -3.53515625 51.55859375 C-3.63389038 53.09471313 -3.63389038 53.09471313 -3.73461914 54.66186523 C-4 57 -4 57 -5 58 C-5.15786308 59.85174706 -5.25107356 61.7090911 -5.31640625 63.56640625 C-5.37924805 65.2534668 -5.37924805 65.2534668 -5.44335938 66.97460938 C-5.48267578 68.15861328 -5.52199219 69.34261719 -5.5625 70.5625 C-5.60568359 71.75037109 -5.64886719 72.93824219 -5.69335938 74.16210938 C-5.79983546 77.10794784 -5.90184841 80.0538743 -6 83 C-6.33 83 -6.66 83 -7 83 C-7.4679064 54.73125512 -6.22497137 27.71218218 0 0 Z " fill="#E2C062" transform="translate(70,185)"/>
<path d="M0 0 C-1.0725 0.391875 -2.145 0.78375 -3.25 1.1875 C-7.99914336 2.95146754 -12.62790596 4.97520741 -17.265625 7.01171875 C-20 8 -20 8 -24 8 C-24 8.66 -24 9.32 -24 10 C-24.66 10.66 -25.32 11.32 -26 12 C-26.33 12.66 -26.66 13.32 -27 14 C-28.85546875 14.52734375 -28.85546875 14.52734375 -31.1875 14.9375 C-35.19304155 15.73988193 -38.39866952 17.02784283 -42 19 C-42.99 19.33 -43.98 19.66 -45 20 C-45.268125 20.61875 -45.53625 21.2375 -45.8125 21.875 C-47 24 -47 24 -49.8125 25.375 C-52.78497845 26.89038117 -53.77771102 27.68848695 -55.75 30.1875 C-56.4925 31.115625 -57.235 32.04375 -58 33 C-58.66 33 -59.32 33 -60 33 C-60.33 33.99 -60.66 34.98 -61 36 C-63.475 36.495 -63.475 36.495 -66 37 C-62.07679826 32.1365564 -57.96915836 27.98994505 -53.0625 24.125 C-52.40918701 23.6103418 -51.75587402 23.09568359 -51.08276367 22.56542969 C-38.40181022 12.76616551 -25.01141774 6.49875136 -10 1 C-8.89785156 0.57589844 -7.79570312 0.15179688 -6.66015625 -0.28515625 C-3.92394982 -1.02043639 -2.6118902 -1.00457315 0 0 Z " fill="#D9B666" transform="translate(199,35)"/>
<path d="M0 0 C-2.48659621 2.48659621 -4.60483946 3.0343111 -7.9375 4.125 C-8.99839844 4.47820313 -10.05929688 4.83140625 -11.15234375 5.1953125 C-15.25079752 6.35344896 -19.18718642 5.93440049 -23.41796875 5.78125 C-24.67158203 5.73613281 -25.92519531 5.69101562 -27.21679688 5.64453125 C-29.18229492 5.57298828 -29.18229492 5.57298828 -31.1875 5.5 C-32.52278468 5.45177374 -33.85807112 5.40359609 -35.19335938 5.35546875 C-38.4622572 5.237458 -41.73113618 5.1189483 -45 5 C-45 4.67 -45 4.34 -45 4 C-39.61516517 1.87464231 -34.40105729 1.35631853 -28.6875 0.875 C-27.24383057 0.74762451 -27.24383057 0.74762451 -25.77099609 0.61767578 C-17.16752928 -0.08897155 -8.62532533 -0.20590962 0 0 Z " fill="#E2AE1D" transform="translate(238,32)"/>
<path d="M0 0 C2.56940679 0.01083514 5.13813242 -0.00000216 7.70751953 -0.01269531 C9.34163566 -0.01137567 10.97575136 -0.00881734 12.60986328 -0.00488281 C13.3775 -0.00893127 14.14513672 -0.01297974 14.93603516 -0.01715088 C20.31736478 0.03074369 20.31736478 0.03074369 22.54736328 2.26074219 C17.26736328 2.92074219 11.98736328 3.58074219 6.54736328 4.26074219 C6.54736328 3.93074219 6.54736328 3.60074219 6.54736328 3.26074219 C-5.81272535 3.08746992 -18.11086186 3.6247949 -30.45263672 4.26074219 C-21.06018123 -0.74541558 -10.35099979 -0.05216631 0 0 Z " fill="#E6C050" transform="translate(229.45263671875,29.7392578125)"/>
<path d="M0 0 C7.82876896 -0.02542332 15.65752721 -0.0428977 23.48632812 -0.05493164 C26.14780621 -0.05938363 28.80923013 -0.06676643 31.47070312 -0.07543945 C35.30339232 -0.08761354 39.13604495 -0.09325318 42.96875 -0.09765625 C44.15239136 -0.10281754 45.33603271 -0.10797882 46.55554199 -0.11329651 C52.46992896 -0.11369517 58.15292606 0.09345259 64 1 C64 1.33 64 1.66 64 2 C55.73898075 2.76592231 47.54296861 3.10706926 39.25 3.125 C38.36860352 3.12951172 37.48720703 3.13402344 36.57910156 3.13867188 C35.34111816 3.13577148 35.34111816 3.13577148 34.078125 3.1328125 C33.33981445 3.13168457 32.60150391 3.13055664 31.84082031 3.12939453 C30 3 30 3 28 2 C25.89625004 1.84558791 23.78804881 1.75007361 21.6796875 1.68359375 C20.42285156 1.64169922 19.16601562 1.59980469 17.87109375 1.55664062 C16.55238281 1.51732422 15.23367187 1.47800781 13.875 1.4375 C12.53514249 1.39430488 11.19529844 1.35069027 9.85546875 1.30664062 C6.57042185 1.20029019 3.28529719 1.09826192 0 1 C0 0.67 0 0.34 0 0 Z " fill="#F3DB87" transform="translate(222,29)"/>
<path d="M0 0 C4.99356473 0.9664964 9.45254221 2.10409034 14.125 4.125 C18.36773502 5.91490384 21.43074242 6.39732675 26 6 C25.67 7.32 25.34 8.64 25 10 C35.56 9.67 46.12 9.34 57 9 C57.495 9.99 57.495 9.99 58 11 C18.09525357 12.68689278 18.09525357 12.68689278 3 3 C1.97880483 2.02165424 0.97298744 1.02630182 0 0 Z " fill="#CD9A15" transform="translate(164,452)"/>
<path d="M0 0 C0.33 0.99 0.66 1.98 1 3 C-1.9826906 4.52448631 -4.818202 5.93940067 -8 7 C-8.268125 7.61875 -8.53625 8.2375 -8.8125 8.875 C-10 11 -10 11 -12.8125 12.375 C-15.78497845 13.89038117 -16.77771102 14.68848695 -18.75 17.1875 C-19.4925 18.115625 -20.235 19.04375 -21 20 C-21.66 20 -22.32 20 -23 20 C-23.33 20.99 -23.66 21.98 -24 23 C-25.65 23.33 -27.3 23.66 -29 24 C-24.97574928 18.97201869 -20.69510137 14.83341931 -15.625 10.875 C-15.00367188 10.37613281 -14.38234375 9.87726562 -13.7421875 9.36328125 C-9.35889559 5.89468455 -4.79423778 2.87022407 0 0 Z " fill="#E7C764" transform="translate(162,48)"/>
<path d="M0 0 C2.59361088 2.59361088 3.43639867 5.48571832 4.63671875 8.87109375 C4.88041702 9.54922623 5.1241153 10.2273587 5.37519836 10.92604065 C5.8882494 12.35988117 6.39828225 13.7948047 6.90551758 15.23071289 C7.68461286 17.42935238 8.47941065 19.62187893 9.27539062 21.81445312 C9.77180116 23.20798895 10.26727563 24.60185865 10.76171875 25.99609375 C11.0012175 26.65242294 11.24071625 27.30875214 11.48747253 27.98497009 C13.11455363 32.65633911 13.11455363 32.65633911 12 36 C9.63210279 32.73004671 8.54780631 29.61001867 7.5625 25.75 C6.41533238 21.2579331 4.87491899 17.2577288 2.91796875 13.06640625 C0.98549138 8.71627634 0 4.80283356 0 0 Z " fill="#F6DE7C" transform="translate(413,137)"/>
<path d="M0 0 C1.34888732 0.00015905 2.69778075 0.00584927 4.04663086 0.01586914 C5.10991859 0.01799156 5.10991859 0.01799156 6.19468689 0.02015686 C8.46699173 0.02577096 10.73919936 0.03832576 13.01147461 0.05102539 C14.54858257 0.05603858 16.08569206 0.0606018 17.62280273 0.06469727 C21.39823103 0.07574497 25.17358632 0.09301898 28.94897461 0.11352539 C28.94897461 0.44352539 28.94897461 0.77352539 28.94897461 1.11352539 C28.35882568 1.13334473 27.76867676 1.15316406 27.16064453 1.17358398 C24.48547365 1.26887198 21.81107963 1.37853478 19.13647461 1.48852539 C17.74332031 1.53493164 17.74332031 1.53493164 16.32202148 1.58227539 C15.4293457 1.62094727 14.53666992 1.65961914 13.61694336 1.69946289 C12.3836731 1.74659424 12.3836731 1.74659424 11.12548828 1.79467773 C8.65944523 1.99726161 8.65944523 1.99726161 5.94897461 4.11352539 C-0.32720951 4.67389897 -0.32720951 4.67389897 -2.98852539 2.61352539 C-3.51446289 1.87102539 -3.51446289 1.87102539 -4.05102539 1.11352539 C-3.05102539 0.11352539 -3.05102539 0.11352539 0 0 Z " fill="#CC9A19" transform="translate(167.051025390625,448.886474609375)"/>
<path d="M0 0 C0.99 0.495 0.99 0.495 2 1 C2 1.66 2 2.32 2 3 C2.66 3.33 3.32 3.66 4 4 C3.67 11.59 3.34 19.18 3 27 C2.67 27 2.34 27 2 27 C0.60950893 17.91214765 -0.30892527 9.21627045 0 0 Z " fill="#E4BF5B" transform="translate(64,268)"/>
<path d="M0 0 C0 3.70109099 -0.90971034 4.97268394 -3 8 C-4.66666667 9.66666667 -6.33333333 11.33333333 -8 13 C-8.87299655 14.21586529 -9.72688473 15.44564715 -10.5625 16.6875 C-12.40151527 19.36454755 -13.82028577 20.94009526 -17 22 C-13.10671249 13.56124991 -6.809348 6.23480927 0 0 Z " fill="#E8CC74" transform="translate(124,80)"/>
<path d="M0 0 C3.2542015 2.83430453 4.5206753 4.68607774 5 9 C6.32 9.33 7.64 9.66 9 10 C9 10.66 9 11.32 9 12 C5.13518578 10.61423779 2.03192572 8.81080359 -1.3125 6.4375 C-2.19550781 5.81746094 -3.07851562 5.19742187 -3.98828125 4.55859375 C-4.65214844 4.04425781 -5.31601563 3.52992188 -6 3 C-6 2.67 -6 2.34 -6 2 C-4.02 2 -2.04 2 0 2 C0 1.34 0 0.68 0 0 Z " fill="#E6C158" transform="translate(155,440)"/>
<path d="M0 0 C0.78375 0.04125 1.5675 0.0825 2.375 0.125 C1.25048273 3.0969385 0.15206209 5.45940687 -1.625 8.125 C-2.945 7.795 -4.265 7.465 -5.625 7.125 C-5.625 7.785 -5.625 8.445 -5.625 9.125 C-6.285 9.125 -6.945 9.125 -7.625 9.125 C-7.625 10.115 -7.625 11.105 -7.625 12.125 C-8.615 11.795 -9.605 11.465 -10.625 11.125 C-9.66954634 9.66477837 -8.71053322 8.20688532 -7.75 6.75 C-7.21632813 5.93789062 -6.68265625 5.12578125 -6.1328125 4.2890625 C-3.25231152 0.15487198 -3.25231152 0.15487198 0 0 Z " fill="#CBA542" transform="translate(133.625,71.875)"/>
<path d="M0 0 C1.32 0.33 2.64 0.66 4 1 C2.27427512 2.44163007 0.5442653 3.87813165 -1.1875 5.3125 C-2.63189453 6.51326172 -2.63189453 6.51326172 -4.10546875 7.73828125 C-10.83937824 13 -10.83937824 13 -14 13 C-14 12.01 -14 11.02 -14 10 C-12.68 10 -11.36 10 -10 10 C-9.7525 9.401875 -9.505 8.80375 -9.25 8.1875 C-7.80807503 5.66413131 -6.47450374 4.49969924 -4 3 C-3.01 3 -2.02 3 -1 3 C-0.67 2.01 -0.34 1.02 0 0 Z " fill="#F8DF79" transform="translate(353,437)"/>
<path d="M0 0 C2.97 0.33 5.94 0.66 9 1 C8.67 2.32 8.34 3.64 8 5 C8.99 5 9.98 5 11 5 C11.28875 5.763125 11.5775 6.52625 11.875 7.3125 C12.96269013 10.15029308 12.96269013 10.15029308 15 13 C11.34119259 11.4307213 8.74472372 9.1680204 5.8125 6.5 C4.93207031 5.7059375 4.05164063 4.911875 3.14453125 4.09375 C1 2 1 2 0 0 Z " fill="#E2BB4A" transform="translate(133,428)"/>
<path d="M0 0 C0.99 0 1.98 0 3 0 C3 0.66 3 1.32 3 2 C3.99 1.67 4.98 1.34 6 1 C6 3.97 6 6.94 6 10 C7.98 10 9.96 10 12 10 C11.34 10.433125 10.68 10.86625 10 11.3125 C9.34 11.869375 8.68 12.42625 8 13 C8 13.99 8 14.98 8 16 C4.27992944 11.88135045 0 5.79263039 0 0 Z " fill="#DCB347" transform="translate(86,361)"/>
<path d="M0 0 C-0.66 0.66 -1.32 1.32 -2 2 C-4.1640625 1.9765625 -4.1640625 1.9765625 -6.625 1.625 C-7.44226563 1.51414062 -8.25953125 1.40328125 -9.1015625 1.2890625 C-9.72804687 1.19367188 -10.35453125 1.09828125 -11 1 C-11 1.66 -11 2.32 -11 3 C-10.34 3.33 -9.68 3.66 -9 4 C-11.875 4.125 -11.875 4.125 -15 4 C-15.66 3.34 -16.32 2.68 -17 2 C-19.56916657 1.69400937 -22.04758384 1.48912913 -24.625 1.375 C-25.33140625 1.33632813 -26.0378125 1.29765625 -26.765625 1.2578125 C-28.50998524 1.16352276 -30.25495691 1.08067109 -32 1 C-32 0.67 -32 0.34 -32 0 C-27.92514175 -0.16780395 -23.8500684 -0.32834318 -19.7746582 -0.48217773 C-18.38851232 -0.53552222 -17.00244111 -0.59084559 -15.61645508 -0.64819336 C-13.62341774 -0.73031421 -11.63006691 -0.80471215 -9.63671875 -0.87890625 C-7.83787231 -0.94960327 -7.83787231 -0.94960327 -6.00268555 -1.02172852 C-3 -1 -3 -1 0 0 Z " fill="#DCAA1D" transform="translate(225,463)"/>
<path d="M0 0 C0.66 0.33 1.32 0.66 2 1 C-1.04114919 5.95315883 -4.59045124 9.83429549 -8.75 13.875 C-9.35199219 14.46796875 -9.95398438 15.0609375 -10.57421875 15.671875 C-12.04491945 17.11923124 -13.5218267 18.5602763 -15 20 C-15.66 19.67 -16.32 19.34 -17 19 C-12.50908026 13.7004259 -7.79961627 8.7270843 -2.8203125 3.8828125 C-0.93616102 2.12246661 -0.93616102 2.12246661 0 0 Z " fill="#F1C73B" transform="translate(169,70)"/>
<path d="M0 0 C1.32 0.33 2.64 0.66 4 1 C4 1.66 4 2.32 4 3 C4.99 3.33 5.98 3.66 7 4 C8.54613006 8.09724467 9.29227216 10.81857651 8 15 C6.66121428 12.8782637 5.32884524 10.75294812 4 8.625 C3.6184375 8.02171875 3.236875 7.4184375 2.84375 6.796875 C0 2.2265625 0 2.2265625 0 0 Z " fill="#CBA642" transform="translate(94,377)"/>
<path d="M0 0 C0.66 0.33 1.32 0.66 2 1 C1.57702637 1.50974365 1.15405273 2.0194873 0.71826172 2.54467773 C-4.15534491 8.99394556 -4.89507211 14.10892612 -4.875 22.0625 C-4.895625 23.11888672 -4.91625 24.17527344 -4.9375 25.26367188 C-4.98418916 27.84324784 -5.00447956 30.42009199 -5 33 C-5.99 32.67 -6.98 32.34 -8 32 C-7.34 32 -6.68 32 -6 32 C-6.01571045 30.94087402 -6.01571045 30.94087402 -6.03173828 29.86035156 C-6.0733479 26.65693734 -6.09934204 23.45358004 -6.125 20.25 C-6.14175781 19.13882813 -6.15851563 18.02765625 -6.17578125 16.8828125 C-6.18222656 15.81289062 -6.18867188 14.74296875 -6.1953125 13.640625 C-6.20578613 12.65610352 -6.21625977 11.67158203 -6.22705078 10.65722656 C-5.99489618 7.94026889 -5.39036273 6.31887487 -4 4 C-3.34 4 -2.68 4 -2 4 C-1.34 2.68 -0.68 1.36 0 0 Z " fill="#F2C633" transform="translate(266,114)"/>
<path d="M0 0 C7.50752597 1.23074196 13.62378103 3.80991325 20 8 C20.33 8.66 20.66 9.32 21 10 C13.55620912 7.76686274 6.88023305 4.59727921 0 1 C0 0.67 0 0.34 0 0 Z " fill="#D5B96E" transform="translate(164,452)"/>
<path d="M0 0 C1.32 0.33 2.64 0.66 4 1 C-0.66666667 5.66666667 -5.33333333 10.33333333 -10 15 C-10.33 14.01 -10.66 13.02 -11 12 C-10.360625 11.7525 -9.72125 11.505 -9.0625 11.25 C-8.0415625 10.63125 -8.0415625 10.63125 -7 10 C-6.7834375 9.0409375 -6.7834375 9.0409375 -6.5625 8.0625 C-5.73006262 5.0102296 -3.65333665 4.52566858 -1 3 C-0.67 2.01 -0.34 1.02 0 0 Z " fill="#F9E185" transform="translate(369,422)"/>
<path d="M0 0 C4.94970631 1.1999288 7.2379894 4.27923887 10.35546875 8.03515625 C12.04863486 10.12575294 12.04863486 10.12575294 14.375 12.3125 C16 14 16 14 17 17 C13.24473608 15.47229036 11.14969375 13.21377694 8.5 10.1875 C7.7471875 9.33542969 6.994375 8.48335938 6.21875 7.60546875 C4.09296356 5.10916671 2.03231705 2.57272863 0 0 Z " fill="#D2B056" transform="translate(116,411)"/>
<path d="M0 0 C0.66 0 1.32 0 2 0 C4.26598448 3.39897673 4.23742654 4.56319173 4.1953125 8.54296875 C4.18886719 9.61611328 4.18242187 10.68925781 4.17578125 11.79492188 C4.15902344 12.91447266 4.14226562 14.03402344 4.125 15.1875 C4.11597656 16.31865234 4.10695313 17.44980469 4.09765625 18.61523438 C4.07406862 21.41036828 4.041153 24.20507845 4 27 C6.64 27 9.28 27 12 27 C12 27.33 12 27.66 12 28 C9.03 28 6.06 28 3 28 C3 20.41 3 12.82 3 5 C2.34 5 1.68 5 1 5 C0.67 3.35 0.34 1.7 0 0 Z " fill="#F4C734" transform="translate(280,116)"/>
<path d="M0 0 C2.56687367 3.8503105 1.83288724 5.58569763 1 10 C-0.98 10.66 -2.96 11.32 -5 12 C-5 11.01 -5 10.02 -5 9 C-4.34 9 -3.68 9 -3 9 C-2.87625 7.88625 -2.7525 6.7725 -2.625 5.625 C-2 2 -2 2 0 0 Z " fill="#C59721" transform="translate(98,117)"/>
<path d="M0 0 C1.9962709 3.48913436 2.79109218 6.95816025 3.625 10.875 C3.88539063 12.06867188 4.14578125 13.26234375 4.4140625 14.4921875 C4.95735001 17.74466875 5.11061526 20.71170995 5 24 C4.67 24 4.34 24 4 24 C3.690625 22.865625 3.38125 21.73125 3.0625 20.5625 C2.37075469 17.21224901 2.37075469 17.21224901 1 16 C0.76321284 13.30764224 0.57801975 10.63501844 0.4375 7.9375 C0.39431641 7.17888672 0.35113281 6.42027344 0.30664062 5.63867188 C0.20026367 3.75934562 0.09960066 1.87969756 0 0 Z " fill="#F9E185" transform="translate(428,181)"/>
<path d="M0 0 C-0.9375 2.4375 -0.9375 2.4375 -3 5 C-5.98877701 5.7524935 -8.92545953 5.92909865 -12 6 C-10.21875 2.15625 -10.21875 2.15625 -8.25 0.75 C-5.42246362 -0.19251213 -2.96006696 -0.1345485 0 0 Z " fill="#D3AE51" transform="translate(175,44)"/>
<path d="M0 0 C6.6 0.33 13.2 0.66 20 1 C20.33 1.99 20.66 2.98 21 4 C18.62412376 3.88513575 16.24984829 3.75841844 13.875 3.625 C12.87726563 3.57859375 12.87726563 3.57859375 11.859375 3.53125 C7.60178738 3.28080367 3.97914217 2.52471803 0 1 C0 0.67 0 0.34 0 0 Z " fill="#E0B137" transform="translate(189,463)"/>
<path d="M0 0 C0.66 0.33 1.32 0.66 2 1 C0.04516895 3.14911854 -1.91363395 5.29435975 -3.875 7.4375 C-4.43058594 8.04916016 -4.98617188 8.66082031 -5.55859375 9.29101562 C-6.09355469 9.87431641 -6.62851562 10.45761719 -7.1796875 11.05859375 C-7.67194824 11.59798584 -8.16420898 12.13737793 -8.67138672 12.69311523 C-10 14 -10 14 -12 15 C-10.75023244 11.34683329 -10.32901247 10.21934164 -7 8 C-6.27617533 5.94074861 -6.27617533 5.94074861 -6 4 C-5.01 4 -4.02 4 -3 4 C-3 3.34 -3 2.68 -3 2 C-2.01 1.34 -1.02 0.68 0 0 Z " fill="#F9E58F" transform="translate(386,406)"/>
<path d="M0 0 C10.23 0 20.46 0 31 0 C30.01 1.485 30.01 1.485 29 3 C28.34 3 27.68 3 27 3 C27 2.34 27 1.68 27 1 C18.09 1 9.18 1 0 1 C0 0.67 0 0.34 0 0 Z " fill="#D29F15" transform="translate(191,37)"/>
<path d="M0 0 C1.4606285 2.64738916 2 3.89448334 2 7 C1.34 7 0.68 7 0 7 C0.020625 8.051875 0.04125 9.10375 0.0625 10.1875 C0.01103198 13.32704904 -0.26517187 15.96883396 -1 19 C-1.66 19 -2.32 19 -3 19 C-2.48446121 12.50149789 -1.53332291 6.33773468 0 0 Z " fill="#E4C168" transform="translate(70,185)"/>
<path d="M0 0 C4.97209562 1.76429199 9.43438061 4.3939166 14 7 C14 7.33 14 7.66 14 8 C8.73628638 8.50130606 6.0909066 7.31168629 2 4 C2 3.34 2 2.68 2 2 C1.34 2 0.68 2 0 2 C0 1.34 0 0.68 0 0 Z " fill="#F9E692" transform="translate(329,44)"/>
<path d="M0 0 C0.33 0.66 0.66 1.32 1 2 C1.66 2 2.32 2 3 2 C3.07347656 3.06541016 3.07347656 3.06541016 3.1484375 4.15234375 C3.22320312 5.07144531 3.29796875 5.99054688 3.375 6.9375 C3.44460937 7.85402344 3.51421875 8.77054687 3.5859375 9.71484375 C3.72257812 10.46894531 3.85921875 11.22304688 4 12 C4.66 12.33 5.32 12.66 6 13 C5.67 14.65 5.34 16.3 5 18 C3.03723564 15.05585347 2.28266038 12.94101364 1.375 9.5625 C0.98441406 8.14130859 0.98441406 8.14130859 0.5859375 6.69140625 C0 4 0 4 0 0 Z " fill="#E1BA56" transform="translate(71,315)"/>
<path d="M0 0 C0.28875 0.61875 0.5775 1.2375 0.875 1.875 C1.93720042 4.13325765 1.93720042 4.13325765 4 6 C4.1953125 9.0390625 4.1953125 9.0390625 4.125 12.625 C4.10695313 13.81351562 4.08890625 15.00203125 4.0703125 16.2265625 C4.04710938 17.14179688 4.02390625 18.05703125 4 19 C2.37893452 16.05075061 1.51556732 13.36193006 0.875 10.0625 C0.62363281 8.81146484 0.62363281 8.81146484 0.3671875 7.53515625 C-0.00211177 4.98541981 -0.06442528 2.57240933 0 0 Z " fill="#E3C264" transform="translate(67,296)"/>
<path d="M0 0 C1.04449911 3.13349732 0.93423645 3.98968256 0 7 C-0.66 7 -1.32 7 -2 7 C-2.12375 7.928125 -2.2475 8.85625 -2.375 9.8125 C-3 13 -3 13 -5 16 C-5.66 16 -6.32 16 -7 16 C-5.60668753 10.04675579 -3.11464243 5.24258516 0 0 Z " fill="#DEC36D" transform="translate(95,119)"/>
<path d="M0 0 C0.99 0 1.98 0 3 0 C2.1875 1.9375 2.1875 1.9375 1 4 C0.01 4.33 -0.98 4.66 -2 5 C-2.33 5.99 -2.66 6.98 -3 8 C-4.65 8.33 -6.3 8.66 -8 9 C-7.04270084 7.87411986 -6.08412105 6.7493285 -5.125 5.625 C-4.59132812 4.99851562 -4.05765625 4.37203125 -3.5078125 3.7265625 C-2.38567993 2.44163349 -1.20628025 1.20628025 0 0 Z " fill="#E3C15C" transform="translate(141,63)"/>
<path d="M0 0 C0.66 0.33 1.32 0.66 2 1 C1.31164062 1.56267578 1.31164062 1.56267578 0.609375 2.13671875 C-2.30517714 4.5675532 -4.86906876 6.83633595 -7.25 9.8125 C-9 12 -9 12 -12 13 C-10.61536056 9.87250593 -9.00477577 7.7595015 -6.5625 5.375 C-5.96566406 4.78460938 -5.36882812 4.19421875 -4.75390625 3.5859375 C-3 2 -3 2 0 0 Z " fill="#F4C634" transform="translate(234,156)"/>
<path d="M0 0 C6.27 0 12.54 0 19 0 C14.60171741 2.1991413 11.81449408 2.51855059 7 3 C7 2.67 7 2.34 7 2 C4.69 1.67 2.38 1.34 0 1 C0 0.67 0 0.34 0 0 Z " fill="#E5B830" transform="translate(229,31)"/>
<path d="M0 0 C1.32 0.33 2.64 0.66 4 1 C2.42065361 1.98558449 0.83634827 2.96322541 -0.75 3.9375 C-2.07257813 4.75541016 -2.07257813 4.75541016 -3.421875 5.58984375 C-5.68399917 6.82715712 -7.48566325 7.53590513 -10 8 C-10 7.34 -10 6.68 -10 6 C-3.375 2 -3.375 2 0 2 C0 1.34 0 0.68 0 0 Z " fill="#F8E89E" transform="translate(335,450)"/>
<path d="M0 0 C1.13508688 3.3515741 0.87309359 5.35675676 -0.25 8.6875 C-0.50265625 9.47511719 -0.7553125 10.26273438 -1.015625 11.07421875 C-2 13 -2 13 -5 14 C-4.54636829 12.41531323 -4.08688548 10.83230076 -3.625 9.25 C-3.36976562 8.36828125 -3.11453125 7.4865625 -2.8515625 6.578125 C-2.0790066 4.23919428 -1.16374324 2.16557438 0 0 Z " fill="#E5C86D" transform="translate(87,135)"/>
<path d="M0 0 C3.3 0 6.6 0 10 0 C9.67 1.32 9.34 2.64 9 4 C9.66 4.33 10.32 4.66 11 5 C6.1948447 5.56531239 3.75696103 3.88324916 0 1 C0 0.67 0 0.34 0 0 Z " fill="#C89A2E" transform="translate(180,458)"/>
<path d="M0 0 C0.66 0.33 1.32 0.66 2 1 C-1.63 4.63 -5.26 8.26 -9 12 C-9 8.47601214 -8.44884893 7.98495633 -6.1875 5.4375 C-5.40439453 4.53837891 -5.40439453 4.53837891 -4.60546875 3.62109375 C-3 2 -3 2 0 0 Z " fill="#EABC28" transform="translate(245,178)"/>
<path d="M0 0 C0.99 0 1.98 0 3 0 C1.68938409 4.23429756 0.05643741 8.07407404 -2 12 C-3.15957207 8.52128379 -2.77456651 7.65780355 -1.5625 4.3125 C-1.13130859 3.10013672 -1.13130859 3.10013672 -0.69140625 1.86328125 C-0.46324219 1.24839844 -0.23507812 0.63351562 0 0 Z " fill="#F8E181" transform="translate(409,365)"/>
<path d="M0 0 C3.2826932 1.49076434 5.93077441 3.38620321 8.75 5.625 C9.94882812 6.57246094 9.94882812 6.57246094 11.171875 7.5390625 C11.77515625 8.02117187 12.3784375 8.50328125 13 9 C9.34419169 9 7.64459621 8.62445258 5 6.0625 C4.34 5.381875 3.68 4.70125 3 4 C2.01 3.34 1.02 2.68 0 2 C0 1.34 0 0.68 0 0 Z " fill="#FAE78F" transform="translate(348,56)"/>
<path d="M0 0 C3.48331435 3.01887244 4.79157144 5.56909529 6 10 C5.01 10 4.02 10 3 10 C2.67 8.02 2.34 6.04 2 4 C1.34 4 0.68 4 0 4 C0 2.68 0 1.36 0 0 Z " fill="#F8E58C" transform="translate(397,108)"/>
<path d="M0 0 C0.33 0.66 0.66 1.32 1 2 C-0.1875 5.5625 -0.1875 5.5625 -2 9 C-4.11328125 9.71484375 -4.11328125 9.71484375 -6 10 C-5.18957164 8.51969728 -4.37659652 7.04078858 -3.5625 5.5625 C-2.88380859 4.32693359 -2.88380859 4.32693359 -2.19140625 3.06640625 C-1 1 -1 1 0 0 Z " fill="#E9C870" transform="translate(106,102)"/>
<path d="M0 0 C4.96916636 0.51405169 9.29026351 1.23384882 14 3 C9.91556885 4.53166168 6.20544343 3.63081652 2 3 C2 2.34 2 1.68 2 1 C1.34 0.67 0.68 0.34 0 0 Z " fill="#EDBF2C" transform="translate(226,463)"/>
<path d="M0 0 C2.3125 0.5625 2.3125 0.5625 5 2 C6.34776978 4.27962623 7.11364216 6.48087772 8 9 C4.46766245 7.82255415 4.13691925 7.04394359 2.3125 3.9375 C1.87550781 3.20402344 1.43851562 2.47054688 0.98828125 1.71484375 C0.49908203 0.86599609 0.49908203 0.86599609 0 0 Z " fill="#E8CA68" transform="translate(107,399)"/>
<path d="M0 0 C3.0916909 2.52956528 3.90931332 5.22454612 5 9 C4.34 9 3.68 9 3 9 C3 8.34 3 7.68 3 7 C2.01 6.67 1.02 6.34 0 6 C0 4.02 0 2.04 0 0 Z " fill="#F8E489" transform="translate(403,118)"/>
<path d="M0 0 C0.66 0 1.32 0 2 0 C0.55049545 3.7910119 -1.15172566 7.3874638 -3 11 C-3.33 11 -3.66 11 -4 11 C-4 9.35 -4 7.7 -4 6 C-3.34 6 -2.68 6 -2 6 C-1.7834375 5.071875 -1.7834375 5.071875 -1.5625 4.125 C-1 2 -1 2 0 0 Z " fill="#FAE99A" transform="translate(404,377)"/>
<path d="M0 0 C0.99 0 1.98 0 3 0 C4.42944945 2.35438733 5.08661261 3.48032433 4.625 6.25 C4.41875 6.8275 4.2125 7.405 4 8 C1.84622436 5.37801226 0.59927826 3.35595828 0 0 Z " fill="#E3BE56" transform="translate(86,361)"/>
<path d="M0 0 C0.33 0.99 0.66 1.98 1 3 C-2.29549466 4.72264494 -5.33118845 6.29445932 -9 7 C-6.24479785 4.04070881 -3.53372712 1.96318174 0 0 Z " fill="#EBD48A" transform="translate(162,48)"/>
<path d="M0 0 C0.66 0 1.32 0 2 0 C3.05404945 3.98196457 2.84098656 6.98195309 2 11 C-0.67927341 6.98108988 -0.15601248 4.75838077 0 0 Z " fill="#CA9F37" transform="translate(76,328)"/>
<path d="M0 0 C0.66 0.33 1.32 0.66 2 1 C0.75023244 4.65316671 0.32901247 5.78065836 -3 8 C-2.25 2.25 -2.25 2.25 0 0 Z " fill="#E6B12B" transform="translate(109,100)"/>
<path d="M0 0 C1.39864092 3.17872935 0.89282517 4.30111022 -0.3125 7.6875 C-2 11 -2 11 -4 12 C-3.71640113 10.5608866 -3.42278601 9.12374482 -3.125 7.6875 C-2.96257812 6.88699219 -2.80015625 6.08648437 -2.6328125 5.26171875 C-2 3 -2 3 0 0 Z " fill="#F3C531" transform="translate(315,302)"/>
<path d="M0 0 C5.875 3.625 5.875 3.625 7 7 C5.68 6.67 4.36 6.34 3 6 C3 5.34 3 4.68 3 4 C2.01 3.67 1.02 3.34 0 3 C0 2.01 0 1.02 0 0 Z " fill="#F5E387" transform="translate(365,70)"/>
<path d="M0 0 C-3.90028225 2.60018816 -7.47434569 2.15085514 -12 2 C-11.67 1.34 -11.34 0.68 -11 0 C-3.82105263 -1.27368421 -3.82105263 -1.27368421 0 0 Z " fill="#E4B12D" transform="translate(210,34)"/>
<path d="M0 0 C1.32 0.33 2.64 0.66 4 1 C-1.75 5 -1.75 5 -4 5 C-4 4.01 -4 3.02 -4 2 C-2.68 2 -1.36 2 0 2 C0 1.34 0 0.68 0 0 Z " fill="#F9E890" transform="translate(343,445)"/>
<path d="M0 0 C4.41889613 1.35021826 6.34345343 3.26115668 9 7 C6.62051228 6.82374165 5.29774151 6.30280227 3.62109375 4.59765625 C2.37884514 3.09350908 1.18623944 1.54870149 0 0 Z " fill="#D6BC63" transform="translate(116,411)"/>
<path d="M0 0 C1 3 1 3 0.0625 5.1875 C-0.4634375 6.0846875 -0.4634375 6.0846875 -1 7 C-1.66 7 -2.32 7 -3 7 C-3.33 8.32 -3.66 9.64 -4 11 C-4.33 10.34 -4.66 9.68 -5 9 C-4.00390625 6.8359375 -4.00390625 6.8359375 -2.5625 4.375 C-2.08941406 3.55773437 -1.61632812 2.74046875 -1.12890625 1.8984375 C-0.75636719 1.27195313 -0.38382813 0.64546875 0 0 Z " fill="#F4C733" transform="translate(218,172)"/>
<path d="M0 0 C0 3.62453269 -0.92469613 5.07920195 -3 8 C-3.99 8.33 -4.98 8.66 -6 9 C-5.52797514 4.75177626 -3.03344482 2.80010291 0 0 Z " fill="#D9B965" transform="translate(124,80)"/>
<path d="M0 0 C0.66 0 1.32 0 2 0 C2.103125 0.639375 2.20625 1.27875 2.3125 1.9375 C2.539375 2.618125 2.76625 3.29875 3 4 C3.99 4.33 4.98 4.66 6 5 C5.67 6.32 5.34 7.64 5 9 C4.16396622 7.68921847 3.3312426 6.37632511 2.5 5.0625 C2.0359375 4.33160156 1.571875 3.60070312 1.09375 2.84765625 C0 1 0 1 0 0 Z " fill="#E7C97D" transform="translate(97,383)"/>
<path d="M0 0 C0.66 0 1.32 0 2 0 C1.34 2.97 0.68 5.94 0 9 C-0.33 9 -0.66 9 -1 9 C-1.09765625 2.84765625 -1.09765625 2.84765625 -1 1 C-0.67 0.67 -0.34 0.34 0 0 Z " fill="#FBDF7E" transform="translate(424,327)"/>
</svg>
