<?xml version="1.0" encoding="UTF-8"?>
<svg version="1.1" xmlns="http://www.w3.org/2000/svg" width="500" height="500">
<path d="M0 0 C1.53985554 -0.0083016 1.53985554 -0.0083016 3.11081928 -0.0167709 C6.54946274 -0.03038026 9.98738078 -0.01540604 13.42601013 -0.00050354 C15.89166065 -0.00428657 18.35730904 -0.00978647 20.82295227 -0.01687622 C26.82373628 -0.02939827 32.8242361 -0.0232596 38.8249926 -0.00820064 C45.81380395 0.00866961 52.80256297 0.00544797 59.79138838 0.00170528 C72.26094677 -0.00417153 84.73040414 0.00999177 97.19993591 0.03465271 C109.29893276 0.05857814 121.39779466 0.06565475 133.49681091 0.05516052 C146.67439354 0.04375125 159.85191378 0.04182095 173.02949566 0.05625862 C174.43458012 0.05778445 175.83966459 0.05930481 177.24474907 0.06081963 C178.28172635 0.06195635 178.28172635 0.06195635 179.33965268 0.06311603 C184.21102872 0.06785839 189.0823769 0.0660078 193.95375252 0.06175423 C200.50944562 0.05631326 207.06497883 0.06706889 213.62064743 0.08870888 C216.02931906 0.0942824 218.43800866 0.09473689 220.84668159 0.08975601 C224.12911661 0.08381856 227.41097626 0.09627932 230.69335938 0.11352539 C231.65133047 0.10751535 232.60930157 0.1015053 233.59630209 0.09531313 C238.45362368 0.14186786 241.89050264 0.25479906 245.78318787 3.50120544 C248.40294126 7.43083553 248.07568014 10.75640906 248.03318787 15.31370544 C248.04092224 16.0697406 248.04865662 16.82577576 248.05662537 17.60472107 C248.02407165 27.9323891 246.78460731 38.23206252 245.78318787 48.50120544 C246.37263687 48.49454361 246.96208588 48.48788177 247.56939697 48.48101807 C253.75087483 48.41421559 259.93224873 48.36922004 266.11399841 48.33641052 C268.41547314 48.32140196 270.71691964 48.30098871 273.01829529 48.27488708 C276.34234112 48.23815332 279.66600605 48.2213992 282.99021912 48.20823669 C284.51278069 48.18501091 284.51278069 48.18501091 286.06610107 48.16131592 C294.43857699 48.15938042 303.98561664 49.11002827 310.78318787 54.50120544 C310.78318787 55.16120544 310.78318787 55.82120544 310.78318787 56.50120544 C311.44318787 56.50120544 312.10318787 56.50120544 312.78318787 56.50120544 C312.78318787 57.16120544 312.78318787 57.82120544 312.78318787 58.50120544 C313.44318787 58.50120544 314.10318787 58.50120544 314.78318787 58.50120544 C314.78318787 59.16120544 314.78318787 59.82120544 314.78318787 60.50120544 C315.63590271 60.84731873 315.63590271 60.84731873 316.50584412 61.20042419 C319.36305761 62.83241749 321.07038159 64.82799611 323.22068787 67.31370544 C325.58803274 70.01371643 327.93073981 72.64875739 330.47068787 75.18870544 C338.78318787 83.50120544 338.78318787 83.50120544 338.78318787 86.50120544 C339.44318787 86.50120544 340.10318787 86.50120544 340.78318787 86.50120544 C342.22850037 87.93479919 342.22850037 87.93479919 343.90818787 89.93870544 C345.85135431 92.24697623 347.7900212 94.50831873 349.88084412 96.68479919 C358.63088375 105.8600744 360.2758123 113.62049217 360.12449646 126.00975037 C359.90402382 134.21204372 359.18895727 142.34635771 358.34959412 150.50511169 C357.90174761 154.96766347 357.58138022 159.42678397 357.31053162 163.90354919 C357.2323822 165.16417175 357.15423279 166.42479431 357.07371521 167.72361755 C356.92460141 170.19389357 356.78519981 172.66477996 356.65672302 175.13621521 C356.2097889 182.31528633 355.82064817 187.76008273 350.22068787 192.81370544 C346.72848451 195.23138469 344.93412063 195.63833043 340.72068787 195.62620544 C339.8222113 195.62878357 338.92373474 195.63136169 337.99803162 195.63401794 C335.78318787 195.50120544 335.78318787 195.50120544 334.78318787 194.50120544 C334.64851654 192.71157314 334.55134437 190.91908432 334.47068787 189.12620544 C333.73571719 179.74976136 331.01880405 172.27925342 324.95506287 165.05979919 C323.78318787 163.50120544 323.78318787 163.50120544 323.78318787 161.50120544 C323.12318787 161.50120544 322.46318787 161.50120544 321.78318787 161.50120544 C321.78318787 160.84120544 321.78318787 160.18120544 321.78318787 159.50120544 C321.12318787 159.25370544 320.46318787 159.00620544 319.78318787 158.75120544 C316.74077283 157.48353251 313.85862553 156.0336737 310.94334412 154.50120544 C305.43531392 151.95137592 300.51084975 151.14307374 294.47068787 151.18870544 C293.33748108 151.19498962 293.33748108 151.19498962 292.18138123 151.20140076 C286.52151943 151.31607411 281.97974459 152.22959651 276.78318787 154.50120544 C276.02393005 154.71003357 275.26467224 154.91886169 274.48240662 155.13401794 C264.52719966 158.15074733 256.06775339 167.24417717 250.65818787 175.93870544 C248.23953743 180.8775527 247.34888315 186.28323577 246.36131287 191.65745544 C245.78318787 194.50120544 245.78318787 194.50120544 244.78318787 195.50120544 C242.8998824 195.59993825 241.01282949 195.62752732 239.12693787 195.62818909 C237.89854187 195.63100891 236.67014587 195.63382874 235.40452576 195.63673401 C234.03074631 195.63478941 232.65696702 195.63274123 231.28318787 195.63059998 C229.84625708 195.63195398 228.40932663 195.6337339 226.97239685 195.63591003 C223.05928198 195.6404845 219.14619336 195.63869476 215.233078 195.63553095 C211.14691596 195.63300741 207.06075624 195.63534487 202.97459412 195.63691711 C196.11130874 195.63873883 189.24803411 195.63633245 182.38475037 195.63157654 C174.4384678 195.62613391 166.4922109 195.62789657 158.54592896 195.63340294 C151.73575622 195.63793402 144.92559123 195.63858465 138.11541748 195.63596427 C134.04259317 195.63440147 129.96978094 195.63420783 125.8969574 195.63750076 C122.06883029 195.6403794 118.24073641 195.63840393 114.41261292 195.63260651 C113.00365759 195.63127887 111.59469948 195.63167309 110.18574524 195.63386917 C108.27031043 195.63658048 106.35486955 195.63258602 104.43943787 195.62818909 C103.36500427 195.62781206 102.29057068 195.62743504 101.18357849 195.62704659 C98.78318787 195.50120544 98.78318787 195.50120544 97.78318787 194.50120544 C97.64897814 192.52384884 97.55156177 190.54396068 97.47068787 188.56370544 C96.83605574 179.52019772 93.91545305 172.83301285 88.78318787 165.50120544 C88.78318787 164.84120544 88.78318787 164.18120544 88.78318787 163.50120544 C88.12318787 163.50120544 87.46318787 163.50120544 86.78318787 163.50120544 C86.78318787 162.84120544 86.78318787 162.18120544 86.78318787 161.50120544 C86.12318787 161.50120544 85.46318787 161.50120544 84.78318787 161.50120544 C84.78318787 160.84120544 84.78318787 160.18120544 84.78318787 159.50120544 C84.07291443 159.22405701 83.36264099 158.94690857 82.63084412 158.66136169 C78.82662994 157.11149666 75.12497962 155.36137718 71.40428162 153.62229919 C60.46195197 148.94204792 48.46755481 150.92906186 37.77146912 155.11448669 C34.76476077 156.44475265 34.76476077 156.44475265 32.01365662 158.16917419 C29.78318787 159.50120544 29.78318787 159.50120544 27.78318787 159.50120544 C27.78318787 160.16120544 27.78318787 160.82120544 27.78318787 161.50120544 C26.61689335 162.5698154 25.39812855 163.58150524 24.15818787 164.56370544 C14.59085439 172.77876564 10.74736663 183.26139315 8.78318787 195.50120544 C3.76618882 195.62523745 -1.24990895 195.71574561 -6.26808167 195.77586365 C-7.97331803 195.8009359 -9.67844768 195.83500308 -11.38331604 195.87840271 C-13.84110388 195.9393811 -16.29746574 195.96748656 -18.75587463 195.98948669 C-19.89060715 196.02819633 -19.89060715 196.02819633 -21.04826355 196.06768799 C-25.08036035 196.06980204 -27.49827902 195.67365917 -30.68312073 193.09568787 C-35.21703455 188.45299157 -34.40115942 184.1076344 -34.33692932 177.92649841 C-34.19289263 171.0744398 -33.63533946 164.25402464 -33.04493713 157.4282074 C-32.8399844 155.04242943 -32.648967 152.65579658 -32.45899963 150.26878357 C-32.32961602 148.72249038 -32.19943656 147.17626353 -32.06837463 145.63011169 C-32.01307587 144.93100174 -31.9577771 144.23189178 -31.90080261 143.51159668 C-31.45917887 138.56008816 -30.45292521 134.44565775 -29.21681213 129.50120544 C-6.94181213 129.00620544 -6.94181213 129.00620544 15.78318787 128.50120544 C19.24824082 123.15763946 19.24824082 123.15763946 18.13731384 119.66444397 C14.29631069 116.13489369 10.14960368 116.82491468 5.11717224 116.88938904 C4.01939957 116.88372421 2.92162689 116.87805939 1.79058838 116.8722229 C-1.84763931 116.85868916 -5.48487749 116.87968815 -9.12306213 116.89964294 C-11.64508246 116.89414667 -14.16709832 116.88602562 -16.68910217 116.87538147 C-23.33635138 116.85244726 -29.98320311 116.85668987 -36.63044739 116.8691864 C-47.27118073 116.88894174 -57.91173279 116.87764005 -68.5524292 116.84332657 C-72.27684435 116.83719842 -76.00085183 116.85051363 -79.72523499 116.86531067 C-82.00042325 116.86236386 -84.27561074 116.85870988 -86.55079651 116.85423279 C-88.11249825 116.86816826 -88.11249825 116.86816826 -89.70574951 116.88238525 C-90.65633743 116.87707291 -91.60692535 116.87176056 -92.58631897 116.86628723 C-93.41295799 116.86817236 -94.23959702 116.87005749 -95.09128571 116.87199974 C-97.76837659 116.40498601 -98.64091275 115.69494209 -100.21681213 113.50120544 C-100.99470367 106.5001816 -100.99470367 106.5001816 -98.58433533 103.40476227 C-95.49904189 100.9240975 -93.77184933 101.00394595 -89.84034729 101.00914001 C-87.87185822 100.99694176 -87.87185822 100.99694176 -85.86360168 100.98449707 C-84.41102339 100.99558924 -82.95844772 101.00702977 -81.50587463 101.01878357 C-79.97484489 101.01659755 -78.44381682 101.01260057 -76.91279602 101.00692749 C-73.61694646 100.998362 -70.32142251 101.00214673 -67.02558899 101.01535034 C-61.81529561 101.03567174 -56.60533114 101.02571674 -51.39503479 101.01109314 C-39.39475435 100.9820486 -27.39457035 100.99279563 -15.39427185 101.00379181 C-4.39598972 101.01346135 6.60212144 101.01477955 17.60037422 100.98391104 C22.78108405 100.97051999 27.96130241 100.97652172 33.14198303 100.99727631 C36.36315933 101.00624963 39.58414529 100.99879985 42.80530548 100.98686409 C44.3000884 100.98472982 45.79489919 100.98947478 47.2896347 101.00156975 C49.32860657 101.01713973 51.36773085 101.00590602 53.40672302 100.99327087 C55.11899582 100.99553303 55.11899582 100.99553303 56.86585999 100.99784088 C60.44889861 100.38787723 61.67555613 99.42987666 63.78318787 96.50120544 C63.63705892 92.80688033 63.63705892 92.80688033 62.78318787 89.50120544 C62.11781163 89.49881709 61.4524354 89.49642874 60.76689625 89.49396801 C44.57534076 89.43482691 28.3839533 89.35928266 12.19256306 89.26549053 C4.36251484 89.22052868 -3.46748786 89.18111495 -11.29762268 89.1547699 C-18.12252969 89.13179292 -24.94729269 89.09839836 -31.77208549 89.05250388 C-35.38564268 89.02856745 -38.99905721 89.0098415 -42.61269188 89.00359154 C-46.64719847 88.99641844 -50.68120863 88.96598742 -54.71559143 88.93357849 C-55.91321106 88.93501358 -57.11083069 88.93644867 -58.34474182 88.93792725 C-59.44545517 88.9253891 -60.54616852 88.91285095 -61.68023682 88.89993286 C-62.63429255 88.8953239 -63.58834829 88.89071493 -64.57131481 88.8859663 C-67.73712688 88.42553092 -69.63665853 87.3638348 -72.21681213 85.50120544 C-73.58633886 82.76215199 -73.34302575 80.53033212 -73.21681213 77.50120544 C-72.88681213 76.84120544 -72.55681213 76.18120544 -72.21681213 75.50120544 C-71.55681213 75.50120544 -70.89681213 75.50120544 -70.21681213 75.50120544 C-70.21681213 74.84120544 -70.21681213 74.18120544 -70.21681213 73.50120544 C-67.39727573 72.70169297 -64.89354494 72.37495513 -61.96632385 72.36990356 C-61.12519043 72.36589539 -60.28405701 72.36188721 -59.41743469 72.35775757 C-58.50302612 72.35828629 -57.58861755 72.358815 -56.64649963 72.35935974 C-55.67698364 72.35588531 -54.70746765 72.35241089 -53.70857239 72.34883118 C-51.60457431 72.34148304 -49.50056852 72.33613264 -47.39656067 72.33254051 C-44.06818854 72.32537332 -40.73996368 72.30970626 -37.41163635 72.29119873 C-27.94892855 72.23872991 -18.48630303 72.19071781 -9.02345276 72.17527771 C-3.23505111 72.16521354 2.55297774 72.13593294 8.3412323 72.0939579 C10.54843836 72.08162499 12.75569701 72.0765308 14.9629364 72.07875633 C18.04665656 72.0811013 21.12930036 72.05900517 24.21287537 72.03123474 C25.12728394 72.03783615 26.0416925 72.04443756 26.98381042 72.05123901 C32.0164301 71.98977002 32.0164301 71.98977002 36.3891449 69.66729736 C38.08773633 67.48312049 38.08773633 67.48312049 37.65818787 64.31370544 C37.22506287 62.92151794 37.22506287 62.92151794 36.78318787 61.50120544 C34.35458208 60.28690255 32.80431527 60.37121306 30.08985901 60.36317444 C29.10002014 60.3577211 28.11018127 60.35226776 27.09034729 60.34664917 C26.00043488 60.34560684 24.91052246 60.34456451 23.7875824 60.3434906 C22.64279419 60.33840988 21.49800598 60.33332916 20.31852722 60.32809448 C17.82598263 60.31737312 15.33342831 60.30875991 12.8408699 60.30197525 C8.89938008 60.29021837 4.95800142 60.2707743 1.01655579 60.24885559 C-10.19221559 60.18691109 -21.40098207 60.13291289 -32.60987854 60.09983826 C-39.45926195 60.0795386 -46.30843612 60.04366084 -53.1577034 59.99908066 C-55.77241268 59.9848875 -58.38715765 59.97619079 -61.00190353 59.97302628 C-64.65562394 59.96813607 -68.30880597 59.94502604 -71.9624176 59.91770935 C-73.04828156 59.92071548 -74.13414551 59.92372162 -75.25291443 59.92681885 C-76.7461322 59.91017937 -76.7461322 59.91017937 -78.26951599 59.89320374 C-79.13340376 59.88989359 -79.99729153 59.88658344 -80.88735771 59.88317299 C-83.73476439 59.41627528 -85.12296897 58.45691863 -87.21681213 56.50120544 C-87.96771953 53.45340486 -87.79649161 50.57752423 -87.21681213 47.50120544 C-84.57427784 44.58530554 -81.66408709 43.5786325 -77.72929287 43.36812687 C-76.73174512 43.36427196 -75.73419737 43.36041704 -74.7064209 43.35644531 C-72.98808296 43.34609756 -72.98808296 43.34609756 -71.23503113 43.33554077 C-69.34837234 43.33162071 -69.34837234 43.33162071 -67.42359924 43.32762146 C-66.08651514 43.32131568 -64.74943314 43.31454985 -63.41235352 43.30735779 C-60.53294245 43.29269257 -57.65353947 43.28096615 -54.77410698 43.27140999 C-50.22400982 43.25596516 -45.67398233 43.23201794 -41.12393188 43.20651245 C-28.18545426 43.13528355 -15.24693735 43.07544624 -2.30836487 43.0243988 C4.83731783 42.99613137 11.98293057 42.96077366 19.12853998 42.91774505 C23.65482263 42.89092034 28.18102617 42.87304787 32.70737278 42.86170781 C35.51871827 42.85260509 38.3299672 42.83525512 41.14125633 42.81552887 C43.07312255 42.8044492 45.00503765 42.80330213 46.93693542 42.80239868 C48.65104362 42.7878212 48.65104362 42.7878212 50.39978027 42.77294922 C51.396951 42.76871728 52.39412172 42.76448534 53.42150974 42.76012516 C55.97179051 42.72982553 55.97179051 42.72982553 57.78318787 40.50120544 C58.02531659 38.51992036 58.02531659 38.51992036 57.90818787 36.37620544 C57.86693787 35.09745544 57.82568787 33.81870544 57.78318787 32.50120544 C55.01722602 31.57921816 53.41983973 31.38096099 50.57270813 31.39440918 C49.71493271 31.39592484 48.85715729 31.39744049 47.97338867 31.39900208 C47.03518784 31.40573944 46.096987 31.41247681 45.13035583 31.41941833 C44.13975662 31.42248489 43.14915741 31.42555145 42.12854004 31.42871094 C39.97432019 31.43587131 37.82010689 31.44526405 35.665905 31.45660591 C32.25228696 31.4739792 28.83871566 31.48429095 25.42506409 31.49252319 C15.71789622 31.51698547 6.01079096 31.55242848 -3.69630432 31.59715271 C-9.63252724 31.62400662 -15.56871341 31.64100501 -21.50498581 31.65202141 C-23.76392342 31.65821403 -26.02285404 31.66819774 -28.28175735 31.6821003 C-31.45042258 31.70141871 -34.61889653 31.70822726 -37.78761292 31.71238708 C-38.71366837 31.72114868 -39.63972382 31.72991028 -40.59384155 31.73893738 C-46.17023192 31.73062298 -51.97755298 31.60880189 -57.21681213 29.50120544 C-59.55849977 25.98867399 -59.71304891 24.63651189 -59.21681213 20.50120544 C-57.45198416 17.55982549 -56.37125175 15.83153861 -53.01295471 14.87059021 C-49.70159038 14.43314201 -46.50675565 14.38933334 -43.16603088 14.40354919 C-42.50722427 14.40496414 -41.84841766 14.40637909 -41.16964722 14.40783691 C-39.08115451 14.41340044 -36.99277202 14.42594598 -34.90431213 14.43870544 C-33.48178765 14.44372517 -32.05926147 14.44828725 -30.63673401 14.45237732 C-27.16339137 14.46335787 -23.69011252 14.48059709 -20.21681213 14.50120544 C-20.07630432 13.72905701 -19.93579651 12.95690857 -19.79103088 12.16136169 C-18.84799705 7.79261311 -17.12756008 5.28178061 -13.74208164 2.38018703 C-9.02062163 -0.13636849 -5.26882615 -0.05295069 0 0 Z M255.78318787 62.50120544 C255.7216301 63.10857544 255.66007233 63.71594543 255.59664917 64.34172058 C255.5143959 65.15328613 255.43214264 65.96485168 255.34739685 66.80101013 C255.26158356 67.64933411 255.17577026 68.49765808 255.08735657 69.37168884 C254.91298197 71.0886147 254.7358057 72.80525681 254.55686951 74.52171326 C253.60882416 84.19041724 253.27061266 93.75270965 252.78318787 103.50120544 C280.50318787 103.50120544 308.22318787 103.50120544 336.78318787 103.50120544 C332.05892751 97.96346375 332.05892751 97.96346375 327.16990662 92.60667419 C326.56211365 91.96149841 325.95432068 91.31632263 325.32810974 90.65159607 C324.0708508 89.32294703 322.81302163 87.9948374 321.55467224 86.66722107 C320.95332458 86.0284906 320.35197693 85.38976013 319.73240662 84.73167419 C319.18930847 84.15828308 318.64621033 83.58489197 318.08665466 82.99412537 C316.78318787 81.50120544 316.78318787 81.50120544 315.78318787 79.50120544 C315.12318787 79.50120544 314.46318787 79.50120544 313.78318787 79.50120544 C313.78318787 78.84120544 313.78318787 78.18120544 313.78318787 77.50120544 C313.12318787 77.50120544 312.46318787 77.50120544 311.78318787 77.50120544 C311.50990662 76.91339294 311.23662537 76.32558044 310.95506287 75.71995544 C309.8151059 73.56163692 308.6056649 71.86112452 307.03318787 70.00120544 C306.56396912 69.43401794 306.09475037 68.86683044 305.61131287 68.28245544 C300.85377979 63.6469104 297.22072217 62.0456752 290.69984436 62.04801941 C289.36824783 62.07898712 289.36824783 62.07898712 288.00975037 62.11058044 C287.08600616 62.11624023 286.16226196 62.12190002 285.21052551 62.12773132 C282.27587369 62.15002493 279.34246726 62.20020797 276.40818787 62.25120544 C274.41211182 62.27127953 272.41601653 62.28952871 270.41990662 62.30589294 C265.54052448 62.34986672 260.66206693 62.41884545 255.78318787 62.50120544 Z " fill="#040404" transform="translate(120.21681213378906,133.49879455566406)"/>
<path d="M0 0 C7.53203439 7.21377941 11.12555741 15.05857883 11.5625 25.5 C11.28432139 34.43964903 8.05134807 44.27140019 2.125 51.125 C1.465 51.125 0.805 51.125 0.125 51.125 C0.125 51.785 0.125 52.445 0.125 53.125 C-0.535 53.125 -1.195 53.125 -1.875 53.125 C-1.875 53.785 -1.875 54.445 -1.875 55.125 C-2.535 55.125 -3.195 55.125 -3.875 55.125 C-3.875 55.785 -3.875 56.445 -3.875 57.125 C-11.93724573 63.91669125 -22.3055416 66.90108536 -32.67578125 66.49609375 C-43.8331622 65.20189205 -51.58955826 59.73800574 -58.5390625 51.04296875 C-63.65377939 43.46062528 -64.84705862 35.13754352 -63.875 26.125 C-62.22384602 19.06520109 -59.69235441 11.69609014 -54.875 6.125 C-54.215 6.125 -53.555 6.125 -52.875 6.125 C-52.875 5.465 -52.875 4.805 -52.875 4.125 C-52.215 4.125 -51.555 4.125 -50.875 4.125 C-50.875 3.465 -50.875 2.805 -50.875 2.125 C-50.215 2.125 -49.555 2.125 -48.875 2.125 C-48.875 1.465 -48.875 0.805 -48.875 0.125 C-46.38224524 -1.20305745 -43.88220152 -2.51222261 -41.375 -3.8125 C-40.67890625 -4.18568359 -39.9828125 -4.55886719 -39.265625 -4.94335938 C-26.224671 -11.64496073 -11.09096733 -9.4935776 0 0 Z M-40.4296875 19.30078125 C-43.97311607 23.77316271 -44.45872766 28.57958718 -43.875 34.125 C-41.98870444 38.97838749 -39.22945923 42.22202718 -34.875 45.125 C-29.8764184 46.79119387 -25.5612891 46.75322535 -20.6875 44.9375 C-17.6253284 42.96410052 -15.34468138 40.79492581 -12.875 38.125 C-12.2975 37.609375 -11.72 37.09375 -11.125 36.5625 C-8.10173503 33.08574529 -8.64488547 28.4971761 -8.875 24.125 C-9.82845884 19.35770579 -12.9682911 16.59401753 -16.59375 13.5859375 C-25.38662356 7.95488491 -33.94202767 12.36218542 -40.4296875 19.30078125 Z " fill="#0D0C0D" transform="translate(199.875,299.875)"/>
<path d="M0 0 C1.19931152 0.00241699 1.19931152 0.00241699 2.42285156 0.00488281 C8.43904463 0.13006676 13.07488837 1.05688119 18.1875 4.375 C19.10982422 4.91253906 19.10982422 4.91253906 20.05078125 5.4609375 C21.75 6.5 21.75 6.5 24.1875 8.375 C24.1875 9.035 24.1875 9.695 24.1875 10.375 C24.8475 10.375 25.5075 10.375 26.1875 10.375 C26.1875 11.035 26.1875 11.695 26.1875 12.375 C26.8475 12.375 27.5075 12.375 28.1875 12.375 C31.25559208 18.00172237 33.83229123 22.86283921 34.1875 29.375 C34.22617187 30.06078125 34.26484375 30.7465625 34.3046875 31.453125 C34.6356942 41.9717823 31.99161307 50.6688304 26.1875 59.375 C25.5275 59.375 24.8675 59.375 24.1875 59.375 C24.1875 60.035 24.1875 60.695 24.1875 61.375 C14.69493909 70.09334495 4.28189817 75.27330973 -8.86328125 74.7578125 C-18.12992988 73.55498923 -26.57692845 69.56357515 -32.53125 62.26953125 C-34.10405492 60.02982621 -35.48764871 57.76881231 -36.8125 55.375 C-37.15410156 54.77171875 -37.49570312 54.1684375 -37.84765625 53.546875 C-41.31576146 46.12674292 -40.98628364 36.80929377 -38.93359375 29.0546875 C-36.38171902 22.46866097 -32.84004695 16.39063334 -27.8125 11.375 C-26.8225 11.045 -25.8325 10.715 -24.8125 10.375 C-24.8125 9.715 -24.8125 9.055 -24.8125 8.375 C-22.8359375 6.9375 -22.8359375 6.9375 -20.1875 5.375 C-19.32898438 4.859375 -18.47046875 4.34375 -17.5859375 3.8125 C-11.66618431 0.74423356 -6.55938817 -0.0136825 0 0 Z M-13.5390625 23.859375 C-15.02692821 25.30027798 -15.02692821 25.30027798 -14.8125 27.375 C-15.4725 27.375 -16.1325 27.375 -16.8125 27.375 C-19.55035174 32.73662632 -20.90918922 37.34320927 -19.8125 43.375 C-18.04663024 47.71420988 -15.84924542 50.62100333 -12.0625 53.375 C-6.28794963 55.15178473 -1.80149104 55.19803078 3.8125 52.875 C8.57419593 49.70424453 13.09291998 45.62523249 14.953125 40.1015625 C15.78094677 34.82869776 14.98303947 31.00511225 12.1875 26.375 C8.95184181 22.5009552 5.7955398 20.12292349 0.75 19.3125 C-4.56707099 19.0489187 -9.46689442 20.35841602 -13.5390625 23.859375 Z " fill="#0C0C0C" transform="translate(412.8125,291.625)"/>
<path d="M0 0 C0.66 0.33 1.32 0.66 2 1 C1.34 1.495 0.68 1.99 0 2.5 C-2.8827217 6.10340212 -2.30200997 8.46985042 -2 13 C-2.66 12.67 -3.32 12.34 -4 12 C-4.22893297 8.96663814 -4.36475845 6.02534949 -4 3 C-2 0.9375 -2 0.9375 0 0 Z " fill="#535353" transform="translate(37,178)"/>
<path d="M0 0 C0.66 0 1.32 0 2 0 C0.84826645 2.46800047 -0.04783565 4.04783565 -2 6 C-2.64767793 8.57061311 -2.64767793 8.57061311 -3 11 C-3.33 11 -3.66 11 -4 11 C-4.35858439 7.14521782 -4.2754818 5.42240542 -2.125 2.125 C-1.42375 1.42375 -0.7225 0.7225 0 0 Z " fill="#5A5A5A" transform="translate(65,149)"/>
</svg>
