<?xml version="1.0" encoding="UTF-8"?>
<svg version="1.1" xmlns="http://www.w3.org/2000/svg" width="1894" height="1122">
<path d="M0 0 C1.23872746 -0.00320648 2.47745492 -0.00641296 3.75371957 -0.0097166 C7.19999149 -0.01659976 10.64604828 -0.01450572 14.0923083 -0.00866088 C17.83860055 -0.00449583 21.58487277 -0.01188954 25.33116019 -0.01781338 C31.89970058 -0.02658611 38.46820981 -0.02788369 45.03675461 -0.02431011 C54.80439033 -0.01901006 64.5719958 -0.02509137 74.33962823 -0.03339304 C92.79815067 -0.04864944 111.2566594 -0.05033643 129.71518682 -0.04787002 C143.96698086 -0.04603875 158.21877041 -0.04779347 172.47056389 -0.05209446 C174.51669151 -0.05269685 176.56281913 -0.05329805 178.60894675 -0.05389806 C181.69210653 -0.0548053 184.77526631 -0.05571396 187.85842609 -0.05663041 C216.53153313 -0.06506245 245.20463848 -0.0693939 273.87774658 -0.06522369 C274.95911959 -0.06506732 276.04049259 -0.06491094 277.15463448 -0.06474983 C282.63570335 -0.06394402 288.11677221 -0.06309825 293.59784107 -0.06223653 C294.68643635 -0.06206544 295.77503163 -0.06189435 296.89661464 -0.06171808 C299.09801959 -0.06137142 301.29942454 -0.06102289 303.50082949 -0.06067249 C337.7595436 -0.05531452 372.01823199 -0.06324683 406.2769413 -0.08170605 C444.74995936 -0.10241164 483.22296149 -0.11315153 521.69598544 -0.10913056 C525.79643289 -0.1087352 529.89688035 -0.10837366 533.9973278 -0.10803318 C535.00699242 -0.10794245 536.01665703 -0.10785172 537.05691755 -0.10775824 C552.31364944 -0.10659117 567.57036525 -0.11324882 582.82709312 -0.1238451 C600.17372279 -0.13588046 617.52031699 -0.13747529 634.86694716 -0.12505493 C644.57897009 -0.11841266 654.2909083 -0.12008882 664.0029245 -0.13364345 C670.48668713 -0.14186453 676.97038604 -0.13922099 683.45414345 -0.12766818 C687.15075128 -0.12138844 690.84719333 -0.11987071 694.54379182 -0.13153151 C698.52389225 -0.14397135 702.50373793 -0.13327132 706.48384094 -0.12025452 C707.63388627 -0.12756386 708.78393159 -0.13487321 709.96882677 -0.14240405 C716.96336156 -0.09472751 723.24495656 0.30307843 728.89119911 4.90291309 C729.56022255 5.75756153 729.56022255 5.75756153 730.24276161 6.62947559 C730.70424599 7.19408497 731.16573036 7.75869434 731.64119911 8.34041309 C734.71560958 13.13806 735.25914343 17.58093044 735.30526161 23.19197559 C735.33813271 23.86293262 735.3710038 24.53388966 735.40487099 25.22517872 C735.52806629 37.37671518 728.68024312 49.22462969 723.51238441 59.94981861 C721.71862824 63.67439538 719.94884457 67.41036874 718.17635536 71.14510059 C717.81332817 71.90875431 717.45030098 72.67240803 717.07627296 73.45920277 C713.4801692 81.03844641 710.0076498 88.67145826 706.55526161 96.31697559 C700.91762812 108.78769212 695.19570975 121.2173444 689.43026161 133.62947559 C683.53626972 146.31989369 677.67183618 159.02267401 671.86776161 171.75447559 C666.1017066 184.40119178 660.28161695 197.02200269 654.43026161 209.62947559 C648.36345309 222.70135809 642.31580593 235.78162044 636.30526161 248.87947559 C632.02288269 258.21069044 627.7388864 267.54111349 623.43807411 276.86385059 C623.06723198 277.66777241 622.69638985 278.47169422 622.31431007 279.2999773 C620.44368057 283.3538817 618.57086295 287.40675807 616.69466591 291.45808887 C613.16142051 299.09146143 609.64406046 306.73096021 606.18097878 314.39647388 C604.55749854 317.98780833 602.92557263 321.57527606 601.29302406 325.16249561 C600.51872045 326.8701818 599.74853343 328.57974144 598.98278236 330.29127979 C597.91848171 332.66934175 596.83996054 335.04048037 595.75838661 337.41072559 C595.45281334 338.10376789 595.14724007 338.79681019 594.832407 339.51085377 C591.47081925 346.79933863 587.13045656 352.20959635 579.74276161 355.62947559 C578.22295692 356.35263966 578.22295692 356.35263966 576.67244911 357.09041309 C571.83845109 359.09672425 567.90544445 359.38150138 562.64397526 359.38869667 C561.54539683 359.39222502 561.54539683 359.39222502 560.42462489 359.39582464 C557.95720493 359.40251027 555.48983769 359.40205655 553.02240944 359.40164661 C551.24075746 359.40494551 549.45910623 359.40867114 547.67745596 359.41278809 C542.77084752 359.4228133 537.86425132 359.42652573 532.95763409 359.4291774 C527.66977742 359.43307892 522.38193045 359.44265738 517.09407997 359.45139027 C504.31842453 359.47115919 491.54276829 359.48122152 478.76710138 359.49011806 C472.75198953 359.49450034 466.73687857 359.49986731 460.72176743 359.50510693 C440.72804732 359.52211978 420.73432777 359.53661413 400.74060154 359.54385567 C395.55129877 359.54576559 390.36199601 359.54768592 385.17269325 359.54964161 C383.23801009 359.55036722 383.23801009 359.55036722 381.26424242 359.55110749 C360.36885376 359.55940841 339.47352233 359.58474615 318.57815867 359.61722229 C297.12921239 359.65028724 275.6802952 359.66830393 254.2313233 359.67149991 C242.18696803 359.67366554 230.14269623 359.6824221 218.09836578 359.70796108 C207.84111752 359.72966035 197.58397299 359.73772228 187.32670438 359.7279943 C182.0939692 359.72344737 176.86144808 359.72535886 171.62874222 359.74475574 C166.83499186 359.76237188 162.04161197 359.76140214 157.24785776 359.74585845 C155.51696756 359.74348004 153.78605182 359.74781803 152.05520069 359.7596871 C139.08630263 359.84308518 127.71036603 358.57097198 117.86776161 349.25447559 C114.78484143 345.705906 112.76919465 342.27846691 110.86385536 337.98885059 C110.58866066 337.37583088 110.31346596 336.76281116 110.02993202 336.1312151 C109.43138689 334.79622411 108.83605433 333.45978911 108.24358559 332.12209034 C106.59728106 328.40670116 104.92567942 324.70266848 103.25838661 320.99666309 C102.90479576 320.20893513 102.55120491 319.42120716 102.18689919 318.60960865 C98.05358889 309.41379561 93.8045148 300.27212992 89.55526161 291.12947559 C87.93510859 287.64005997 86.31552778 284.15037882 84.69588661 280.66072559 C84.29386024 279.79476765 83.89183388 278.9288097 83.47762489 278.0366106 C77.3721616 264.88268476 71.30382796 251.7115956 65.23064613 238.54274464 C62.5791036 232.79409773 59.92336677 227.04739924 57.26619911 221.30135059 C55.73725156 217.99419832 54.20861483 214.68690257 52.68026161 211.37947559 C52.11749519 210.16162876 52.11749519 210.16162876 51.54335976 208.91917896 C46.06596315 197.06144504 40.64551829 185.17898827 35.25805092 173.28017139 C30.40250104 162.56223844 25.43912006 151.89848154 20.42540932 141.25374317 C15.43017959 130.64359241 10.53878918 119.99015811 5.7078495 109.30428028 C1.83250946 100.73371744 -2.08295226 92.1834636 -6.05411339 83.65681934 C-6.47549583 82.75133854 -6.89687828 81.84585773 -7.33102989 80.91293812 C-9.39032139 76.48935967 -11.45381252 72.06781532 -13.52383995 67.64925098 C-17.19787539 59.78177285 -20.78127544 51.89221697 -24.10098839 43.86775684 C-24.38772423 43.17649708 -24.67446007 42.48523731 -24.96988487 41.77303028 C-28.7246903 32.55481701 -30.24003371 24.12711693 -28.13223839 14.25447559 C-25.60259467 8.2575596 -21.71580061 3.87425002 -15.73034704 1.16881782 C-10.48167594 -0.16496114 -5.39516409 -0.02054143 0 0 Z " fill="#F07E24" transform="translate(644.1322383880615,201.7455244064331)"/>
<path d="M0 0 C4.4848977 3.76452553 6.95818854 7.55978306 8.5078125 13.265625 C8.75390816 16.62763023 8.75390816 16.62763023 8.74832153 20.36508179 C8.75088481 21.40182681 8.75088481 21.40182681 8.75349987 22.45951617 C8.7567796 24.7626689 8.74581636 27.0655267 8.73486328 29.36865234 C8.73429884 31.02468865 8.73461637 32.68072546 8.73574829 34.33676147 C8.73632151 38.82391039 8.72457209 43.31095212 8.71060038 47.79807615 C8.69808798 52.49059218 8.69692211 57.18311073 8.69454956 61.87564087 C8.68833629 70.75778932 8.67192753 79.63988846 8.65185058 88.52201521 C8.62948683 98.63561886 8.61849695 108.74922487 8.60845971 118.86284709 C8.58756118 139.66380668 8.55088683 160.4646987 8.5078125 181.265625 C-7.3321875 181.265625 -23.1721875 181.265625 -39.4921875 181.265625 C-39.4921875 137.705625 -39.4921875 94.145625 -39.4921875 49.265625 C-55.6621875 55.865625 -71.8321875 62.465625 -88.4921875 69.265625 C-106.9921875 76.765625 -106.9921875 76.765625 -115.8671875 80.359375 C-127.25137835 84.97223521 -138.62108408 89.62062337 -149.9921875 94.265625 C-165.04690418 100.41535215 -180.10737551 106.55020712 -195.18164062 112.65185547 C-208.79594295 118.16341309 -222.39522514 123.71144375 -235.9921875 129.265625 C-252.15284503 135.86683403 -268.31838591 142.45552025 -284.5012207 149.00219727 C-291.94408171 152.01356971 -299.38223398 155.03579181 -306.8125 158.078125 C-309.0516633 158.99346214 -311.29093444 159.90853493 -313.53024292 160.82351685 C-314.94997129 161.40450631 -316.369192 161.98673801 -317.78787231 162.57028198 C-319.72323068 163.36632082 -321.66023979 164.15820504 -323.59765625 164.94921875 C-325.23963989 165.62295532 -325.23963989 165.62295532 -326.91479492 166.31030273 C-329.4921875 167.265625 -329.4921875 167.265625 -331.4921875 167.265625 C-331.1621875 285.735625 -330.8321875 404.205625 -330.4921875 526.265625 C-243.69376361 550.97017042 -243.69376361 550.97017042 -156.89453125 575.671875 C-138.70898437 580.84765625 -138.70898437 580.84765625 -130.09545898 583.29931641 C-124.11606703 585.00116624 -118.13656406 586.70262533 -112.15698242 588.40380859 C-105.28625969 590.35852214 -98.41568772 592.31376457 -91.54529387 594.26963377 C-88.02507921 595.27175312 -84.50480022 596.27364477 -80.98432732 597.27485657 C-67.13590987 601.21346146 -53.29602065 605.17322045 -39.4921875 609.265625 C-39.4921875 598.705625 -39.4921875 588.145625 -39.4921875 577.265625 C-23.6521875 577.265625 -7.8121875 577.265625 8.5078125 577.265625 C8.59814647 599.03194323 8.67181414 620.79810942 8.71506119 642.56456757 C8.73567629 652.67136858 8.76377682 662.77804475 8.80957031 672.88476562 C8.84947024 681.69497147 8.87525296 690.50508689 8.88416648 699.31538057 C8.88937587 703.9793241 8.90159796 708.64300897 8.93073273 713.30686951 C8.95795169 717.69978271 8.96624443 722.09233152 8.96024323 726.48532104 C8.96134057 728.09453819 8.96925591 729.70376795 8.9846344 731.31291199 C9.13932015 748.33864148 9.13932015 748.33864148 3.09576797 754.7677536 C-2.70997814 759.99277847 -8.88762117 761.25766595 -16.4921875 761.265625 C-26.9138969 759.88795728 -36.02865646 756.17319932 -45.4296875 751.703125 C-46.85791061 751.03742079 -48.28680465 750.37315442 -49.71630859 749.71020508 C-52.74866773 748.30155642 -55.77724136 746.8851864 -58.80322266 745.46289062 C-63.50575024 743.25504822 -68.22173393 741.07715711 -72.94140625 738.90625 C-74.54452179 738.16863461 -76.14763047 737.43100431 -77.75073242 736.69335938 C-78.55110931 736.32509033 -79.35148621 735.95682129 -80.17611694 735.57739258 C-84.29388117 733.68090138 -88.40866505 731.77797158 -92.5234375 729.875 C-102.38639498 725.31418412 -112.25120206 720.75738696 -122.1171875 716.203125 C-122.92424133 715.83053558 -123.73129517 715.45794617 -124.56280518 715.07406616 C-137.13013031 709.27256699 -149.70533679 703.48838523 -162.284729 697.71310425 C-175.01416347 691.86863317 -187.73395442 686.00348593 -200.45019531 680.13037109 C-212.2912835 674.66181287 -224.13884662 669.20757108 -235.9921875 663.765625 C-250.23533133 657.22613288 -264.4719602 650.67266162 -278.69750977 644.0949707 C-286.32827838 640.56733542 -293.96203193 637.04678138 -301.60839844 633.55305481 C-305.18861738 631.91676787 -308.76700499 630.27649761 -312.34527588 628.63595581 C-314.0471275 627.85705414 -315.74986593 627.08008672 -317.45355225 626.3052063 C-319.82160751 625.22797898 -322.18645726 624.14398094 -324.55078125 623.05859375 C-325.23866226 622.74785919 -325.92654327 622.43712463 -326.63526917 622.11697388 C-336.91857381 617.37238793 -344.19082767 612.35209905 -348.63231659 601.59763336 C-351.37897684 593.74152907 -351.04637649 585.78489841 -351.00012207 577.57849121 C-351.00473631 575.79079351 -351.01109273 574.0030996 -351.01903105 572.21541357 C-351.03567559 567.32451752 -351.02750019 562.43393507 -351.01508617 557.54303813 C-351.00601803 552.26006022 -351.02001417 546.97713538 -351.03100586 541.69416809 C-351.0487768 531.35334571 -351.04495741 521.01263956 -351.0333553 510.67181265 C-351.02431566 502.26636212 -351.02309928 493.86094412 -351.02745056 485.45549011 C-351.02806349 484.25842504 -351.02867643 483.06135996 -351.02930793 481.82802019 C-351.03058685 479.39607909 -351.03188371 476.96413801 -351.0331983 474.53219694 C-351.04459993 451.73678135 -351.03149691 428.94143015 -351.00999683 406.14602512 C-350.99212625 386.59357435 -350.99523047 367.04121858 -351.01367188 347.48876953 C-351.03508593 324.77399523 -351.04350133 302.05927733 -351.03122282 279.34449434 C-351.02994865 276.92158287 -351.02869116 274.49867138 -351.02745056 272.07575989 C-351.02683346 270.88369284 -351.02621636 269.69162579 -351.02558056 268.4634355 C-351.02212927 260.06970066 -351.02795125 251.67600164 -351.03736877 243.28227234 C-351.04859605 233.05079443 -351.04553329 222.81943926 -351.0242458 212.58797538 C-351.0137453 207.36938084 -351.00959663 202.1509908 -351.02284241 196.93239784 C-351.03479266 192.15185899 -351.02816028 187.37171353 -351.0069322 182.59121019 C-351.0024773 180.86524827 -351.0047073 179.13925287 -351.01443535 177.41331261 C-351.07778428 165.23653186 -349.82688364 155.2112637 -342.4453125 145.1171875 C-335.65154757 138.67669835 -326.44594968 135.26787809 -318.0546875 131.390625 C-316.62869248 130.72717249 -315.20283267 130.06342931 -313.77709961 129.39941406 C-302.71027327 124.25456802 -291.60036694 119.20476143 -280.48217773 114.17211914 C-269.33081717 109.1210473 -258.21993617 103.98506111 -247.1171875 98.828125 C-234.42673412 92.93421088 -221.72404408 87.06957934 -208.9921875 81.265625 C-196.30287473 75.48067871 -183.64117683 69.63820192 -170.9921875 63.765625 C-157.63672323 57.56505124 -144.26417631 51.40455421 -130.86621094 45.29638672 C-118.88620815 39.83322008 -106.93496248 34.30965388 -94.9921875 28.765625 C-82.48415526 22.96109307 -69.97152844 17.16698449 -57.43505859 11.42407227 C-55.95931033 10.7478607 -54.48387429 10.07096722 -53.00878906 9.39331055 C-13.64088177 -8.68612203 -13.64088177 -8.68612203 0 0 Z M-251.7421875 589.765625 C-253.75716541 592.64416488 -254.06246458 594.74289203 -253.88671875 598.23828125 C-253.00582412 602.76485858 -249.87965422 606.29387405 -246.4921875 609.265625 C-244.25221452 610.38486648 -244.25221452 610.38486648 -241.6887207 611.30273438 C-240.71373123 611.67321899 -239.73874176 612.04370361 -238.73420715 612.42541504 C-237.68109848 612.81612183 -236.62798981 613.20682861 -235.54296875 613.609375 C-234.45638474 614.01973999 -233.36980072 614.43010498 -232.25028992 614.85290527 C-228.77124574 616.1647954 -225.28808034 617.46533139 -221.8046875 618.765625 C-219.47693349 619.6411829 -217.14945609 620.51747656 -214.82226562 621.39453125 C-209.58874651 623.36509045 -204.3535622 625.33102196 -199.11270142 627.28198242 C-197.44698266 627.90723073 -195.78470271 628.54177897 -194.12728882 629.1887207 C-189.68723504 630.91431245 -186.28627072 631.82963479 -181.4921875 631.265625 C-178.65620174 629.65856641 -178.48078662 628.22686201 -177.5546875 625.078125 C-177.47605453 620.28151354 -178.6187323 617.09189694 -181.4921875 613.265625 C-186.2308217 608.72027233 -190.77260178 606.72688895 -196.95703125 604.671875 C-197.86739639 604.35786743 -198.77776154 604.04385986 -199.7157135 603.72033691 C-202.61633111 602.72313195 -205.52273646 601.74419301 -208.4296875 600.765625 C-210.34741148 600.10925873 -212.26473343 599.4517166 -214.18164062 598.79296875 C-218.7729163 597.21856343 -223.3707332 595.66446791 -227.97137451 594.11767578 C-230.34267533 593.31616106 -232.7093031 592.50231994 -235.07470703 591.68359375 C-236.42348708 591.22130888 -237.77228156 590.75906608 -239.12109375 590.296875 C-240.84114624 589.70229492 -240.84114624 589.70229492 -242.59594727 589.09570312 C-246.22494347 588.05561317 -248.51175406 587.61200271 -251.7421875 589.765625 Z " fill="#3CA694" transform="translate(845.4921875,2.734375)"/>
<path d="M0 0 C1.37899979 0.00666183 1.37899979 0.00666183 2.78585815 0.01345825 C3.82678619 0.01360931 4.86771423 0.01376038 5.94018555 0.01391602 C7.63085648 0.02939987 7.63085648 0.02939987 9.35568237 0.04519653 C11.08272903 0.04944138 11.08272903 0.04944138 12.84466553 0.05377197 C16.533338 0.06499496 20.22177041 0.09010347 23.91036987 0.11550903 C26.40646012 0.12553609 28.90255417 0.13466241 31.39865112 0.14285278 C37.52763971 0.1649412 43.65648765 0.19843957 49.78536987 0.24050903 C50.13242729 1.00979233 50.13242729 1.00979233 50.48649597 1.7946167 C52.90229708 7.14881853 55.31978969 12.50225426 57.73825073 17.85525513 C58.63972369 19.85115413 59.54077015 21.84724583 60.44137573 23.84353638 C61.73850295 26.71856047 63.03717963 29.59288032 64.33615112 32.46707153 C64.73626907 33.35480255 65.13638702 34.24253357 65.54862976 35.15716553 C67.1460939 38.68860249 68.75299012 42.17798915 70.53610229 45.62088013 C72.63693634 50.02618583 72.53403886 53.99066275 71.02365112 58.52957153 C70.69751831 59.36230591 70.3713855 60.19504028 70.03536987 61.05300903 C59.47227109 88.70569262 61.2585836 120.42347068 72.96896362 147.42947388 C84.86016213 173.80773659 105.36805159 192.94569362 131.78536987 204.24050903 C133.74262895 204.70340835 135.70089588 205.16207704 137.66036987 205.61550903 C141.66903036 206.92203541 143.2353552 208.62088212 145.24240112 212.19363403 C150.78536987 223.28665068 150.78536987 223.28665068 150.78536987 227.24050903 C132.63536987 227.24050903 114.48536987 227.24050903 95.78536987 227.24050903 C87.75550102 210.03364721 87.75550102 210.03364721 85.29318237 203.81082153 C85.0169101 203.12414398 84.74063782 202.43746643 84.45599365 201.72998047 C83.60352402 199.61003866 82.75644589 197.48800963 81.91036987 195.36550903 C81.04225002 193.19328239 80.17289569 191.02157773 79.30047607 188.85107422 C78.76473724 187.51776001 78.23152521 186.18342697 77.70117188 184.84796143 C76.62066007 181.81536912 76.62066007 181.81536912 74.78536987 179.24050903 C73.43196397 179.14519741 72.07363003 179.11862184 70.71687317 179.12025452 C69.84042648 179.11887985 68.9639798 179.11750519 68.06097412 179.11608887 C66.60765182 179.12148178 66.60765182 179.12148178 65.12496948 179.12698364 C64.11045212 179.12683762 63.09593475 179.12669159 62.05067444 179.12654114 C58.67966614 179.12724074 55.30871233 179.13503535 51.93771362 179.14285278 C49.60743744 179.14471679 47.27716087 179.14614078 44.94688416 179.1471405 C38.79999722 179.15096702 32.65313374 179.16079843 26.5062561 179.17184448 C20.23927121 179.18205574 13.97228255 179.18663751 7.70529175 179.19168091 C-4.60135921 179.20242058 -16.90799272 179.2194986 -29.21463013 179.24050903 C-31.58297221 184.78969848 -33.94902371 190.33985697 -36.3130188 195.89089966 C-37.1164363 197.77658016 -37.92046355 199.662001 -38.72512817 201.54714966 C-39.88602082 204.26716067 -41.04466953 206.98811837 -42.20291138 209.70925903 C-42.55928177 210.54291992 -42.91565216 211.37658081 -43.28282166 212.23550415 C-43.62294785 213.03572998 -43.96307404 213.83595581 -44.31350708 214.66043091 C-44.60884842 215.35326172 -44.90418976 216.04609253 -45.20848083 216.75991821 C-46.61424332 220.22572745 -47.90140959 223.73858761 -49.21463013 227.24050903 C-67.03463013 227.24050903 -84.85463013 227.24050903 -103.21463013 227.24050903 C-101.17155299 221.11127763 -99.06115149 215.32591043 -96.43338013 209.46707153 C-96.0677597 208.6427211 -95.70213928 207.81837067 -95.32543945 206.96903992 C-94.12564776 204.26615078 -92.92013901 201.56585248 -91.71463013 198.86550903 C-90.86345349 196.95074153 -90.01271267 195.03578023 -89.16238403 193.12063599 C-87.39528754 189.14147862 -85.62631832 185.1631613 -83.85623169 181.18533325 C-81.33776496 175.52206866 -78.83227958 169.85314894 -76.33181763 164.18191528 C-75.93779755 163.28833313 -75.54377747 162.39475098 -75.13781738 161.47409058 C-74.34784499 159.68250729 -73.55787711 157.89092201 -72.76791382 156.09933472 C-66.16459522 141.12873409 -59.52302122 126.1755342 -52.83963013 111.24050903 C-52.30967438 110.05610733 -52.30967438 110.05610733 -51.76901245 108.84777832 C-47.94319225 100.30029493 -44.10379543 91.759414 -40.21463013 83.24050903 C-39.03127075 83.29851685 -37.84791138 83.35652466 -36.62869263 83.41629028 C-26.21915285 83.77755671 -18.2898819 83.67809125 -10.16775513 76.40847778 C-4.40416182 70.37099471 -2.12789519 64.65200347 -1.71463013 56.36550903 C-1.91242435 50.08356464 -3.46178806 45.30128922 -7.21463013 40.24050903 C-9.56335847 38.07364269 -11.93441552 36.10330164 -14.51931763 34.22488403 C-15.07877075 33.57004028 -15.63822388 32.91519653 -16.21463013 32.24050903 C-15.83562847 27.91124686 -14.58948083 24.40036325 -12.78103638 20.47488403 C-12.29699341 19.42043091 -11.81295044 18.36597778 -11.3142395 17.27957153 C-10.80699341 16.19418091 -10.29974731 15.10879028 -9.77713013 13.99050903 C-9.27375122 12.88964966 -8.77037231 11.78879028 -8.2517395 10.65457153 C-3.49945356 0.38004098 -3.49945356 0.38004098 0 0 Z " fill="#FEFEFD" transform="translate(908.2146301269531,276.7594909667969)"/>
<path d="M0 0 C10.36652265 7.51572892 14.20355893 20.17650355 19.0479126 31.64492798 C20.65453984 35.4467647 22.27522539 39.24261272 23.89453125 43.0390625 C24.42756866 44.28974266 24.42756866 44.28974266 24.97137451 45.56568909 C29.96840187 57.27550777 35.0515834 68.94813597 40.125 80.625 C41.13194277 82.94334832 42.13886023 85.26170763 43.14575195 87.58007812 C45.07217726 92.01540862 46.99890562 96.45060732 48.92578125 100.88574219 C52.163327 108.33855827 55.39528021 115.79378981 58.625 123.25 C59.37160889 124.97343628 59.37160889 124.97343628 60.13330078 126.73168945 C61.10095793 128.96547466 62.0685697 131.19927953 63.03613281 133.43310547 C64.59410706 137.02974981 66.15245019 140.6262342 67.7109375 144.22265625 C67.98180176 144.84771561 68.25266602 145.47277496 68.53173828 146.11677551 C69.89253732 149.25698586 71.253382 152.39717643 72.61425781 155.53735352 C75.1072926 161.2900785 77.59999446 167.04294685 80.09130859 172.79641724 C81.23856748 175.44582998 82.38607511 178.09513497 83.53356934 180.7444458 C84.36284007 182.65941996 85.19168653 184.57457737 86.02050781 186.48974609 C88.27803045 191.70268517 90.53835088 196.91394964 92.8359375 202.109375 C93.33311279 203.23496826 93.33311279 203.23496826 93.84033203 204.38330078 C94.66655701 206.24907024 95.49709956 208.11292624 96.328125 209.9765625 C98.84963964 216.07862793 99.76665781 222.63614826 97.81640625 229.06640625 C95.26592042 234.64360971 91.75299174 238.28294759 86.140625 240.921875 C80.32663224 242.88280747 73.81349422 242.77087818 68.1875 240.25 C59.09351654 234.61921491 55.94049792 225.74771736 52.06591797 216.29516602 C51.11820811 213.98343265 50.15262965 211.67981832 49.18359375 209.37695312 C48.57188318 207.91188942 47.96116925 206.4464091 47.3515625 204.98046875 C47.06415192 204.29091599 46.77674133 203.60136322 46.48062134 202.89091492 C44.5 198.04844902 44.5 198.04844902 44.5 195.8125 C8.86 195.8125 -26.78 195.8125 -63.5 195.8125 C-64.49 198.7825 -65.48 201.7525 -66.5 204.8125 C-68.11274552 208.96946569 -69.8347961 213.07608325 -71.57861328 217.1796875 C-72.37749649 219.06840218 -73.15934412 220.96364466 -73.94140625 222.859375 C-74.45316406 224.0659375 -74.96492188 225.2725 -75.4921875 226.515625 C-75.94964355 227.60520508 -76.40709961 228.69478516 -76.87841797 229.81738281 C-80.14415939 235.84931835 -85.04232087 239.71629002 -91.5 241.8125 C-97.72855022 242.7037075 -104.08800056 242.21177238 -109.5 238.8125 C-114.71894893 233.95766379 -117.59704472 229.92054736 -118 222.6875 C-117.89572618 217.42330112 -116.75176647 213.26212887 -114.65625 208.4921875 C-114.34864746 207.76916443 -114.04104492 207.04614136 -113.72412109 206.3012085 C-113.03482544 204.68450831 -112.34079787 203.06981996 -111.64282227 201.45684814 C-110.43238645 198.65605068 -109.23739051 195.84901937 -108.04492188 193.04052734 C-105.21138524 186.37483269 -102.3565493 179.71835847 -99.5 173.0625 C-98.7101577 171.22043433 -97.92031547 169.37836863 -97.13048077 167.53629971 C-88.65177398 147.76560307 -80.10000145 128.02696314 -71.52441406 108.2980957 C-66.23539466 96.12846065 -60.96818563 83.95017355 -55.75 71.75 C-55.17406327 70.40491692 -54.59805458 69.05986465 -54.02197266 67.71484375 C-51.37483465 61.53328803 -48.72946241 55.35099534 -46.09033203 49.16601562 C-43.93080879 44.10629728 -41.76480726 39.04938767 -39.59533691 33.993927 C-38.74849937 32.01754968 -37.90380926 30.04025067 -37.06140137 28.0619812 C-35.88634414 25.30322156 -34.70378092 22.54779243 -33.51953125 19.79296875 C-33.17225479 18.97274231 -32.82497833 18.15251587 -32.46717834 17.30743408 C-29.31488706 10.0130226 -25.93716091 4.60613046 -19.5 -0.1875 C-13.37803674 -2.22815442 -6.08048572 -2.06302194 0 0 Z M-10.5 67.8125 C-18.80828262 86.85188622 -26.9678844 105.94691838 -34.95996094 125.12109375 C-36.48224874 128.76995102 -38.00993581 132.41650413 -39.5390625 136.0625 C-40.46365021 138.27078789 -41.3881352 140.47911879 -42.3125 142.6875 C-42.73942139 143.70440918 -43.16634277 144.72131836 -43.60620117 145.76904297 C-43.9901001 146.68830566 -44.37399902 147.60756836 -44.76953125 148.5546875 C-45.10573486 149.3576123 -45.44193848 150.16053711 -45.78833008 150.98779297 C-46.56056007 152.64134502 -46.56056007 152.64134502 -46.5 153.8125 C-22.41 153.8125 1.68 153.8125 26.5 153.8125 C24.21667816 146.8520914 24.21667816 146.8520914 21.62158203 140.06005859 C21.28294632 139.23882507 20.94431061 138.41759155 20.59541321 137.57147217 C20.23650497 136.70999573 19.87759674 135.84851929 19.5078125 134.9609375 C19.12501633 134.0353302 18.74222015 133.1097229 18.3478241 132.15606689 C17.10994194 129.16526642 15.86758804 126.176348 14.625 123.1875 C13.77087882 121.12687269 12.91695758 119.06616251 12.06323242 117.00537109 C5.25704141 100.58757937 -1.59651496 84.18961506 -8.5 67.8125 C-9.16 67.8125 -9.82 67.8125 -10.5 67.8125 Z " fill="#EF7E24" transform="translate(117.5,816.1875)"/>
<path d="M0 0 C0.86496094 0.40605469 1.72992188 0.81210937 2.62109375 1.23046875 C23.30169295 11.46571451 37.13337587 30.29025897 45.30859375 51.375 C52.98945022 74.33316438 51.48850748 100.16737427 41 122 C28.78827756 145.05799911 10.21706374 161.2364057 -14.6875 169 C-37.06592191 175.58323341 -61.13984012 173.207532 -82 163 C-84.34594307 161.68816412 -86.67050039 160.3410044 -89 159 C-89.00586624 159.7213916 -89.01173248 160.4427832 -89.01777649 161.18603516 C-89.07587938 168.0120341 -89.14805585 174.83775781 -89.23571491 181.66343689 C-89.28028512 185.17192246 -89.31956962 188.68029549 -89.34643555 192.18896484 C-89.37761966 196.23043489 -89.43240245 200.27129537 -89.48828125 204.3125 C-89.49467117 205.5617627 -89.5010611 206.81102539 -89.50764465 208.09814453 C-89.63046088 215.42350309 -89.82385291 222.10131707 -94.6484375 228.0234375 C-95.21820313 228.46945312 -95.78796875 228.91546875 -96.375 229.375 C-96.93960938 229.83648438 -97.50421875 230.29796875 -98.0859375 230.7734375 C-103.82168493 234.4489981 -109.35811987 234.73695018 -116 234 C-122.17654094 232.23376312 -126.52274056 228.32662991 -130 223 C-131.81446764 219.17148348 -132.2525188 216.14123785 -132.26069641 211.91897583 C-132.26778122 210.69689926 -132.27486603 209.47482269 -132.28216553 208.2157135 C-132.2798718 206.86923181 -132.27736212 205.52275046 -132.2746582 204.17626953 C-132.27900789 202.75160963 -132.2841919 201.32695207 -132.29014587 199.90229797 C-132.30353013 196.03598133 -132.30411441 192.16976251 -132.30158257 188.30342722 C-132.30051092 185.06619958 -132.30540202 181.82899157 -132.310188 178.59176815 C-132.32128454 170.94169764 -132.32172196 163.29167622 -132.31567383 155.64160156 C-132.30965453 147.78179431 -132.32189245 139.922167 -132.3432439 132.06239045 C-132.36094756 125.29352218 -132.36684692 118.52471068 -132.36360615 111.75582016 C-132.36180458 107.72280547 -132.36431423 103.68991869 -132.37832069 99.6569252 C-132.39103515 95.85324379 -132.3888286 92.04983841 -132.37590981 88.24616051 C-132.37247146 86.21062351 -132.38362539 84.17507754 -132.39547729 82.13957214 C-132.25087764 56.36522876 -122.14249862 33.9545569 -104.5234375 15.390625 C-76.89879575 -10.70431346 -33.84728045 -17.73451016 0 0 Z M-71 43 C-71.63550781 43.43957031 -72.27101563 43.87914062 -72.92578125 44.33203125 C-81.78850815 51.15102512 -87.03488659 62.30330582 -89.75 72.9375 C-90.97377514 87.92874542 -88.30987238 100.99667386 -78.65625 112.88671875 C-69.67092506 122.57237048 -58.1992791 129.19980749 -44.86328125 130.24609375 C-30.0297676 130.78460415 -17.39756209 126.00016228 -6.375 116.125 C4.14411127 105.15667402 7.61448576 91.51417891 7.33984375 76.7265625 C6.81314306 65.90843627 2.26544322 56.89859732 -5 49 C-5.74830078 48.08154297 -5.74830078 48.08154297 -6.51171875 47.14453125 C-13.88987311 38.72562967 -26.13437362 33.61710394 -37.13671875 32.75390625 C-49.90329417 32.29043322 -60.58040095 35.67861801 -71 43 Z " fill="#F18424" transform="translate(365,888)"/>
<path d="M0 0 C1.71893481 1.48783934 3.42741653 2.98784487 5.125 4.5 C6.04539062 5.27730469 6.96578125 6.05460938 7.9140625 6.85546875 C13.81985362 11.93581068 18.12483796 16.28638116 19 24.375 C19.47720014 30.9961519 17.5722858 35.28650407 14 40.75 C9.24754032 45.295831 4.11703348 47.67778708 -2.5 47.9375 C-10.98514395 47.44009501 -15.75468687 43.13169483 -22.05859375 37.83984375 C-39.9579809 22.96920172 -60.77072877 16.5813062 -83.875 18.5 C-104.00218942 20.75650172 -123.88031402 30.77714791 -136.875 46.5 C-151.28250632 66.34339351 -158.43306756 87.99640246 -154.59375 112.62109375 C-151.74131801 128.01492507 -145.40519733 141.86136084 -134.875 153.5 C-134.20984375 154.25796875 -133.5446875 155.0159375 -132.859375 155.796875 C-119.70588841 169.92469393 -100.51876191 179.05385256 -81.2109375 179.8359375 C-57.02603502 180.20603248 -38.2122759 174.63442133 -19.875 158.5 C-18.38870729 157.31592014 -16.88994828 156.1471891 -15.375 155 C-14.7665625 154.5359375 -14.158125 154.071875 -13.53125 153.59375 C-8.43194477 150.22628428 -1.70023211 150.88718007 4.125 151.5 C10.12989327 153.76830608 14.50112628 157.99925774 17.203125 163.82421875 C19.19746333 169.61287025 19.10844666 176.14454662 16.5625 181.75 C5.01656814 201.41789772 -23.59936946 214.35546177 -44.55761719 219.94775391 C-78.00180183 227.91770183 -112.50202501 222.43677571 -141.875 204.5 C-170.78339521 185.03178648 -189.8058367 157.12198316 -197.125 123.125 C-197.39367117 121.58647736 -197.64476124 120.04474147 -197.875 118.5 C-197.98585938 117.78714844 -198.09671875 117.07429687 -198.2109375 116.33984375 C-202.34164141 83.79659541 -193.86845299 50.1253551 -173.90625 23.984375 C-170.38161481 19.67347504 -166.69454693 15.55062272 -162.875 11.5 C-162.27429688 10.83484375 -161.67359375 10.1696875 -161.0546875 9.484375 C-146.15946187 -6.37807308 -126.53489378 -15.68542592 -105.875 -21.5 C-104.66199219 -21.84160156 -103.44898438 -22.18320312 -102.19921875 -22.53515625 C-67.75476337 -30.48956861 -27.6748127 -22.24837884 0 0 Z " fill="#2F3159" transform="translate(1002.875,837.5)"/>
<path d="M0 0 C0.81726562 0.67546875 1.63453125 1.3509375 2.4765625 2.046875 C3.73339844 3.06007813 3.73339844 3.06007813 5.015625 4.09375 C22.02933318 18.52643124 32.87559467 38.8904824 35.4765625 61.046875 C36.5100744 77.97275017 36.5100744 77.97275017 31.4765625 85.046875 C26.98217697 89.42601987 22.5332531 91.30036761 16.28166199 91.28738403 C15.25667603 91.29013336 14.23169006 91.29288269 13.17564392 91.29571533 C12.06218094 91.28852478 10.94871796 91.28133423 9.80151367 91.27392578 C8.03014542 91.27436386 8.03014542 91.27436386 6.22299194 91.27481079 C2.99398247 91.27365804 -0.23485258 91.26364289 -3.46382737 91.24966288 C-6.84173716 91.23714149 -10.21965054 91.23598391 -13.59757996 91.23361206 C-19.99002846 91.22740142 -26.38240837 91.21099626 -32.77482671 91.19091308 C-40.05411734 91.16854111 -47.33341129 91.15755739 -54.61272776 91.14752221 C-69.58300253 91.12662965 -84.55321315 91.09146179 -99.5234375 91.046875 C-98.73201549 92.65785773 -97.93736966 94.26725699 -97.14135742 95.87597656 C-96.69918381 96.77237854 -96.25701019 97.66878052 -95.80143738 98.59234619 C-91.51879201 106.8176024 -84.68842016 112.00735726 -76.5234375 116.046875 C-75.73839844 116.46066406 -74.95335937 116.87445312 -74.14453125 117.30078125 C-63.7349332 121.97614063 -48.37877792 122.07596653 -37.671875 118.09375 C-34.32878469 116.46475327 -31.17798864 114.58160967 -28.02734375 112.609375 C-21.10013907 108.28662637 -14.91270712 104.45397571 -6.5234375 106.046875 C0.18620913 108.02899079 3.98150248 112.1259674 7.4765625 118.046875 C10.06413027 123.81009412 10.26968728 129.18498645 8.2890625 135.171875 C6.69726902 139.01133982 4.64233698 141.30320378 1.4765625 144.046875 C0.94546875 144.57925781 0.414375 145.11164063 -0.1328125 145.66015625 C-16.66437982 161.59121792 -39.92653224 163.56062924 -61.68359375 163.32421875 C-85.98073823 162.65420557 -106.69860743 151.03899741 -123.5234375 134.046875 C-142.55193093 113.46570936 -147.45331046 89.49585889 -146.70703125 62.30517578 C-145.45288547 40.04742368 -132.84901989 19.54389657 -117.1875 4.33984375 C-107.78490721 -3.75300371 -97.22519119 -9.82915894 -85.5234375 -13.953125 C-83.79867188 -14.571875 -83.79867188 -14.571875 -82.0390625 -15.203125 C-54.33601092 -23.61924194 -22.76516986 -17.74445264 0 0 Z M-92.578125 39.74609375 C-97.19590329 45.20768294 -99.3284435 48.87691098 -100.5234375 56.046875 C-70.1634375 56.046875 -39.8034375 56.046875 -8.5234375 56.046875 C-10.35478392 45.05879647 -17.55648711 37.88661459 -26.35546875 31.46484375 C-46.98168709 17.97418203 -75.94644865 22.01160015 -92.578125 39.74609375 Z " fill="#2F3159" transform="translate(1858.5234375,896.953125)"/>
<path d="M0 0 C5.14338337 2.9958329 8.76038445 7.90615335 10.625 13.5 C10.71442453 15.63151727 10.74258899 17.76578151 10.73852539 19.89916992 C10.73867142 20.54334366 10.73881744 21.1875174 10.7389679 21.85121155 C10.73827195 23.97766502 10.73049448 26.1040306 10.72265625 28.23046875 C10.72079094 29.70591687 10.71936757 31.18136561 10.71836853 32.65681458 C10.71455226 36.53825595 10.70472956 40.41965985 10.69366455 44.30108643 C10.68343131 48.26256808 10.67886681 52.22405581 10.67382812 56.18554688 C10.6631065 63.95704833 10.64604075 71.72851891 10.625 79.5 C11.49092773 78.95585449 12.35685547 78.41170898 13.24902344 77.85107422 C14.41068805 77.12708728 15.57247866 76.40330249 16.734375 75.6796875 C17.3020459 75.32221436 17.8697168 74.96474121 18.45458984 74.59643555 C35.47885687 64.02589137 55.60894113 61.54873011 75.20361328 65.52734375 C96.91719434 70.86882951 115.75483496 84.83049127 127.375 103.8125 C137.86010131 121.64567487 140.10258078 139.24583906 140.09375 159.4921875 C140.10086703 161.49325774 140.10856823 163.49432597 140.11682129 165.49539185 C140.13018063 169.6623505 140.13187099 173.82911984 140.12597656 177.99609375 C140.12005303 183.32226823 140.15082143 188.64753982 140.19109344 193.97353935 C140.21698075 198.09492852 140.21984757 202.21609949 140.21620178 206.33755875 C140.21788843 208.30147721 140.22748683 210.26540625 140.24534607 212.22924423 C140.26758386 214.97359399 140.25781396 217.71610359 140.24023438 220.46044922 C140.25349762 221.26060959 140.26676086 222.06076996 140.28042603 222.88517761 C140.19242154 228.82437343 138.42248256 232.92246668 134.625 237.5 C128.97124864 242.5033741 124.01507991 243.93397457 116.61328125 243.8359375 C110.8132184 243.18390429 105.7385928 240.99744069 101.92578125 236.4921875 C98.28221835 230.833703 97.47860693 226.11446706 97.4831543 219.43945312 C97.47967987 218.6178772 97.47620544 217.79630127 97.47262573 216.9498291 C97.46527127 215.1639524 97.45992423 213.37806658 97.45633507 211.59217834 C97.44915894 208.75762578 97.43348094 205.92324526 97.41499329 203.08874512 C97.36259788 195.02858938 97.31461523 186.96852527 97.29907227 178.90820312 C97.28893986 173.97676432 97.25947722 169.0457551 97.21775246 164.11448669 C97.20550627 162.24241906 97.20030943 160.37029055 97.20255089 158.4981842 C97.21158254 148.48681303 97.17334694 139.67897076 92.625 130.5 C92.15578125 129.50484375 91.6865625 128.5096875 91.203125 127.484375 C85.124099 117.25730773 76.8651756 110.85855855 65.20703125 107.8828125 C50.8634 105.75622269 38.55623222 108.6888469 26.72265625 116.8046875 C17.94777456 123.60186063 13.05805782 134.6973048 11.625 145.5 C11.53103009 148.23295732 11.48120718 150.94086922 11.4831543 153.67333984 C11.47967987 154.47091202 11.47620544 155.26848419 11.47262573 156.09022522 C11.46530227 157.81384976 11.45993883 159.53748352 11.45633507 161.26111984 C11.44913088 163.9942756 11.43343576 166.72725583 11.41499329 169.46035767 C11.36270371 177.22843043 11.31455489 184.99640336 11.29907227 192.76464844 C11.28896609 197.52447643 11.25958033 202.28385612 11.21775246 207.04350662 C11.2054808 208.85106637 11.20031416 210.6586895 11.20255089 212.46628952 C11.20491577 215.00063373 11.18265064 217.53370023 11.1550293 220.06787109 C11.16493141 221.17475533 11.16493141 221.17475533 11.17503357 222.30400085 C11.06241838 228.63314713 9.08608212 234.01057528 4.58984375 238.55859375 C3.92082031 239.01363281 3.25179688 239.46867187 2.5625 239.9375 C1.89089844 240.41058594 1.21929688 240.88367187 0.52734375 241.37109375 C-4.42234492 244.30838333 -9.8064403 244.14699976 -15.375 243.5 C-21.19141034 241.54769514 -26.20207057 238.92042111 -29.375 233.5 C-31.44878903 228.46790407 -31.66299341 224.09959903 -31.64242554 218.75273132 C-31.64695665 217.88415821 -31.65148776 217.0155851 -31.65615618 216.1206916 C-31.66879388 213.21671849 -31.66718021 210.31293308 -31.66552734 207.40893555 C-31.67151298 205.32415527 -31.67831861 203.2393772 -31.68588257 201.15460205 C-31.70354613 195.49543077 -31.7082381 189.83631997 -31.70951414 184.17712379 C-31.71093609 180.64021473 -31.71520654 177.10332103 -31.72050858 173.56641579 C-31.73901003 161.22371062 -31.74717904 148.88104865 -31.74560547 136.53833008 C-31.74440404 125.03895985 -31.76550646 113.5397773 -31.7970928 102.04045457 C-31.82325707 92.1625587 -31.8339727 82.28472414 -31.83269465 72.40679389 C-31.83218506 66.50943231 -31.83786661 60.61223753 -31.85905075 54.71491051 C-31.87843551 49.16707434 -31.87855575 43.61956407 -31.86401749 38.07171631 C-31.86192861 36.03882686 -31.86663497 34.005917 -31.8787384 31.97306252 C-31.89422565 29.1910675 -31.8848598 26.41019135 -31.86947632 23.6282196 C-31.87976344 22.82975591 -31.89005057 22.03129221 -31.90064943 21.20863265 C-31.81927393 14.51832405 -30.00928898 8.2910317 -25.33984375 3.34375 C-24.67082031 2.9003125 -24.00179688 2.456875 -23.3125 2 C-22.64089844 1.5359375 -21.96929688 1.071875 -21.27734375 0.59375 C-15.18655466 -2.90814106 -6.37114046 -2.79738663 0 0 Z " fill="#2F3159" transform="translate(1085.375,814.5)"/>
<path d="M0 0 C2.38381328 1.89061053 4.6564913 3.84479457 6.91796875 5.87890625 C8.38556641 7.05453125 8.38556641 7.05453125 9.8828125 8.25390625 C26.46782939 22.05948682 34.53018605 44.99268952 36.73366928 65.73181915 C37.32073477 72.57112659 37.22529538 79.44981985 37.21875 86.30859375 C37.22264967 88.03679505 37.22698688 89.76499541 37.23173523 91.49319458 C37.23913102 95.08501318 37.23895238 98.67673333 37.23364258 102.26855469 C37.22781787 106.85117311 37.2448832 111.4333913 37.26798725 116.01594353 C37.28276415 119.57288938 37.28359158 123.12973924 37.28047752 126.68671036 C37.28098747 128.37626064 37.28616311 130.06581675 37.29628944 131.75533676 C37.40051583 151.54833973 37.40051583 151.54833973 31.60546875 159.25390625 C26.80517449 163.94256576 22.57115085 165.29767718 15.91796875 165.25390625 C14.74234375 165.26164062 13.56671875 165.269375 12.35546875 165.27734375 C5.99495713 164.54010263 2.0748446 161.59752209 -2.08203125 156.87890625 C-5.829483 151.39156619 -6.22690865 146.97259012 -6.16381836 140.43920898 C-6.1607518 139.69551559 -6.15768524 138.9518222 -6.15452576 138.18559265 C-6.14738149 136.57269143 -6.13799712 134.95979892 -6.12663078 133.34692192 C-6.10919048 130.78539832 -6.0989238 128.22393762 -6.0907135 125.66236877 C-6.06631601 118.37958825 -6.03094385 111.09689176 -5.98608398 103.81420898 C-5.95912118 99.35514449 -5.94219383 94.89612945 -5.93121529 90.43699837 C-5.9250515 88.74629969 -5.91510499 87.05561002 -5.9011364 85.36495781 C-5.75509531 67.51747505 -7.53594528 52.68642887 -20.37890625 39.14453125 C-30.87540766 30.34688556 -42.65383127 27.91676108 -56.08203125 28.87890625 C-66.45215294 30.73960237 -75.45886555 35.19680316 -82.1796875 43.45703125 C-89.6621591 54.57747737 -92.23378181 65.76422365 -92.22387695 79.00390625 C-92.22735138 79.77250977 -92.23082581 80.54111328 -92.23440552 81.33300781 C-92.24170665 82.98729749 -92.24708176 84.6415966 -92.25069618 86.29589844 C-92.25792572 88.9200005 -92.27363756 91.54392242 -92.29203796 94.16796875 C-92.34422016 101.62367366 -92.39249035 109.07927239 -92.40795898 116.53515625 C-92.41806678 121.10926649 -92.44745089 125.68291038 -92.48927879 130.25683594 C-92.50154231 131.99182604 -92.50671859 133.72688207 -92.50448036 135.46191406 C-92.50211446 137.89308171 -92.52438579 140.32291916 -92.55200195 142.75390625 C-92.54209984 143.81399902 -92.54209984 143.81399902 -92.53199768 144.89550781 C-92.64838724 151.17415114 -94.79803658 156.31777416 -98.94921875 160.97265625 C-105.57213042 165.61127143 -112.16330756 166.07646235 -120.08203125 164.87890625 C-127.03715174 161.8969504 -130.98471666 157.79718993 -134.2415638 151.08242798 C-135.60056396 147.51942696 -135.63302657 144.19897938 -135.58374023 140.421875 C-135.59184471 139.21509346 -135.59184471 139.21509346 -135.60011292 137.9839325 C-135.61253911 135.34437352 -135.59613858 132.70591943 -135.578125 130.06640625 C-135.57828025 128.21044864 -135.57977355 126.35449072 -135.58253479 124.49853516 C-135.58391648 120.61167022 -135.57140882 116.72517525 -135.54858398 112.83837891 C-135.52035915 107.90085454 -135.5228965 102.96395162 -135.5356741 98.02638245 C-135.54269701 94.191171 -135.53476481 90.35609825 -135.52241707 86.52090454 C-135.51795516 84.70318131 -135.51751876 82.88544289 -135.52148247 81.06771851 C-135.55310903 53.77890124 -128.6958535 28.79784714 -109.08203125 8.87890625 C-100.38635387 0.78962199 -91.13668441 -5.13522279 -80.08203125 -9.37109375 C-79.1216394 -9.74077271 -79.1216394 -9.74077271 -78.1418457 -10.11791992 C-52.68617847 -19.41044299 -22.25264632 -15.31455887 0 0 Z " fill="#EF7D24" transform="translate(573.08203125,893.12109375)"/>
<path d="M0 0 C0.63405762 0.19867676 1.26811523 0.39735352 1.92138672 0.60205078 C11.62797988 3.69841921 19.8264631 7.80413359 28 14 C29.03060547 14.75603516 29.03060547 14.75603516 30.08203125 15.52734375 C35.48854957 19.77952918 39.81651275 25.44953824 42 32 C42.7067793 38.81537184 42.78148124 44.57918942 38.62890625 50.24609375 C33.47475425 55.79576821 28.49312601 59.00955484 20.875 59.375 C13.58180631 59.2791945 7.71824633 55.45140343 2.125 51.0625 C-9.82260595 41.70273582 -22.08024671 38.79235603 -37 40 C-50.10521602 42.63049408 -61.25853521 50.17098602 -69 61 C-75.68430683 72.805117 -79.47826645 85.54638385 -75.875 99 C-70.66897929 114.23243097 -61.34601695 124.91089649 -46.98828125 131.9921875 C-35.84609449 137.06780403 -22.29894668 136.17191877 -11 132 C-4.35848086 128.77736552 1.62738059 124.26571073 7.62280273 119.98388672 C13.87818754 115.55015132 19.47419015 115.16804897 27 116 C32.94781897 118.19960801 37.46099151 122.83231287 41 128 C43.14933405 134.44800214 42.84872155 141.01208348 40 147.1875 C30.99332165 163.00532292 13.3924669 170.55827731 -3.109375 176.03125 C-28.17639586 182.76567351 -55.03242456 177.77340025 -77.24609375 165.15625 C-97.93605077 152.02660237 -111.98547075 132.80315186 -118.30859375 109.18359375 C-123.77303126 84.02248319 -118.98727072 58.3669461 -105.1640625 36.73193359 C-91.27687933 16.07008849 -70.76482723 4.13880792 -47 -2 C-32.1896918 -4.83269066 -14.4017136 -4.68276577 0 0 Z " fill="#2F3159" transform="translate(1652,882)"/>
<path d="M0 0 C1.15113281 0.22300781 2.30226563 0.44601562 3.48828125 0.67578125 C22.36723884 4.9320331 37.83690549 11.84280528 53 24 C53.70253906 24.55945313 54.40507813 25.11890625 55.12890625 25.6953125 C58.89991417 28.80659765 62.06335921 32.08447895 65 36 C65 38 65 38 63.671875 39.33984375 C63.03765625 39.86707031 62.4034375 40.39429688 61.75 40.9375 C58.09026494 44.04567925 54.52657756 47.2423469 51 50.5 C46.92822533 54.25221929 42.8189305 57.95145764 38.62109375 61.5625 C36.94719537 62.97545386 36.94719537 62.97545386 35.53515625 64.75 C34 66 34 66 32.171875 66.015625 C28.992555 64.52889263 26.72999079 62.17259997 24.25 59.75 C13.44172315 49.619165 -0.7919014 42.12631311 -16 42 C-17.12664062 41.96261719 -18.25328125 41.92523438 -19.4140625 41.88671875 C-40.20112201 41.48452513 -58.16479501 46.91347143 -73.546875 61.328125 C-85.67411949 74.53677983 -92.43267312 91.85813767 -92.3125 109.75 C-92.30758545 110.62470947 -92.3026709 111.49941895 -92.29760742 112.40063477 C-91.96591711 130.86472889 -85.03676128 148.63813049 -72.4375 162.1875 C-57.62572826 176.26203424 -39.83978718 180.7467322 -19.88476562 180.59863281 C-10.75960787 180.31876725 -3.26675453 178.91174846 5 175 C5.85851563 174.59652344 6.71703125 174.19304687 7.6015625 173.77734375 C9.41668022 172.88261258 11.21151453 171.94684525 13 171 C13.66 171 14.32 171 15 171 C15.03738281 171.845625 15.07476563 172.69125 15.11328125 173.5625 C15.72140884 184.05568191 17.0846802 191.66339462 25 199 C30.39004733 202.83522598 35.50795752 204.00725306 42 205 C38.61634513 208.90555536 34.91768251 210.81275328 30.3125 212.9375 C29.56500488 213.28377441 28.81750977 213.63004883 28.04736328 213.98681641 C2.4299512 225.5004408 -28.01251045 227.20387979 -55.5625 222.5625 C-56.42883057 222.46702881 -57.29516113 222.37155762 -58.18774414 222.27319336 C-61.15495859 221.64200373 -62.68435926 220.98800423 -65 219 C-67.5666815 214.32680313 -69.30314489 209.46890084 -71.08596802 204.45516968 C-72.61738287 200.34165572 -74.44953609 196.37137448 -76.27734375 192.3828125 C-77.03741447 190.70591956 -77.79742313 189.02899848 -78.55737305 187.35205078 C-79.35068728 185.60967256 -80.14406445 183.86732298 -80.9375 182.125 C-81.77732486 180.27467904 -82.61692039 178.42425398 -83.45629883 176.57373047 C-88.0273151 166.5030542 -92.62423544 156.44433493 -97.23242188 146.390625 C-105.37426724 128.62733579 -113.38675732 110.81030357 -121.265625 92.92871094 C-122.82208715 89.397943 -124.39476264 85.87455494 -125.96875 82.3515625 C-126.79251002 80.48474692 -127.61550638 78.61759404 -128.4375 76.75 C-128.97685181 75.55528076 -128.97685181 75.55528076 -129.52709961 74.33642578 C-132.02756408 68.58957848 -134.17027754 63.10222724 -131.84765625 56.9453125 C-127.61663002 50.26084655 -123.13346748 44.0206104 -118 38 C-117.40832031 37.26265625 -116.81664062 36.5253125 -116.20703125 35.765625 C-88.84480748 2.86094652 -40.55879065 -7.96013648 0 0 Z " fill="#FEFDFD" transform="translate(1125,261)"/>
<path d="M0 0 C1.07599928 -0.00631043 1.07599928 -0.00631043 2.17373592 -0.01274834 C4.60091791 -0.02326857 7.02753653 -0.01223773 9.45471096 -0.00147593 C11.21048228 -0.00460265 12.96625166 -0.00904438 14.72201669 -0.01468903 C19.58306764 -0.0264481 24.44394156 -0.01934137 29.30498986 -0.00935517 C34.57965724 -0.00178475 39.85429624 -0.01150896 45.12895966 -0.01908517 C54.38547496 -0.02995335 63.64193785 -0.02957131 72.89845562 -0.02194369 C86.66283639 -0.01063209 100.42717265 -0.01637872 114.19155309 -0.02556861 C137.34310799 -0.04047782 160.49463699 -0.04099261 183.6461935 -0.03283846 C184.35175292 -0.03259008 185.05731234 -0.03234169 185.78425234 -0.03208578 C186.49093441 -0.03183699 187.19761648 -0.0315882 187.92571315 -0.03133187 C209.43388113 -0.02376974 230.94204059 -0.0218047 252.45020962 -0.0253998 C253.88912163 -0.02563224 255.32803365 -0.02586371 256.76694567 -0.02609421 C262.54897984 -0.02702557 268.33101401 -0.02798157 274.11304817 -0.02897351 C290.27737107 -0.03172486 306.441694 -0.03343642 322.60601711 -0.03433192 C323.3421719 -0.03437286 324.07832669 -0.03441379 324.8367892 -0.03445597 C348.30249953 -0.03568425 371.76820689 -0.03230083 395.23391628 -0.02578318 C396.37596209 -0.02546706 396.37596209 -0.02546706 397.54107954 -0.02514455 C409.90602454 -0.02170949 422.27096947 -0.0180512 434.6359144 -0.01437403 C483.68021203 0.00019557 532.72448509 -0.00048066 581.76878262 -0.01506579 C594.12740991 -0.0187292 606.48603721 -0.02236229 618.84466457 -0.02578318 C619.60557567 -0.02599453 620.36648678 -0.02620587 621.15045579 -0.02642362 C644.59115883 -0.03288978 668.03185983 -0.03563545 691.47256374 -0.03433192 C692.57599049 -0.03427079 692.57599049 -0.03427079 693.70170868 -0.03420842 C709.8479136 -0.03327109 725.99411829 -0.03137037 742.14032299 -0.02860041 C747.9172643 -0.02761293 753.69420562 -0.0266737 759.47114694 -0.02574828 C760.90836924 -0.02551611 762.34559154 -0.02527992 763.78281384 -0.02503969 C785.28665566 -0.02145526 806.79048789 -0.02451531 828.29432851 -0.03208578 C829.35266764 -0.03245836 829.35266764 -0.03245836 830.43238735 -0.03283846 C831.48878391 -0.03321053 831.48878391 -0.03321053 832.56652182 -0.03359012 C856.29098269 -0.04185467 880.01541257 -0.03883603 903.73987126 -0.02299623 C917.4299148 -0.01415847 931.11989978 -0.01365379 944.80994185 -0.02493476 C953.93906776 -0.03163025 963.06814643 -0.02753297 972.19726531 -0.01442045 C977.40892271 -0.00724131 982.62046323 -0.00493193 987.8321172 -0.0156384 C992.56458804 -0.02526197 997.29683731 -0.02131089 1002.0292917 -0.00609642 C1003.73903069 -0.00305167 1005.44878763 -0.00513352 1007.15851252 -0.01271423 C1009.46547641 -0.02222461 1011.77165447 -0.01352946 1014.07858086 0 C1015.36022635 0.00020328 1016.64187184 0.00040655 1017.96235508 0.00061599 C1021.03929043 0.37604749 1021.03929043 0.37604749 1022.94699103 1.71595671 C1024.69126907 4.36693308 1024.48005829 6.29067246 1024.03929043 9.37604749 C1021.80687168 12.41774504 1020.6094778 13.28682234 1016.84341794 13.87615016 C1015.56464786 13.87619745 1014.28587778 13.87624475 1012.96835709 13.87629348 C1012.25125923 13.88177852 1011.53416138 13.88726356 1010.79533328 13.89291481 C1008.37482791 13.90649544 1005.95533667 13.89140564 1003.53485012 13.87661874 C1001.78162494 13.88048548 1000.0284029 13.88610595 998.27518833 13.89332834 C993.42581708 13.90815824 988.57676605 13.89786999 983.72740458 13.88371635 C978.46369342 13.87271733 973.20002879 13.88480675 967.93632126 13.89402384 C958.70055862 13.90696598 949.46489177 13.90493538 940.22912884 13.89324415 C926.495583 13.87590672 912.76211292 13.88134403 899.02856323 13.89141106 C875.92822914 13.90763339 852.827946 13.90480943 829.7276144 13.8906635 C806.84400398 13.87666828 783.96041137 13.86961715 761.07679653 13.87237203 C759.64090124 13.87253491 758.20500595 13.87269695 756.76911066 13.87285814 C750.99915293 13.87351642 745.22919522 13.87422017 739.4592375 13.87498348 C723.32882243 13.87709534 707.19840742 13.87784757 691.06799221 13.8775667 C689.96608981 13.87754812 689.96608981 13.87754812 688.84192676 13.87752918 C665.42683124 13.87703964 642.01174125 13.87061155 618.59664822 13.86000955 C617.45711869 13.8594944 617.45711869 13.8594944 616.29456836 13.85896883 C603.95698107 13.8533699 591.61939394 13.84743581 579.28180682 13.84147977 C530.34646695 13.81787766 481.41115826 13.81168443 432.47581387 13.82209241 C429.38354623 13.82274562 426.2912786 13.82339693 423.19901097 13.82404792 C422.05218988 13.82428947 422.05218988 13.82428947 420.88220069 13.8245359 C412.41544469 13.82631531 403.94868867 13.82803746 395.48193264 13.82969034 C394.72269745 13.8298397 393.96346226 13.82998907 393.18121994 13.83014296 C352.93717279 13.83799744 312.69312841 13.83239628 272.44908224 13.82157704 C266.68421652 13.82002775 260.9193508 13.8185144 255.15448508 13.81700222 C253.00433563 13.81643398 250.85418619 13.81585249 248.70403675 13.81527048 C232.96681984 13.8110661 217.22960604 13.80887494 201.49238873 13.81195557 C200.78264231 13.81209418 200.07289589 13.81223279 199.341642 13.8123756 C195.76791011 13.81308603 192.19417823 13.81383223 188.62044635 13.81459296 C162.8152947 13.82007677 137.01018381 13.8159718 111.20503736 13.79460441 C97.5463055 13.78358668 83.88763083 13.78085383 70.22889719 13.78989295 C61.11939904 13.79508995 52.00995009 13.78947346 42.9004623 13.7748396 C37.7008555 13.7667903 32.50136479 13.7635896 27.30175841 13.77341216 C22.5790603 13.78223281 17.8565864 13.77744776 13.133909 13.76143273 C11.42883322 13.75809621 9.72373853 13.75987046 8.01867507 13.76716121 C5.71558203 13.7762876 3.41327566 13.7671558 1.11022377 13.75324565 C-0.16854631 13.75281863 -1.4473164 13.75239162 -2.76483709 13.75195166 C-6.18270829 13.34993561 -7.6229524 12.87565753 -9.96070957 10.37604749 C-10.69354051 4.5134 -10.69354051 4.5134 -8.86841017 1.68080046 C-5.9569987 -0.31043064 -3.49998416 0.00055512 0 0 Z " fill="#EC7223" transform="translate(851.9607095718384,1093.6239525079727)"/>
<path d="M0 0 C18.17439649 15.595694 29.0654741 36.61716242 31.80859375 60.43359375 C33.38325304 86.61423045 26.52856887 110.7182649 9.203125 130.84765625 C-2.41144542 143.39063442 -15.82678163 152.33215209 -32.19140625 157.43359375 C-33.18398437 157.75199219 -34.1765625 158.07039063 -35.19921875 158.3984375 C-58.76078708 164.67959269 -84.34872237 160.63518591 -105.31640625 148.62109375 C-127.69464954 134.5721327 -142.16461451 114.35489124 -148.4453125 88.7890625 C-149.29723675 84.95763354 -150.02308503 81.35407542 -150.19140625 77.43359375 C-150.24296875 76.37269531 -150.29453125 75.31179688 -150.34765625 74.21875 C-150.98616438 48.86465653 -142.8284049 26.06962235 -125.2890625 7.59765625 C-124.59683594 6.88351562 -123.90460938 6.169375 -123.19140625 5.43359375 C-122.65386719 4.82257812 -122.11632813 4.2115625 -121.5625 3.58203125 C-90.60144858 -30.40528835 -33.59353837 -27.60471816 0 0 Z M-90.19140625 10.43359375 C-91.54298828 11.17222656 -91.54298828 11.17222656 -92.921875 11.92578125 C-109.63997634 21.78215129 -119.93727849 37.01032174 -125.19140625 55.43359375 C-128.98401642 73.57005009 -125.02965914 91.8337121 -115.19140625 107.43359375 C-111.87525594 111.77885056 -108.09716207 115.62138897 -104.19140625 119.43359375 C-103.6190625 120.0265625 -103.04671875 120.61953125 -102.45703125 121.23046875 C-90.52727394 132.6682773 -73.39885626 137.44378288 -57.28955078 137.50390625 C-38.59527476 136.8774283 -21.49929903 128.50582792 -8.75390625 114.99609375 C4.8194765 99.11655374 9.05938135 80.96735687 7.80859375 60.43359375 C7.18643789 56.26148973 6.17647189 52.41828224 4.80859375 48.43359375 C4.55335938 47.61117187 4.298125 46.78875 4.03515625 45.94140625 C-1.69896892 29.47552389 -14.24349314 17.63549402 -29.19140625 9.43359375 C-48.57809695 0.06902853 -71.24471819 -0.08914954 -90.19140625 10.43359375 Z " fill="#EC7223" transform="translate(1399.19140625,899.56640625)"/>
<path d="M0 0 C14.59603615 11.15505998 24.87712183 26.20547338 27.89453125 44.50390625 C30.40223311 64.88979293 25.76172635 83.7158278 13.03515625 100.0625 C1.50311261 113.30299455 -14.94613594 122.71198268 -32.65234375 124.1875 C-52.71047618 125.24048775 -70.01029014 119.77984504 -85.65234375 107.1875 C-98.71538755 95.3623967 -106.92386173 78.96268916 -108.02734375 61.32421875 C-108.70612164 42.80226639 -104.10833841 24.78900528 -91.33984375 10.8125 C-89.48658193 8.88377451 -87.58677192 7.03840829 -85.65234375 5.1875 C-84.87117187 4.43597656 -84.09 3.68445313 -83.28515625 2.91015625 C-60.28903948 -17.25983842 -24.57059926 -16.7905126 0 0 Z M-76.65234375 25.1875 C-84.72179373 34.91932594 -88.78325531 47.55898756 -87.65234375 60.1875 C-85.39125124 74.96124851 -79.28599519 85.69927519 -67.65234375 95.1875 C-55.68677609 102.64733021 -42.51484498 105.4244288 -28.6015625 102.80078125 C-15.69092194 99.5139583 -4.97595895 91.01064905 1.88671875 79.63671875 C8.14306582 67.58135993 9.86687959 55.38084366 6.34765625 42.1875 C1.01364078 28.71587603 -6.98674362 17.96963049 -20.52734375 11.8984375 C-41.17253943 4.10038805 -61.50373878 9.20021794 -76.65234375 25.1875 Z " fill="#EF8023" transform="translate(974.65234375,597.8125)"/>
<path d="M0 0 C15.26649582 11.85747248 24.94952705 27.91174691 27.81640625 47.0625 C29.32682936 66.09383119 25.05445835 84.2217548 12.73046875 99.21484375 C12.20195313 99.80394531 11.6734375 100.39304687 11.12890625 101 C10.49726562 101.72316406 9.865625 102.44632813 9.21484375 103.19140625 C-2.88505509 116.19329755 -18.78677578 122.94126995 -36.30078125 124.2578125 C-55.06995983 124.85302958 -72.47003583 119.22838749 -86.43359375 106.5 C-99.97532019 93.5305832 -107.71330803 77.46577786 -108.27148438 58.66918945 C-108.52075057 38.221162 -102.41754639 20.90954663 -87.87109375 6 C-63.28183273 -15.83029765 -27.26196849 -18.99065016 0 0 Z M-76.12890625 23.8515625 C-85.09214049 34.90487827 -89.32701895 47.77809653 -87.87109375 62 C-85.63400471 74.82024105 -79.66333961 85.9340363 -69.33203125 93.9765625 C-57.301015 102.1243689 -45.17338999 104.58725174 -30.87109375 103 C-26.88475337 102.14612685 -23.48972617 100.86117559 -19.87109375 99 C-18.9996875 98.55269531 -18.12828125 98.10539063 -17.23046875 97.64453125 C-5.72255512 91.21870523 1.59788462 81.69053206 6.06640625 69.25 C9.23137212 56.92641415 7.81819019 43.34573826 1.5859375 32.25390625 C-0.11046038 29.70348656 -1.91071703 27.35245206 -3.87109375 25 C-4.44472656 24.29101562 -5.01835938 23.58203125 -5.609375 22.8515625 C-13.60970004 13.90901503 -25.6123722 8.75983429 -37.44140625 7.7890625 C-52.31460626 7.23820324 -65.99719874 12.87904939 -76.12890625 23.8515625 Z " fill="#EF8024" transform="translate(1197.87109375,598)"/>
<path d="M0 0 C5.68945273 3.31787387 9.51760611 7.7250236 11.26717186 14.11685371 C12.21706454 19.36124426 11.97243315 24.73687481 11.9621582 30.04858398 C11.96651057 31.42578405 11.97169547 32.80298169 11.97764587 34.18017578 C11.99099009 37.90541371 11.99161972 41.63054991 11.98908257 45.35580707 C11.98800984 48.4720141 11.9929039 51.5882008 11.997688 54.70440346 C12.00876715 62.05889199 12.00922943 69.41332944 12.00317383 76.76782227 C11.99713341 84.34152203 12.00945036 91.91503606 12.0307439 99.48870414 C12.04838581 106.00442733 12.05435722 112.52009153 12.05110615 119.03583771 C12.04929743 122.92160699 12.0518884 126.80724372 12.06582069 130.69299126 C12.07843688 134.34812137 12.07641944 138.00296277 12.06340981 141.65808868 C12.05993378 143.62935139 12.07119374 145.60062308 12.08297729 147.57185364 C12.02816429 156.84977041 10.85643621 163.98228836 4.33984375 170.9609375 C-0.6531636 175.42277386 -6.17502622 175.99253338 -12.6015625 175.78125 C-19.38170267 174.92152041 -23.70311573 171.56787906 -28.0859375 166.51171875 C-32.22614655 159.51028243 -31.60861358 151.73223376 -31.60302734 143.8581543 C-31.60901893 142.48419838 -31.61582592 141.11024581 -31.62338257 139.73629761 C-31.64098593 136.01919892 -31.64573555 132.30219242 -31.64701414 128.58505607 C-31.64843954 126.25838826 -31.65271649 123.9317436 -31.65800858 121.60508156 C-31.67649027 113.47571968 -31.68468154 105.34642321 -31.68310547 97.21704102 C-31.68190464 89.65923918 -31.70300006 82.10172319 -31.7345928 74.54399365 C-31.76081067 68.03842864 -31.77147046 61.53295667 -31.77019465 55.02733928 C-31.76968662 51.14928007 -31.77528094 47.27147508 -31.79655075 43.39346886 C-31.8160265 39.74319611 -31.81599474 36.09341766 -31.80151749 32.44312668 C-31.79845578 30.47938876 -31.81504035 28.51565029 -31.83239746 26.55198669 C-31.77601229 18.55341516 -31.15434304 10.69111308 -25.56244469 4.49987316 C-18.52028203 -2.02033222 -8.94348775 -4.00737047 0 0 Z " fill="#EF7D24" transform="translate(677.3125,882.5625)"/>
<path d="M0 0 C4.9414418 2.8555053 8.48283292 7.06657261 10.625 12.375 C10.88226891 15.15621567 10.88226891 15.15621567 10.89242554 18.4208374 C10.90095551 19.66006958 10.90948547 20.89930176 10.91827393 22.17608643 C10.91757492 23.54675306 10.91665186 24.91741959 10.91552734 26.28808594 C10.9215128 27.73380887 10.92831838 29.17952861 10.93588257 30.62524414 C10.95355121 34.55105615 10.95823839 38.47678097 10.95951414 42.4026289 C10.96093617 44.85707441 10.96520681 47.31149779 10.97050858 49.76593781 C10.9890139 58.33388169 10.99717883 66.90176335 10.99560547 75.46972656 C10.99440493 83.44727888 11.01548864 91.42456027 11.0470928 99.40204406 C11.07328033 106.25740762 11.08397168 113.11268285 11.08269465 119.96809602 C11.08218561 124.05963554 11.0878362 128.15093445 11.10905075 132.24242401 C11.12847428 136.09373285 11.12852989 139.94457265 11.11401749 143.79589844 C11.11193314 145.2051487 11.11660801 146.61442863 11.1287384 148.02362823 C11.1921467 155.90371073 10.97641028 161.67875912 6.625 168.375 C4.58984375 170.43359375 4.58984375 170.43359375 2.5625 171.8125 C1.89089844 172.28558594 1.21929688 172.75867187 0.52734375 173.24609375 C-4.42469823 176.18477985 -9.80201462 175.90939586 -15.375 175.375 C-21.55015604 173.62572371 -25.9032227 169.69323211 -29.375 164.375 C-31.17746691 160.56542427 -31.62747016 157.5543976 -31.63569641 153.35403442 C-31.64278122 152.14563904 -31.64986603 150.93724365 -31.65716553 149.69223022 C-31.65468811 148.37469757 -31.65221069 147.05716492 -31.6496582 145.69970703 C-31.65400766 144.29162323 -31.65919159 142.8835418 -31.66514587 141.47546387 C-31.67852301 137.65720317 -31.67911592 133.83904153 -31.67658257 130.02076197 C-31.67551185 126.83000134 -31.6803989 123.63926067 -31.685188 120.44850433 C-31.69627903 112.91861657 -31.69672306 105.38877869 -31.69067383 97.85888672 C-31.68463543 90.09889427 -31.69694249 82.33908321 -31.7182439 74.57912171 C-31.73587635 67.90974052 -31.74185861 61.24041697 -31.73860615 54.57101333 C-31.73679555 50.59079104 -31.73940701 46.6106981 -31.75332069 42.63049698 C-31.76592102 38.88593415 -31.76393429 35.14165336 -31.75090981 31.39709473 C-31.74742681 29.37433127 -31.75870613 27.35155911 -31.77047729 25.3288269 C-31.71670134 16.02130202 -30.44341325 9.86752787 -24.02734375 2.88671875 C-17.63917418 -2.95777681 -7.71216714 -3.48432504 0 0 Z " fill="#2F3159" transform="translate(1491.375,882.625)"/>
<path d="M0 0 C3.14314074 1.57157037 3.65929806 4.74210471 4.875 7.875 C12.50525076 26.91686472 21.21488081 45.51555728 29.76800537 64.15612793 C35.62451131 76.92425294 41.35914296 89.74330493 47.03637695 102.59204102 C50.40826569 110.21557554 53.81836267 117.81865298 57.3046875 125.390625 C57.65407883 126.15120209 58.00347015 126.91177917 58.3634491 127.69540405 C60.03108026 131.32472595 61.7055284 134.95057841 63.39282227 138.57080078 C63.99005135 139.86737246 64.58699131 141.16407736 65.18359375 142.4609375 C65.70493896 143.58290527 66.22628418 144.70487305 66.76342773 145.86083984 C67.97628172 148.93978882 68.59060607 151.72546555 69 155 C40.38658844 144.97245012 15.67117836 127.8555511 2.00390625 100.0546875 C-11.16606125 71.82937495 -14.99999593 39.82268045 -4.65625 10.0546875 C-1.46542096 1.46542096 -1.46542096 1.46542096 0 0 Z " fill="#32335A" transform="translate(991,325)"/>
<path d="M0 0 C4.29 0 8.58 0 13 0 C13.33 1.98 13.66 3.96 14 6 C31.49 6 48.98 6 67 6 C67 4.02 67 2.04 67 0 C73.93 0 80.86 0 88 0 C87.38221066 8.75716391 86.01205567 17.25465075 84.41601562 25.87402344 C83.99456237 28.15442194 83.58277085 30.43642803 83.171875 32.71875 C82.90681355 34.16937392 82.64120927 35.61989878 82.375 37.0703125 C82.25205566 37.75247833 82.12911133 38.43464417 82.00244141 39.13748169 C81.11526081 43.88473919 81.11526081 43.88473919 80 45 C78.11867237 45.0920258 76.23391345 45.11460413 74.3503418 45.11010742 C72.53792244 45.11097603 72.53792244 45.11097603 70.68888855 45.11186218 C68.714002 45.10869743 68.714002 45.10869743 66.69921875 45.10546875 C63.94073079 45.1163302 61.18228719 45.13384639 58.42382812 45.15039062 C54.05202572 45.17472904 49.68069852 45.19043754 45.30883789 45.17504883 C41.77999352 45.16338874 38.25233243 45.18077943 34.72367287 45.21749306 C32.72512385 45.23030271 30.72645408 45.21205706 28.72795105 45.19340515 C26.90134697 45.21791496 26.90134697 45.21791496 25.0378418 45.24291992 C23.966082 45.24434494 22.8943222 45.24576996 21.79008484 45.24723816 C18.10680653 45.91231401 18.10680653 45.91231401 15 52 C38.1 52 61.2 52 85 52 C85 54.31 85 56.62 85 59 C83.02 59 81.04 59 79 59 C79.0928125 60.5778125 79.0928125 60.5778125 79.1875 62.1875 C78.98895388 66.22460449 78.49309937 67.88362578 76 71 C72.20902605 73.37340891 69.4296006 73.15745798 65.125 72.52734375 C61.95077912 71.73962349 60.71635093 70.78907026 59 68 C58.505 64.04 58.505 64.04 58 60 C51.07 59.67 44.14 59.34 37 59 C37 61.31 37 63.62 37 66 C35.41248673 69.04172389 33.09696325 71.45151837 30 73 C24.13609041 73.67660495 24.13609041 73.67660495 21.2421875 71.953125 C19.06373176 70.16405507 17.27042188 68.54084375 16 66 C16 63.69 16 61.38 16 59 C11.05 59 6.1 59 1 59 C2.79168581 55.7032981 4.47551928 52.640175 6.859375 49.73046875 C10.29691224 45.47479764 12.55802371 42.3481299 12.1875 36.75 C11.84279707 34.49160147 11.43555582 32.24264914 11 30 C10.66937401 28.1150203 10.34149072 26.22955846 10.015625 24.34375 C9.0587803 18.88635397 8.04508602 13.4411289 7 8 C4.69 7.67 2.38 7.34 0 7 C0 4.69 0 2.38 0 0 Z M15 13 C15.33 14.98 15.66 16.96 16 19 C36.46 19 56.92 19 78 19 C78.33 17.02 78.66 15.04 79 13 C57.88 13 36.76 13 15 13 Z M18 26 C18 27.65 18 29.3 18 31 C37.14 31 56.28 31 76 31 C76.33 29.35 76.66 27.7 77 26 C57.53 26 38.06 26 18 26 Z M20 38 C20 38.33 20 38.66 20 39 C38.15 39 56.3 39 75 39 C75 38.67 75 38.34 75 38 C56.85 38 38.7 38 20 38 Z M25 59 C24.34 59.66 23.68 60.32 23 61 C23.3185177 63.10820797 23.3185177 63.10820797 24 65 C25.89179203 65.6814823 25.89179203 65.6814823 28 66 C28.66 65.34 29.32 64.68 30 64 C29.6814823 61.89179203 29.6814823 61.89179203 29 60 C27.10820797 59.3185177 27.10820797 59.3185177 25 59 Z M67 59 C66.34 59.66 65.68 60.32 65 61 C65.3185177 63.10820797 65.3185177 63.10820797 66 65 C67.65614657 65.38218767 69.32457024 65.71395102 71 66 C72.29633621 64.93354885 72.29633621 64.93354885 72.0625 62.4375 C72.041875 61.633125 72.02125 60.82875 72 60 C69.60280568 59.32041397 69.60280568 59.32041397 67 59 Z " fill="#2F3159" transform="translate(1296,933)"/>
<path d="M0 0 C3.22393223 3.73333337 4.84624968 7.98931851 6.703125 12.49609375 C7.23575455 13.77028671 7.23575455 13.77028671 7.77914429 15.07022095 C8.94196059 17.85691328 10.09626583 20.64703657 11.25 23.4375 C12.0510083 25.36461056 12.85228045 27.29161146 13.65380859 29.21850586 C16.11374825 35.14106493 18.559454 41.06942622 21 47 C21.3858728 47.93751099 21.77174561 48.87502197 22.16931152 49.84094238 C24.66552459 55.91033894 27.14918 61.98475976 29.625 68.0625 C29.95213989 68.86307831 30.27927979 69.66365662 30.61633301 70.48849487 C31.53187329 72.73169626 32.44257147 74.97679438 33.3515625 77.22265625 C33.62253754 77.88520416 33.89351257 78.54775208 34.17269897 79.2303772 C36 83.77002728 36 83.77002728 36 86 C12.57 86 -10.86 86 -35 86 C-34.15704858 80.94229149 -32.91453062 76.87032754 -30.96484375 72.21875 C-30.65423508 71.46386292 -30.3436264 70.70897583 -30.02360535 69.93121338 C-29.00120604 67.45148335 -27.96962386 64.97569649 -26.9375 62.5 C-26.22276168 60.7739215 -25.50841173 59.04768214 -24.79443359 57.32128906 C-22.92110321 52.7981102 -21.03851546 48.27884911 -19.15240479 43.76098633 C-18.00302902 41.00725708 -16.85558609 38.25272896 -15.70849609 35.49804688 C-13.87054401 31.08650745 -12.0278141 26.67699586 -10.18069458 22.26928711 C-9.47866734 20.59398423 -8.77738979 18.91836699 -8.07687378 17.24243164 C-7.09886315 14.9049912 -6.1165507 12.56940968 -5.1328125 10.234375 C-4.84391647 9.54241028 -4.55502045 8.85044556 -4.25737 8.13751221 C-3.01941711 5.21134488 -1.76957824 2.65436736 0 0 Z " fill="#F28828" transform="translate(931,330)"/>
<path d="M0 0 C5.19109854 5.04690136 8.05639494 10.46210234 8.35546875 17.76171875 C8.08697447 24.89173349 6.14682918 29.95440787 1.25 35.1875 C-5.68088444 40.65374471 -12.01258468 42.00626717 -20.75 41.1875 C-27.44632463 39.45874434 -32.05391881 36.00408931 -35.75 30.1875 C-38.84636741 24.33489645 -39.81932341 18.58084425 -38.24609375 12.1171875 C-36.19403145 5.94927453 -32.83030927 1.24618584 -27.1875 -2.125 C-17.87856111 -6.69484273 -8.57777236 -5.65353178 0 0 Z " fill="#2F3159" transform="translate(1496.75,820.8125)"/>
<path d="M0 0 C5.87870866 4.06987523 9.55103714 8.91768622 11 16 C12.00166221 23.35506255 10.07993296 28.86936389 6 35 C1.93980563 39.67368528 -3.41770012 42.49847802 -9.5390625 43.35546875 C-16.69470542 43.72836845 -22.16560379 42.18932127 -28 38 C-33.70967656 32.77499578 -35.64254107 26.61834344 -36 19 C-35.62122874 12.4425226 -32.22461393 6.88861931 -28 2 C-19.79096767 -4.45375328 -9.07638827 -4.77805641 0 0 Z " fill="#EF7C24" transform="translate(680,819)"/>
<path d="M0 0 C2.34373441 1.26714096 3.8515177 2.71582886 5.671875 4.6640625 C8.8626222 7.97798192 12.14455132 11.04025472 15.6328125 14.03515625 C19.11558439 17.08406748 22.5006613 20.23901318 25.88574219 23.39575195 C28.6843141 26.02085237 28.6843141 26.02085237 31.921875 28.0390625 C27.69808244 37.15038645 19.41936905 44.00182971 10.921875 49.0390625 C6.17440672 50.44450922 1.40271411 49.01675685 -3.0625 47.14453125 C-9.8846211 43.40294158 -15.31065801 37.78019641 -17.62890625 30.25 C-18.74847817 24.73975909 -19.24024826 19.57588013 -18.078125 14.0390625 C-15.62638981 11.08688737 -13.14416988 9.14796834 -9.97265625 7.00390625 C-6.94628846 5.1068252 -6.94628846 5.1068252 -4.46484375 2.23046875 C-2.078125 0.0390625 -2.078125 0.0390625 0 0 Z " fill="#323359" transform="translate(1158.078125,416.9609375)"/>
<path d="M0 0 C0.80060349 0.00007553 1.60120697 0.00015106 2.42607117 0.00022888 C3.71527214 0.00797081 3.71527214 0.00797081 5.03051758 0.01586914 C5.91411453 0.01728409 6.79771149 0.01869904 7.70808411 0.02015686 C10.53044011 0.0257547 13.3527168 0.03830678 16.17504883 0.05102539 C18.08845914 0.05604067 20.0018707 0.06060353 21.9152832 0.06469727 C26.60606897 0.07572342 31.29679545 0.09298656 35.98754883 0.11352539 C35.6751123 1.04817627 35.36267578 1.98282715 35.04077148 2.94580078 C32.44993429 10.73813101 30.80131501 17.7492355 30.90161133 26.02368164 C30.90781494 26.70950317 30.91401855 27.39532471 30.92041016 28.10192871 C30.93642467 29.77253408 30.96107796 31.44305299 30.98754883 33.11352539 C26.71917239 33.16335378 22.45095483 33.19944554 18.18237305 33.22338867 C16.73344977 33.23338125 15.28454632 33.24697992 13.83569336 33.2644043 C-5.04730959 33.48563865 -5.04730959 33.48563865 -10.82495117 28.86352539 C-13.97424124 24.90441788 -15.79387918 21.79965218 -16.44995117 16.73852539 C-15.747241 10.91606971 -13.70295603 6.72156659 -9.44995117 2.67602539 C-6.22282198 0.60735283 -3.75553716 -0.01184712 0 0 Z " fill="#F6AD22" transform="translate(567.012451171875,201.886474609375)"/>
<path d="M0 0 C-0.66732754 5.07796549 -2.82409201 9.41624678 -4.9296875 14.02734375 C-5.32068634 14.89388077 -5.71168518 15.76041779 -6.11453247 16.6532135 C-7.36317153 19.41686651 -8.61912601 22.17712845 -9.875 24.9375 C-10.71268996 26.79081212 -11.54993438 28.6443257 -12.38671875 30.49804688 C-13.19231124 32.27882553 -13.99828822 34.0594303 -14.8046875 35.83984375 C-15.17979462 36.66814194 -15.55490173 37.49644012 -15.94137573 38.34983826 C-17.88041447 42.61037814 -19.8730496 46.82874401 -22 51 C-27.86567699 50.19410699 -31.08460918 47.28399456 -35 43 C-39.8833425 35.36803329 -40.88985945 27.97019235 -40 19 C-37.61292822 11.23934062 -32.76780464 4.74658147 -25.71484375 0.68359375 C-17.22092979 -3.17972369 -8.71123238 -3.09732707 0 0 Z " fill="#323359" transform="translate(884,304)"/>
<path d="M0 0 C4.60680859 3.25186488 7.72072178 6.74958167 9.1875 12.25 C9.76470015 18.28528576 9.67492219 23.07899468 6.1875 28.25 C2.31376317 32.75191037 -1.3613591 35.82187057 -7.39453125 36.5703125 C-13.80576081 36.83342726 -17.68879468 36.14401604 -22.8125 32.25 C-27.49705075 27.80279982 -29.46605391 23.31027378 -30.1875 16.9375 C-29.58897837 11.05203734 -27.65287057 6.19261338 -23.5625 1.875 C-15.68728381 -2.77853684 -8.47071099 -4.4344534 0 0 Z " fill="#2F3159" transform="translate(1167.8125,636.75)"/>
<path d="M0 0 C4.59557656 3.95433332 8.30767225 7.64987532 8.9609375 13.94921875 C9.19793246 21.06818264 8.63192687 25.96891366 3.6875 31.3125 C-2.4592797 36.10698817 -7.69160551 37.11529452 -15.3125 36.3125 C-21.24099217 34.5175413 -24.802553 31.31151542 -28.3125 26.3125 C-30.38403537 20.09789389 -30.44589655 12.7536618 -27.6875 6.8125 C-19.61417446 -1.68573741 -11.07165712 -5.64027816 0 0 Z " fill="#2F3159" transform="translate(945.3125,636.6875)"/>
</svg>
