<?xml version="1.0" encoding="UTF-8"?>
<svg version="1.1" xmlns="http://www.w3.org/2000/svg" width="115" height="121">
<path d="M0 0 C37.95 0 75.9 0 115 0 C115 39.93 115 79.86 115 121 C77.05 121 39.1 121 0 121 C0 81.07 0 41.14 0 0 Z " fill="#29446D" transform="translate(0,0)"/>
<path d="M0 0 C37.95 0 75.9 0 115 0 C115 39.93 115 79.86 115 121 C77.05 121 39.1 121 0 121 C0 81.07 0 41.14 0 0 Z M17 29 C6.79627979 42.34482719 3.43334946 56.44170889 5 73 C7.35295168 86.08096893 14.54338062 98.73589758 25 107 C38.56503458 116.07612217 52.79781795 120.65039602 69.18212891 117.59277344 C77.62398695 115.6026193 85.25651173 112.55196967 92 107 C93.24523437 106.02933594 93.24523437 106.02933594 94.515625 105.0390625 C105.30533117 96.09071337 111.71410007 83.92482252 113.22314453 69.93066406 C114.41086607 53.60042373 109.78830145 40.03515488 99.375 27.375 C90.32220302 17.63246611 77.54099022 10.58728598 64.12890625 9.76171875 C45.13887704 9.29824178 30.16839545 14.92420251 17 29 Z " fill="#FDFDFD" transform="translate(0,0)"/>
<path d="M0 0 C0.8146875 0.3403125 1.629375 0.680625 2.46875 1.03125 C17.20671291 7.7634059 26.93256423 19.14135698 33 34 C37.4860905 48.0080375 35.72846921 63.14512111 29.421875 76.2890625 C24.15784619 85.84493463 15.61302383 96.39708278 4.69921875 99.6953125 C4.13847656 99.79585938 3.57773438 99.89640625 3 100 C1.80712589 96.12315913 1 93.08378077 1 89 C0.34 89 -0.32 89 -1 89 C-2.09564584 83.08351245 -1.93766323 77.55217508 -1.5625 71.5625 C-1.51029297 70.64017578 -1.45808594 69.71785156 -1.40429688 68.76757812 C-1.27569984 66.51128464 -1.1407929 64.25555971 -1 62 C-2.98 62.495 -2.98 62.495 -5 63 C-1.13242719 58.04467233 3.18876004 54.03523352 8 50 C7.67 48.35 7.34 46.7 7 45 C0.85538949 42.41966519 -4.85060771 42.90803977 -11.36328125 43.16601562 C-12.59884766 43.19405273 -12.59884766 43.19405273 -13.859375 43.22265625 C-14.98037598 43.26531616 -14.98037598 43.26531616 -16.12402344 43.30883789 C-16.7430957 43.20692139 -17.36216797 43.10500488 -18 43 C-18.66 42.01 -19.32 41.02 -20 40 C-23.94551835 38.68482722 -28.1768416 38.0884208 -32 40 C-33.70702735 40.06996014 -35.41668003 40.08440154 -37.125 40.0625 C-38.03507812 40.05347656 -38.94515625 40.04445312 -39.8828125 40.03515625 C-40.58148438 40.02355469 -41.28015625 40.01195312 -42 40 C-42 39.01 -42 38.02 -42 37 C-41.21625 36.79375 -40.4325 36.5875 -39.625 36.375 C-36.69083714 35.19323388 -36.69083714 35.19323388 -35.6875 31.875 C-35.3471875 30.451875 -35.3471875 30.451875 -35 29 C-34.34 29 -33.68 29 -33 29 C-33 26.69 -33 24.38 -33 22 C-33.66 22 -34.32 22 -35 22 C-34.97679687 21.10796875 -34.95359375 20.2159375 -34.9296875 19.296875 C-34.91164063 18.12640625 -34.89359375 16.9559375 -34.875 15.75 C-34.85179687 14.58984375 -34.82859375 13.4296875 -34.8046875 12.234375 C-34.99289353 9.11768313 -35.50575039 7.65108801 -37 5 C-36.625 2.75 -36.625 2.75 -36 1 C-36.99 0.67 -37.98 0.34 -39 0 C-26.92612306 -4.46786636 -11.95856879 -5.22134694 0 0 Z " fill="#0D27A7" transform="translate(78,13)"/>
<path d="M0 0 C0.99 0 1.98 0 3 0 C3 0.66 3 1.32 3 2 C8.55287496 2.19408107 12.84555363 2.22894978 18 0 C22.96961648 -0.44371576 26.02614982 -0.13091226 30 3 C30 3.66 30 4.32 30 5 C31.093125 4.835 32.18625 4.67 33.3125 4.5 C41.18845265 3.55041706 49.05284701 2.62027312 56 7 C56.9375 9.6875 56.9375 9.6875 57 12 C56.38125 12.2475 55.7625 12.495 55.125 12.75 C52.87964302 13.80602923 52.87964302 13.80602923 52.09375 15.875 C50.84300193 18.30502482 49.48330192 19.53212436 47.375 21.25 C46.74335937 21.77078125 46.11171875 22.2915625 45.4609375 22.828125 C44.97882813 23.21484375 44.49671875 23.6015625 44 24 C45.32 23.67 46.64 23.34 48 23 C47.67 32.24 47.34 41.48 47 51 C47.66 51 48.32 51 49 51 C50.30492469 55.15944744 51.12019705 58.65036909 51 63 C36.40318907 67.59225513 36.40318907 67.59225513 29 67 C29.30035156 66.50371094 29.60070313 66.00742188 29.91015625 65.49609375 C31.95491866 61.843247 32.99146886 59.51186843 33.0625 55.25 C32.29666176 51.82020567 32.29666176 51.82020567 29.375 50.125 C28.59125 49.42375 27.8075 48.7225 27 48 C26.919516 45.63466465 27.25818107 43.51601316 27.66796875 41.1875 C28.06366209 38.58057914 27.68984519 36.52943237 27 34 C27 33.34 27 32.68 27 32 C23.32589215 30.82428549 19.83070817 30.92633254 16 31 C16.33 30.01 16.66 29.02 17 28 C17.99 28 18.98 28 20 28 C19.01 25.03 18.02 22.06 17 19 C18.32 19 19.64 19 21 19 C21.495 21.475 21.495 21.475 22 24 C22.33 21.69 22.66 19.38 23 17 C17.72 17.66 12.44 18.32 7 19 C7 18.34 7 17.68 7 17 C6.34 17 5.68 17 5 17 C5 17.66 5 18.32 5 19 C4.01 19.33 3.02 19.66 2 20 C1.67 22.31 1.34 24.62 1 27 C-1 24 -1 24 -1 20 C-2.21514645 20.98736043 -2.21514645 20.98736043 -2.0625 22.890625 C-2.041875 23.66921875 -2.02125 24.4478125 -2 25.25 C-1.95664019 28.64832472 -2.14537027 31.68830979 -3 35 C-7.75 34.25 -7.75 34.25 -10 32 C-10.99 32.495 -10.99 32.495 -12 33 C-12.95416187 25.84378601 -9.85567492 20.88784241 -6 15 C-4.41516207 13.00284651 -2.99961679 11.61080241 -1 10 C-0.34 10 0.32 10 1 10 C0.34 9.01 -0.32 8.02 -1 7 C-1.1875 3.875 -1.1875 3.875 -1 1 C-0.67 0.67 -0.34 0.34 0 0 Z " fill="#0C3BC5" transform="translate(30,51)"/>
<path d="M0 0 C-0.66 0 -1.32 0 -2 0 C-2 3.3 -2 6.6 -2 10 C-4.1519437 6.77208445 -4.20086443 5.71599191 -4 2 C-5.32 2 -6.64 2 -8 2 C-7.01 4.97 -6.02 7.94 -5 11 C-5.99 11.33 -6.98 11.66 -8 12 C-8.33 12.66 -8.66 13.32 -9 14 C-7.783125 13.773125 -6.56625 13.54625 -5.3125 13.3125 C-2.02379309 12.88023657 -1.12653537 12.93936847 2 14.4375 C2.66 14.953125 3.32 15.46875 4 16 C3.67 16.66 3.34 17.32 3 18 C3.17483727 20.54825327 3.51550392 23.05712683 3.84375 25.58984375 C4 28 4 28 3 31 C3.804375 31.515625 4.60875 32.03125 5.4375 32.5625 C8 35 8 35 9.125 38.25 C8.98125226 42.56243213 8.17595283 44.95870025 5.6953125 48.44921875 C3.68081037 50.29197761 2.70704257 50.61514733 0 50.75 C-11.05902955 49.66793907 -20.91438488 45.20354944 -30 39 C-30.83402344 38.484375 -31.66804688 37.96875 -32.52734375 37.4375 C-35.78655486 34.96301986 -37.71110765 32.95997024 -38.32617188 28.78710938 C-38.6787513 23.1676028 -38.40714982 17.60961975 -38 12 C-37.01 13.485 -37.01 13.485 -36 15 C-35.34 14.34 -34.68 13.68 -34 13 C-33.7525 13.639375 -33.505 14.27875 -33.25 14.9375 C-32.03378366 17.49019039 -32.03378366 17.49019039 -28 18 C-28 13.05 -28 8.1 -28 3 C-27.34 3 -26.68 3 -26 3 C-25.67 4.32 -25.34 5.64 -25 7 C-24.34 5.35 -23.68 3.7 -23 2 C-22.01 2 -21.02 2 -20 2 C-20 1.34 -20 0.68 -20 0 C-19.34 0 -18.68 0 -18 0 C-18 0.66 -18 1.32 -18 2 C-17.03578125 1.77183594 -16.0715625 1.54367188 -15.078125 1.30859375 C-13.81484375 1.02113281 -12.5515625 0.73367187 -11.25 0.4375 C-9.37054688 0.00244141 -9.37054688 0.00244141 -7.453125 -0.44140625 C-4.40526252 -0.93444283 -2.82358172 -1.07666879 0 0 Z " fill="#34268F" transform="translate(55,68)"/>
<path d="M0 0 C1.19979492 0.00737183 1.19979492 0.00737183 2.42382812 0.01489258 C8.46075941 0.1344297 13.67640642 0.87895914 19.25 3.3125 C20.0646875 3.6528125 20.879375 3.993125 21.71875 4.34375 C36.65437929 11.16619795 45.84555692 22.46192896 52.25 37.3125 C53.52611812 41.35228223 53.32014774 45.10363577 53.25 49.3125 C50.79054706 46.9213652 48.45753719 44.58135499 46.359375 41.86328125 C44.30674315 39.38111718 42.31008665 37.62463223 39.75 35.6875 C35.66114226 32.48435922 31.72605077 29.16935324 27.875 25.6875 C26.89789063 24.80835937 25.92078125 23.92921875 24.9140625 23.0234375 C22.24347014 20.30585524 20.34686667 17.47800536 18.25 14.3125 C13.63582728 11.95414505 10.24567592 12.31336482 5.25 13.3125 C4.280625 13.498125 3.31125 13.68375 2.3125 13.875 C1.631875 14.019375 0.95125 14.16375 0.25 14.3125 C0.58 15.6325 0.91 16.9525 1.25 18.3125 C0.26 17.6525 -0.73 16.9925 -1.75 16.3125 C-1.87632813 15.49136719 -2.00265625 14.67023437 -2.1328125 13.82421875 C-2.33648437 12.99535156 -2.54015625 12.16648437 -2.75 11.3125 C-4.93588168 9.91110304 -4.93588168 9.91110304 -7.625 9.125 C-10.75436854 8.05298599 -12.96562777 7.16874815 -15.75 5.3125 C-15.42 4.3225 -15.09 3.3325 -14.75 2.3125 C-9.90049211 0.06094277 -5.24002422 -0.03788366 0 0 Z " fill="#070607" transform="translate(58.75,9.6875)"/>
<path d="M0 0 C2.15486182 2.05463569 3.40974676 3.58575416 5 6 C10.67019539 13.19736801 17.44652558 18.88631525 24.79296875 24.328125 C29.97145503 28.27099391 35.34425136 34.06550819 36.44140625 40.6484375 C36.4375 43.125 36.4375 43.125 36 47 C35.236875 46.79375 34.47375 46.5875 33.6875 46.375 C30.78114056 45.66608797 30.78114056 45.66608797 28 48 C25.66800612 48.07905064 23.33167378 48.08798769 21 48 C21.02320313 47.38511719 21.04640625 46.77023438 21.0703125 46.13671875 C21.08835938 45.32847656 21.10640625 44.52023438 21.125 43.6875 C21.14820313 42.88699219 21.17140625 42.08648437 21.1953125 41.26171875 C21.15817322 38.71611424 21.15817322 38.71611424 19 36 C18.37609375 35.87496094 17.7521875 35.74992187 17.109375 35.62109375 C13.96374886 34.69488161 13.04589333 32.7371531 11.25 30.0625 C10.63640625 29.16660156 10.0228125 28.27070312 9.390625 27.34765625 C8 25 8 25 8 23 C7.34 23 6.68 23 6 23 C4.40485909 20.52981036 3.03800484 17.96512931 1.6328125 15.3828125 C-0.08068089 12.88225995 -1.20525457 12.05256646 -4 11 C-4 10.34 -4 9.68 -4 9 C-5.32 9 -6.64 9 -8 9 C-8 9.99 -8 10.98 -8 12 C-9.32 11.34 -10.64 10.68 -12 10 C-12 8 -12 8 -11 7 C-12.98 5.68 -14.96 4.36 -17 3 C-12.18274849 -1.81725151 -6.29777208 -1.76504723 0 0 Z " fill="#DA9882" transform="translate(76,22)"/>
<path d="M0 0 C1.32 0 2.64 0 4 0 C4.33 2.97 4.66 5.94 5 9 C5.721875 8.773125 6.44375 8.54625 7.1875 8.3125 C10.7809319 7.91322979 12.18230651 8.82635074 15 11 C15 11.66 15 12.32 15 13 C16.98 13 18.96 13 21 13 C21 12.34 21 11.68 21 11 C22.875 11.3125 22.875 11.3125 25 12 C25.99 13.485 25.99 13.485 27 15 C27.33 13.68 27.66 12.36 28 11 C27.34 10.67 26.68 10.34 26 10 C26.33 9.01 26.66 8.02 27 7 C27.99 6.67 28.98 6.34 30 6 C30 14.58 30 23.16 30 32 C30.66 32 31.32 32 32 32 C33.30492469 36.15944744 34.12019705 39.65036909 34 44 C19.40318907 48.59225513 19.40318907 48.59225513 12 48 C12.30035156 47.50371094 12.60070313 47.00742188 12.91015625 46.49609375 C14.95491866 42.843247 15.99146886 40.51186843 16.0625 36.25 C15.29666176 32.82020567 15.29666176 32.82020567 12.375 31.125 C11.59125 30.42375 10.8075 29.7225 10 29 C9.919516 26.63466465 10.25818107 24.51601316 10.66796875 22.1875 C11.06366209 19.58057914 10.68984519 17.52943237 10 15 C10 14.34 10 13.68 10 13 C6.32589215 11.82428549 2.83070817 11.92633254 -1 12 C-0.67 11.01 -0.34 10.02 0 9 C0.99 9 1.98 9 3 9 C2.01 6.03 1.02 3.06 0 0 Z " fill="#0527A7" transform="translate(47,70)"/>
<path d="M0 0 C-0.04125 0.94875 -0.0825 1.8975 -0.125 2.875 C-0.34973818 6.10244856 -0.34973818 6.10244856 2 8 C1.9765625 11.0390625 1.9765625 11.0390625 1.625 14.625 C1.45871094 16.40777344 1.45871094 16.40777344 1.2890625 18.2265625 C1.19367187 19.14179687 1.09828125 20.05703125 1 21 C1.66 21 2.32 21 3 21 C3 23.31 3 25.62 3 28 C2.34 28 1.68 28 1 28 C-0.00217064 31.58327753 -0.00217064 31.58327753 1 35 C-1.4375 35.875 -1.4375 35.875 -5 36 C-10.33712451 33.41900715 -14.74473716 29.98327682 -18 25 C-18.609375 21.66796875 -18.609375 21.66796875 -18.75 18.1875 C-18.80671875 17.02605469 -18.8634375 15.86460938 -18.921875 14.66796875 C-18.94765625 13.78753906 -18.9734375 12.90710937 -19 12 C-18.20722656 11.70738281 -17.41445313 11.41476563 -16.59765625 11.11328125 C-13.57191707 9.81653589 -12.78413049 8.71498118 -11 6 C-7.35012529 1.24410265 -6.02810053 -0.15863422 0 0 Z " fill="#0C0D12" transform="translate(42,14)"/>
<path d="M0 0 C0.33 0 0.66 0 1 0 C1.68735076 15.77088126 -0.07129497 29.98610414 -10 43 C-12.25091735 45.10666713 -14.59130397 47.07673531 -17 49 C-16.98952637 48.37544922 -16.97905273 47.75089844 -16.96826172 47.10742188 C-16.92631894 44.23832329 -16.90055347 41.36928952 -16.875 38.5 C-16.85824219 37.51773438 -16.84148437 36.53546875 -16.82421875 35.5234375 C-16.79399186 30.98940448 -16.87025064 26.88479539 -18.09375 22.5 C-19 19 -19 19 -17.625 15.5 C-17.08875 14.675 -16.5525 13.85 -16 13 C-16.763125 12.855625 -17.52625 12.71125 -18.3125 12.5625 C-21 12 -21 12 -24 11 C-24.33 8.03 -24.66 5.06 -25 2 C-17.61947973 1.51603146 -17.61947973 1.51603146 -15 3.5625 C-13.65707286 6.8358849 -13.74047344 9.49639145 -14 13 C-14.33 13.66 -14.66 14.32 -15 15 C-13.58318366 14.68817931 -12.16655349 14.37551263 -10.75 14.0625 C-9.96109375 13.88847656 -9.1721875 13.71445313 -8.359375 13.53515625 C-6.81885848 13.18573446 -5.28618767 12.79908429 -3.765625 12.37109375 C-3.18296875 12.24863281 -2.6003125 12.12617187 -2 12 C-1.67 12.33 -1.34 12.66 -1 13 C-1.01160156 12.39671875 -1.02320312 11.7934375 -1.03515625 11.171875 C-1.04417969 10.37265625 -1.05320312 9.5734375 -1.0625 8.75 C-1.07410156 7.96109375 -1.08570312 7.1721875 -1.09765625 6.359375 C-1.00385306 4.09308998 -0.63241063 2.1711105 0 0 Z " fill="#4B4C6A" transform="translate(112,55)"/>
<path d="M0 0 C0.66 0.33 1.32 0.66 2 1 C2 1.66 2 2.32 2 3 C3.22782862 3.62762455 4.45733836 4.25196065 5.6875 4.875 C6.41582031 5.24625 7.14414062 5.6175 7.89453125 6 C10.08078173 7.10177297 10.08078173 7.10177297 12.875 7.875 C15 9 15 9 16.25 11.875 C16.4975 12.90625 16.745 13.9375 17 15 C17.20625 15.78375 17.4125 16.5675 17.625 17.375 C17.74875 17.91125 17.8725 18.4475 18 19 C17.01 19 16.02 19 15 19 C15 19.66 15 20.32 15 21 C14.01 21.33 13.02 21.66 12 22 C12 24.64 12 27.28 12 30 C12.99 30.33 13.98 30.66 15 31 C15 32.98 15 34.96 15 37 C15.928125 37.28875 16.85625 37.5775 17.8125 37.875 C21 39 21 39 24 41 C24 41.66 24 42.32 24 43 C20.54396183 43.24111894 18.55980582 43.34449589 15.5625 41.5 C12.21605003 39.54110246 9.81528383 39.71205405 6 40 C5.01 40.495 5.01 40.495 4 41 C2.29297265 41.06996014 0.58331997 41.08440154 -1.125 41.0625 C-2.03507812 41.05347656 -2.94515625 41.04445312 -3.8828125 41.03515625 C-4.58148438 41.02355469 -5.28015625 41.01195312 -6 41 C-6 40.01 -6 39.02 -6 38 C-5.21625 37.79375 -4.4325 37.5875 -3.625 37.375 C-0.69083714 36.19323388 -0.69083714 36.19323388 0.3125 32.875 C0.539375 31.92625 0.76625 30.9775 1 30 C1.66 30 2.32 30 3 30 C3 27.69 3 25.38 3 23 C2.34 23 1.68 23 1 23 C1.02320313 22.10796875 1.04640625 21.2159375 1.0703125 20.296875 C1.08835937 19.12640625 1.10640625 17.9559375 1.125 16.75 C1.14820313 15.58984375 1.17140625 14.4296875 1.1953125 13.234375 C1.00710647 10.11768313 0.49424961 8.65108801 -1 6 C-0.625 3.75 -0.625 3.75 0 2 C-0.99 1.67 -1.98 1.34 -3 1 C-2.01 0.67 -1.02 0.34 0 0 Z " fill="#8F6963" transform="translate(42,12)"/>
<path d="M0 0 C4.57793505 0.5182568 6.04473754 2.18323201 9.3125 5.375 C10.6854863 8.1209726 10.43662634 10.3339047 10.3125 13.375 C9.9825 14.365 9.6525 15.355 9.3125 16.375 C10.116875 16.890625 10.92125 17.40625 11.75 17.9375 C14.3125 20.375 14.3125 20.375 15.4375 23.625 C15.29412703 27.9261892 14.47593383 30.31318824 12.046875 33.8203125 C9.87696688 35.76541032 8.57678543 36.02698414 5.6875 36.1875 C2.63001747 35.87208583 1.59893959 35.62671964 -0.75 33.5625 C-2.12939887 28.87254384 -2.26577342 24.22648867 -1.6875 19.375 C-1.0275 18.385 -0.3675 17.395 0.3125 16.375 C-0.6775 16.045 -1.6675 15.715 -2.6875 15.375 C-3.86165577 12.37213037 -3.82193838 9.38239263 -3.8125 6.1875 C-3.81507812 5.30707031 -3.81765625 4.42664063 -3.8203125 3.51953125 C-3.62172449 0.31291898 -3.21942326 0.44922185 0 0 Z " fill="#D8553A" transform="translate(48.6875,82.625)"/>
<path d="M0 0 C0.639375 0.144375 1.27875 0.28875 1.9375 0.4375 C5.93844788 1.17236798 9.95504896 1.58581111 14 2 C13.13375 2.886875 12.2675 3.77375 11.375 4.6875 C2.04012563 15.84489746 1.1568922 26.08872138 2 40 C-5.71591519 32.70987946 -10.59717689 22.3909284 -11.1796875 11.703125 C-11.18651439 8.79486908 -11.1347604 5.90483528 -11 3 C-10.06027344 3.05220703 -10.06027344 3.05220703 -9.1015625 3.10546875 C-8.28429687 3.13253906 -7.46703125 3.15960938 -6.625 3.1875 C-5.40683594 3.23970703 -5.40683594 3.23970703 -4.1640625 3.29296875 C-3.44992188 3.19628906 -2.73578125 3.09960938 -2 3 C-1.34 2.01 -0.68 1.02 0 0 Z " fill="#05060C" transform="translate(16,58)"/>
<path d="M0 0 C0.98484375 0.01804687 1.9696875 0.03609375 2.984375 0.0546875 C4.10585937 0.08949219 4.10585937 0.08949219 5.25 0.125 C6.93728739 6.48315776 7.53642524 12.37198775 7.4375 18.9375 C7.43685547 19.76958984 7.43621094 20.60167969 7.43554688 21.45898438 C7.38300136 28.73945732 7.38300136 28.73945732 6.25 32.125 C4.21875 33.828125 4.21875 33.828125 1.75 35.375 C0.52796875 36.15617187 0.52796875 36.15617187 -0.71875 36.953125 C-2.75 38.125 -2.75 38.125 -3.75 38.125 C-4.08 31.195 -4.41 24.265 -4.75 17.125 C-5.74 17.455 -6.73 17.785 -7.75 18.125 C-7.75 13.505 -7.75 8.885 -7.75 4.125 C-8.74 4.455 -9.73 4.785 -10.75 5.125 C-9.75 2.125 -9.75 2.125 -8.046875 0.9453125 C-5.24061169 -0.0569244 -2.97306264 -0.07078721 0 0 Z " fill="#010109" transform="translate(88.75,72.875)"/>
<path d="M0 0 C2.9719385 1.12451727 5.33440687 2.22293791 8 4 C7.67 4.66 7.34 5.32 7 6 C6.34 5.67 5.68 5.34 5 5 C6.32 6.32 7.64 7.64 9 9 C9 8.01 9 7.02 9 6 C10.32 6 11.64 6 13 6 C13 6.66 13 7.32 13 8 C13.721875 8.165 14.44375 8.33 15.1875 8.5 C19.20452846 10.64241518 21.10075695 13.9186479 23 18 C23 18.99 23 19.98 23 21 C18.05 20.67 13.1 20.34 8 20 C8 21.98 8 23.96 8 26 C11.63 26 15.26 26 19 26 C19 26.99 19 27.98 19 29 C17.06494977 29.24900646 15.12674066 29.47356242 13.1875 29.6875 C12.10855469 29.81511719 11.02960938 29.94273438 9.91796875 30.07421875 C7 30 7 30 5.3125 28.625 C4.879375 28.08875 4.44625 27.5525 4 27 C2.02379014 25.95377125 0.0262871 24.94560065 -2 24 C-2 22.02 -2 20.04 -2 18 C-3.32 17.67 -4.64 17.34 -6 17 C-6 14.36 -6 11.72 -6 9 C-4.68 8.67 -3.36 8.34 -2 8 C-2 7.34 -2 6.68 -2 6 C-1.01 6 -0.02 6 1 6 C0.67 4.02 0.34 2.04 0 0 Z " fill="#5C6B96" transform="translate(59,25)"/>
<path d="M0 0 C0.99 0 1.98 0 3 0 C3 0.66 3 1.32 3 2 C5.31 2.66 7.62 3.32 10 4 C10 4.99 10 5.98 10 7 C12.31 7 14.62 7 17 7 C16.65066406 7.53109375 16.30132812 8.0621875 15.94140625 8.609375 C15.48636719 9.31578125 15.03132813 10.0221875 14.5625 10.75 C14.11003906 11.44609375 13.65757813 12.1421875 13.19140625 12.859375 C12.0391991 14.92957014 11.45323018 16.68696324 11 19 C9.68 19 8.36 19 7 19 C7 18.34 7 17.68 7 17 C6.34 17 5.68 17 5 17 C5 17.66 5 18.32 5 19 C4.01 19.33 3.02 19.66 2 20 C1.67 22.31 1.34 24.62 1 27 C-1 24 -1 24 -1 20 C-2.21514645 20.98736043 -2.21514645 20.98736043 -2.0625 22.890625 C-2.041875 23.66921875 -2.02125 24.4478125 -2 25.25 C-1.95664019 28.64832472 -2.14537027 31.68830979 -3 35 C-7.75 34.25 -7.75 34.25 -10 32 C-10.99 32.495 -10.99 32.495 -12 33 C-12.95416187 25.84378601 -9.85567492 20.88784241 -6 15 C-4.41516207 13.00284651 -2.99961679 11.61080241 -1 10 C-0.34 10 0.32 10 1 10 C0.34 9.01 -0.32 8.02 -1 7 C-1.1875 3.875 -1.1875 3.875 -1 1 C-0.67 0.67 -0.34 0.34 0 0 Z " fill="#4044C2" transform="translate(30,51)"/>
<path d="M0 0 C1.36515314 0.11265547 2.73477212 0.17582586 4.10424805 0.20532227 C5.3351844 0.2352401 5.3351844 0.2352401 6.59098816 0.26576233 C7.9129998 0.29083107 7.9129998 0.29083107 9.26171875 0.31640625 C10.62040825 0.3475779 10.62040825 0.3475779 12.00654602 0.37937927 C14.90012016 0.44476558 17.79378507 0.50370904 20.6875 0.5625 C22.64909793 0.6056956 24.61068668 0.64931023 26.57226562 0.69335938 C31.38141739 0.80043582 36.19066046 0.90173414 41 1 C41 1.99 41 2.98 41 4 C3.05 4 -34.9 4 -74 4 C-74 3.01 -74 2.02 -74 1 C-67.19056218 0.85507745 -60.38106894 0.71299934 -53.5715332 0.57275391 C-51.26260077 0.52488207 -48.95368097 0.47639631 -46.64477539 0.42724609 C-43.29576773 0.35606788 -39.94672961 0.28676462 -36.59765625 0.21875 C-35.50909332 0.19651367 -34.4205304 0.17427734 -33.29898071 0.15136719 C-25.59418639 0.00434945 -17.8985643 -0.01570718 -10.19311523 0.08007812 C-7.12873325 0.11940432 -7.12873325 0.11940432 -4.74243164 -0.56445312 C-3 -1 -3 -1 0 0 Z " fill="#F1F1F1" transform="translate(74,117)"/>
<path d="M0 0 C0.66 0 1.32 0 2 0 C4.9863065 10.2654286 6.60551292 19.23532584 6 30 C-2.5473021 27.4270236 -13.10836448 21.8302673 -18 14 C-17.671875 11.79296875 -17.671875 11.79296875 -17 10 C-10.375 9.75 -10.375 9.75 -7 12 C-7 12.99 -7 13.98 -7 15 C-5.68 14.67 -4.36 14.34 -3 14 C-3 14.99 -3 15.98 -3 17 C-2.071875 17.2165625 -2.071875 17.2165625 -1.125 17.4375 C1 18 1 18 3 19 C2.34 16.36 1.68 13.72 1 11 C0.67 11.66 0.34 12.32 0 13 C-0.99 12.67 -1.98 12.34 -3 12 C-2.25749403 7.91621717 -1.17076699 3.98060777 0 0 Z " fill="#413FA2" transform="translate(35,85)"/>
<path d="M0 0 C0.66 0 1.32 0 2 0 C2 0.66 2 1.32 2 2 C3.32 2.33 4.64 2.66 6 3 C6.33 5.64 6.66 8.28 7 11 C8.32 11.33 9.64 11.66 11 12 C11 12.99 11 13.98 11 15 C11.66 15.33 12.32 15.66 13 16 C12.68817931 14.58318366 12.37551263 13.16655349 12.0625 11.75 C11.88847656 10.96109375 11.71445312 10.1721875 11.53515625 9.359375 C11.052444 7.23121297 10.53836822 5.11467158 10 3 C12 3 12 3 13.5859375 4.15234375 C15.48735328 6.63679034 15.46817356 8.46311423 15.625 11.5625 C15.75586738 15.42755332 15.75586738 15.42755332 17 19 C12.48382401 19.07654536 8.40914783 19.10228696 4 18 C3.34 18.99 2.68 19.98 2 21 C-4.125 21.4375 -4.125 21.4375 -7 20 C-6.88529863 18.24929483 -6.75780972 16.49942464 -6.625 14.75 C-6.55539063 13.77546875 -6.48578125 12.8009375 -6.4140625 11.796875 C-5.83876709 7.91091732 -4.76564654 5.76564654 -2 3 C-1.34 2.01 -0.68 1.02 0 0 Z " fill="#113360" transform="translate(12,41)"/>
<path d="M0 0 C17.02111335 -1.51673287 17.02111335 -1.51673287 21.4921875 1.91015625 C23.07866177 4.56935017 24.08271927 7.04569495 25 10 C25.32742187 10.78761719 25.65484375 11.57523438 25.9921875 12.38671875 C27.95841939 17.3718996 28.29044964 21.6750899 28 27 C25.54452424 24.6127319 23.21402312 22.27765162 21.12109375 19.5625 C19.01764981 17.0213228 16.92613781 15.18665935 14.3125 13.1875 C9.37119832 9.32550196 4.50838384 5.36681623 0 1 C0 0.67 0 0.34 0 0 Z " fill="#0F346C" transform="translate(84,32)"/>
<path d="M0 0 C2 3.75 2 3.75 2 6 C2.66 6 3.32 6 4 6 C3.79503906 6.66386719 3.59007813 7.32773438 3.37890625 8.01171875 C3.10949219 8.89472656 2.84007813 9.77773437 2.5625 10.6875 C2.29566406 11.55761719 2.02882813 12.42773438 1.75390625 13.32421875 C1.03655471 15.87025921 0.482459 18.4003423 0 21 C0.66 21.33 1.32 21.66 2 22 C2.33 21.01 2.66 20.02 3 19 C3.33 19 3.66 19 4 19 C4.33 21.97 4.66 24.94 5 28 C3.02 27.34 1.04 26.68 -1 26 C-1 25.01 -1 24.02 -1 23 C-2.32 23.33 -3.64 23.66 -5 24 C-5.33 23.01 -5.66 22.02 -6 21 C-8.10584438 20.19436362 -8.10584438 20.19436362 -10.5625 19.8125 C-12.026875 19.544375 -13.49125 19.27625 -15 19 C-15.33 14.05 -15.66 9.1 -16 4 C-15.01 5.485 -15.01 5.485 -14 7 C-13.34 6.34 -12.68 5.68 -12 5 C-11.7525 5.639375 -11.505 6.27875 -11.25 6.9375 C-10.18437567 9.18741541 -10.18437567 9.18741541 -7.875 9.75 C-7.25625 9.8325 -6.6375 9.915 -6 10 C-6 8.35 -6 6.7 -6 5 C-3 5 -3 5 -1 6 C-1.020625 5.195625 -1.04125 4.39125 -1.0625 3.5625 C-1 1 -1 1 0 0 Z " fill="#082DAE" transform="translate(33,76)"/>
<path d="M0 0 C2.15486182 2.05463569 3.40974676 3.58575416 5 6 C10.67019539 13.19736801 17.44652558 18.88631525 24.79296875 24.328125 C29.50379701 27.91492186 33.23440903 32.78690521 36 38 C35.67 38.99 35.34 39.98 35 41 C33 40 33 40 31.640625 37.25 C27.94326468 29.92570527 20.89800736 22.54832116 14 18 C11.88311957 17.33320199 11.88311957 17.33320199 10 17 C9.67 17.99 9.34 18.98 9 20 C7.84481082 19.09515208 6.70114594 18.1755794 5.5625 17.25 C4.92441406 16.73953125 4.28632812 16.2290625 3.62890625 15.703125 C2 14 2 14 1.65625 11.96875 C1.14023739 9.67524971 1.14023739 9.67524971 -1.72265625 8.515625 C-2.82480469 8.09796875 -3.92695312 7.6803125 -5.0625 7.25 C-6.16722656 6.82203125 -7.27195312 6.3940625 -8.41015625 5.953125 C-9.26480469 5.63859375 -10.11945313 5.3240625 -11 5 C-11 4.34 -11 3.68 -11 3 C-12.98 3 -14.96 3 -17 3 C-12.18274849 -1.81725151 -6.29777208 -1.76504723 0 0 Z " fill="#DF9D92" transform="translate(76,22)"/>
<path d="M0 0 C3.25696479 0.41755959 4.63443291 0.63443291 7 3 C7.125 6.125 7.125 6.125 7 9 C7.99 9.33 8.98 9.66 10 10 C10 11.98 10 13.96 10 16 C10.928125 16.28875 11.85625 16.5775 12.8125 16.875 C16 18 16 18 19 20 C19 20.66 19 21.32 19 22 C15.54396183 22.24111894 13.55980582 22.34449589 10.5625 20.5 C7.21605003 18.54110246 4.81528383 18.71205405 1 19 C0.34 19.33 -0.32 19.66 -1 20 C-2.70702735 20.06996014 -4.41668003 20.08440154 -6.125 20.0625 C-7.03507812 20.05347656 -7.94515625 20.04445313 -8.8828125 20.03515625 C-9.93082031 20.01775391 -9.93082031 20.01775391 -11 20 C-11 19.01 -11 18.02 -11 17 C-10.195625 16.71125 -9.39125 16.4225 -8.5625 16.125 C-5.8673532 15.26737432 -5.8673532 15.26737432 -5 13 C-3.68 13 -2.36 13 -1 13 C-1 11.68 -1 10.36 -1 9 C0.65 9 2.3 9 4 9 C4 8.34 4 7.68 4 7 C2.68 6.67 1.36 6.34 0 6 C-0.38218767 4.34385343 -0.71395102 2.67542976 -1 1 C-0.67 0.67 -0.34 0.34 0 0 Z " fill="#BD7D5A" transform="translate(47,33)"/>
<path d="M0 0 C-0.66 0 -1.32 0 -2 0 C-2 3.3 -2 6.6 -2 10 C-4.1519437 6.77208445 -4.20086443 5.71599191 -4 2 C-5.32 2 -6.64 2 -8 2 C-7.01 4.97 -6.02 7.94 -5 11 C-6.65 10.34 -8.3 9.68 -10 9 C-10.33 9.99 -10.66 10.98 -11 12 C-11.99 12.33 -12.98 12.66 -14 13 C-14.33 11.68 -14.66 10.36 -15 9 C-15.66 9 -16.32 9 -17 9 C-17 10.65 -17 12.3 -17 14 C-17.99 14 -18.98 14 -20 14 C-20.66 12.35 -21.32 10.7 -22 9 C-22.33 10.65 -22.66 12.3 -23 14 C-24.953125 13.2890625 -24.953125 13.2890625 -27 12 C-27.609375 9.8359375 -27.609375 9.8359375 -27.75 7.375 C-27.80671875 6.55773437 -27.8634375 5.74046875 -27.921875 4.8984375 C-27.94765625 4.27195312 -27.9734375 3.64546875 -28 3 C-27.34 3 -26.68 3 -26 3 C-25.67 4.32 -25.34 5.64 -25 7 C-24.34 5.35 -23.68 3.7 -23 2 C-22.01 2 -21.02 2 -20 2 C-20 1.34 -20 0.68 -20 0 C-19.34 0 -18.68 0 -18 0 C-18 0.66 -18 1.32 -18 2 C-16.55367187 1.65775391 -16.55367187 1.65775391 -15.078125 1.30859375 C-13.81484375 1.02113281 -12.5515625 0.73367187 -11.25 0.4375 C-9.37054688 0.00244141 -9.37054688 0.00244141 -7.453125 -0.44140625 C-4.40526252 -0.93444283 -2.82358172 -1.07666879 0 0 Z " fill="#56359B" transform="translate(55,68)"/>
<path d="M0 0 C4.57793505 0.5182568 6.04473754 2.18323201 9.3125 5.375 C10.67725387 8.10450775 10.37310095 10.34495272 10.3125 13.375 C10.3125 14.695 10.3125 16.015 10.3125 17.375 C10.3125 18.035 10.3125 18.695 10.3125 19.375 C7.3425 19.045 4.3725 18.715 1.3125 18.375 C1.3125 17.715 1.3125 17.055 1.3125 16.375 C-0.0075 16.045 -1.3275 15.715 -2.6875 15.375 C-3.60490621 12.25145029 -3.82210306 9.43813562 -3.8125 6.1875 C-3.81507812 5.30707031 -3.81765625 4.42664063 -3.8203125 3.51953125 C-3.62172449 0.31291898 -3.21942326 0.44922185 0 0 Z " fill="#D54320" transform="translate(48.6875,82.625)"/>
<path d="M0 0 C2.0625 0.4375 2.0625 0.4375 4 1 C3.01 1.66 2.02 2.32 1 3 C1.66 3 2.32 3 3 3 C3.33 7.29 3.66 11.58 4 16 C4.66 16 5.32 16 6 16 C6.97299156 20.85729645 7.12038805 25.4500625 7.0625 30.375 C7.05798828 31.11105469 7.05347656 31.84710938 7.04882812 32.60546875 C7.03715142 34.40368158 7.01922011 36.20185197 7 38 C5.02 38.495 5.02 38.495 3 39 C1.80712589 35.12315913 1 32.08378077 1 28 C0.34 28 -0.32 28 -1 28 C-2.08075086 22.11232738 -1.97013269 16.58716722 -1.625 10.625 C-1.58117187 9.71105469 -1.53734375 8.79710938 -1.4921875 7.85546875 C-1.13256721 1.13256721 -1.13256721 1.13256721 0 0 Z " fill="#062974" transform="translate(78,74)"/>
<path d="M0 0 C0.98484375 0.01804687 1.9696875 0.03609375 2.984375 0.0546875 C4.10585937 0.08949219 4.10585937 0.08949219 5.25 0.125 C6.93728739 6.48315776 7.53642524 12.37198775 7.4375 18.9375 C7.43685547 19.76958984 7.43621094 20.60167969 7.43554688 21.45898438 C7.40851803 25.20398156 7.27179162 28.50209895 6.25 32.125 C5.59 32.125 4.93 32.125 4.25 32.125 C3.92 21.895 3.59 11.665 3.25 1.125 C1.27 1.125 -0.71 1.125 -2.75 1.125 C-2.77692484 3.41660319 -2.79636124 5.70829546 -2.8125 8 C-2.82410156 9.27617188 -2.83570312 10.55234375 -2.84765625 11.8671875 C-2.98176569 15.01164652 -2.98176569 15.01164652 -1.75 17.125 C-1.62823497 18.93448495 -1.57454208 20.74896271 -1.5625 22.5625 C-1.54832031 23.53058594 -1.53414062 24.49867187 -1.51953125 25.49609375 C-1.75 28.125 -1.75 28.125 -3.75 31.125 C-4.08 26.505 -4.41 21.885 -4.75 17.125 C-5.74 17.455 -6.73 17.785 -7.75 18.125 C-7.75 13.505 -7.75 8.885 -7.75 4.125 C-8.74 4.455 -9.73 4.785 -10.75 5.125 C-9.75 2.125 -9.75 2.125 -8.046875 0.9453125 C-5.24061169 -0.0569244 -2.97306264 -0.07078721 0 0 Z " fill="#04194F" transform="translate(88.75,72.875)"/>
<path d="M0 0 C0.99 0.66 1.98 1.32 3 2 C2.67 6.29 2.34 10.58 2 15 C2.66 15 3.32 15 4 15 C4 17.31 4 19.62 4 22 C3.34 22 2.68 22 2 22 C0.99782936 25.58327753 0.99782936 25.58327753 2 29 C0.02 29.33 -1.96 29.66 -4 30 C-3.71125 29.0925 -3.4225 28.185 -3.125 27.25 C-1.59023698 21.9331424 -0.84283028 16.46046424 0 11 C-1.65 11.33 -3.3 11.66 -5 12 C-5 11.34 -5 10.68 -5 10 C-5.66 10 -6.32 10 -7 10 C-7.4021875 11.2065625 -7.4021875 11.2065625 -7.8125 12.4375 C-8.204375 13.283125 -8.59625 14.12875 -9 15 C-9.99 15.33 -10.98 15.66 -12 16 C-12.99 15.34 -13.98 14.68 -15 14 C-14.505 13.5875 -14.01 13.175 -13.5 12.75 C-11.56613908 10.87797662 -11.56613908 10.87797662 -12 7 C-11.34 7 -10.68 7 -10 7 C-10 6.34 -10 5.68 -10 5 C-8.35 4.67 -6.7 4.34 -5 4 C-5 3.34 -5 2.68 -5 2 C-3.35 2.33 -1.7 2.66 0 3 C0 2.01 0 1.02 0 0 Z " fill="#292529" transform="translate(41,20)"/>
<path d="M0 0 C2.9719385 1.12451727 5.33440687 2.22293791 8 4 C7.67 4.66 7.34 5.32 7 6 C6.34 5.67 5.68 5.34 5 5 C6.32 6.32 7.64 7.64 9 9 C9 8.01 9 7.02 9 6 C10.32 6 11.64 6 13 6 C13 6.66 13 7.32 13 8 C13.78375 8.226875 14.5675 8.45375 15.375 8.6875 C18 10 18 10 20 15 C16.37 14.01 12.74 13.02 9 12 C8.67 12.66 8.34 13.32 8 14 C5.69 14 3.38 14 1 14 C1 14.66 1 15.32 1 16 C-2 18 -2 18 -4.1875 17.625 C-5.0846875 17.315625 -5.0846875 17.315625 -6 17 C-6 14.36 -6 11.72 -6 9 C-4.68 8.67 -3.36 8.34 -2 8 C-2 7.34 -2 6.68 -2 6 C-1.01 6 -0.02 6 1 6 C0.67 4.02 0.34 2.04 0 0 Z " fill="#68443A" transform="translate(59,25)"/>
<path d="M0 0 C1.98 0 3.96 0 6 0 C6 0.66 6 1.32 6 2 C6.66 2 7.32 2 8 2 C8.125 9.625 8.125 9.625 7 13 C8.32 13 9.64 13 11 13 C9.43006215 18.02380113 6.39884258 22.0469983 3 26 C2.34 26.33 1.68 26.66 1 27 C0.67 18.09 0.34 9.18 0 0 Z " fill="#5E6A95" transform="translate(96,75)"/>
<path d="M0 0 C1.32 0 2.64 0 4 0 C4.33 0.66 4.66 1.32 5 2 C6.77380994 2.63556708 8.56983801 3.20987279 10.375 3.75 C15.75503287 5.60805259 15.75503287 5.60805259 17.875 9 C18.24625 9.99 18.6175 10.98 19 12 C20.63654821 13.37013339 22.29803595 14.7120272 24 16 C24 16.66 24 17.32 24 18 C24.5775 18.2475 25.155 18.495 25.75 18.75 C29.85588543 21.03104746 31.99436526 23.84547089 34 28 C34.66 28.33 35.32 28.66 36 29 C36 29.99 36 30.98 36 32 C37.65 32.33 39.3 32.66 41 33 C37.77167035 34.07610988 37.0998653 33.93935312 34 33 C33.37480469 32.92394531 32.74960938 32.84789062 32.10546875 32.76953125 C29.04158272 31.64970649 28.04609761 29.73745734 26.25 27.0625 C25.63640625 26.16660156 25.0228125 25.27070312 24.390625 24.34765625 C23 22 23 22 23 20 C22.34 20 21.68 20 21 20 C19.40485909 17.52981036 18.03800484 14.96512931 16.6328125 12.3828125 C14.91931911 9.88225995 13.79474543 9.05256646 11 8 C11 7.34 11 6.68 11 6 C9.68 6 8.36 6 7 6 C7 6.99 7 7.98 7 9 C5.68 8.34 4.36 7.68 3 7 C3 5 3 5 4 4 C2.68 2.68 1.36 1.36 0 0 Z " fill="#C57C64" transform="translate(61,25)"/>
<path d="M0 0 C0.99 0 1.98 0 3 0 C3 0.66 3 1.32 3 2 C5.31 2.66 7.62 3.32 10 4 C10 4.99 10 5.98 10 7 C12.31 7 14.62 7 17 7 C13.62932062 11.69487485 13.62932062 11.69487485 10.9375 13 C10.298125 13 9.65875 13 9 13 C8 12 7 11 6 10 C3.88850355 9.92357291 3.88850355 9.92357291 2 11 C0.71563266 12.9837767 0.71563266 12.9837767 0 15 C-0.99 15 -1.98 15 -3 15 C-3 15.99 -3 16.98 -3 18 C-3.66 18 -4.32 18 -5 18 C-5 19.65 -5 21.3 -5 23 C-6.32 23 -7.64 23 -9 23 C-9.33 23.99 -9.66 24.98 -10 26 C-10.33 25.34 -10.66 24.68 -11 24 C-8.73263472 18.50433845 -5.54747136 13.81004358 -1 10 C-0.34 10 0.32 10 1 10 C0.34 9.01 -0.32 8.02 -1 7 C-1.1875 3.875 -1.1875 3.875 -1 1 C-0.67 0.67 -0.34 0.34 0 0 Z " fill="#5860C8" transform="translate(30,51)"/>
<path d="M0 0 C0.66 0.99 1.32 1.98 2 3 C2.99 3 3.98 3 5 3 C5 3.99 5 4.98 5 6 C6.32 6.33 7.64 6.66 9 7 C9 7.99 9 8.98 9 10 C10.32 10 11.64 10 13 10 C13.33 12.31 13.66 14.62 14 17 C13.34 17 12.68 17 12 17 C11.67 17.66 11.34 18.32 11 19 C11 18.34 11 17.68 11 17 C10.34 17 9.68 17 9 17 C8.34 15.35 7.68 13.7 7 12 C1.96341364 11.82926826 -1.35333863 11.93481717 -6 14 C-7.32 14 -8.64 14 -10 14 C-9.01 11.03 -8.02 8.06 -7 5 C-5.824375 4.87625 -5.824375 4.87625 -4.625 4.75 C-1.85250896 4.27193661 -1.85250896 4.27193661 -0.6875 1.9375 C-0.460625 1.298125 -0.23375 0.65875 0 0 Z " fill="#1E41CB" transform="translate(54,55)"/>
<path d="M0 0 C1.0209375 0.804375 1.0209375 0.804375 2.0625 1.625 C2.0625 2.285 2.0625 2.945 2.0625 3.625 C2.7225 3.955 3.3825 4.285 4.0625 4.625 C-1.6875 6.625 -1.6875 6.625 -3.9375 6.625 C-3.9375 5.635 -3.9375 4.645 -3.9375 3.625 C-5.4225 6.1 -5.4225 6.1 -6.9375 8.625 C-8.2575 8.295 -9.5775 7.965 -10.9375 7.625 C-11.246875 8.73875 -11.55625 9.8525 -11.875 11 C-12.9375 14.625 -12.9375 14.625 -13.9375 16.625 C-14.9275 16.625 -15.9175 16.625 -16.9375 16.625 C-16.29205571 13.13960083 -14.83615603 10.59680943 -12.9375 7.625 C-14.38504255 6.17745745 -15.97712913 6.06766439 -17.9375 5.625 C-17.9375 4.635 -17.9375 3.645 -17.9375 2.625 C-18.5975 2.295 -19.2575 1.965 -19.9375 1.625 C-6.3445632 -2.96979554 -6.3445632 -2.96979554 0 0 Z " fill="#1F3BC3" transform="translate(57.9375,52.375)"/>
<path d="M0 0 C1 3 1 3 0.22265625 5.04296875 C-0.16019531 5.75066406 -0.54304688 6.45835938 -0.9375 7.1875 C-1.31777344 7.90292969 -1.69804688 8.61835937 -2.08984375 9.35546875 C-2.39019531 9.89816406 -2.69054687 10.44085938 -3 11 C-2.01 10.34 -1.02 9.68 0 9 C-0.57352893 12.87132028 -2.48704352 15.08172796 -5 18 C1.15126424 15.02887965 3.97733636 12.21074488 6.40625 5.79296875 C6.6021875 5.20128906 6.798125 4.60960938 7 4 C7.66 4 8.32 4 9 4 C10.30492469 8.15944744 11.12019705 11.65036909 11 16 C8.83757909 16.6803122 6.66979634 17.34359102 4.5 18 C3.2934375 18.37125 2.086875 18.7425 0.84375 19.125 C-3.33034842 20.07520127 -6.74211663 20.15072154 -11 20 C-9.73079864 17.6032896 -8.45969813 15.20761907 -7.1875 12.8125 C-6.83107422 12.13896484 -6.47464844 11.46542969 -6.10742188 10.77148438 C-4.16503568 7.11837273 -2.16988955 3.52521488 0 0 Z " fill="#3E3DA8" transform="translate(70,98)"/>
<path d="M0 0 C-0.33 2.97 -0.66 5.94 -1 9 C-3.475 8.505 -3.475 8.505 -6 8 C-6 8.66 -6 9.32 -6 10 C-7.65 10.33 -9.3 10.66 -11 11 C-11 11.66 -11 12.32 -11 13 C-11.66 13 -12.32 13 -13 13 C-12.6596875 13.8971875 -12.6596875 13.8971875 -12.3125 14.8125 C-12.209375 15.534375 -12.10625 16.25625 -12 17 C-13.4375 18.75 -13.4375 18.75 -15 20 C-14.34 20.33 -13.68 20.66 -13 21 C-13 21.66 -13 22.32 -13 23 C-14.65 23 -16.3 23 -18 23 C-18.33 19.37 -18.66 15.74 -19 12 C-17.35 11.34 -15.7 10.68 -14 10 C-12.37168238 8.19038423 -12.37168238 8.19038423 -11 6 C-7.35012529 1.24410265 -6.02810053 -0.15863422 0 0 Z " fill="#110B0D" transform="translate(42,14)"/>
<path d="M0 0 C0.66 0 1.32 0 2 0 C2.66 0.99 3.32 1.98 4 3 C4.4125 2.484375 4.825 1.96875 5.25 1.4375 C5.8275 0.963125 6.405 0.48875 7 0 C9.1875 0.3125 9.1875 0.3125 11 1 C10.01 2.32 9.02 3.64 8 5 C9.216875 4.773125 10.43375 4.54625 11.6875 4.3125 C14.97620691 3.88023657 15.87346463 3.93936847 19 5.4375 C19.66 5.953125 20.32 6.46875 21 7 C20.34 8.32 19.68 9.64 19 11 C18.29875 10.34 17.5975 9.68 16.875 9 C13.56539771 6.69766797 11.93774177 6.63369844 8 7 C7.34 9.97 6.68 12.94 6 16 C3.03 15.505 3.03 15.505 0 15 C-1.88178944 9.0410001 -2.19671115 5.85789639 0 0 Z " fill="#1C35AD" transform="translate(38,77)"/>
<path d="M0 0 C5.61 0 11.22 0 17 0 C17.33 0.99 17.66 1.98 18 3 C16.35 3 14.7 3 13 3 C13.66 5.64 14.32 8.28 15 11 C7.74 11 0.48 11 -7 11 C-7 10.67 -7 10.34 -7 10 C-0.97403427 8.9287172 4.88909517 8.90054585 11 9 C11 8.01 11 7.02 11 6 C7.37 6 3.74 6 0 6 C0 4.02 0 2.04 0 0 Z " fill="#394B8F" transform="translate(67,45)"/>
<path d="M0 0 C2.9721519 -0.08046874 5.90669886 -0.02142422 8.87744141 0.10009766 C9.91320312 0.12265625 10.94896484 0.14521484 12.01611328 0.16845703 C14.57550544 0.2274292 17.13200092 0.30967198 19.68994141 0.41259766 C19.68994141 1.07259766 19.68994141 1.73259766 19.68994141 2.41259766 C14.73994141 2.08259766 9.78994141 1.75259766 4.68994141 1.41259766 C4.68994141 3.39259766 4.68994141 5.37259766 4.68994141 7.41259766 C8.31994141 7.41259766 11.94994141 7.41259766 15.68994141 7.41259766 C15.68994141 8.40259766 15.68994141 9.39259766 15.68994141 10.41259766 C13.75489118 10.66160412 11.81668206 10.88616007 9.87744141 11.10009766 C8.79849609 11.22771484 7.71955078 11.35533203 6.60791016 11.48681641 C3.68994141 11.41259766 3.68994141 11.41259766 2.00244141 10.03759766 C1.35275391 9.23322266 1.35275391 9.23322266 0.68994141 8.41259766 C-1.28626845 7.36636891 -3.28377149 6.3581983 -5.31005859 5.41259766 C-4.27943848 2.220189 -3.41741339 0.61038138 0 0 Z " fill="#475D8B" transform="translate(62.31005859375,43.58740234375)"/>
<path d="M0 0 C5.06998019 0.65419099 9.41990777 2.8546409 14 5 C14.125 12.625 14.125 12.625 13 16 C7.25 14.25 7.25 14.25 5 12 C4.02234588 8.89451043 3.17074284 5.81102847 2.5 2.625 C2.335 2.08875 2.17 1.5525 2 1 C1.34 0.67 0.68 0.34 0 0 Z " fill="#DAB4BA" transform="translate(43,16)"/>
<path d="M0 0 C0.33 0.99 0.66 1.98 1 3 C-2.45603817 3.24111894 -4.44019418 3.34449589 -7.4375 1.5 C-10.78394997 -0.45889754 -13.18471617 -0.28794595 -17 0 C-17.99 0.495 -17.99 0.495 -19 1 C-20.70702735 1.06996014 -22.41668003 1.08440154 -24.125 1.0625 C-25.03507812 1.05347656 -25.94515625 1.04445313 -26.8828125 1.03515625 C-27.58148438 1.02355469 -28.28015625 1.01195312 -29 1 C-29 0.01 -29 -0.98 -29 -2 C-19.40848349 -6.52430024 -9.17036756 -5.47203003 0 0 Z " fill="#EB7127" transform="translate(65,52)"/>
<path d="M0 0 C0.66 0.33 1.32 0.66 2 1 C2.73075648 3.3140622 3.40138258 5.64828869 4 8 C5.32 7.01 6.64 6.02 8 5 C8.66 5.33 9.32 5.66 10 6 C8.68 6.99 7.36 7.98 6 9 C6.66 10.98 7.32 12.96 8 15 C7.01 15.66 6.02 16.32 5 17 C4.731875 16.360625 4.46375 15.72125 4.1875 15.0625 C3.11332248 12.66868314 3.11332248 12.66868314 0 12 C0 12.66 0 13.32 0 14 C-1.98 14 -3.96 14 -6 14 C-6.33 13.01 -6.66 12.02 -7 11 C-5.02 11 -3.04 11 -1 11 C-1 10.34 -1 9.68 -1 9 C-1.99 9 -2.98 9 -4 9 C-4.33 8.34 -4.66 7.68 -5 7 C-5.99 6.34 -6.98 5.68 -8 5 C-5.09399739 3.74335022 -3.20395416 3 0 3 C0 2.01 0 1.02 0 0 Z " fill="#1A41C1" transform="translate(68,69)"/>
<path d="M0 0 C3.4375 0.1875 3.4375 0.1875 7 1 C9.0182462 3.36924554 9.00137908 5.01723845 9.25 8.125 C9 11 9 11 7 13 C4.5625 13.375 4.5625 13.375 2 13 C-0.19527895 11.18321742 -0.91220275 9.82210152 -1.21484375 6.98828125 C-1.24711315 4.99116393 -1.13069492 2.99309753 -1 1 C-0.67 0.67 -0.34 0.34 0 0 Z " fill="#091890" transform="translate(51,102)"/>
<path d="M0 0 C-0.66 0 -1.32 0 -2 0 C-2 3.3 -2 6.6 -2 10 C-4.1519437 6.77208445 -4.20086443 5.71599191 -4 2 C-5.32 2 -6.64 2 -8 2 C-7.01 4.97 -6.02 7.94 -5 11 C-7.475 10.01 -7.475 10.01 -10 9 C-10.33 9.99 -10.66 10.98 -11 12 C-11.99 12.33 -12.98 12.66 -14 13 C-14.33 11.68 -14.66 10.36 -15 9 C-15.66 9 -16.32 9 -17 9 C-17 10.32 -17 11.64 -17 13 C-17.66 13 -18.32 13 -19 13 C-18.67 9.7 -18.34 6.4 -18 3 C-16.02 3.495 -16.02 3.495 -14 4 C-14.66 4 -15.32 4 -16 4 C-15.67 4.66 -15.34 5.32 -15 6 C-14.34 5.67 -13.68 5.34 -13 5 C-13 6.65 -13 8.3 -13 10 C-12.855625 9.2575 -12.71125 8.515 -12.5625 7.75 C-12.09812508 5.47972261 -11.58136431 3.24240521 -11 1 C-3.57142857 -1.42857143 -3.57142857 -1.42857143 0 0 Z " fill="#B1455F" transform="translate(55,68)"/>
<path d="M0 0 C2.64 0.99 5.28 1.98 8 3 C8.36010591 10.32215357 8.36010591 10.32215357 6.9375 13 C3.97912322 14.52690415 1.26283401 14.18468872 -2 14 C-1.85866501 12.22880197 -1.71176792 10.45804713 -1.5625 8.6875 C-1.48128906 7.70136719 -1.40007813 6.71523438 -1.31640625 5.69921875 C-1 3 -1 3 0 0 Z " fill="#2B4770" transform="translate(7,47)"/>
<path d="M0 0 C0.639375 0.144375 1.27875 0.28875 1.9375 0.4375 C5.93844788 1.17236798 9.95504896 1.58581111 14 2 C12.700625 3.3921875 12.700625 3.3921875 11.375 4.8125 C7.4088237 9.40193258 4.74308086 14.62083788 2 20 C1.01 19.67 0.02 19.34 -1 19 C-0.67 16.36 -0.34 13.72 0 11 C0.66 11 1.32 11 2 11 C2 10.34 2 9.68 2 9 C3.65 8.34 5.3 7.68 7 7 C7 6.01 7 5.02 7 4 C4.36 3.67 1.72 3.34 -1 3 C-0.67 2.01 -0.34 1.02 0 0 Z " fill="#09172B" transform="translate(16,58)"/>
<path d="M0 0 C1.67542976 0.28604898 3.34385343 0.61781233 5 1 C7.29342747 6.89738492 8.34548714 11.66606918 8 18 C5.43904032 15.51017809 3.03794313 13.04769994 0.8125 10.25 C-0.80309077 7.92512612 -0.80309077 7.92512612 -3 7 C-1.125 1.125 -1.125 1.125 0 0 Z " fill="#0A0A0D" transform="translate(104,41)"/>
<path d="M0 0 C6.625 -0.25 6.625 -0.25 10 2 C10.73046875 3.8046875 10.73046875 3.8046875 11.1875 5.875 C11.34605469 6.55304688 11.50460938 7.23109375 11.66796875 7.9296875 C12 10 12 10 12 14 C8.08037682 12.66595281 5.57025891 11.02646324 2.625 8.125 C1.91601562 7.44695312 1.20703125 6.76890625 0.4765625 6.0703125 C-1 4 -1 4 -0.7265625 1.7421875 C-0.48679687 1.16726562 -0.24703125 0.59234375 0 0 Z " fill="#B9785C" transform="translate(18,95)"/>
<path d="M0 0 C0 3.60119245 -1.25107661 4.92994539 -3.41796875 7.6953125 C-5 9 -5 9 -10 10 C-9.67 13.96 -9.34 17.92 -9 22 C-13.455 20.02 -13.455 20.02 -18 18 C-15.64577761 9.36785124 -7.16452173 4.43518012 0 0 Z " fill="#3A384C" transform="translate(33,16)"/>
<path d="M0 0 C7.38052027 -0.48396854 7.38052027 -0.48396854 10 1.5625 C11.35374004 4.86224134 11.32683936 7.47013492 11 11 C10.34 11.66 9.68 12.32 9 13 C9 12.34 9 11.68 9 11 C8.236875 10.855625 7.47375 10.71125 6.6875 10.5625 C4 10 4 10 1 9 C0.67 6.03 0.34 3.06 0 0 Z " fill="#3D43A5" transform="translate(87,57)"/>
<path d="M0 0 C0.66 0 1.32 0 2 0 C4.9863065 10.2654286 6.60551292 19.23532584 6 30 C5.34 30 4.68 30 4 30 C3.92652344 28.69675781 3.92652344 28.69675781 3.8515625 27.3671875 C3.77679688 26.21476562 3.70203125 25.06234375 3.625 23.875 C3.52058594 22.16957031 3.52058594 22.16957031 3.4140625 20.4296875 C3.00556124 17.04606384 2.19032431 14.18387559 1 11 C0.67 11.66 0.34 12.32 0 13 C-0.99 12.67 -1.98 12.34 -3 12 C-2.25749403 7.91621717 -1.17076699 3.98060777 0 0 Z " fill="#E25430" transform="translate(35,85)"/>
<path d="M0 0 C0.33 0 0.66 0 1 0 C1.08071788 2.79224073 1.14035408 5.58216566 1.1875 8.375 C1.21263672 9.1690625 1.23777344 9.963125 1.26367188 10.78125 C1.29004405 12.85586148 1.15486462 14.93100865 1 17 C-2.7367843 19.49118953 -4.74451819 19.2065226 -9.1875 19.125 C-10.45980469 19.10695313 -11.73210937 19.08890625 -13.04296875 19.0703125 C-14.01878906 19.04710938 -14.99460937 19.02390625 -16 19 C-16 17.68 -16 16.36 -16 15 C-15.32453125 14.86722656 -14.6490625 14.73445313 -13.953125 14.59765625 C-12.61507812 14.33275391 -12.61507812 14.33275391 -11.25 14.0625 C-10.36828125 13.88847656 -9.4865625 13.71445313 -8.578125 13.53515625 C-6.95222966 13.19765979 -5.33442752 12.81524626 -3.734375 12.37109375 C-2.87585938 12.18740234 -2.87585938 12.18740234 -2 12 C-1.67 12.33 -1.34 12.66 -1 13 C-1.01160156 12.39671875 -1.02320312 11.7934375 -1.03515625 11.171875 C-1.04417969 10.37265625 -1.05320312 9.5734375 -1.0625 8.75 C-1.07410156 7.96109375 -1.08570312 7.1721875 -1.09765625 6.359375 C-1.00385306 4.09308998 -0.63241063 2.1711105 0 0 Z " fill="#936346" transform="translate(112,55)"/>
<path d="M0 0 C0.99 0.33 1.98 0.66 3 1 C2.67 3.64 2.34 6.28 2 9 C2.66 9.33 3.32 9.66 4 10 C4.33 9.01 4.66 8.02 5 7 C5.33 7 5.66 7 6 7 C6.33 9.97 6.66 12.94 7 16 C5.02 15.34 3.04 14.68 1 14 C1 13.01 1 12.02 1 11 C-0.32 11.33 -1.64 11.66 -3 12 C-3.33 11.01 -3.66 10.02 -4 9 C-4.66 8.34 -5.32 7.68 -6 7 C-5.34 7 -4.68 7 -4 7 C-4.33 5.68 -4.66 4.36 -5 3 C-4.360625 2.87625 -3.72125 2.7525 -3.0625 2.625 C-2.0415625 2.315625 -2.0415625 2.315625 -1 2 C-0.67 1.34 -0.34 0.68 0 0 Z " fill="#0A1178" transform="translate(31,88)"/>
<path d="M0 0 C-0.33 1.32 -0.66 2.64 -1 4 C-0.01 3.67 0.98 3.34 2 3 C4.6875 3.4375 4.6875 3.4375 7 4 C7.33 6.31 7.66 8.62 8 11 C4.51612903 12.237691 4.51612903 12.237691 2.21875 11.1796875 C-1.39168434 8.43903961 -4.43073218 5.80251637 -7 2 C-7 1.34 -7 0.68 -7 0 C-4.3333581 -1.33332095 -2.83319697 -0.67102033 0 0 Z " fill="#030406" transform="translate(31,37)"/>
<path d="M0 0 C1.98 0 3.96 0 6 0 C5.67 0.66 5.34 1.32 5 2 C4.01 2.33 3.02 2.66 2 3 C1.67 6.63 1.34 10.26 1 14 C1.66 14 2.32 14 3 14 C2.96519531 15.66289063 2.96519531 15.66289063 2.9296875 17.359375 C2.91092423 18.82290992 2.89272463 20.28645214 2.875 21.75 C2.85824219 22.47960937 2.84148437 23.20921875 2.82421875 23.9609375 C2.78927761 27.8044624 2.82500316 30.74606772 5 34 C3.02 34.99 1.04 35.98 -1 37 C-1.125 30.375 -1.125 30.375 0 27 C0.09357692 25.14772748 0.12993909 23.2921282 0.125 21.4375 C0.12757812 20.46683594 0.13015625 19.49617188 0.1328125 18.49609375 C0.16650953 16.00047047 0.16650953 16.00047047 -1 14 C-1.16147257 9.15582302 -0.95425132 4.77125662 0 0 Z " fill="#04062D" transform="translate(86,74)"/>
<path d="M0 0 C2.7914484 0.78211424 5.44142941 1.6235538 8 3 C9.0625 5.625 9.0625 5.625 9 8 C8 9 8 9 5.71484375 9.09765625 C4.34005859 9.08025391 4.34005859 9.08025391 2.9375 9.0625 C2.01839844 9.05347656 1.09929688 9.04445313 0.15234375 9.03515625 C-0.55792969 9.02355469 -1.26820312 9.01195312 -2 9 C-2.66 10.32 -3.32 11.64 -4 13 C-4.66 13 -5.32 13 -6 13 C-4.58707905 8.1725201 -2.57025846 4.2837641 0 0 Z " fill="#4D628D" transform="translate(14,33)"/>
<path d="M0 0 C0.99 1.485 0.99 1.485 2 3 C2.66 2.34 3.32 1.68 4 1 C4.185625 2.11375 4.37125 3.2275 4.5625 4.375 C5.036875 5.57125 5.51125 6.7675 6 8 C9.51400668 9.54086322 9.51400668 9.54086322 13 10 C11.68 10.33 10.36 10.66 9 11 C9.33 12.32 9.66 13.64 10 15 C7.03 15 4.06 15 1 15 C0.67 10.05 0.34 5.1 0 0 Z " fill="#092091" transform="translate(17,80)"/>
<path d="M0 0 C0.04898438 0.81984375 0.09796875 1.6396875 0.1484375 2.484375 C0.22320312 3.56203125 0.29796875 4.6396875 0.375 5.75 C0.44460937 6.81734375 0.51421875 7.8846875 0.5859375 8.984375 C0.9728223 11.80206432 1.55686166 13.5830366 3 16 C0.36 15.67 -2.28 15.34 -5 15 C-5 10.38 -5 5.76 -5 1 C-3 0 -3 0 0 0 Z " fill="#1731AD" transform="translate(47,101)"/>
<path d="M0 0 C3 2 3 2 3.6796875 4.5234375 C4.08321561 8.90319384 4.14528858 13.22914039 4.125 17.625 C4.12886719 18.470625 4.13273437 19.31625 4.13671875 20.1875 C4.13542969 21.00476563 4.13414063 21.82203125 4.1328125 22.6640625 C4.13168457 23.40092285 4.13055664 24.1377832 4.12939453 24.89697266 C3.99741645 27.04199006 3.58672999 28.93683128 3 31 C2.34 31 1.68 31 1 31 C0.67 20.77 0.34 10.54 0 0 Z " fill="#07164B" transform="translate(92,74)"/>
<path d="M0 0 C4.7190991 0.46765847 6.91832317 2.34934594 10.3125 5.5625 C11.19550781 6.38878906 12.07851562 7.21507812 12.98828125 8.06640625 C13.65214844 8.70449219 14.31601563 9.34257813 15 10 C11.2421875 12.0078125 11.2421875 12.0078125 9.0625 11.9375 C6.05149886 10.56886312 4.23424125 8.40610596 2 6 C1.401875 5.401875 0.80375 4.80375 0.1875 4.1875 C-0.204375 3.795625 -0.59625 3.40375 -1 3 C-0.67 2.01 -0.34 1.02 0 0 Z " fill="#DC9C86" transform="translate(86,39)"/>
<path d="M0 0 C0.33 0 0.66 0 1 0 C1.03738281 0.97839844 1.07476562 1.95679687 1.11328125 2.96484375 C1.48714324 10.42009169 2.12000689 17.05015747 5 24 C5.56542784 25.51974723 6.12803645 27.04054704 6.6875 28.5625 C7.120625 29.696875 7.55375 30.83125 8 32 C6.02 32.495 6.02 32.495 4 33 C2.80712589 29.12315913 2 26.08378077 2 22 C1.34 22 0.68 22 0 22 C-0.90249856 16.85910079 -0.97986395 12.30273626 -0.5625 7.0625 C-0.51029297 6.37865234 -0.45808594 5.69480469 -0.40429688 4.99023438 C-0.27630102 3.32628831 -0.13912281 1.6630527 0 0 Z " fill="#DF6E3D" transform="translate(77,80)"/>
<path d="M0 0 C1.32 0 2.64 0 4 0 C4.33 0.66 4.66 1.32 5 2 C6.77380994 2.63556708 8.56983801 3.20987279 10.375 3.75 C15.75503287 5.60805259 15.75503287 5.60805259 17.875 9 C18.24625 9.99 18.6175 10.98 19 12 C20.63654821 13.37013339 22.29803595 14.7120272 24 16 C24 16.66 24 17.32 24 18 C20.61370242 16.54872961 18.51146089 14.67349063 16 12 C14.30903512 10.24399801 13.18552242 9.09276121 11 8 C11 7.34 11 6.68 11 6 C9.68 6 8.36 6 7 6 C7 6.99 7 7.98 7 9 C5.68 8.34 4.36 7.68 3 7 C3 5 3 5 4 4 C2.68 2.68 1.36 1.36 0 0 Z " fill="#CE7E6B" transform="translate(61,25)"/>
<path d="M0 0 C0.66 0.66 1.32 1.32 2 2 C1.72989839 6.77179505 0.87530029 10.16626628 -2 14 C-4.44086703 16.12591645 -6.9738929 17.8286037 -10 19 C-10.99 18.67 -11.98 18.34 -13 18 C-12.45730469 17.5875 -11.91460937 17.175 -11.35546875 16.75 C-6.10088813 12.50846465 -3.93343768 9.44479228 -2 3 C-1.34 2.01 -0.68 1.02 0 0 Z " fill="#031189" transform="translate(75,98)"/>
<path d="M0 0 C1.65 0 3.3 0 5 0 C5 0.66 5 1.32 5 2 C7.97 2 10.94 2 14 2 C14.33 3.32 14.66 4.64 15 6 C14.34 6 13.68 6 13 6 C13 7.65 13 9.3 13 11 C9.54691313 9.48729451 7.04375621 7.45279358 4.25 4.9375 C3.45078125 4.22464844 2.6515625 3.51179688 1.828125 2.77734375 C1.22484375 2.19082031 0.6215625 1.60429688 0 1 C0 0.67 0 0.34 0 0 Z " fill="#3A568B" transform="translate(85,33)"/>
<path d="M0 0 C3 0 3 0 5 1 C5 1.66 5 2.32 5 3 C6.98 3 8.96 3 11 3 C10.34 5.31 9.68 7.62 9 10 C7.68 10 6.36 10 5 10 C5 9.34 5 8.68 5 8 C4.34 8 3.68 8 3 8 C2.67 8.66 2.34 9.32 2 10 C-1.125 3.375 -1.125 3.375 0 0 Z " fill="#283EC5" transform="translate(32,60)"/>
<path d="M0 0 C0.66 0.33 1.32 0.66 2 1 C2.3449145 2.33038449 2.67516582 3.66457061 3 5 C3.474375 5.94875 3.94875 6.8975 4.4375 7.875 C6 11 6 11 6.9375 14.1875 C8.11850357 17.31368591 9.17884272 18.30730563 12 20 C9.36 20 6.72 20 4 20 C3.89042969 19.38511719 3.78085937 18.77023438 3.66796875 18.13671875 C3.43013672 16.92435547 3.43013672 16.92435547 3.1875 15.6875 C2.96126953 14.48673828 2.96126953 14.48673828 2.73046875 13.26171875 C2.16465106 10.92263402 2.16465106 10.92263402 0.40625 9.40625 C-0.0578125 8.9421875 -0.521875 8.478125 -1 8 C-0.6875 4.8125 -0.6875 4.8125 0 2 C-0.99 1.67 -1.98 1.34 -3 1 C-2.01 0.67 -1.02 0.34 0 0 Z " fill="#A08085" transform="translate(42,12)"/>
<path d="M0 0 C1.32 0 2.64 0 4 0 C4 0.66 4 1.32 4 2 C4.78375 2.226875 5.5675 2.45375 6.375 2.6875 C9 4 9 4 11 9 C7.37 8.01 3.74 7.02 0 6 C-0.33 6.66 -0.66 7.32 -1 8 C-2.65 7.67 -4.3 7.34 -6 7 C-4.25 3.125 -4.25 3.125 -2 2 C-1.34 2.33 -0.68 2.66 0 3 C0 2.01 0 1.02 0 0 Z " fill="#835042" transform="translate(68,31)"/>
<path d="M0 0 C1.0209375 0.7425 1.0209375 0.7425 2.0625 1.5 C-1.70374671 2.75541557 -3.30938934 1.87061958 -6.9375 0.5 C-7.2675 1.49 -7.5975 2.48 -7.9375 3.5 C-11.2375 4.16 -14.5375 4.82 -17.9375 5.5 C-17.9375 4.51 -17.9375 3.52 -17.9375 2.5 C-18.5975 2.17 -19.2575 1.84 -19.9375 1.5 C-6.17372881 -3.15254237 -6.17372881 -3.15254237 0 0 Z " fill="#0E208C" transform="translate(57.9375,52.5)"/>
<path d="M0 0 C2.6875 -0.4375 2.6875 -0.4375 6 0 C8.10707585 2.07440801 9.65560852 4.37070339 11 7 C11 7.66 11 8.32 11 9 C9.54052295 8.93993922 8.08220728 8.8511311 6.625 8.75 C5.40683594 8.68039063 5.40683594 8.68039063 4.1640625 8.609375 C2 8 2 8 0.7109375 6.203125 C0 4 0 4 0 0 Z " fill="#030115" transform="translate(80,48)"/>
<path d="M0 0 C1 3 1 3 0.22265625 5.04296875 C-0.16019531 5.75066406 -0.54304688 6.45835938 -0.9375 7.1875 C-1.31777344 7.90292969 -1.69804688 8.61835937 -2.08984375 9.35546875 C-2.39019531 9.89816406 -2.69054687 10.44085938 -3 11 C-2.01 10.34 -1.02 9.68 0 9 C-0.50524972 13.37883089 -3.21397187 15.78535216 -6 19 C-6 19.33 -6 19.66 -6 20 C-7.65 20 -9.3 20 -11 20 C-9.73079864 17.6032896 -8.45969813 15.20761907 -7.1875 12.8125 C-6.83107422 12.13896484 -6.47464844 11.46542969 -6.10742188 10.77148438 C-4.16503568 7.11837273 -2.16988955 3.52521488 0 0 Z " fill="#092AAC" transform="translate(70,98)"/>
<path d="M0 0 C9.72853389 5.98679008 20.38611438 14.91188975 26 25 C25.67 25.99 25.34 26.98 25 28 C23 27 23 27 21.625 24.23828125 C17.32778088 15.67483257 9.55958728 9.55057459 2.08984375 3.8125 C1.40019531 3.214375 0.71054688 2.61625 0 2 C0 1.34 0 0.68 0 0 Z " fill="#DFCFD4" transform="translate(86,35)"/>
<path d="M0 0 C5.41935484 0.60215054 5.41935484 0.60215054 7.6875 2.15625 C9.59810707 4.84019803 9.29231998 6.93808056 9.1875 10.1875 C9.16042969 11.27417969 9.13335937 12.36085938 9.10546875 13.48046875 C9.07066406 14.31191406 9.03585938 15.14335938 9 16 C7.68 16.33 6.36 16.66 5 17 C5.020625 15.948125 5.04125 14.89625 5.0625 13.8125 C5.01083938 10.66120194 4.69630704 8.04634328 4 5 C4 4.34 4 3.68 4 3 C3.01 3 2.02 3 1 3 C0.67 2.01 0.34 1.02 0 0 Z M-3 1 C0 2 0 2 0 2 Z " fill="#0225A0" transform="translate(53,80)"/>
<path d="M0 0 C1.98 0 3.96 0 6 0 C6 0.66 6 1.32 6 2 C6.66 2 7.32 2 8 2 C8.125 9.625 8.125 9.625 7 13 C8.32 13 9.64 13 11 13 C9.25 17.875 9.25 17.875 7 19 C4.74566386 13.43930418 4.40038172 7.9214349 4 2 C3.01 1.67 2.02 1.34 1 1 C1 2.65 1 4.3 1 6 C0.67 6 0.34 6 0 6 C0 4.02 0 2.04 0 0 Z " fill="#626686" transform="translate(96,75)"/>
<path d="M0 0 C0.90492187 0.02320313 1.80984375 0.04640625 2.7421875 0.0703125 C4.10730469 0.09738281 4.10730469 0.09738281 5.5 0.125 C6.19867188 0.14820313 6.89734375 0.17140625 7.6171875 0.1953125 C7.9471875 1.8453125 8.2771875 3.4953125 8.6171875 5.1953125 C7.8540625 4.9890625 7.0909375 4.7828125 6.3046875 4.5703125 C3.39832806 3.86140047 3.39832806 3.86140047 0.6171875 6.1953125 C-1.71480638 6.27436314 -4.05113872 6.28330019 -6.3828125 6.1953125 C-3.63053977 0.29758523 -3.63053977 0.29758523 0 0 Z " fill="#D2835C" transform="translate(103.3828125,63.8046875)"/>
<path d="M0 0 C0 2.31 0 4.62 0 7 C-0.66 7 -1.32 7 -2 7 C-3.00217064 10.58327753 -3.00217064 10.58327753 -2 14 C-3.98 14.33 -5.96 14.66 -8 15 C-7.690625 13.989375 -7.38125 12.97875 -7.0625 11.9375 C-6.02352081 8.3268631 -5.45688819 4.73125353 -5 1 C-2 0 -2 0 0 0 Z " fill="#32221B" transform="translate(45,35)"/>
<path d="M0 0 C2.375 -0.1875 2.375 -0.1875 5 0 C7.14915785 3.22373677 7.38286803 4.26703674 7 8 C6.34 8.66 5.68 9.32 5 10 C3.68 10 2.36 10 1 10 C-0.1577506 6.52674819 -0.06866652 3.63932552 0 0 Z " fill="#0E2194" transform="translate(48,87)"/>
<path d="M0 0 C3.96 0 7.92 0 12 0 C12 0.99 12 1.98 12 3 C12.99 3.33 13.98 3.66 15 4 C14.67 4.99 14.34 5.98 14 7 C14 6.34 14 5.68 14 5 C12.39504433 5.11442461 10.79101881 5.24194694 9.1875 5.375 C8.29417969 5.44460937 7.40085937 5.51421875 6.48046875 5.5859375 C3.75601501 5.86645036 3.75601501 5.86645036 1 8 C0.67 5.36 0.34 2.72 0 0 Z " fill="#DD9E8D" transform="translate(97,59)"/>
<path d="M0 0 C1.32 0 2.64 0 4 0 C4.33 2.97 4.66 5.94 5 9 C5.721875 8.773125 6.44375 8.54625 7.1875 8.3125 C10.75584692 7.91601701 12.13871099 8.95622213 15 11 C12 12 12 12 9.25 11.5 C5.59387354 10.93751901 2.62278623 11.34789848 -1 12 C-0.67 11.01 -0.34 10.02 0 9 C0.99 9 1.98 9 3 9 C2.01 6.03 1.02 3.06 0 0 Z " fill="#0932B1" transform="translate(47,70)"/>
<path d="M0 0 C1.98 0 3.96 0 6 0 C6.66 1.32 7.32 2.64 8 4 C5.48169253 7.12270126 4.2738451 7.94523098 0.25 8.75 C-1.35875 8.87375 -1.35875 8.87375 -3 9 C-2.01 6.03 -1.02 3.06 0 0 Z " fill="#3546C8" transform="translate(47,60)"/>
<path d="M0 0 C1.32 0.66 2.64 1.32 4 2 C4 3.98 4 5.96 4 8 C3.34 7.67 2.68 7.34 2 7 C1.67 7.66 1.34 8.32 1 9 C0.34 9 -0.32 9 -1 9 C-1 9.66 -1 10.32 -1 11 C-4 13 -4 13 -7 13 C-6.6875 11.0625 -6.6875 11.0625 -6 9 C-5.01 8.67 -4.02 8.34 -3 8 C-2.67 6.02 -2.34 4.04 -2 2 C-1.34 2 -0.68 2 0 2 C0 1.34 0 0.68 0 0 Z " fill="#0D0C0E" transform="translate(61,30)"/>
<path d="M0 0 C2.64 0 5.28 0 8 0 C8.66 1.65 9.32 3.3 10 5 C7.625 6.5625 7.625 6.5625 5 8 C4.34 7.67 3.68 7.34 3 7 C3.99 5.68 4.98 4.36 6 3 C3.91738855 4.03712176 3.91738855 4.03712176 2 6 C1.18685089 9.60465748 1.18685089 9.60465748 1 13 C0.34 12.67 -0.32 12.34 -1 12 C-0.67 8.04 -0.34 4.08 0 0 Z " fill="#1737BB" transform="translate(53,66)"/>
<path d="M0 0 C0.33 0 0.66 0 1 0 C0.67 3.3 0.34 6.6 0 10 C-4.75 9.25 -4.75 9.25 -7 7 C-7.99 7.495 -7.99 7.495 -9 8 C-9 6.68 -9 5.36 -9 4 C-7.02 3.01 -5.04 2.02 -3 1 C-2.34 1.66 -1.68 2.32 -1 3 C-0.67 2.01 -0.34 1.02 0 0 Z " fill="#1A39B9" transform="translate(27,76)"/>
<path d="M0 0 C2 0 2 0 3.61328125 1.14453125 C5.53906265 3.721281 5.29961289 5.51096821 5.1875 8.6875 C5.16042969 9.68136719 5.13335937 10.67523438 5.10546875 11.69921875 C5.07066406 12.45847656 5.03585938 13.21773437 5 14 C2.61328125 14.578125 2.61328125 14.578125 0 15 C-1.8125 13.75 -1.8125 13.75 -3 12 C-3 11.01 -3 10.02 -3 9 C-1.68 9 -0.36 9 1 9 C1 9.99 1 10.98 1 12 C1.66 12.33 2.32 12.66 3 13 C2.68817931 11.58318366 2.37551263 10.16655349 2.0625 8.75 C1.88847656 7.96109375 1.71445312 7.1721875 1.53515625 6.359375 C1.052444 4.23121297 0.53836822 2.11467158 0 0 Z " fill="#23426E" transform="translate(22,44)"/>
<path d="M0 0 C1.98 0.99 3.96 1.98 6 3 C6 5.64 6 8.28 6 11 C4.68 10.67 3.36 10.34 2 10 C1.67 8.68 1.34 7.36 1 6 C0.34 6 -0.32 6 -1 6 C-0.67 4.02 -0.34 2.04 0 0 Z " fill="#47608C" transform="translate(7,47)"/>
<path d="M0 0 C0 1.65 0 3.3 0 5 C-1.60875 5.12375 -1.60875 5.12375 -3.25 5.25 C-7.2738451 6.05476902 -8.48169253 6.87729874 -11 10 C-11 8.02 -11 6.04 -11 4 C-10.01 3.67 -9.02 3.34 -8 3 C-8 2.34 -8 1.68 -8 1 C-5.29120665 -0.35439668 -2.99066732 -0.06501451 0 0 Z " fill="#7D84A7" transform="translate(68,38)"/>
<path d="M0 0 C2.6875 -0.375 2.6875 -0.375 6 0 C9.34127661 3.34127661 11.69235402 6.87052825 14 11 C10.11397015 10.42429187 7.88827136 8.58424279 5 6 C4.34 5.01 3.68 4.02 3 3 C2.01 2.67 1.02 2.34 0 2 C0 1.34 0 0.68 0 0 Z " fill="#E5B7BA" transform="translate(70,22)"/>
<path d="M0 0 C0.66 0 1.32 0 2 0 C2.33 1.32 2.66 2.64 3 4 C3.33 2.68 3.66 1.36 4 0 C5.32 0 6.64 0 8 0 C8 1.98 8 3.96 8 6 C7.34 6 6.68 6 6 6 C5.67 7.65 5.34 9.3 5 11 C3.046875 10.2890625 3.046875 10.2890625 1 9 C0.390625 6.8359375 0.390625 6.8359375 0.25 4.375 C0.19328125 3.55773437 0.1365625 2.74046875 0.078125 1.8984375 C0.05234375 1.27195312 0.0265625 0.64546875 0 0 Z " fill="#B2477C" transform="translate(27,71)"/>
<path d="M0 0 C0.33 0.99 0.66 1.98 1 3 C-0.65 3 -2.3 3 -4 3 C-4.33 3.99 -4.66 4.98 -5 6 C-5.33 4.68 -5.66 3.36 -6 2 C-6.66 2 -7.32 2 -8 2 C-8.33 2.99 -8.66 3.98 -9 5 C-10.65 5 -12.3 5 -14 5 C-14 3.68 -14 2.36 -14 1 C-9.23692563 0.04738513 -4.8333472 -0.08333357 0 0 Z " fill="#123264" transform="translate(84,45)"/>
<path d="M0 0 C0 0.99 0 1.98 0 3 C0.928125 3.2165625 0.928125 3.2165625 1.875 3.4375 C4 4 4 4 6 5 C6 6.32 6 7.64 6 9 C4.68 9.33 3.36 9.66 2 10 C1.67 8.68 1.34 7.36 1 6 C-0.32 6 -1.64 6 -3 6 C-3.33 4.35 -3.66 2.7 -4 1 C-2 0 -2 0 0 0 Z " fill="#414EC9" transform="translate(32,99)"/>
<path d="M0 0 C1.9375 1.0625 1.9375 1.0625 4 3 C4.75 6.6875 4.75 6.6875 5 10 C3.02 10.99 3.02 10.99 1 12 C0.79375 10.72125 0.5875 9.4425 0.375 8.125 C-0.08483533 5.92186032 -0.08483533 5.92186032 -1 4 C-3.99428144 2.38852558 -3.99428144 2.38852558 -7 2 C-7 1.67 -7 1.34 -7 1 C-4.69 1.33 -2.38 1.66 0 2 C0 1.34 0 0.68 0 0 Z " fill="#C83727" transform="translate(59,100)"/>
<path d="M0 0 C0.66 0 1.32 0 2 0 C3.41000664 2.82001327 3.24548451 4.87007255 3 8 C1.5 10.875 1.5 10.875 0 13 C-0.99 12.67 -1.98 12.34 -3 12 C-2.25749403 7.91621717 -1.17076699 3.98060777 0 0 Z " fill="#C02A2D" transform="translate(35,85)"/>
<path d="M0 0 C-0.875 7.75 -0.875 7.75 -2 10 C-3.32 10 -4.64 10 -6 10 C-6.33 7.36 -6.66 4.72 -7 2 C-1.125 0 -1.125 0 0 0 Z " fill="#41303A" transform="translate(112,72)"/>
<path d="M0 0 C0.98484375 0.01804687 1.9696875 0.03609375 2.984375 0.0546875 C4.10585937 0.08949219 4.10585937 0.08949219 5.25 0.125 C5.25 0.455 5.25 0.785 5.25 1.125 C1.95 1.125 -1.35 1.125 -4.75 1.125 C-5.87862175 6.48595333 -5.84688221 11.67806686 -5.75 17.125 C-6.41 17.455 -7.07 17.785 -7.75 18.125 C-7.75 13.505 -7.75 8.885 -7.75 4.125 C-8.74 4.455 -9.73 4.785 -10.75 5.125 C-9.75 2.125 -9.75 2.125 -8.046875 0.9453125 C-5.24061169 -0.0569244 -2.97306264 -0.07078721 0 0 Z " fill="#031561" transform="translate(88.75,72.875)"/>
<path d="M0 0 C2.95012857 1.36970255 5.5652222 2.82609125 8 5 C8 5.99 8 6.98 8 8 C4.7 8 1.4 8 -2 8 C-2.33 7.34 -2.66 6.68 -3 6 C-1.68 5.67 -0.36 5.34 1 5 C0.67 3.35 0.34 1.7 0 0 Z " fill="#D88F73" transform="translate(100,52)"/>
<path d="M0 0 C0.33 0 0.66 0 1 0 C1.67466746 3.22754814 2.33830569 6.45726935 3 9.6875 C3.19078125 10.59951172 3.3815625 11.51152344 3.578125 12.45117188 C3.75859375 13.33740234 3.9390625 14.22363281 4.125 15.13671875 C4.29257813 15.94842529 4.46015625 16.76013184 4.6328125 17.59643555 C5.0153713 20.10061865 5.06298509 22.47075502 5 25 C1.00675431 21.00675431 0.09321023 15.80523487 -0.19140625 10.29296875 C-0.18792503 6.85700416 -0.13186137 3.43327926 0 0 Z " fill="#563A8E" transform="translate(78,81)"/>
<path d="M0 0 C6.75 -0.125 6.75 -0.125 9 1 C9 1.99 9 2.98 9 4 C8.21625 4.12375 7.4325 4.2475 6.625 4.375 C3.85942178 4.79117993 3.85942178 4.79117993 2 7 C0.4375 5.1875 0.4375 5.1875 -1 3 C-0.67 2.01 -0.34 1.02 0 0 Z " fill="#A87A76" transform="translate(18,95)"/>
<path d="M0 0 C2 2 2 2 2.125 5.125 C2.08375 6.07375 2.0425 7.0225 2 8 C0.33333333 8 -1.33333333 8 -3 8 C-4.33783393 8.31478446 -5.67203709 8.64587656 -7 9 C-7 8.01 -7 7.02 -7 6 C-4.625 3.9375 -4.625 3.9375 -2 2 C-1.34 1.34 -0.68 0.68 0 0 Z " fill="#3348C6" transform="translate(25,71)"/>
<path d="M0 0 C0.33 0.66 0.66 1.32 1 2 C2.65391846 2.39171753 4.32345271 2.72057545 6 3 C6.99 3.33 7.98 3.66 9 4 C9 4.66 9 5.32 9 6 C5.7 6.66 2.4 7.32 -1 8 C-2 6 -2 6 -1.0625 2.875 C-0.5365625 1.451875 -0.5365625 1.451875 0 0 Z " fill="#1735B3" transform="translate(87,64)"/>
<path d="M0 0 C2.19050021 0.09017996 4.378466 0.24666208 6.5625 0.4375 C7.76003906 0.53933594 8.95757812 0.64117187 10.19140625 0.74609375 C11.11824219 0.82988281 12.04507813 0.91367187 13 1 C13 1.99 13 2.98 13 4 C7.06 4.495 7.06 4.495 1 5 C0.34 3.68 -0.32 2.36 -1 1 C-0.67 0.67 -0.34 0.34 0 0 Z " fill="#717EAF" transform="translate(65,50)"/>
<path d="M0 0 C1.9375 0.375 1.9375 0.375 4 1 C5.4783226 3.95664519 5.06032783 6.74229737 5 10 C4.01 9.67 3.02 9.34 2 9 C2.33 8.01 2.66 7.02 3 6 C1.35 5.67 -0.3 5.34 -2 5 C-2 4.01 -2 3.02 -2 2 C-1.34 2 -0.68 2 0 2 C0 1.34 0 0.68 0 0 Z " fill="#3A5485" transform="translate(20,47)"/>
<path d="M0 0 C1.32 1.32 2.64 2.64 4 4 C3.67 4.66 3.34 5.32 3 6 C2.360625 6.12375 1.72125 6.2475 1.0625 6.375 C-1.19851273 6.80939427 -1.19851273 6.80939427 -2.25 9.0625 C-2.4975 9.701875 -2.745 10.34125 -3 11 C-4.5625 9.75 -4.5625 9.75 -6 8 C-5.9375 5.9375 -5.9375 5.9375 -5 4 C-3 2.875 -3 2.875 -1 2 C-0.67 1.34 -0.34 0.68 0 0 Z " fill="#0D134B" transform="translate(104,36)"/>
<path d="M0 0 C3.875 1.75 3.875 1.75 5 4 C5.039992 5.99960012 5.04346799 8.00047242 5 10 C1.25 11.125 1.25 11.125 -1 10 C-0.67 9.67 -0.34 9.34 0 9 C0.07179964 7.48071962 0.08392007 5.95832518 0.0625 4.4375 C0.05347656 3.61121094 0.04445312 2.78492187 0.03515625 1.93359375 C0.02355469 1.29550781 0.01195312 0.65742187 0 0 Z " fill="#D24128" transform="translate(54,86)"/>
<path d="M0 0 C0.66 0 1.32 0 2 0 C2.66 0.99 3.32 1.98 4 3 C4.99 2.67 5.98 2.34 7 2 C5.9802693 5.77300358 5.34127338 6.80206144 1.875 8.8125 C0.92625 9.204375 -0.0225 9.59625 -1 10 C-2.31223496 6.06329512 -1.24296256 3.87511856 0 0 Z " fill="#20196F" transform="translate(38,77)"/>
<path d="M0 0 C2.475 0.495 2.475 0.495 5 1 C6 7.75 6 7.75 6 10 C4.35 9.67 2.7 9.34 1 9 C0.67 6.03 0.34 3.06 0 0 Z " fill="#C6C9DB" transform="translate(87,57)"/>
<path d="M0 0 C0.33 0.66 0.66 1.32 1 2 C-0.625 4 -0.625 4 -3 6 C-6.25 6.25 -6.25 6.25 -9 6 C-8.67 4.68 -8.34 3.36 -8 2 C-5.36 1.34 -2.72 0.68 0 0 Z " fill="#042EC1" transform="translate(68,55)"/>
<path d="M0 0 C0.99 0 1.98 0 3 0 C3 0.66 3 1.32 3 2 C4.32 2.66 5.64 3.32 7 4 C3.93882432 6.62386487 3.26826873 7 -1 7 C-1.04254356 5.00045254 -1.04080783 2.99958364 -1 1 C-0.67 0.67 -0.34 0.34 0 0 Z " fill="#5E72A0" transform="translate(30,51)"/>
<path d="M0 0 C0.99 0.33 1.98 0.66 3 1 C2.67 4.63 2.34 8.26 2 12 C1.34 12 0.68 12 0 12 C0 10.35 0 8.7 0 7 C-1.32 7 -2.64 7 -4 7 C-4 6.01 -4 5.02 -4 4 C-2.68 3.67 -1.36 3.34 0 3 C0 2.01 0 1.02 0 0 Z " fill="#2C282F" transform="translate(41,24)"/>
<path d="M0 0 C0.99 0.33 1.98 0.66 3 1 C3 5.95 3 10.9 3 16 C0.9346915 12.90203725 0.4516727 11.04666313 -0.1875 7.4375 C-0.36667969 6.46683594 -0.54585938 5.49617188 -0.73046875 4.49609375 C-1 2 -1 2 0 0 Z " fill="#1D3161" transform="translate(82,95)"/>
<path d="M0 0 C0.66 0 1.32 0 2 0 C1.67 4.29 1.34 8.58 1 13 C0.01 13 -0.98 13 -2 13 C-2.19294408 8.17639811 -1.75747614 4.50353262 0 0 Z " fill="#010748" transform="translate(84,74)"/>
<path d="M0 0 C2 3.75 2 3.75 2 6 C2.66 6 3.32 6 4 6 C3.34 7.98 2.68 9.96 2 12 C1.67 11.01 1.34 10.02 1 9 C-1.50447516 7.78130071 -1.50447516 7.78130071 -4 7 C-3.67 6.34 -3.34 5.68 -3 5 C-2.34 5.33 -1.68 5.66 -1 6 C-1.020625 5.195625 -1.04125 4.39125 -1.0625 3.5625 C-1 1 -1 1 0 0 Z " fill="#0E1691" transform="translate(33,76)"/>
<path d="M0 0 C-0.66 0 -1.32 0 -2 0 C-2 3.3 -2 6.6 -2 10 C-4.1519437 6.77208445 -4.20086443 5.71599191 -4 2 C-6.31 2.33 -8.62 2.66 -11 3 C-11 2.34 -11 1.68 -11 1 C-3.57142857 -1.42857143 -3.57142857 -1.42857143 0 0 Z " fill="#B65778" transform="translate(55,68)"/>
<path d="M0 0 C0.66 1.98 1.32 3.96 2 6 C-0.97 5.67 -3.94 5.34 -7 5 C-7.33 4.01 -7.66 3.02 -8 2 C-2.25 0 -2.25 0 0 0 Z " fill="#F34C0D" transform="translate(57,96)"/>
<path d="M0 0 C2.75 2.4375 2.75 2.4375 5 5 C1.625 5.625 1.625 5.625 -2 6 C-2.66 5.34 -3.32 4.68 -4 4 C-4 3.01 -4 2.02 -4 1 C-2.3125 0.1875 -2.3125 0.1875 0 0 Z " fill="#DBA192" transform="translate(96,45)"/>
<path d="M0 0 C2.31 0.33 4.62 0.66 7 1 C7 1.66 7 2.32 7 3 C7.99 3 8.98 3 10 3 C10 4.98 10 6.96 10 9 C8.8944811 8.06409496 7.79064547 7.12620142 6.6875 6.1875 C6.07261719 5.66542969 5.45773438 5.14335938 4.82421875 4.60546875 C3.14575321 3.12827531 1.56117966 1.59960869 0 0 Z " fill="#6573A1" transform="translate(87,35)"/>
<path d="M0 0 C-0.33 1.98 -0.66 3.96 -1 6 C-3.97 5.505 -3.97 5.505 -7 5 C-7 3.68 -7 2.36 -7 1 C-4.53721199 -0.231394 -2.7204945 -0.07159196 0 0 Z " fill="#201E26" transform="translate(42,14)"/>
<path d="M0 0 C1.98 0.495 1.98 0.495 4 1 C3.34 1 2.68 1 2 1 C2.33 1.66 2.66 2.32 3 3 C3.66 2.67 4.32 2.34 5 2 C4.67 3.65 4.34 5.3 4 7 C3.01 6.67 2.02 6.34 1 6 C1 7.32 1 8.64 1 10 C0.34 10 -0.32 10 -1 10 C-0.67 6.7 -0.34 3.4 0 0 Z " fill="#C44E6A" transform="translate(37,71)"/>
<path d="M0 0 C2.31 0.33 4.62 0.66 7 1 C7.33 1.99 7.66 2.98 8 4 C7.34 4 6.68 4 6 4 C6 3.34 6 2.68 6 2 C5.01 2.33 4.02 2.66 3 3 C3 3.928125 3 4.85625 3 5.8125 C3 7.875 3 9.9375 3 12 C0.89366282 10.29171079 0.06198392 9.47851584 -0.29296875 6.73828125 C-0.25816406 5.93777344 -0.22335938 5.13726562 -0.1875 4.3125 C-0.16042969 3.50425781 -0.13335938 2.69601563 -0.10546875 1.86328125 C-0.07066406 1.24839844 -0.03585938 0.63351563 0 0 Z " fill="#3D5582" transform="translate(27,49)"/>
<path d="M0 0 C0.66 0.99 1.32 1.98 2 3 C0.55069329 6.59584747 -1.22752078 8.18832656 -4.4375 10.3125 C-5.21996094 10.84488281 -6.00242187 11.37726563 -6.80859375 11.92578125 C-9 13 -9 13 -12 12 C-11.278125 11.608125 -10.55625 11.21625 -9.8125 10.8125 C-5.45576243 8.00482468 -1.98121249 4.86297612 0 0 Z " fill="#2D42BF" transform="translate(76,105)"/>
<path d="M0 0 C0.99 0.33 1.98 0.66 3 1 C2.34 1 1.68 1 1 1 C0.690625 2.11375 0.38125 3.2275 0.0625 4.375 C-1 8 -1 8 -2 10 C-2.99 10 -3.98 10 -5 10 C-4.300926 6.22500037 -2.74803773 2.74803773 0 0 Z " fill="#1739BC" transform="translate(46,59)"/>
<path d="M0 0 C0.66 0.66 1.32 1.32 2 2 C1.67 2.99 1.34 3.98 1 5 C3.31 5 5.62 5 8 5 C8 5.33 8 5.66 8 6 C5.36 6 2.72 6 0 6 C-0.33 5.01 -0.66 4.02 -1 3 C-3.97 2.505 -3.97 2.505 -7 2 C-7 1.34 -7 0.68 -7 0 C-3.85179059 -1.04940314 -3.00659136 -1.066855 0 0 Z " fill="#664C6A" transform="translate(35,48)"/>
<path d="M0 0 C0 4.35251187 -2.06165511 5.92809398 -5 9 C-7.3125 9.875 -7.3125 9.875 -9 10 C-7.63842622 4.70499087 -4.39656045 2.76254467 0 0 Z " fill="#392E33" transform="translate(33,16)"/>
<path d="M0 0 C1.2065625 0.0309375 1.2065625 0.0309375 2.4375 0.0625 C2.7675 0.7225 3.0975 1.3825 3.4375 2.0625 C2.4475 3.5475 2.4475 3.5475 1.4375 5.0625 C0.4475 4.7325 -0.5425 4.4025 -1.5625 4.0625 C-1.8925 5.7125 -2.2225 7.3625 -2.5625 9.0625 C-2.8925 9.0625 -3.2225 9.0625 -3.5625 9.0625 C-3.66015625 2.91015625 -3.66015625 2.91015625 -3.5625 1.0625 C-2.5625 0.0625 -2.5625 0.0625 0 0 Z " fill="#161A8D" transform="translate(53.5625,101.9375)"/>
<path d="M0 0 C0 6.27 0 12.54 0 19 C-0.33 19 -0.66 19 -1 19 C-1.04898438 18.00097656 -1.09796875 17.00195312 -1.1484375 15.97265625 C-1.22320312 14.68230469 -1.29796875 13.39195313 -1.375 12.0625 C-1.44460937 10.77472656 -1.51421875 9.48695312 -1.5859375 8.16015625 C-1.72257812 7.11730469 -1.85921875 6.07445313 -2 5 C-2.66 4.67 -3.32 4.34 -4 4 C-3.67 3.01 -3.34 2.02 -3 1 C-1 0 -1 0 0 0 Z " fill="#1B2594" transform="translate(77,76)"/>
<path d="M0 0 C0.639375 0.144375 1.27875 0.28875 1.9375 0.4375 C5.93844788 1.17236798 9.95504896 1.58581111 14 2 C13.01 2.99 12.02 3.98 11 5 C11 4.34 11 3.68 11 3 C9.948125 3.185625 8.89625 3.37125 7.8125 3.5625 C4.42880118 3.95079331 2.23574112 3.88247485 -1 3 C-0.67 2.01 -0.34 1.02 0 0 Z " fill="#041B41" transform="translate(16,58)"/>
<path d="M0 0 C2.31 0.33 4.62 0.66 7 1 C6.34 2.32 5.68 3.64 5 5 C2.69 4.67 0.38 4.34 -2 4 C-1.34 2.68 -0.68 1.36 0 0 Z " fill="#35476E" transform="translate(59,45)"/>
<path d="M0 0 C1.98 0.99 3.96 1.98 6 3 C6 3.66 6 4.32 6 5 C4.35 5 2.7 5 1 5 C1 6.32 1 7.64 1 9 C0.01 9 -0.98 9 -2 9 C-2 7.68 -2 6.36 -2 5 C-1.34 5 -0.68 5 0 5 C0 3.35 0 1.7 0 0 Z " fill="#864528" transform="translate(45,37)"/>
<path d="M0 0 C3.465 1.485 3.465 1.485 7 3 C7 4.65 7 6.3 7 8 C4.525 7.01 4.525 7.01 2 6 C2.33 5.01 2.66 4.02 3 3 C2.34 3 1.68 3 1 3 C0.67 3.99 0.34 4.98 0 6 C0 4.02 0 2.04 0 0 Z " fill="#A57972" transform="translate(50,18)"/>
<path d="M0 0 C0.33 0 0.66 0 1 0 C1.19555932 2.72880461 1.38170447 5.45771069 1.5625 8.1875 C1.61857422 8.95642578 1.67464844 9.72535156 1.73242188 10.51757812 C1.99141557 14.54061353 2.06573607 18.06072372 1 22 C-1 20 -1 20 -1.13525391 17.93701172 C-1.08288574 17.10959473 -1.03051758 16.28217773 -0.9765625 15.4296875 C-0.925 14.53378906 -0.8734375 13.63789062 -0.8203125 12.71484375 C-0.75585938 11.77769531 -0.69140625 10.84054688 -0.625 9.875 C-0.56828125 8.93011719 -0.5115625 7.98523438 -0.453125 7.01171875 C-0.31142903 4.67373519 -0.16000217 2.33679056 0 0 Z " fill="#C14661" transform="translate(77,80)"/>
<path d="M0 0 C0.66 0.66 1.32 1.32 2 2 C0.68 4.64 -0.64 7.28 -2 10 C-2.66 10 -3.32 10 -4 10 C-4.25 7.25 -4.25 7.25 -4 4 C-2 1.625 -2 1.625 0 0 Z " fill="#19203C" transform="translate(21,67)"/>
<path d="M0 0 C2.64 0 5.28 0 8 0 C4.58244111 4.76017131 4.58244111 4.76017131 1.875 5.875 C0 6 0 6 -2 5 C-2 4.34 -2 3.68 -2 3 C-0.68 2.67 0.64 2.34 2 2 C1.34 1.34 0.68 0.68 0 0 Z " fill="#525BD5" transform="translate(39,58)"/>
<path d="M0 0 C3.3734229 1.44575267 5.61595146 3.2049086 8 6 C8.75 8.25 8.75 8.25 9 10 C7.68 9.67 6.36 9.34 5 9 C5 8.01 5 7.02 5 6 C4.34 6 3.68 6 3 6 C2.01 4.02 1.02 2.04 0 0 Z " fill="#C77F60" transform="translate(85,43)"/>
<path d="M0 0 C0.66 0 1.32 0 2 0 C2 0.66 2 1.32 2 2 C3.32 2.33 4.64 2.66 6 3 C6 4.32 6 5.64 6 7 C2.62496331 5.8141763 0.35277269 4.72426311 -2 2 C-1.34 1.34 -0.68 0.68 0 0 Z " fill="#082954" transform="translate(12,41)"/>
<path d="M0 0 C1 2 1 2 0.0625 5.125 C-0.288125 6.07375 -0.63875 7.0225 -1 8 C-1.66 8 -2.32 8 -3 8 C-3.33 8.99 -3.66 9.98 -4 11 C-4 10.01 -4 9.02 -4 8 C-4.99 7.67 -5.98 7.34 -7 7 C-4.69 4.69 -2.38 2.38 0 0 Z " fill="#64474B" transform="translate(24,22)"/>
<path d="M0 0 C1 3 1 3 -0.14453125 5.4453125 C-0.69496094 6.32960938 -1.24539062 7.21390625 -1.8125 8.125 C-2.35519531 9.01445313 -2.89789063 9.90390625 -3.45703125 10.8203125 C-5 13 -5 13 -7 14 C-5.53967505 8.68972746 -3.01679014 4.53669968 0 0 Z " fill="#1F35B4" transform="translate(70,98)"/>
<path d="M0 0 C0.99 0 1.98 0 3 0 C3.33 0.99 3.66 1.98 4 3 C2.59554165 5.2636564 0.8032087 7.0208685 -1 9 C-2.25541557 5.23375329 -1.37061958 3.62811066 0 0 Z " fill="#70779C" transform="translate(100,92)"/>
<path d="M0 0 C-0.99 0.495 -0.99 0.495 -2 1 C-2.268125 1.61875 -2.53625 2.2375 -2.8125 2.875 C-4.35835192 5.64126132 -6.23845328 6.54655436 -9 8 C-8.64005447 5.3364031 -8.28838998 3.41816548 -6.75 1.1875 C-4.41988723 -0.39364795 -2.75498245 -0.22337696 0 0 Z " fill="#0830B5" transform="translate(85,64)"/>
<path d="M0 0 C2.475 0.495 2.475 0.495 5 1 C5.33 2.65 5.66 4.3 6 6 C4.35 5.67 2.7 5.34 1 5 C0.67 3.35 0.34 1.7 0 0 Z " fill="#2646CA" transform="translate(80,56)"/>
<path d="M0 0 C1.258125 -0.04125 2.51625 -0.0825 3.8125 -0.125 C4.52019531 -0.14820313 5.22789063 -0.17140625 5.95703125 -0.1953125 C8 0 8 0 11 2 C11 2.66 11 3.32 11 4 C7.06225823 4.36630156 5.43460229 4.30233203 2.125 2 C1.42375 1.34 0.7225 0.68 0 0 Z " fill="#DB6525" transform="translate(55,51)"/>
<path d="M0 0 C3.44795223 1.53242321 6.2199038 3.44531701 9 6 C9.8125 8.25 9.8125 8.25 10 10 C9.01 10.495 9.01 10.495 8 11 C5 7.25 5 7.25 5 5 C4.34 5 3.68 5 3 5 C1.375 2.5 1.375 2.5 0 0 Z " fill="#8E5A4B" transform="translate(79,40)"/>
<path d="M0 0 C0.33 0.66 0.66 1.32 1 2 C1.66 2 2.32 2 3 2 C3.33 1.34 3.66 0.68 4 0 C4 1.32 4 2.64 4 4 C2.54364629 4.22174933 1.08477044 4.42698698 -0.375 4.625 C-1.18710937 4.74101563 -1.99921875 4.85703125 -2.8359375 4.9765625 C-3.55007812 4.98429687 -4.26421875 4.99203125 -5 5 C-5.66 4.34 -6.32 3.68 -7 3 C-5.5459375 2.5359375 -5.5459375 2.5359375 -4.0625 2.0625 C-1.15934208 1.30476658 -1.15934208 1.30476658 0 0 Z " fill="#0221A1" transform="translate(30,85)"/>
<path d="M0 0 C0 0.99 0 1.98 0 3 C-4.62 3 -9.24 3 -14 3 C-14 2.67 -14 2.34 -14 2 C-9.15758367 0.66416101 -5.06562383 -0.25328119 0 0 Z " fill="#93521F" transform="translate(110,71)"/>
<path d="M0 0 C3.3 0.33 6.6 0.66 10 1 C10 1.66 10 2.32 10 3 C8.906875 3.12375 7.81375 3.2475 6.6875 3.375 C2.92618198 3.75464801 2.92618198 3.75464801 0 6 C0 4.02 0 2.04 0 0 Z " fill="#E8B3B0" transform="translate(98,61)"/>
<path d="M0 0 C0.99 0.33 1.98 0.66 3 1 C3.90837763 3.47739354 4 5.33579484 4 8 C1.5 6.625 1.5 6.625 -1 5 C-1 4.34 -1 3.68 -1 3 C-1.66 2.67 -2.32 2.34 -3 2 C-2.01 1.34 -1.02 0.68 0 0 Z " fill="#3743BC" transform="translate(37,54)"/>
<path d="M0 0 C5.875 4.625 5.875 4.625 7 8 C3.37 7.34 -0.26 6.68 -4 6 C-2.68 5.34 -1.36 4.68 0 4 C0 2.68 0 1.36 0 0 Z " fill="#3C516F" transform="translate(22,37)"/>
<path d="M0 0 C1.67542976 0.28604898 3.34385343 0.61781233 5 1 C5 1.66 5 2.32 5 3 C3.68 3 2.36 3 1 3 C2.32 3.33 3.64 3.66 5 4 C5 4.66 5 5.32 5 6 C3.35 6 1.7 6 0 6 C-0.38218767 4.34385343 -0.71395102 2.67542976 -1 1 C-0.67 0.67 -0.34 0.34 0 0 Z " fill="#E19887" transform="translate(47,33)"/>
<path d="M0 0 C-0.33 0.99 -0.66 1.98 -1 3 C-4.49029418 4.47666292 -8.27436386 4.07164685 -12 4 C-8.47340299 0.47340299 -4.89254977 -0.27957427 0 0 Z " fill="#D39FA2" transform="translate(71,21)"/>
<path d="M0 0 C0 3 0 3 -1 5 C-1.721875 4.360625 -2.44375 3.72125 -3.1875 3.0625 C-5.98191184 1.01326465 -7.61663274 0.38667054 -11 0 C-11 -0.33 -11 -0.66 -11 -1 C-6.58937864 -2.0257259 -4.07369424 -2.03684712 0 0 Z " fill="#352185" transform="translate(58,83)"/>
<path d="M0 0 C0.33 0 0.66 0 1 0 C0.67 3.3 0.34 6.6 0 10 C-0.66 10 -1.32 10 -2 10 C-3.4606285 7.35261084 -4 6.10551666 -4 3 C-3.01 3 -2.02 3 -1 3 C-0.67 2.01 -0.34 1.02 0 0 Z " fill="#263EC0" transform="translate(27,76)"/>
<path d="M0 0 C0.66 1.32 1.32 2.64 2 4 C-0.07553648 4.5534764 -1.84365964 5 -4 5 C-5.33783393 5.31478446 -6.67203709 5.64587656 -8 6 C-7.67 5.34 -7.34 4.68 -7 4 C-6.34 4 -5.68 4 -5 4 C-5.33 3.01 -5.66 2.02 -6 1 C-3 0 -3 0 0 0 Z " fill="#4A59C4" transform="translate(36,57)"/>
<path d="M0 0 C-0.33 0.66 -0.66 1.32 -1 2 C-1.66 1.67 -2.32 1.34 -3 1 C-3 1.99 -3 2.98 -3 4 C-5.97 4.66 -8.94 5.32 -12 6 C-4.6 0 -4.6 0 0 0 Z " fill="#0C2099" transform="translate(80,111)"/>
<path d="M0 0 C0.33 0 0.66 0 1 0 C1 1.65 1 3.3 1 5 C2.98 5.495 2.98 5.495 5 6 C4.34 7.32 3.68 8.64 3 10 C2.01 10 1.02 10 0 10 C0 6.7 0 3.4 0 0 Z " fill="#40435C" transform="translate(105,77)"/>
<path d="M0 0 C1.32 0.33 2.64 0.66 4 1 C4 2.98 4 4.96 4 7 C3.01 7.495 3.01 7.495 2 8 C-0.1519437 4.77208445 -0.20086443 3.71599191 0 0 Z " fill="#72779D" transform="translate(97,76)"/>
<path d="M0 0 C1.32 0 2.64 0 4 0 C4.33 2.64 4.66 5.28 5 8 C4.01 8.495 4.01 8.495 3 9 C2.01 6.03 1.02 3.06 0 0 Z " fill="#292398" transform="translate(47,70)"/>
<path d="M0 0 C0.66 1.65 1.32 3.3 2 5 C-0.97 4.67 -3.94 4.34 -7 4 C-2.25 0 -2.25 0 0 0 Z " fill="#081743" transform="translate(89,52)"/>
<path d="M0 0 C0.33 0 0.66 0 1 0 C1.08096803 1.45742463 1.13917774 2.91612807 1.1875 4.375 C1.22230469 5.18710937 1.25710937 5.99921875 1.29296875 6.8359375 C1.19628906 7.55007812 1.09960938 8.26421875 1 9 C-2 11 -2 11 -5 11 C-4.6875 9.0625 -4.6875 9.0625 -4 7 C-3.01 6.67 -2.02 6.34 -1 6 C-0.67 4.02 -0.34 2.04 0 0 Z " fill="#36201C" transform="translate(59,32)"/>
<path d="M0 0 C1.43088528 2.86177057 0.59991697 4.93375773 0 8 C-0.99 7.67 -1.98 7.34 -3 7 C-3 6.34 -3 5.68 -3 5 C-3.66 5 -4.32 5 -5 5 C-5 4.01 -5 3.02 -5 2 C-3.35 1.34 -1.7 0.68 0 0 Z " fill="#221B1B" transform="translate(28,24)"/>
<path d="M0 0 C0.99 1.485 0.99 1.485 2 3 C2.66 3 3.32 3 4 3 C3.67 4.98 3.34 6.96 3 9 C3.99 8.67 4.98 8.34 6 8 C5.67 8.99 5.34 9.98 5 11 C2.5 10 2.5 10 0 8 C-0.46837899 5.20625708 -0.23424505 2.85778964 0 0 Z " fill="#CFA5A7" transform="translate(49,18)"/>
<path d="M0 0 C0.99 0 1.98 0 3 0 C1.76075855 4.95696581 0.21422242 7.11658466 -4 10 C-4.66 9.67 -5.32 9.34 -6 9 C-5.38125 8.62875 -4.7625 8.2575 -4.125 7.875 C-1.4489404 5.51377094 -0.9063156 3.39868348 0 0 Z " fill="#0D20A0" transform="translate(73,105)"/>
<path d="M0 0 C0.33 0 0.66 0 1 0 C1.33 2.97 1.66 5.94 2 9 C-0.475 8.01 -0.475 8.01 -3 7 C-2.01 4.69 -1.02 2.38 0 0 Z " fill="#071488" transform="translate(36,95)"/>
<path d="M0 0 C0.33 0 0.66 0 1 0 C1.33 2.97 1.66 5.94 2 9 C3.32 9.33 4.64 9.66 6 10 C4.02 10.33 2.04 10.66 0 11 C-1.05404945 7.01803543 -0.84098656 4.01804691 0 0 Z " fill="#BF4138" transform="translate(47,88)"/>
<path d="M0 0 C2.475 0.99 2.475 0.99 5 2 C4.67 3.98 4.34 5.96 4 8 C2.35 7.67 0.7 7.34 -1 7 C-0.01 5.68 0.98 4.36 2 3 C1.34 3 0.68 3 0 3 C0 2.01 0 1.02 0 0 Z " fill="#E5BFBE" transform="translate(52,24)"/>
<path d="M0 0 C0.33 0 0.66 0 1 0 C1.125 2.875 1.125 2.875 1 6 C-1 8 -1 8 -3.625 8.125 C-4.40875 8.08375 -5.1925 8.0425 -6 8 C-6.33 7.34 -6.66 6.68 -7 6 C-4.69 5.34 -2.38 4.68 0 4 C0 2.68 0 1.36 0 0 Z " fill="#08066F" transform="translate(59,107)"/>
<path d="M0 0 C0.66 0 1.32 0 2 0 C4.23551759 3.35327639 4.17283528 3.90743657 3.625 7.6875 C3.51414062 8.49574219 3.40328125 9.30398437 3.2890625 10.13671875 C3.19367188 10.75160156 3.09828125 11.36648437 3 12 C2.67 12 2.34 12 2 12 C2 9.36 2 6.72 2 4 C1.34 4 0.68 4 0 4 C0 2.68 0 1.36 0 0 Z " fill="#010115" transform="translate(87,84)"/>
<path d="M0 0 C0.99 0 1.98 0 3 0 C3.042721 1.66611905 3.04063832 3.33382885 3 5 C2.67 5.33 2.34 5.66 2 6 C1.63239269 8.32817964 1.29758419 10.6618385 1 13 C0.34 12.67 -0.32 12.34 -1 12 C-0.67 8.04 -0.34 4.08 0 0 Z " fill="#3D35A1" transform="translate(53,66)"/>
<path d="M0 0 C0.99 0 1.98 0 3 0 C3 2.64 3 5.28 3 8 C2.01 8 1.02 8 0 8 C0 5.36 0 2.72 0 0 Z " fill="#2941C6" transform="translate(94,59)"/>
<path d="M0 0 C0.66 0.33 1.32 0.66 2 1 C1.67 1.66 1.34 2.32 1 3 C1.66 3.33 2.32 3.66 3 4 C-0.98196457 5.05404945 -3.98195309 4.84098656 -8 4 C-6.66666667 3.33333333 -5.33333333 2.66666667 -4 2 C-3.29875 1.608125 -2.5975 1.21625 -1.875 0.8125 C-1.25625 0.544375 -0.6375 0.27625 0 0 Z " fill="#E03B10" transform="translate(44,47)"/>
<path d="M0 0 C2.475 0.495 2.475 0.495 5 1 C4.67 2.32 4.34 3.64 4 5 C2.68 5 1.36 5 0 5 C0 3.35 0 1.7 0 0 Z " fill="#7384B0" transform="translate(71,38)"/>
<path d="M0 0 C0.33 0 0.66 0 1 0 C1 3.3 1 6.6 1 10 C1.66 10.33 2.32 10.66 3 11 C1.02 11.33 -0.96 11.66 -3 12 C-2.01 8.04 -1.02 4.08 0 0 Z " fill="#381510" transform="translate(40,38)"/>
<path d="M0 0 C0.99 0 1.98 0 3 0 C4.99819916 2.23328142 6.65827124 4.31654249 8 7 C3.75177626 6.52797514 1.80010291 4.03344482 -1 1 C-0.67 0.67 -0.34 0.34 0 0 Z " fill="#D7AAAD" transform="translate(76,26)"/>
<path d="M0 0 C0.33 0 0.66 0 1 0 C1.12375 1.2375 1.2475 2.475 1.375 3.75 C1.75746305 6.8762197 2.30549523 9.28879237 4 12 C2.35 11.67 0.7 11.34 -1 11 C-0.67 7.37 -0.34 3.74 0 0 Z " fill="#191989" transform="translate(46,105)"/>
<path d="M0 0 C0.33 0 0.66 0 1 0 C2.13764351 4.26616316 3 7.56486311 3 12 C2.01 11.67 1.02 11.34 0 11 C0 7.37 0 3.74 0 0 Z " fill="#74454F" transform="translate(27,97)"/>
<path d="M0 0 C0.33 0 0.66 0 1 0 C1 2.64 1 5.28 1 8 C-0.98 8.33 -2.96 8.66 -5 9 C-5.33 7.68 -5.66 6.36 -6 5 C-3.03 5.495 -3.03 5.495 0 6 C0 4.02 0 2.04 0 0 Z " fill="#301B68" transform="translate(44,87)"/>
<path d="M0 0 C1.32 0.33 2.64 0.66 4 1 C3.71125 1.556875 3.4225 2.11375 3.125 2.6875 C1.9586747 5.08494645 0.9660119 7.51596939 0 10 C-0.66 9.01 -1.32 8.02 -2 7 C-1.125 3.3125 -1.125 3.3125 0 0 Z " fill="#1A2494" transform="translate(45,77)"/>
<path d="M0 0 C0.33 1.32 0.66 2.64 1 4 C0.01 4.66 -0.98 5.32 -2 6 C-2.268125 5.38125 -2.53625 4.7625 -2.8125 4.125 C-3.95556848 1.7004767 -3.95556848 1.7004767 -7 0 C-3.86650268 -1.04449911 -3.01031744 -0.93423645 0 0 Z " fill="#1036B7" transform="translate(75,80)"/>
<path d="M0 0 C2 3 2 3 2 6 C1.01 6 0.02 6 -1 6 C-1.33 5.34 -1.66 4.68 -2 4 C-2.99 3.34 -3.98 2.68 -5 2 C-2 0 -2 0 0 0 Z " fill="#153EBD" transform="translate(65,72)"/>
<path d="M0 0 C-0.33 0.99 -0.66 1.98 -1 3 C-4.3 3 -7.6 3 -11 3 C-10.67 2.34 -10.34 1.68 -10 1 C-6.6322481 0.06451336 -3.4815554 -0.09947301 0 0 Z " fill="#071D90" transform="translate(96,70)"/>
<path d="M0 0 C3.24271506 0.5590888 4.93057424 1.4132178 7 4 C7 4.66 7 5.32 7 6 C4.0625 5.25 4.0625 5.25 1 4 C0.125 1.875 0.125 1.875 0 0 Z " fill="#DEA790" transform="translate(50,43)"/>
<path d="M0 0 C1.11375 0.185625 2.2275 0.37125 3.375 0.5625 C6.82568861 1.31680657 6.82568861 1.31680657 9 0 C8.67 0.99 8.34 1.98 8 3 C3.545 3.495 3.545 3.495 -1 4 C-1.33 3.34 -1.66 2.68 -2 2 C-1.34 2 -0.68 2 0 2 C0 1.34 0 0.68 0 0 Z " fill="#BE2C2F" transform="translate(51,113)"/>
<path d="M0 0 C1.98 0.495 1.98 0.495 4 1 C3.67 1.66 3.34 2.32 3 3 C3.66 3.33 4.32 3.66 5 4 C3.35 4.66 1.7 5.32 0 6 C-1.125 2.25 -1.125 2.25 0 0 Z " fill="#0B2EAD" transform="translate(49,89)"/>
<path d="M0 0 C0.66 0 1.32 0 2 0 C2 0.66 2 1.32 2 2 C3.32 2.33 4.64 2.66 6 3 C5.34 3 4.68 3 4 3 C4 3.66 4 4.32 4 5 C2.02 5.99 2.02 5.99 0 7 C0 4.69 0 2.38 0 0 Z " fill="#27359D" transform="translate(18,88)"/>
<path d="M0 0 C0 0.99 0 1.98 0 3 C-0.99 3.495 -0.99 3.495 -2 4 C-2 4.99 -2 5.98 -2 7 C-3.32 7 -4.64 7 -6 7 C-5.39816251 4.97954558 -4.72693904 2.97888961 -4 1 C-2 0 -2 0 0 0 Z " fill="#4350CD" transform="translate(50,62)"/>
<path d="M0 0 C0.33 0.99 0.66 1.98 1 3 C-0.65 3 -2.3 3 -4 3 C-4.33 3.99 -4.66 4.98 -5 6 C-5.66 4.35 -6.32 2.7 -7 1 C-2.25 0 -2.25 0 0 0 Z " fill="#1E3B64" transform="translate(84,45)"/>
<path d="M0 0 C2.97 0 5.94 0 9 0 C9 0.33 9 0.66 9 1 C7.02 1 5.04 1 3 1 C3 2.32 3 3.64 3 5 C2.01 5 1.02 5 0 5 C0 3.35 0 1.7 0 0 Z " fill="#294B7E" transform="translate(67,45)"/>
<path d="M0 0 C0.66 0 1.32 0 2 0 C2.33 0.99 2.66 1.98 3 3 C2.67 3.66 2.34 4.32 2 5 C1.34 5 0.68 5 0 5 C0.33 6.32 0.66 7.64 1 9 C0.01 9.495 0.01 9.495 -1 10 C-1 9.34 -1 8.68 -1 8 C-1.66 7.67 -2.32 7.34 -3 7 C-2.34 7 -1.68 7 -1 7 C-0.67 4.69 -0.34 2.38 0 0 Z " fill="#181113" transform="translate(29,22)"/>
<path d="M0 0 C0.99 0.66 1.98 1.32 3 2 C3 2.66 3 3.32 3 4 C2.01 4 1.02 4 0 4 C0 4.99 0 5.98 0 7 C-0.99 7.33 -1.98 7.66 -3 8 C-3.33 7.01 -3.66 6.02 -4 5 C-3.01 4.34 -2.02 3.68 -1 3 C-0.67 2.01 -0.34 1.02 0 0 Z " fill="#191823" transform="translate(41,20)"/>
<path d="M0 0 C0.33 0 0.66 0 1 0 C1.144375 1.051875 1.28875 2.10375 1.4375 3.1875 C1.87526966 6.15460549 2.37804866 9.06794366 3 12 C2.01 11.67 1.02 11.34 0 11 C0 7.37 0 3.74 0 0 Z " fill="#F2450D" transform="translate(48,103)"/>
<path d="M0 0 C0.66 0 1.32 0 2 0 C1.67 2.97 1.34 5.94 1 9 C0.34 9 -0.32 9 -1 9 C-1.09765625 2.84765625 -1.09765625 2.84765625 -1 1 C-0.67 0.67 -0.34 0.34 0 0 Z " fill="#EF4F15" transform="translate(46,85)"/>
<path d="M0 0 C0.66 0.33 1.32 0.66 2 1 C-1.96 4.465 -1.96 4.465 -6 8 C-6.66 7.67 -7.32 7.34 -8 7 C-5.36 4.69 -2.72 2.38 0 0 Z " fill="#031797" transform="translate(81,68)"/>
<path d="M0 0 C2.12038635 2.61514317 4.13091744 5.19637616 6 8 C4.68 8 3.36 8 2 8 C0.1875 5.6875 0.1875 5.6875 -1 3 C-0.67 2.01 -0.34 1.02 0 0 Z " fill="#AF6D54" transform="translate(89,49)"/>
<path d="M0 0 C0.99 0 1.98 0 3 0 C3 1.98 3 3.96 3 6 C2.01 6 1.02 6 0 6 C-1.24546405 3.50907189 -0.7767578 2.58919267 0 0 Z " fill="#011261" transform="translate(99,40)"/>
<path d="M0 0 C2.9719385 1.12451727 5.33440687 2.22293791 8 4 C7.67 4.66 7.34 5.32 7 6 C5.68 6 4.36 6 3 6 C2.01 4.02 1.02 2.04 0 0 Z " fill="#9E5A4E" transform="translate(59,25)"/>
<path d="M0 0 C1.65 0 3.3 0 5 0 C5.33 1.32 5.66 2.64 6 4 C3.03 3.505 3.03 3.505 0 3 C0 2.01 0 1.02 0 0 Z " fill="#0E0F14" transform="translate(35,19)"/>
<path d="M0 0 C0 1.98 0 3.96 0 6 C-1.32 6 -2.64 6 -4 6 C-4 4.68 -4 3.36 -4 2 C-1 0 -1 0 0 0 Z " fill="#283BAA" transform="translate(34,104)"/>
<path d="M0 0 C1.80411967 2.75924185 2.0127245 3.88972103 1.625 7.25 C1.41875 8.1575 1.2125 9.065 1 10 C-0.85064319 6.87703962 -1.29356154 4.62059232 -1 1 C-0.67 0.67 -0.34 0.34 0 0 Z " fill="#E86D44" transform="translate(79,96)"/>
<path d="M0 0 C1.32 1.65 2.64 3.3 4 5 C3.01 5.99 2.02 6.98 1 8 C1 7.01 1 6.02 1 5 C0.34 5 -0.32 5 -1 5 C-1.33 3.68 -1.66 2.36 -2 1 C-1.34 0.67 -0.68 0.34 0 0 Z " fill="#030970" transform="translate(31,94)"/>
<path d="M0 0 C0.66 0 1.32 0 2 0 C2 2.31 2 4.62 2 7 C1.01 7.33 0.02 7.66 -1 8 C-0.67 5.36 -0.34 2.72 0 0 Z " fill="#E2461C" transform="translate(35,85)"/>
<path d="M0 0 C0.625 2.875 0.625 2.875 1 6 C0.34 6.66 -0.32 7.32 -1 8 C-1.33 6.35 -1.66 4.7 -2 3 C-2.99 3.495 -2.99 3.495 -4 4 C-4 3.01 -4 2.02 -4 1 C-2 0 -2 0 0 0 Z " fill="#44238B" transform="translate(43,71)"/>
<path d="M0 0 C2.31 0 4.62 0 7 0 C6.67 0.99 6.34 1.98 6 3 C4.02 3 2.04 3 0 3 C0 2.01 0 1.02 0 0 Z " fill="#BF734B" transform="translate(96,70)"/>
<path d="M0 0 C1.98 0 3.96 0 6 0 C6.33 0.66 6.66 1.32 7 2 C5.35 2 3.7 2 2 2 C1.67 3.32 1.34 4.64 1 6 C0.67 4.02 0.34 2.04 0 0 Z " fill="#04132A" transform="translate(80,48)"/>
<path d="M0 0 C0.99 0.33 1.98 0.66 3 1 C2.67 2.65 2.34 4.3 2 6 C0.35 6 -1.3 6 -3 6 C-2.01 4.02 -1.02 2.04 0 0 Z " fill="#362891" transform="translate(62,112)"/>
<path d="M0 0 C0 1.32 0 2.64 0 4 C-1.65 4.33 -3.3 4.66 -5 5 C-5 3.68 -5 2.36 -5 1 C-2 0 -2 0 0 0 Z " fill="#021E9C" transform="translate(59,107)"/>
<path d="M0 0 C-0.33 1.65 -0.66 3.3 -1 5 C-1.99 5 -2.98 5 -4 5 C-4.33 3.68 -4.66 2.36 -5 1 C-2 0 -2 0 0 0 Z " fill="#0D30B1" transform="translate(75,96)"/>
<path d="M0 0 C1.670625 0.061875 1.670625 0.061875 3.375 0.125 C3.375 0.455 3.375 0.785 3.375 1.125 C1.704375 1.5271875 1.704375 1.5271875 0 1.9375 C-3.84340951 2.78309019 -3.84340951 2.78309019 -5.625 6.125 C-6.285 6.125 -6.945 6.125 -7.625 6.125 C-4.84462617 0.16705607 -4.84462617 0.16705607 0 0 Z " fill="#DA917C" transform="translate(104.625,63.875)"/>
<path d="M0 0 C0 1.65 0 3.3 0 5 C-2.475 4.01 -2.475 4.01 -5 3 C-5 2.34 -5 1.68 -5 1 C-3 0 -3 0 0 0 Z " fill="#1C3969" transform="translate(13,45)"/>
<path d="M0 0 C2.94956528 1.36944102 5.52468811 2.87830409 8 5 C8 5.66 8 6.32 8 7 C4.63718422 5.55879324 2.4480582 3.71035015 0 1 C0 0.67 0 0.34 0 0 Z " fill="#C47460" transform="translate(77,36)"/>
<path d="M0 0 C1.32 0.33 2.64 0.66 4 1 C4 2.32 4 3.64 4 5 C2.68 5 1.36 5 0 5 C0 3.35 0 1.7 0 0 Z " fill="#5D6C9C" transform="translate(17,36)"/>
<path d="M0 0 C-0.8125 1.9375 -0.8125 1.9375 -2 4 C-2.99 4.33 -3.98 4.66 -5 5 C-5 3.68 -5 2.36 -5 1 C-3 0 -3 0 0 0 Z " fill="#3441C3" transform="translate(47,101)"/>
<path d="M0 0 C0.33 1.32 0.66 2.64 1 4 C-0.98 4.99 -0.98 4.99 -3 6 C-3.33 4.35 -3.66 2.7 -4 1 C-2 0 -2 0 0 0 Z " fill="#2F3CAF" transform="translate(32,99)"/>
<path d="M0 0 C1.98 0 3.96 0 6 0 C6 0.99 6 1.98 6 3 C4.35 3 2.7 3 1 3 C0.67 2.01 0.34 1.02 0 0 Z " fill="#CF8C78" transform="translate(21,96)"/>
<path d="M0 0 C0.66 1.32 1.32 2.64 2 4 C1.34 4.66 0.68 5.32 0 6 C-2.125 5.625 -2.125 5.625 -4 5 C-4 4.34 -4 3.68 -4 3 C-3.01 2.67 -2.02 2.34 -1 2 C-0.67 1.34 -0.34 0.68 0 0 Z " fill="#3D4AD0" transform="translate(25,71)"/>
<path d="M0 0 C0.33 0 0.66 0 1 0 C1 2.31 1 4.62 1 7 C0.01 6.67 -0.98 6.34 -2 6 C-1.67 5.01 -1.34 4.02 -1 3 C-2.32 2.67 -3.64 2.34 -5 2 C-3.35 2 -1.7 2 0 2 C0 1.34 0 0.68 0 0 Z " fill="#2F4C7A" transform="translate(24,50)"/>
<path d="M0 0 C2 0 2 0 3.6875 1.25 C4.120625 1.8275 4.55375 2.405 5 3 C4.6875 5.1875 4.6875 5.1875 4 7 C1.49962266 4.82575883 0.56371414 3.26954202 0 0 Z " fill="#163862" transform="translate(22,44)"/>
<path d="M0 0 C0 1.65 0 3.3 0 5 C-2.31 5 -4.62 5 -7 5 C-5.68 4.67 -4.36 4.34 -3 4 C-3 3.01 -3 2.02 -3 1 C-1 0 -1 0 0 0 Z " fill="#6C7DAC" transform="translate(68,38)"/>
<path d="M0 0 C0 2.31 0 4.62 0 7 C-0.33 6.34 -0.66 5.68 -1 5 C-1.66 5 -2.32 5 -3 5 C-3.33 3.68 -3.66 2.36 -4 1 C-2 0 -2 0 0 0 Z " fill="#492C20" transform="translate(45,35)"/>
<path d="M0 0 C2.475 0.495 2.475 0.495 5 1 C5.33 2.32 5.66 3.64 6 5 C4.68 4.67 3.36 4.34 2 4 C2 3.01 2 2.02 2 1 C1.34 0.67 0.68 0.34 0 0 Z " fill="#DFC6CE" transform="translate(43,16)"/>
</svg>
