<?xml version="1.0" encoding="UTF-8"?>
<svg version="1.1" xmlns="http://www.w3.org/2000/svg" width="127" height="120">
<path d="M0 0 C41.91 0 83.82 0 127 0 C127 39.6 127 79.2 127 120 C85.09 120 43.18 120 0 120 C0 80.4 0 40.8 0 0 Z " fill="#FEFEFE" transform="translate(0,0)"/>
<path d="M0 0 C12.06808289 8.91778013 20.18588543 21.19072208 23 36 C23.45619323 40.38135581 23.86025783 44.66075832 23 49 C20.96875 50.8671875 20.96875 50.8671875 19 52 C18.34 51.67 17.68 51.34 17 51 C16.505 51.99 16.505 51.99 16 53 C16 52.34 16 51.68 16 51 C15.34 51 14.68 51 14 51 C13.67 51.99 13.34 52.98 13 54 C13 53.34 13 52.68 13 52 C12.34 52 11.68 52 11 52 C10.505 52.99 10.505 52.99 10 54 C9.01 53.505 9.01 53.505 8 53 C7.505 53.99 7.505 53.99 7 55 C7 54.34 7 53.68 7 53 C5.02463255 53.34786708 5.02463255 53.34786708 3 54 C2.67 54.66 2.34 55.32 2 56 C1.34 56 0.68 56 0 56 C-2.04424876 56.31711338 -4.08563313 56.65287372 -6.125 57 C-7.22070312 57.185625 -8.31640625 57.37125 -9.4453125 57.5625 C-10.70988281 57.7790625 -10.70988281 57.7790625 -12 58 C-12 57.34 -12 56.68 -12 56 C-13.98 56.99 -15.96 57.98 -18 59 C-18.95831437 56.12505689 -19.29696565 53.50526553 -19.59521484 50.50390625 C-20.32976398 43.30697538 -21.50414385 37.41547227 -25 31 C-25.32097656 30.28199219 -25.64195313 29.56398437 -25.97265625 28.82421875 C-27.95700333 24.42973351 -29.78582914 21.60877243 -34 19 C-37.17921787 17.74443113 -37.17921787 17.74443113 -40 17 C-40 14.36 -40 11.72 -40 9 C-40.66 9.33 -41.32 9.66 -42 10 C-42 11.32 -42 12.64 -42 14 C-44 14 -44 14 -46.6875 12 C-49 9 -49 9 -48.75 5.125 C-48.61207031 4.44695313 -48.47414062 3.76890625 -48.33203125 3.0703125 C-47.82119629 -0.11489373 -48.40887383 -2.84732708 -49 -6 C-32.96928666 -12.87030572 -14.40711566 -9.00683257 0 0 Z " fill="#1A2025" transform="translate(92,16)"/>
<path d="M0 0 C0 0.99 0 1.98 0 3 C-0.66 3 -1.32 3 -2 3 C-2 3.66 -2 4.32 -2 5 C-1.34 5 -0.68 5 0 5 C0 5.99 0 6.98 0 8 C1.98 8.99 3.96 9.98 6 11 C6 13.31 6 15.62 6 18 C6.99 18.33 7.98 18.66 9 19 C8.3705516 25.54626335 8.3705516 25.54626335 6.46875 27.875 C4.55181396 30.64843938 4.69345653 32.41678271 4.8125 35.75 C4.83957031 36.73484375 4.86664063 37.7196875 4.89453125 38.734375 C4.94673828 39.85585937 4.94673828 39.85585937 5 41 C5.66 41 6.32 41 7 41 C7.15855469 41.53367188 7.31710938 42.06734375 7.48046875 42.6171875 C9.13751471 47.90874862 11.24148255 52.73142467 13.81640625 57.640625 C15.96129318 61.91624119 17.27601443 65.16974754 17 70 C13.535 70.99 13.535 70.99 10 72 C10.15597656 72.83144531 10.31195313 73.66289063 10.47265625 74.51953125 C10.66730469 75.60621094 10.86195312 76.69289063 11.0625 77.8125 C11.35833984 79.43091797 11.35833984 79.43091797 11.66015625 81.08203125 C12 84 12 84 11 87 C8.03 87.495 8.03 87.495 5 88 C5.66 87.01 6.32 86.02 7 85 C7.66 85 8.32 85 9 85 C9 84.34 9 83.68 9 83 C8.01 82.505 8.01 82.505 7 82 C7.66 82 8.32 82 9 82 C9 80.35 9 78.7 9 77 C8.01 77.33 7.02 77.66 6 78 C5.505 77.01 5.505 77.01 5 76 C3.515 76.495 3.515 76.495 2 77 C1.67 76.01 1.34 75.02 1 74 C1.99 73.505 1.99 73.505 3 73 C3.65772428 69.97065509 3.65772428 69.97065509 4 67 C3.34 67 2.68 67 2 67 C2.0825 67.7425 2.165 68.485 2.25 69.25 C2 72 2 72 0.3125 74.25 C-2.20062862 76.15182706 -3.89903219 76.65544802 -7 77 C-6.01 76.01 -6.01 76.01 -5 75 C-7.46800047 76.15173355 -9.04783565 77.04783565 -11 79 C-13.90552435 78.89980951 -15.19652506 77.84769308 -17.5 76.0625 C-20.78163084 72.04250222 -22.3766156 67.89142025 -24 63 C-24.35964844 61.9171875 -24.71929687 60.834375 -25.08984375 59.71875 C-28.41437707 46.13524906 -26.0643173 31.94320239 -19.3125 19.8125 C-14.18871955 11.86805254 -7.97557709 5.09079389 0 0 Z " fill="#212831" transform="translate(33,14)"/>
<path d="M0 0 C3 1 3 1 4.09765625 2.50390625 C7.16853154 9.05593572 7.90145234 15.50479668 8.60546875 22.62109375 C8.78966158 25.86304362 8.78966158 25.86304362 10 28 C10.7425 27.67 11.485 27.34 12.25 27 C15 26 15 26 19 26 C24.25786421 25.48283303 28.92020439 24.50512463 34 23 C35.99673484 22.64763503 37.99650739 22.31165441 40 22 C41.33783393 21.68521554 42.67203709 21.35412344 44 21 C45.051875 20.7525 45.051875 20.7525 46.125 20.5 C48.07081859 20.04861276 48.07081859 20.04861276 50 19 C49.61020794 25.55925943 48.57886807 30.94526627 46 37 C45.67 36.34 45.34 35.68 45 35 C43.2709226 34.97274659 41.54171824 34.95349013 39.8125 34.9375 C38.84957031 34.92589844 37.88664062 34.91429687 36.89453125 34.90234375 C34.13445336 34.99546379 31.69835501 35.45344324 29 36 C27.33385392 36.04165365 25.66614608 36.04165365 24 36 C20.51856804 35.95843066 17.3886947 36.09634808 14 37 C14.495 38.98 14.495 38.98 15 41 C16.32 41 17.64 41 19 41 C19.66 43.97 20.32 46.94 21 50 C21.66 50 22.32 50 23 50 C23 47.69 23 45.38 23 43 C24.65 43 26.3 43 28 43 C28 45.64 28 48.28 28 51 C26.35 51.66 24.7 52.32 23 53 C23.66 53.99 24.32 54.98 25 56 C25.37125 55.34 25.7425 54.68 26.125 54 C28 52 28 52 31.1875 51.75 C32.115625 51.8325 33.04375 51.915 34 52 C33.938125 50.72125 33.87625 49.4425 33.8125 48.125 C33.70703125 45.9453125 33.70703125 45.9453125 34 44 C37.22791555 41.8480563 38.28400809 41.79913557 42 42 C39.16848621 50.38967048 31.65235433 57.73234086 24 62 C21.0625 61.8125 21.0625 61.8125 19 61 C19.33 59.68 19.66 58.36 20 57 C18.02 57.495 18.02 57.495 16 58 C14.82767315 56.3790787 13.6622923 54.75313167 12.5 53.125 C11.8503125 52.22007813 11.200625 51.31515625 10.53125 50.3828125 C9 48 9 48 9 46 C8.01 46 7.02 46 6 46 C5.67 44.35 5.34 42.7 5 41 C4.34 41 3.68 41 3 41 C3.3609375 41.96421875 3.721875 42.9284375 4.09375 43.921875 C4.56283738 45.19779268 5.03156873 46.47384129 5.5 47.75 C5.73847656 48.38421875 5.97695312 49.0184375 6.22265625 49.671875 C7.44801758 53.03286607 8 55.36871587 8 59 C8.99 59.33 9.98 59.66 11 60 C10.505 60.99 10.505 60.99 10 62 C8.02 62 6.04 62 4 62 C4 61.01 4 60.02 4 59 C3.34 59 2.68 59 2 59 C0.47885316 56.81839451 -0.93188376 54.64331825 -2.3125 52.375 C-7.21218138 43.5561482 -7.21218138 43.5561482 -15 38 C-15.703125 36.2421875 -15.703125 36.2421875 -16.25 33.875 C-17.74287527 28.29083954 -20.08268978 23.32578515 -22.66308594 18.17919922 C-24.3327575 14.7727471 -25 12.88193953 -25 9 C-25.66 9 -26.32 9 -27 9 C-26.67 8.34 -26.34 7.68 -26 7 C-25.01 7.33 -24.02 7.66 -23 8 C-22.67 7.01 -22.34 6.02 -22 5 C-18.92307692 10.29230769 -18.92307692 10.29230769 -19.3125 13.875 C-19.539375 14.57625 -19.76625 15.2775 -20 16 C-19.34 16.33 -18.68 16.66 -18 17 C-17.5859375 19.28515625 -17.5859375 19.28515625 -17.375 22.0625 C-17.30023438 22.98160156 -17.22546875 23.90070313 -17.1484375 24.84765625 C-17.09945312 25.55792969 -17.05046875 26.26820312 -17 27 C-9.19333553 25.55606056 -3.08785771 24.23838919 3 19 C2.58939856 16.12578994 2.07676923 14.12683612 0.5625 11.625 C-1.28447311 8.52208517 -2.11156009 5.48541812 -3 2 C-2.01 1.34 -1.02 0.68 0 0 Z " fill="#8FA782" transform="translate(65,46)"/>
<path d="M0 0 C0.66 0 1.32 0 2 0 C2 2.31 2 4.62 2 7 C1.01 7.495 1.01 7.495 0 8 C0 8.66 0 9.32 0 10 C0.66 10 1.32 10 2 10 C2.33 9.34 2.66 8.68 3 8 C3.33 8.99 3.66 9.98 4 11 C4.66 11 5.32 11 6 11 C6.33 10.34 6.66 9.68 7 9 C8.57432497 12.14864995 7.71895552 14.64487425 7 18 C6.01 18.66 5.02 19.32 4 20 C5.65 19.67 7.3 19.34 9 19 C8.85866501 17.22880197 8.71176792 15.45804713 8.5625 13.6875 C8.48128906 12.70136719 8.40007813 11.71523437 8.31640625 10.69921875 C8.08187441 7.90624401 8.08187441 7.90624401 7 5 C10.84232954 3.19184492 13.75929019 2.53060846 18 3 C20.125 4.87109375 20.125 4.87109375 22 7.4375 C22.6703125 8.34371094 23.340625 9.24992187 24.03125 10.18359375 C25.00578125 11.57771484 25.00578125 11.57771484 26 13 C26.6084375 13.85722656 27.216875 14.71445313 27.84375 15.59765625 C32 21.62617925 32 21.62617925 32 24 C32.66 24 33.32 24 34 24 C34 24.99 34 25.98 34 27 C35.98 26.67 37.96 26.34 40 26 C39.34 25.34 38.68 24.68 38 24 C37.21875 21.8984375 37.21875 21.8984375 36.5 19.375 C36.24605469 18.488125 35.99210937 17.60125 35.73046875 16.6875 C34.76532207 13.136586 33.86126312 9.57755452 33 6 C33.66 6 34.32 6 35 6 C35.495 8.475 35.495 8.475 36 11 C36.99 11 37.98 11 39 11 C40.40568804 12.94982535 41.7295036 14.95950578 43 17 C44.9445527 19.82865928 44.9445527 19.82865928 47 22 C47.99 22 48.98 22 50 22 C50.66666667 24 51.33333333 26 52 28 C50.845 28.61875 49.69 29.2375 48.5 29.875 C47.8503125 30.22304687 47.200625 30.57109375 46.53125 30.9296875 C39.85690195 33.75186553 33.47520765 34.38881295 26.3125 34.375 C25.43762939 34.37338867 24.56275879 34.37177734 23.66137695 34.37011719 C13.45546206 34.17856262 4.60745298 31.60485311 -4 26 C-3.0409375 24.63875 -3.0409375 24.63875 -2.0625 23.25 C-0.38571047 20.60778619 0.53689998 19.0101501 1 16 C0.01 15.67 -0.98 15.34 -2 15 C-2.6875 12.9375 -2.6875 12.9375 -3 11 C-5.64 11 -8.28 11 -11 11 C-11 10.01 -11 9.02 -11 8 C-9.02 7.67 -7.04 7.34 -5 7 C-5.33 7.66 -5.66 8.32 -6 9 C-4.68 8.67 -3.36 8.34 -2 8 C-1.34 5.36 -0.68 2.72 0 0 Z " fill="#E2E2E2" transform="translate(35,81)"/>
<path d="M0 0 C2.04119788 1.61594832 4.04072937 3.2856382 6 5 C6 5.66 6 6.32 6 7 C6.66 7 7.32 7 8 7 C7.67 5.68 7.34 4.36 7 3 C7.99 2.67 8.98 2.34 10 2 C10 3.0725 10 4.145 10 5.25 C10.54330203 8.96035333 10.54330203 8.96035333 12.63671875 10.07421875 C14.04082298 10.66527977 15.44720023 11.2509619 16.85546875 11.83203125 C20.61003958 13.87687037 22.90715926 17.3375287 25 21 C25 21.66 25 22.32 25 23 C23.02 23.99 23.02 23.99 21 25 C22.8571466 31.1307546 22.8571466 31.1307546 25.75 36.8125 C27 39 27 39 26.7734375 40.97265625 C25.39155974 44.59485098 22.27426853 46.15781711 19 48 C14.52611108 49.64827487 10.75504685 50.23195351 6 50 C4.04989228 45.18973428 3.63079979 40.70977622 3.34375 35.5859375 C2.99654444 32.97400474 2.31640581 31.26124547 1 29 C0.67 29.66 0.34 30.32 0 31 C-1.32 30.67 -2.64 30.34 -4 30 C-5.62549375 22.04921533 -5.62549375 22.04921533 -3.0625 17.75 C-2.381875 16.8425 -1.70125 15.935 -1 15 C-0.66290938 12.24741188 -0.66290938 12.24741188 -1 10 C-1.66 9.67 -2.32 9.34 -3 9 C-3 6.69 -3 4.38 -3 2 C-2.34 2.33 -1.68 2.66 -1 3 C-0.67 2.01 -0.34 1.02 0 0 Z " fill="#D6E6F0" transform="translate(42,23)"/>
<path d="M0 0 C41.91 0 83.82 0 127 0 C127 1.65 127 3.3 127 5 C85.09 5 43.18 5 0 5 C0 3.35 0 1.7 0 0 Z " fill="#F2F2F2" transform="translate(0,115)"/>
<path d="M0 0 C3 1 3 1 4.09765625 2.50390625 C7.16853154 9.05593572 7.90145234 15.50479668 8.60546875 22.62109375 C8.78966158 25.86304362 8.78966158 25.86304362 10 28 C10.7425 27.67 11.485 27.34 12.25 27 C15 26 15 26 19 26 C24.25786421 25.48283303 28.92020439 24.50512463 34 23 C35.99673484 22.64763503 37.99650739 22.31165441 40 22 C41.33783393 21.68521554 42.67203709 21.35412344 44 21 C45.051875 20.7525 45.051875 20.7525 46.125 20.5 C48.07081859 20.04861276 48.07081859 20.04861276 50 19 C49.67 21.97 49.34 24.94 49 28 C48.02160156 27.85691406 48.02160156 27.85691406 47.0234375 27.7109375 C45.71246094 27.54464844 45.71246094 27.54464844 44.375 27.375 C43.51648438 27.25898437 42.65796875 27.14296875 41.7734375 27.0234375 C38.46628674 26.99548975 36.11686883 27.91570274 33 29 C30.50810961 29.40732824 28.00669816 29.75935256 25.5 30.0625 C20.97889804 30.61844851 16.48786035 31.21739472 12 32 C12 32.66 12 33.32 12 34 C1.47519131 34.90644285 1.47519131 34.90644285 -1.9453125 32.8046875 C-3.3125 31.25 -3.3125 31.25 -5 28 C-4.77553565 25.34723954 -4.34995672 24.3189054 -2.37109375 22.515625 C-1.73300781 22.09796875 -1.09492187 21.6803125 -0.4375 21.25 C0.20316406 20.82203125 0.84382813 20.3940625 1.50390625 19.953125 C1.99761719 19.63859375 2.49132812 19.3240625 3 19 C2.58939856 16.12578994 2.07676923 14.12683612 0.5625 11.625 C-1.28447311 8.52208517 -2.11156009 5.48541812 -3 2 C-2.01 1.34 -1.02 0.68 0 0 Z " fill="#C6D2B5" transform="translate(65,46)"/>
<path d="M0 0 C0.66 0 1.32 0 2 0 C2 0.66 2 1.32 2 2 C4.97 2.495 4.97 2.495 8 3 C8.66 2.01 9.32 1.02 10 0 C10.99 0.33 11.98 0.66 13 1 C13.144375 2.051875 13.28875 3.10375 13.4375 4.1875 C13.98366985 10.17360243 13.98366985 10.17360243 17 15 C16.67 15.66 16.34 16.32 16 17 C19.72614153 15.88145414 19.72614153 15.88145414 22 13 C23.31244201 15.1616692 24.07179147 16.42338914 23.75390625 18.9765625 C22.40245512 22.6037733 19.26575151 24.16260899 16 26 C11.52611108 27.64827487 7.75504685 28.23195351 3 28 C0.91613111 22.72086547 0.42089996 17.60461531 0 12 C0.33 12.66 0.66 13.32 1 14 C3.64 13.67 6.28 13.34 9 13 C8.01 12.67 7.02 12.34 6 12 C6.33 10.68 6.66 9.36 7 8 C4.69 7.34 2.38 6.68 0 6 C0.33 5.01 0.66 4.02 1 3 C0.67 2.01 0.34 1.02 0 0 Z " fill="#CFE1EB" transform="translate(45,45)"/>
<path d="M0 0 C1 2 1 2 0.44140625 3.9453125 C0.15136719 4.66460937 -0.13867188 5.38390625 -0.4375 6.125 C-0.86869141 7.21167969 -0.86869141 7.21167969 -1.30859375 8.3203125 C-1.53675781 8.87460938 -1.76492187 9.42890625 -2 10 C-2.495 9.01 -2.495 9.01 -3 8 C-4.7290774 7.97274659 -6.45828176 7.95349013 -8.1875 7.9375 C-9.15042969 7.92589844 -10.11335938 7.91429688 -11.10546875 7.90234375 C-13.86554664 7.99546379 -16.30164499 8.45344324 -19 9 C-20.66614608 9.04165365 -22.33385392 9.04165365 -24 9 C-27.48143196 8.95843066 -30.6113053 9.09634808 -34 10 C-33.67 11.32 -33.34 12.64 -33 14 C-32.34 14 -31.68 14 -31 14 C-30.67 15.65 -30.34 17.3 -30 19 C-31.875 19.625 -31.875 19.625 -34 20 C-36.35371788 17.64628212 -38.43532537 15.11652125 -40.5625 12.55859375 C-41.93659212 10.88408658 -41.93659212 10.88408658 -44 10 C-44 9.34 -44 8.68 -44 8 C-44.99 8 -45.98 8 -47 8 C-47 7.34 -47 6.68 -47 6 C-45.54176788 5.9729957 -44.08339325 5.95360213 -42.625 5.9375 C-41.81289062 5.92589844 -41.00078125 5.91429688 -40.1640625 5.90234375 C-38 6 -38 6 -36 7 C-36 6.34 -36 5.68 -36 5 C-29.71285083 3.09951194 -23.75611368 1.73816799 -17.203125 1.25390625 C-14.80675887 1.06519475 -14.80675887 1.06519475 -11.9375 -0.125 C-7.90306126 -1.32674771 -4.07289906 -1.06324102 0 0 Z " fill="#B7C6B3" transform="translate(113,73)"/>
<path d="M0 0 C1.00289062 0.10183594 2.00578125 0.20367187 3.0390625 0.30859375 C3.80992188 0.39238281 4.58078125 0.47617188 5.375 0.5625 C5.87 2.0475 5.87 2.0475 6.375 3.5625 C4.875 6.1875 4.875 6.1875 2.375 8.5625 C-1.375 9.375 -1.375 9.375 -4.625 9.5625 C-4.955 12.2025 -5.285 14.8425 -5.625 17.5625 C-7.605 17.8925 -9.585 18.2225 -11.625 18.5625 C-11.625 19.2225 -11.625 19.8825 -11.625 20.5625 C-13.605 21.5525 -13.605 21.5525 -15.625 22.5625 C-16.285 21.2425 -16.945 19.9225 -17.625 18.5625 C-16.965 17.9025 -16.305 17.2425 -15.625 16.5625 C-14.305 16.5625 -12.985 16.5625 -11.625 16.5625 C-11.625 13.9225 -11.625 11.2825 -11.625 8.5625 C-13.275 8.5625 -14.925 8.5625 -16.625 8.5625 C-16.625 10.8725 -16.625 13.1825 -16.625 15.5625 C-17.285 15.5625 -17.945 15.5625 -18.625 15.5625 C-20.91513653 12.1272952 -20.80342973 10.577169 -20.625 6.5625 C-21.945 6.5625 -23.265 6.5625 -24.625 6.5625 C-25.285 4.9125 -25.945 3.2625 -26.625 1.5625 C-14.93145161 0.48723118 -14.93145161 0.48723118 -10.5 0.5625 C-6.67044976 0.5625 -4.02028034 -0.42072701 0 0 Z " fill="#E9EBE7" transform="translate(104.625,80.4375)"/>
<path d="M0 0 C-2.83151379 8.38967048 -10.34764567 15.73234086 -18 20 C-20.9375 19.8125 -20.9375 19.8125 -23 19 C-22.67 17.68 -22.34 16.36 -22 15 C-23.32 15.33 -24.64 15.66 -26 16 C-27.98 12.535 -27.98 12.535 -30 9 C-28.02 8.67 -26.04 8.34 -24 8 C-24.33 7.01 -24.66 6.02 -25 5 C-23.68 5.33 -22.36 5.66 -21 6 C-21 6.66 -21 7.32 -21 8 C-20.34 8 -19.68 8 -19 8 C-19 5.69 -19 3.38 -19 1 C-17.35 1 -15.7 1 -14 1 C-14 3.64 -14 6.28 -14 9 C-15.65 9.66 -17.3 10.32 -19 11 C-18.01 12.485 -18.01 12.485 -17 14 C-16.62875 13.34 -16.2575 12.68 -15.875 12 C-14 10 -14 10 -10.8125 9.75 C-9.884375 9.8325 -8.95625 9.915 -8 10 C-8.061875 8.72125 -8.12375 7.4425 -8.1875 6.125 C-8.29296875 3.9453125 -8.29296875 3.9453125 -8 2 C-4.77208445 -0.1519437 -3.71599191 -0.20086443 0 0 Z " fill="#B5C6AA" transform="translate(107,88)"/>
<path d="M0 0 C2.2477975 2.05233685 3.0022242 3.00667261 4 6 C3.5625 8.6875 3.5625 8.6875 3 11 C3.66 11.33 4.32 11.66 5 12 C5.4140625 14.28515625 5.4140625 14.28515625 5.625 17.0625 C5.69976562 17.98160156 5.77453125 18.90070313 5.8515625 19.84765625 C5.90054688 20.55792969 5.94953125 21.26820312 6 22 C7.216875 21.67 8.43375 21.34 9.6875 21 C12.87210604 20.19677787 15.6972843 19.79358027 19 20 C18.67 20.99 18.34 21.98 18 23 C18.66 23.33 19.32 23.66 20 24 C20.8515625 25.84765625 20.8515625 25.84765625 21.625 28.0625 C21.88539062 28.79597656 22.14578125 29.52945313 22.4140625 30.28515625 C22.60742188 30.85105469 22.80078125 31.41695312 23 32 C20.36 32.33 17.72 32.66 15 33 C14.67 32.34 14.34 31.68 14 31 C13.67 31.33 13.34 31.66 13 32 C11.33382885 32.04063832 9.66611905 32.042721 8 32 C7.69707031 31.10539062 7.39414062 30.21078125 7.08203125 29.2890625 C4.76487248 22.60138581 2.36300089 16.29759544 -1.08203125 10.0859375 C-2 8 -2 8 -2 4 C-2.66 4 -3.32 4 -4 4 C-3.67 3.34 -3.34 2.68 -3 2 C-2.01 2.33 -1.02 2.66 0 3 C0 2.01 0 1.02 0 0 Z " fill="#A7BF99" transform="translate(42,51)"/>
<path d="M0 0 C0.66 0 1.32 0 2 0 C2.33 1.65 2.66 3.3 3 5 C3.99 5 4.98 5 6 5 C7.40568804 6.94982535 8.7295036 8.95950578 10 11 C11.9445527 13.82865928 11.9445527 13.82865928 14 16 C14.99 16 15.98 16 17 16 C17.66666667 18 18.33333333 20 19 22 C14.44806142 23.84245133 11.76740186 23.91290674 7 23 C4.44063441 23.32852082 4.44063441 23.32852082 2 24 C0.33333333 24.33333333 -1.33333333 24.66666667 -3 25 C-3 23.68 -3 22.36 -3 21 C-1 19.25 -1 19.25 1 18 C1 18.99 1 19.98 1 21 C2.98 20.67 4.96 20.34 7 20 C6.34 19.34 5.68 18.68 5 18 C4.21875 15.8984375 4.21875 15.8984375 3.5 13.375 C3.24605469 12.488125 2.99210937 11.60125 2.73046875 10.6875 C1.76532207 7.136586 0.86126312 3.57755452 0 0 Z " fill="#BEC6B6" transform="translate(68,87)"/>
<path d="M0 0 C3 0 3 0 4.6875 1.5 C5.120625 1.995 5.55375 2.49 6 3 C6.99 2.67 7.98 2.34 9 2 C9 2.66 9 3.32 9 4 C11.64 4 14.28 4 17 4 C17.48648649 11.2972973 17.48648649 11.2972973 15.3125 14.4375 C12.81374721 16.12584648 10.97752446 16.66916395 8 17 C8.66 16.01 9.32 15.02 10 14 C8.02 13.34 6.04 12.68 4 12 C3.34 12.66 2.68 13.32 2 14 C-0.24281523 8.79666866 -1.55577239 5.65735415 0 0 Z " fill="#242A33" transform="translate(18,74)"/>
<path d="M0 0 C1.10844919 3.32534757 0.84454356 5.62182575 0 9 C-0.97839844 8.85691406 -0.97839844 8.85691406 -1.9765625 8.7109375 C-3.28753906 8.54464844 -3.28753906 8.54464844 -4.625 8.375 C-5.48351562 8.25898437 -6.34203125 8.14296875 -7.2265625 8.0234375 C-10.5323328 7.99550141 -12.88393217 8.91851828 -16 10 C-18.47182984 10.38397357 -20.95230114 10.71510515 -23.4375 11 C-28.52242235 11.58411416 -33.13036739 12.49198474 -38 14 C-38.66 12.68 -39.32 11.36 -40 10 C-38.1875 8.4375 -38.1875 8.4375 -36 7 C-35.01 7.33 -34.02 7.66 -33 8 C-26.85752308 7.32511002 -20.91521787 5.73976996 -15 4 C-13.00326516 3.64763503 -11.00349261 3.31165441 -9 3 C-7.66216607 2.68521554 -6.32796291 2.35412344 -5 2 C-4.278125 1.835 -3.55625 1.67 -2.8125 1.5 C-0.99436859 1.15890376 -0.99436859 1.15890376 0 0 Z " fill="#90A897" transform="translate(114,65)"/>
<path d="M0 0 C0.66 0 1.32 0 2 0 C2 0.66 2 1.32 2 2 C4.97 2.495 4.97 2.495 8 3 C8.66 2.01 9.32 1.02 10 0 C10.99 0.33 11.98 0.66 13 1 C13.144375 2.051875 13.28875 3.10375 13.4375 4.1875 C13.98366985 10.17360243 13.98366985 10.17360243 17 15 C16.67 15.99 16.34 16.98 16 18 C17.32 18 18.64 18 20 18 C20 18.66 20 19.32 20 20 C18.35 19.67 16.7 19.34 15 19 C14.67 18.01 14.34 17.02 14 16 C11.98491642 15.26676204 11.98491642 15.26676204 10 15 C10.33 15.66 10.66 16.32 11 17 C11.66 17 12.32 17 13 17 C14 20 14 20 13.0625 22.1875 C12.711875 22.785625 12.36125 23.38375 12 24 C11.34 24 10.68 24 10 24 C10.33 22.35 10.66 20.7 11 19 C10.38125 19.185625 9.7625 19.37125 9.125 19.5625 C7 20 7 20 5 19 C5 17.02 5 15.04 5 13 C6.32 13 7.64 13 9 13 C8.01 12.67 7.02 12.34 6 12 C6.33 10.68 6.66 9.36 7 8 C4.69 7.34 2.38 6.68 0 6 C0.33 5.01 0.66 4.02 1 3 C0.67 2.01 0.34 1.02 0 0 Z " fill="#E0EFF8" transform="translate(45,45)"/>
<path d="M0 0 C2.04119788 1.61594832 4.04072937 3.2856382 6 5 C6 5.66 6 6.32 6 7 C6.66 7 7.32 7 8 7 C7.67 5.68 7.34 4.36 7 3 C7.99 2.67 8.98 2.34 10 2 C10.33 4.31 10.66 6.62 11 9 C13.475 9.99 13.475 9.99 16 11 C14.1875 12.5625 14.1875 12.5625 12 14 C11.01 13.67 10.02 13.34 9 13 C8.67 14.65 8.34 16.3 8 18 C5.0625 17.1875 5.0625 17.1875 2 16 C1.67 15.01 1.34 14.02 1 13 C0.34 13 -0.32 13 -1 13 C-1 12.01 -1 11.02 -1 10 C-1.66 9.67 -2.32 9.34 -3 9 C-3 6.69 -3 4.38 -3 2 C-2.01 2.495 -2.01 2.495 -1 3 C-0.67 2.01 -0.34 1.02 0 0 Z " fill="#859E97" transform="translate(42,23)"/>
<path d="M0 0 C2.66077956 9.51372259 2.66077956 9.51372259 0.625 14.125 C0.08875 15.07375 -0.4475 16.0225 -1 17 C-4.3 15.35 -7.6 13.7 -11 12 C-10.67 11.01 -10.34 10.02 -10 9 C-10.66 9 -11.32 9 -12 9 C-12 8.34 -12 7.68 -12 7 C-11.34 6.67 -10.68 6.34 -10 6 C-9.67 5.01 -9.34 4.02 -9 3 C-2.88888889 0 -2.88888889 0 0 0 Z " fill="#EAF0EF" transform="translate(43,10)"/>
<path d="M0 0 C0.66 0 1.32 0 2 0 C2 2.31 2 4.62 2 7 C1.01 7.495 1.01 7.495 0 8 C0 8.66 0 9.32 0 10 C0.66 10 1.32 10 2 10 C2.33 9.34 2.66 8.68 3 8 C3.33 8.99 3.66 9.98 4 11 C4.66 11 5.32 11 6 11 C6.33 10.34 6.66 9.68 7 9 C8.57432497 12.14864995 7.71895552 14.64487425 7 18 C6.01 18.66 5.02 19.32 4 20 C4.33 20.66 4.66 21.32 5 22 C3.35 21.67 1.7 21.34 0 21 C0.33 19.35 0.66 17.7 1 16 C0.01 15.67 -0.98 15.34 -2 15 C-2.6875 12.9375 -2.6875 12.9375 -3 11 C-5.64 11 -8.28 11 -11 11 C-11 10.01 -11 9.02 -11 8 C-9.02 7.67 -7.04 7.34 -5 7 C-5.33 7.66 -5.66 8.32 -6 9 C-4.68 8.67 -3.36 8.34 -2 8 C-1.34 5.36 -0.68 2.72 0 0 Z " fill="#9BA193" transform="translate(35,81)"/>
<path d="M0 0 C-3.18762365 2.12508244 -5.26512223 2.5020163 -9 3 C-8.67 5.31 -8.34 7.62 -8 10 C-7.34 10 -6.68 10 -6 10 C-5.67 11.65 -5.34 13.3 -5 15 C-6.875 15.625 -6.875 15.625 -9 16 C-11.35371788 13.64628212 -13.43532537 11.11652125 -15.5625 8.55859375 C-16.93659212 6.88408658 -16.93659212 6.88408658 -19 6 C-19 5.34 -19 4.68 -19 4 C-19.99 4 -20.98 4 -22 4 C-22 3.34 -22 2.68 -22 2 C-20.54176788 1.9729957 -19.08339325 1.95360213 -17.625 1.9375 C-16.81289062 1.92589844 -16.00078125 1.91429688 -15.1640625 1.90234375 C-13 2 -13 2 -11 3 C-11 2.34 -11 1.68 -11 1 C-6.87831311 -0.62950412 -4.29299643 -1.26264601 0 0 Z " fill="#BFCCAF" transform="translate(88,77)"/>
<path d="M0 0 C0.89203125 0.00902344 1.7840625 0.01804687 2.703125 0.02734375 C3.37859375 0.03894531 4.0540625 0.05054687 4.75 0.0625 C5.94876651 5.51143869 5.66360308 8.28419095 2.75 13.0625 C-0.64859703 11.59283642 -2.89963709 9.68212486 -5.5 7.0625 C-6.20640625 6.36125 -6.9128125 5.66 -7.640625 4.9375 C-9.25 3.0625 -9.25 3.0625 -9.25 1.0625 C-6.09493858 0.12630187 -3.28413498 -0.0432123 0 0 Z " fill="#DBDBE7" transform="translate(27.25,91.9375)"/>
<path d="M0 0 C0 0.33 0 0.66 0 1 C-1.10408203 1.02126953 -1.10408203 1.02126953 -2.23046875 1.04296875 C-8.60059947 1.25807745 -8.60059947 1.25807745 -13.9375 4.4375 C-14.618125 5.283125 -15.29875 6.12875 -16 7 C-16.68707031 7.27714844 -17.37414063 7.55429688 -18.08203125 7.83984375 C-20.2581791 8.85021554 -20.2581791 8.85021554 -20.609375 11.3828125 C-20.65578125 12.28773437 -20.7021875 13.19265625 -20.75 14.125 C-20.80671875 15.03507812 -20.8634375 15.94515625 -20.921875 16.8828125 C-20.94765625 17.58148437 -20.9734375 18.28015625 -21 19 C-22.32 18.67 -23.64 18.34 -25 18 C-24.814375 16.824375 -24.62875 15.64875 -24.4375 14.4375 C-23.91769004 10.38731406 -24.2497646 7.00125547 -25 3 C-16.64126728 -0.58231402 -8.92014943 -0.29551415 0 0 Z " fill="#37404C" transform="translate(68,7)"/>
<path d="M0 0 C3 1 3 1 4.1328125 2.92578125 C4.62394531 4.10720703 4.62394531 4.10720703 5.125 5.3125 C5.45757812 6.09238281 5.79015625 6.87226562 6.1328125 7.67578125 C7.55762996 11.49454876 8.12253558 14.66758088 8.0625 18.75 C8.05347656 19.54921875 8.04445313 20.3484375 8.03515625 21.171875 C8.02355469 21.77515625 8.01195313 22.3784375 8 23 C1.75909422 17.91481751 -1.17648617 9.62560328 -3 2 C-2.01 1.34 -1.02 0.68 0 0 Z " fill="#595850" transform="translate(65,46)"/>
<path d="M0 0 C-2.88790958 8.55676913 -10.3852141 15.43112846 -18 20 C-18.99 20 -19.98 20 -21 20 C-21 18.68 -21 17.36 -21 16 C-19.68 16 -18.36 16 -17 16 C-16.690625 15.195625 -16.38125 14.39125 -16.0625 13.5625 C-15 11 -15 11 -14 10 C-12.00041636 9.95919217 -9.99954746 9.95745644 -8 10 C-8.061875 8.72125 -8.12375 7.4425 -8.1875 6.125 C-8.29296875 3.9453125 -8.29296875 3.9453125 -8 2 C-4.77208445 -0.1519437 -3.71599191 -0.20086443 0 0 Z " fill="#D2D4CD" transform="translate(107,88)"/>
<path d="M0 0 C2.2477975 2.05233685 3.0022242 3.00667261 4 6 C3.5625 8.6875 3.5625 8.6875 3 11 C3.66 11.33 4.32 11.66 5 12 C5.4140625 14.28515625 5.4140625 14.28515625 5.625 17.0625 C5.69976562 17.98160156 5.77453125 18.90070313 5.8515625 19.84765625 C5.90054688 20.55792969 5.94953125 21.26820312 6 22 C7.216875 21.67 8.43375 21.34 9.6875 21 C12.87210604 20.19677787 15.6972843 19.79358027 19 20 C17.29171079 22.10633718 16.47851584 22.93801608 13.73828125 23.29296875 C12.93777344 23.25816406 12.13726562 23.22335938 11.3125 23.1875 C10.50425781 23.16042969 9.69601563 23.13335937 8.86328125 23.10546875 C8.24839844 23.07066406 7.63351563 23.03585938 7 23 C6.67 24.32 6.34 25.64 6 27 C5.67386719 26.13117188 5.34773438 25.26234375 5.01171875 24.3671875 C4.57472656 23.21476562 4.13773438 22.06234375 3.6875 20.875 C3.25824219 19.73804687 2.82898437 18.60109375 2.38671875 17.4296875 C1.06209688 13.99120489 1.06209688 13.99120489 -0.66796875 10.8203125 C-2 8 -2 8 -2 4 C-2.66 4 -3.32 4 -4 4 C-3.67 3.34 -3.34 2.68 -3 2 C-2.01 2.33 -1.02 2.66 0 3 C0 2.01 0 1.02 0 0 Z " fill="#B9AE95" transform="translate(42,51)"/>
<path d="M0 0 C3.5625 0.3125 3.5625 0.3125 5.5625 1.3125 C7.24002669 4.66755337 6.21613227 7.68781195 5.5625 11.3125 C3.5825 11.6425 1.6025 11.9725 -0.4375 12.3125 C-0.4375 12.9725 -0.4375 13.6325 -0.4375 14.3125 C-2.4175 15.3025 -2.4175 15.3025 -4.4375 16.3125 C-5.0975 14.9925 -5.7575 13.6725 -6.4375 12.3125 C-5.7775 11.6525 -5.1175 10.9925 -4.4375 10.3125 C-3.1175 10.3125 -1.7975 10.3125 -0.4375 10.3125 C-0.4375 7.6725 -0.4375 5.0325 -0.4375 2.3125 C-2.0875 2.3125 -3.7375 2.3125 -5.4375 2.3125 C-3.4375 0.3125 -3.4375 0.3125 0 0 Z " fill="#D9DBDD" transform="translate(93.4375,86.6875)"/>
<path d="M0 0 C2.64 0 5.28 0 8 0 C8 0.66 8 1.32 8 2 C16.415 1.505 16.415 1.505 25 1 C24.67 1.99 24.34 2.98 24 4 C23.00419922 4.09087891 23.00419922 4.09087891 21.98828125 4.18359375 C21.10527344 4.26738281 20.22226563 4.35117188 19.3125 4.4375 C18.00732422 4.55931641 18.00732422 4.55931641 16.67578125 4.68359375 C14.04019797 4.94776362 14.04019797 4.94776362 11.65625 5.53125 C8.16104604 6.1480507 4.72241238 6.10647499 1.1875 6.0625 C0.49462891 6.05798828 -0.19824219 6.05347656 -0.91210938 6.04882812 C-2.60811068 6.03713156 -4.30406703 6.01919924 -6 6 C-6 5.34 -6 4.68 -6 4 C-4.02 3.34 -2.04 2.68 0 2 C0 1.34 0 0.68 0 0 Z " fill="#CDD2C7" transform="translate(85,76)"/>
<path d="M0 0 C0.66 0 1.32 0 2 0 C2.33 1.65 2.66 3.3 3 5 C3.99 5 4.98 5 6 5 C8 7.75 8 7.75 10 11 C10.5775 11.721875 11.155 12.44375 11.75 13.1875 C13 15 13 15 13 18 C10.36 18 7.72 18 5 18 C3.16597696 12.03331172 1.46110748 6.06921567 0 0 Z " fill="#DEE0DB" transform="translate(68,87)"/>
<path d="M0 0 C0.66 0 1.32 0 2 0 C2.08004482 3.5219721 2.04005702 6.61981469 1 10 C-1.44507934 10.87324262 -2.67700322 11.10151327 -5.1875 10.3125 C-7 9 -7 9 -7.75 6.875 C-7.87375 5.946875 -7.87375 5.946875 -8 5 C-8.99 5 -9.98 5 -11 5 C-11.33 3.68 -11.66 2.36 -12 1 C-9.1875 0.8125 -9.1875 0.8125 -6 1 C-4.3125 2.5 -4.3125 2.5 -3 4 C-2.01 4 -1.02 4 0 4 C0 2.68 0 1.36 0 0 Z " fill="#A2B399" transform="translate(82,87)"/>
<path d="M0 0 C0.99 0.33 1.98 0.66 3 1 C3.6875 3.0625 3.6875 3.0625 4 5 C5.32 5.33 6.64 5.66 8 6 C8.33 9.63 8.66 13.26 9 17 C6 19 6 19 3.8125 18.625 C2.9153125 18.315625 2.9153125 18.315625 2 18 C3.32 17.34 4.64 16.68 6 16 C6 15.34 6 14.68 6 14 C5.34 13.67 4.68 13.34 4 13 C4.66 13 5.32 13 6 13 C6 11.35 6 9.7 6 8 C5.01 8.33 4.02 8.66 3 9 C2.67 8.34 2.34 7.68 2 7 C1.01 7.33 0.02 7.66 -1 8 C-1.33 7.01 -1.66 6.02 -2 5 C-1.34 4.67 -0.68 4.34 0 4 C0 2.68 0 1.36 0 0 Z " fill="#3D493F" transform="translate(36,83)"/>
<path d="M0 0 C3 0 3 0 4.6875 1.5 C5.120625 1.995 5.55375 2.49 6 3 C6.99 2.67 7.98 2.34 9 2 C9 2.66 9 3.32 9 4 C9.66 4.33 10.32 4.66 11 5 C10.01 5.495 10.01 5.495 9 6 C9 7.65 9 9.3 9 11 C8.34 9.68 7.68 8.36 7 7 C5.35 7.33 3.7 7.66 2 8 C1.67 8.99 1.34 9.98 1 11 C-1.03684712 6.92630576 -1.0257259 4.41062136 0 0 Z " fill="#677483" transform="translate(18,74)"/>
<path d="M0 0 C3.00617269 3.00617269 2.59585316 5.82381598 3 10 C3.99 10.33 4.98 10.66 6 11 C5.67 11.66 5.34 12.32 5 13 C3.02 13 1.04 13 -1 13 C-1 12.01 -1 11.02 -1 10 C-1.66 9.67 -2.32 9.34 -3 9 C-2.773125 8.401875 -2.54625 7.80375 -2.3125 7.1875 C-2.209375 6.465625 -2.10625 5.74375 -2 5 C-3.35444301 3.22809091 -3.35444301 3.22809091 -5 2 C-3.35 1.34 -1.7 0.68 0 0 Z " fill="#93A587" transform="translate(70,95)"/>
<path d="M0 0 C0.99 0.33 1.98 0.66 3 1 C4.134375 0.835 5.26875 0.67 6.4375 0.5 C9.532533 0.0656094 11.13732332 -0.0305636 14 1 C10.7665725 3.80178062 7.89551231 4.74124175 3.75 5.6875 C2.67234375 5.93886719 1.5946875 6.19023438 0.484375 6.44921875 C-0.74539062 6.72185547 -0.74539062 6.72185547 -2 7 C-2.66 5.68 -3.32 4.36 -4 3 C-2.1875 1.4375 -2.1875 1.4375 0 0 Z " fill="#607867" transform="translate(78,72)"/>
<path d="M0 0 C2.4375 0.75 2.4375 0.75 5 2 C5.8125 4.125 5.8125 4.125 6 6 C7.65 5.67 9.3 5.34 11 5 C11.99 6.485 11.99 6.485 13 8 C11.02 8.99 11.02 8.99 9 10 C11.475 10.99 11.475 10.99 14 12 C13.01 12.33 12.02 12.66 11 13 C10.67 13.99 10.34 14.98 10 16 C9.52949219 15.32453125 9.05898437 14.6490625 8.57421875 13.953125 C7.95160156 13.06109375 7.32898438 12.1690625 6.6875 11.25 C6.07261719 10.36828125 5.45773438 9.4865625 4.82421875 8.578125 C3.6771203 6.95695803 2.49625243 5.35865998 1.26953125 3.796875 C0 2 0 2 0 0 Z " fill="#88A27A" transform="translate(57,88)"/>
<path d="M0 0 C1.32 0.33 2.64 0.66 4 1 C3.01 3.97 2.02 6.94 1 10 C0.67 9.34 0.34 8.68 0 8 C-1.98 8 -3.96 8 -6 8 C-6 7.67 -6 7.34 -6 7 C-4.35 7 -2.7 7 -1 7 C-1.33 6.34 -1.66 5.68 -2 5 C-5.63 5 -9.26 5 -13 5 C-13 4.67 -13 4.34 -13 4 C-11.783125 3.896875 -10.56625 3.79375 -9.3125 3.6875 C-5.53302592 3.24089548 -3.24773483 1.98472684 0 0 Z " fill="#C5C9BB" transform="translate(110,73)"/>
<path d="M0 0 C1.66611905 -0.042721 3.33382885 -0.04063832 5 0 C5.33 0.33 5.66 0.66 6 1 C8.33297433 1.04092937 10.66705225 1.04241723 13 1 C11.1875 2.5625 11.1875 2.5625 9 4 C8.01 3.67 7.02 3.34 6 3 C5.67 4.65 5.34 6.3 5 8 C3.02 7.34 1.04 6.68 -1 6 C-0.67 4.02 -0.34 2.04 0 0 Z " fill="#D1C5A9" transform="translate(45,33)"/>
<path d="M0 0 C0.721875 0.144375 1.44375 0.28875 2.1875 0.4375 C3.99841516 0.79968303 5.8108384 1.15444541 7.625 1.5 C10 2 10 2 13 3 C13.33 4.98 13.66 6.96 14 9 C11.69 8.67 9.38 8.34 7 8 C7 7.34 7 6.68 7 6 C4.71546567 4.85773284 2.37491201 3.93746527 0 3 C0 2.01 0 1.02 0 0 Z " fill="#ABC3A0" transform="translate(56,86)"/>
<path d="M0 0 C0.33 1.32 0.66 2.64 1 4 C-3.64849515 6.3992233 -7.91086074 6.19957409 -13 6 C-12.67 5.34 -12.34 4.68 -12 4 C-11.34 4 -10.68 4 -10 4 C-9.67 3.01 -9.34 2.02 -9 1 C-6.03421164 -0.16513114 -3.15436364 -0.08762121 0 0 Z " fill="#7C9D8B" transform="translate(102,69)"/>
<path d="M0 0 C0.33 0.66 0.66 1.32 1 2 C2.32 2 3.64 2 5 2 C5 3.65 5 5.3 5 7 C5.66 7 6.32 7 7 7 C6.34 8.65 5.68 10.3 5 12 C4.01 12 3.02 12 2 12 C0.70756464 7.8803623 -0.26252625 4.33168317 0 0 Z " fill="#BFD7E1" transform="translate(45,57)"/>
<path d="M0 0 C0 0.99 0 1.98 0 3 C-0.66 3 -1.32 3 -2 3 C-2 3.66 -2 4.32 -2 5 C-1.34 5 -0.68 5 0 5 C-1.32882766 7.65765532 -2.5940386 7.82964912 -5.3125 8.9375 C-8.55546753 10.3162776 -11.31585735 11.66596291 -14 14 C-12.4561393 10.16666407 -10.07543723 8.01691792 -7 5.3125 C-6.113125 4.52488281 -5.22625 3.73726562 -4.3125 2.92578125 C-2 1 -2 1 0 0 Z " fill="#596E79" transform="translate(33,14)"/>
<path d="M0 0 C2.97 0 5.94 0 9 0 C9 0.66 9 1.32 9 2 C9.99 2.33 10.98 2.66 12 3 C9.04335481 4.4783226 6.25770263 4.06032783 3 4 C3 5.65 3 7.3 3 9 C2.34 9 1.68 9 1 9 C0.67 6.03 0.34 3.06 0 0 Z " fill="#C9D3BB" transform="translate(49,74)"/>
<path d="M0 0 C-1.3937282 4.43458973 -3.60582235 6.87378374 -7 10 C-7 7.03 -7 4.06 -7 1 C-4.53721199 -0.231394 -2.7204945 -0.07159196 0 0 Z " fill="#576466" transform="translate(107,88)"/>
<path d="M0 0 C1.875 0.3125 1.875 0.3125 4 1 C6.67927341 5.01891012 6.15601248 7.24161923 6 12 C3.37591634 9.62582907 1.61386598 7.15088121 0 4 C0 2.68 0 1.36 0 0 Z " fill="#BBAF98" transform="translate(65,49)"/>
<path d="M0 0 C3.465 1.98 3.465 1.98 7 4 C7 4.66 7 5.32 7 6 C7.61875 6.2475 8.2375 6.495 8.875 6.75 C11.35068687 8.20628639 11.95125002 9.37812506 13 12 C9.12979331 10.88194029 6.71218579 9.9704892 4 7 C3.01 6.67 2.02 6.34 1 6 C1 5.01 1 4.02 1 3 C0.67 2.01 0.34 1.02 0 0 Z " fill="#829A74" transform="translate(62,77)"/>
<path d="M0 0 C2.31 0.33 4.62 0.66 7 1 C7.33 1.99 7.66 2.98 8 4 C7.34 4 6.68 4 6 4 C6 5.98 6 7.96 6 10 C5.34 10 4.68 10 4 10 C4 9.34 4 8.68 4 8 C3.34 8 2.68 8 2 8 C2 7.01 2 6.02 2 5 C1.34 4.67 0.68 4.34 0 4 C0 2.68 0 1.36 0 0 Z " fill="#808278" transform="translate(39,28)"/>
<path d="M0 0 C1.98 0 3.96 0 6 0 C5.01 1.485 5.01 1.485 4 3 C6.31 3 8.62 3 11 3 C11.66 4.32 12.32 5.64 13 7 C11.68 7 10.36 7 9 7 C8.67 7.99 8.34 8.98 8 10 C7.67 9.34 7.34 8.68 7 8 C7.33 7.34 7.66 6.68 8 6 C6.68 6.33 5.36 6.66 4 7 C2.02 3.535 2.02 3.535 0 0 Z " fill="#809976" transform="translate(77,97)"/>
<path d="M0 0 C0.33 0 0.66 0 1 0 C1 1.98 1 3.96 1 6 C1.99 6.33 2.98 6.66 4 7 C3.6875 10.375 3.6875 10.375 3 14 C2.01 14.66 1.02 15.32 0 16 C0 13.33333333 0 10.66666667 0 8 C-0.66 8 -1.32 8 -2 8 C-2 7.01 -2 6.02 -2 5 C-1.34 5 -0.68 5 0 5 C0 3.35 0 1.7 0 0 Z " fill="#202E40" transform="translate(38,26)"/>
<path d="M0 0 C1.65 0 3.3 0 5 0 C5 2.64 5 5.28 5 8 C3.35 7.67 1.7 7.34 0 7 C0 4.69 0 2.38 0 0 Z " fill="#293741" transform="translate(88,89)"/>
<path d="M0 0 C0.99 0.33 1.98 0.66 3 1 C2.5020163 4.73487777 2.12508244 6.81237635 0 10 C-0.99 10 -1.98 10 -3 10 C-2.39009109 6.44219804 -1.4216319 3.3171411 0 0 Z " fill="#EBEFF7" transform="translate(33,96)"/>
<path d="M0 0 C5.53846154 -0.36923077 5.53846154 -0.36923077 7.875 1.5 C8.24625 1.995 8.6175 2.49 9 3 C8.67 3.99 8.34 4.98 8 6 C7.01 6.33 6.02 6.66 5 7 C4.67 6.01 4.34 5.02 4 4 C3.01 4 2.02 4 1 4 C0.67 2.68 0.34 1.36 0 0 Z " fill="#91A988" transform="translate(70,88)"/>
<path d="M0 0 C2.2477975 2.05233685 3.0022242 3.00667261 4 6 C3.01 7.485 3.01 7.485 2 9 C0.68 8.67 -0.64 8.34 -2 8 C-2 6.68 -2 5.36 -2 4 C-2.66 4 -3.32 4 -4 4 C-3.67 3.34 -3.34 2.68 -3 2 C-2.01 2.33 -1.02 2.66 0 3 C0 2.01 0 1.02 0 0 Z " fill="#78807E" transform="translate(42,51)"/>
<path d="M0 0 C0.99 0.33 1.98 0.66 3 1 C3.144375 1.639375 3.28875 2.27875 3.4375 2.9375 C3.80104993 5.20311706 3.80104993 5.20311706 6.0625 6.25 C6.701875 6.4975 7.34125 6.745 8 7 C6.35 7.66 4.7 8.32 3 9 C2.67 8.34 2.34 7.68 2 7 C1.01 7.33 0.02 7.66 -1 8 C-1.33 7.01 -1.66 6.02 -2 5 C-1.34 4.67 -0.68 4.34 0 4 C0 2.68 0 1.36 0 0 Z " fill="#4E5B53" transform="translate(36,83)"/>
<path d="M0 0 C0.33 1.32 0.66 2.64 1 4 C1.66 4 2.32 4 3 4 C2.67 4.66 2.34 5.32 2 6 C1.21625 5.79375 0.4325 5.5875 -0.375 5.375 C-1.674375 5.189375 -1.674375 5.189375 -3 5 C-3.66 5.66 -4.32 6.32 -5 7 C-5 5.02 -5 3.04 -5 1 C-3 0 -3 0 0 0 Z " fill="#2F3545" transform="translate(25,81)"/>
<path d="M0 0 C2.64 0 5.28 0 8 0 C8.33 0.66 8.66 1.32 9 2 C7.68 2 6.36 2 5 2 C4.34 3.32 3.68 4.64 3 6 C2.01 5.67 1.02 5.34 0 5 C0 3.35 0 1.7 0 0 Z " fill="#BDCAA8" transform="translate(51,77)"/>
<path d="M0 0 C0.66 0.33 1.32 0.66 2 1 C1.2575 2.11375 1.2575 2.11375 0.5 3.25 C-1.31923475 6.06318188 -1.31923475 6.06318188 -1 10 C-0.34 10 0.32 10 1 10 C1 10.66 1 11.32 1 12 C-1.475 11.01 -1.475 11.01 -4 10 C-3.67 9.01 -3.34 8.02 -3 7 C-3.66 7 -4.32 7 -5 7 C-5 6.34 -5 5.68 -5 5 C-4.34 4.67 -3.68 4.34 -3 4 C-2.67 3.01 -2.34 2.02 -2 1 C-1.34 0.67 -0.68 0.34 0 0 Z " fill="#C4CFD1" transform="translate(36,12)"/>
<path d="M0 0 C0.66 0 1.32 0 2 0 C2 0.66 2 1.32 2 2 C3.216875 1.67 4.43375 1.34 5.6875 1 C8.87210604 0.19677787 11.6972843 -0.20641973 15 0 C13.29171079 2.10633718 12.47851584 2.93801608 9.73828125 3.29296875 C8.93777344 3.25816406 8.13726562 3.22335938 7.3125 3.1875 C6.10013672 3.14689453 6.10013672 3.14689453 4.86328125 3.10546875 C4.24839844 3.07066406 3.63351563 3.03585938 3 3 C2.67 4.32 2.34 5.64 2 7 C1.34 4.69 0.68 2.38 0 0 Z " fill="#6E7C6B" transform="translate(46,71)"/>
<path d="M0 0 C-0.33 0.33 -0.66 0.66 -1 1 C0.65 1.33 2.3 1.66 4 2 C4 2.66 4 3.32 4 4 C0.7 3.67 -2.6 3.34 -6 3 C-6 2.01 -6 1.02 -6 0 C-3.50907189 -1.24546405 -2.58919267 -0.7767578 0 0 Z " fill="#ADB8B8" transform="translate(30,89)"/>
<path d="M0 0 C1.32 0.66 2.64 1.32 4 2 C4 2.99 4 3.98 4 5 C1.625 5.625 1.625 5.625 -1 6 C-1.66 5.34 -2.32 4.68 -3 4 C-2.01 2.68 -1.02 1.36 0 0 Z " fill="#CCD7C0" transform="translate(68,65)"/>
<path d="M0 0 C0.99 1.32 1.98 2.64 3 4 C2.01 5.485 2.01 5.485 1 7 C-0.65 6.67 -2.3 6.34 -4 6 C-3.0022242 3.00667261 -2.2477975 2.05233685 0 0 Z " fill="#CDD1C7" transform="translate(68,105)"/>
<path d="M0 0 C1.45823212 -0.0270043 2.91660675 -0.04639787 4.375 -0.0625 C5.18710938 -0.07410156 5.99921875 -0.08570312 6.8359375 -0.09765625 C9 0 9 0 11 1 C11 1.66 11 2.32 11 3 C9.68 2.67 8.36 2.34 7 2 C6.67 2.66 6.34 3.32 6 4 C5.01 4 4.02 4 3 4 C3 3.34 3 2.68 3 2 C2.01 2 1.02 2 0 2 C0 1.34 0 0.68 0 0 Z " fill="#A7B994" transform="translate(66,79)"/>
<path d="M0 0 C-3.68734758 2.45823172 -6.69699971 3.01242616 -11 4 C-11 3.01 -11 2.02 -11 1 C-6.87831311 -0.62950412 -4.29299643 -1.26264601 0 0 Z " fill="#ADBEB1" transform="translate(88,77)"/>
<path d="M0 0 C0.99 0.33 1.98 0.66 3 1 C3 1.66 3 2.32 3 3 C2.01 3 1.02 3 0 3 C0.33 5.64 0.66 8.28 1 11 C-1.6855594 8.3144406 -2.06049974 5.62378672 -3 2 C-2.01 1.34 -1.02 0.68 0 0 Z " fill="#7B7D74" transform="translate(65,46)"/>
<path d="M0 0 C0.33 0.66 0.66 1.32 1 2 C-0.7015625 2.4021875 -0.7015625 2.4021875 -2.4375 2.8125 C-3.613125 3.204375 -4.78875 3.59625 -6 4 C-6.33 4.99 -6.66 5.98 -7 7 C-8.32 6.67 -9.64 6.34 -11 6 C-10.67 5.01 -10.34 4.02 -10 3 C-7.71484375 2.05078125 -7.71484375 2.05078125 -4.9375 1.3125 C-4.01839844 1.06113281 -3.09929688 0.80976562 -2.15234375 0.55078125 C-1.44207031 0.36902344 -0.73179688 0.18726562 0 0 Z " fill="#1C2124" transform="translate(49,82)"/>
<path d="M0 0 C2.13093906 1.06546953 3.36587557 2.29159719 5 4 C4.01 4.495 4.01 4.495 3 5 C3 6.32 3 7.64 3 9 C2.34 9 1.68 9 1 9 C-1.09230769 4.56923077 -1.09230769 4.56923077 -0.625 1.6875 C-0.41875 1.130625 -0.2125 0.57375 0 0 Z " fill="#20303F" transform="translate(47,21)"/>
<path d="M0 0 C0.66 0.66 1.32 1.32 2 2 C1.625 4.125 1.625 4.125 1 6 C-0.98 5.01 -2.96 4.02 -5 3 C-3 1 -3 1 0 0 Z " fill="#B0C4A5" transform="translate(70,95)"/>
<path d="M0 0 C1.32 1.32 2.64 2.64 4 4 C3.67 4.99 3.34 5.98 3 7 C1.35 6.67 -0.3 6.34 -2 6 C-2.33 4.68 -2.66 3.36 -3 2 C-2.01 2.495 -2.01 2.495 -1 3 C-0.67 2.01 -0.34 1.02 0 0 Z " fill="#B5B8B1" transform="translate(42,23)"/>
<path d="M0 0 C0.66 0 1.32 0 2 0 C2 2.31 2 4.62 2 7 C1.01 7.495 1.01 7.495 0 8 C-0.65213292 10.02463255 -0.65213292 10.02463255 -1 12 C-1.99 10.68 -2.98 9.36 -4 8 C-3.34 8 -2.68 8 -2 8 C-1.34 5.36 -0.68 2.72 0 0 Z " fill="#9FA3A0" transform="translate(35,81)"/>
<path d="M0 0 C1.98 0 3.96 0 6 0 C6.66 1.32 7.32 2.64 8 4 C6.02 4 4.04 4 2 4 C2 3.34 2 2.68 2 2 C1.34 1.34 0.68 0.68 0 0 Z " fill="#CCD0D7" transform="translate(47,84)"/>
<path d="M0 0 C1.98 0 3.96 0 6 0 C6.33 0.99 6.66 1.98 7 3 C4.36 3.33 1.72 3.66 -1 4 C-0.67 2.68 -0.34 1.36 0 0 Z " fill="#B2C8A7" transform="translate(58,80)"/>
<path d="M0 0 C0.66 0 1.32 0 2 0 C2 0.66 2 1.32 2 2 C2.66 2.33 3.32 2.66 4 3 C3.01 3.495 3.01 3.495 2 4 C2 5.65 2 7.3 2 9 C1.731875 8.360625 1.46375 7.72125 1.1875 7.0625 C0.11332248 4.66868314 0.11332248 4.66868314 -3 4 C-2.34 4 -1.68 4 -1 4 C-0.67 2.68 -0.34 1.36 0 0 Z " fill="#4C576A" transform="translate(25,76)"/>
<path d="M0 0 C0.99 0 1.98 0 3 0 C3 1.65 3 3.3 3 5 C0.69 5 -1.62 5 -4 5 C-3.67 4.34 -3.34 3.68 -3 3 C-2.34 3 -1.68 3 -1 3 C-0.67 2.01 -0.34 1.02 0 0 Z " fill="#789585" transform="translate(93,70)"/>
<path d="M0 0 C3 3.75 3 3.75 3 6 C1.68 6.33 0.36 6.66 -1 7 C-1 6.34 -1 5.68 -1 5 C-2.32 4.67 -3.64 4.34 -5 4 C-3.35 3.34 -1.7 2.68 0 2 C0 1.34 0 0.68 0 0 Z " fill="#A6BCC5" transform="translate(66,58)"/>
<path d="M0 0 C1.32 0.66 2.64 1.32 4 2 C4 2.66 4 3.32 4 4 C2.02 4.99 2.02 4.99 0 6 C-0.66 4.68 -1.32 3.36 -2 2 C-1.34 1.34 -0.68 0.68 0 0 Z " fill="#DFE1D7" transform="translate(89,97)"/>
<path d="M0 0 C0.99 0.66 1.98 1.32 3 2 C3 2.66 3 3.32 3 4 C0.6875 4.6875 0.6875 4.6875 -2 5 C-3.8125 3.5625 -3.8125 3.5625 -5 2 C-2.6875 0.875 -2.6875 0.875 0 0 Z " fill="#AABBA1" transform="translate(66,83)"/>
<path d="M0 0 C1.32 0.33 2.64 0.66 4 1 C4 2.65 4 4.3 4 6 C3.01 6 2.02 6 1 6 C0.67 4.02 0.34 2.04 0 0 Z " fill="#CABCA0" transform="translate(65,49)"/>
<path d="M0 0 C2.31 0 4.62 0 7 0 C5.25 2 5.25 2 3 4 C1.68 4 0.36 4 -1 4 C-0.67 2.68 -0.34 1.36 0 0 Z " fill="#456054" transform="translate(85,72)"/>
<path d="M0 0 C0.66 0.66 1.32 1.32 2 2 C2.66 1.67 3.32 1.34 4 1 C3.6875 3.375 3.6875 3.375 3 6 C2.01 6.66 1.02 7.32 0 8 C0 5.36 0 2.72 0 0 Z " fill="#2C3643" transform="translate(100,90)"/>
<path d="M0 0 C2.64 0.99 5.28 1.98 8 3 C8 3.66 8 4.32 8 5 C5.69 4.67 3.38 4.34 1 4 C1 3.34 1 2.68 1 2 C0.34 1.67 -0.32 1.34 -1 1 C-0.67 0.67 -0.34 0.34 0 0 Z " fill="#9FB692" transform="translate(62,90)"/>
<path d="M0 0 C1.65 1.65 3.3 3.3 5 5 C4.01 5.495 4.01 5.495 3 6 C0.9375 5.25 0.9375 5.25 -1 4 C-1.33 3.01 -1.66 2.02 -2 1 C-1.34 0.67 -0.68 0.34 0 0 Z " fill="#749566" transform="translate(70,83)"/>
<path d="M0 0 C0.99 0.33 1.98 0.66 3 1 C3 1.99 3 2.98 3 4 C3.66 4 4.32 4 5 4 C5 4.66 5 5.32 5 6 C3.68 6 2.36 6 1 6 C0.34 4.35 -0.32 2.7 -1 1 C-0.67 0.67 -0.34 0.34 0 0 Z " fill="#9EAEA7" transform="translate(38,77)"/>
<path d="M0 0 C0 0.99 0 1.98 0 3 C-1.32 3.33 -2.64 3.66 -4 4 C-4 3.34 -4 2.68 -4 2 C-4.99 1.67 -5.98 1.34 -7 1 C-3.375 -1.125 -3.375 -1.125 0 0 Z " fill="#3A4545" transform="translate(84,70)"/>
<path d="M0 0 C0.99 0.33 1.98 0.66 3 1 C3.625 3.375 3.625 3.375 4 6 C3.34 6.66 2.68 7.32 2 8 C0 6 0 6 -0.125 2.875 C-0.08375 1.92625 -0.0425 0.9775 0 0 Z " fill="#314D52" transform="translate(52,26)"/>
<path d="M0 0 C0.33 0.66 0.66 1.32 1 2 C1.99 1.67 2.98 1.34 4 1 C4.5534764 3.07553648 5 4.84365964 5 7 C4.01 7 3.02 7 2 7 C2 5.68 2 4.36 2 3 C1.34 3 0.68 3 0 3 C0 2.01 0 1.02 0 0 Z " fill="#C4C8B8" transform="translate(37,92)"/>
<path d="M0 0 C2.31 0.66 4.62 1.32 7 2 C5.68 2.99 4.36 3.98 3 5 C2.67 4.34 2.34 3.68 2 3 C1.34 3 0.68 3 0 3 C0 2.01 0 1.02 0 0 Z " fill="#1C212B" transform="translate(21,85)"/>
<path d="M0 0 C1.093125 0.0825 2.18625 0.165 3.3125 0.25 C0.10913178 3.08374881 -2.46837253 3.7705537 -6.6875 4.25 C-4.79150483 0.68106792 -4.16790733 0.28256999 0 0 Z " fill="#AAB1AE" transform="translate(54.6875,33.75)"/>
<path d="M0 0 C0.33 0 0.66 0 1 0 C1.33 2.64 1.66 5.28 2 8 C0.68 7.67 -0.64 7.34 -2 7 C-1.125 2.25 -1.125 2.25 0 0 Z " fill="#4D6272" transform="translate(45,18)"/>
<path d="M0 0 C0.66 0 1.32 0 2 0 C2.59732819 2.76264289 3 5.16032769 3 8 C2.01 8 1.02 8 0 8 C0 5.36 0 2.72 0 0 Z " fill="#909984" transform="translate(37,95)"/>
<path d="M0 0 C4.875 1.75 4.875 1.75 6 4 C4.68 4.33 3.36 4.66 2 5 C1.01 3.68 0.02 2.36 -1 1 C-0.67 0.67 -0.34 0.34 0 0 Z " fill="#BED4A7" transform="translate(63,75)"/>
<path d="M0 0 C1.65 0 3.3 0 5 0 C3.84826645 2.46800047 2.95216435 4.04783565 1 6 C-0.0625 4.125 -0.0625 4.125 -1 2 C-0.67 1.34 -0.34 0.68 0 0 Z " fill="#C5DEE6" transform="translate(45,51)"/>
<path d="M0 0 C2.475 0.495 2.475 0.495 5 1 C5 1.66 5 2.32 5 3 C5.66 3.33 6.32 3.66 7 4 C6.67 4.66 6.34 5.32 6 6 C4.68 5.67 3.36 5.34 2 5 C2.66 5 3.32 5 4 5 C2.68 3.35 1.36 1.7 0 0 Z " fill="#9E9783" transform="translate(43,27)"/>
</svg>
