<?xml version="1.0" encoding="UTF-8"?>
<svg version="1.1" xmlns="http://www.w3.org/2000/svg" width="121" height="118">
<path d="M0 0 C39.93 0 79.86 0 121 0 C121 38.94 121 77.88 121 118 C81.07 118 41.14 118 0 118 C0 79.06 0 40.12 0 0 Z " fill="#465B65" transform="translate(0,0)"/>
<path d="M0 0 C39.93 0 79.86 0 121 0 C121 38.94 121 77.88 121 118 C81.07 118 41.14 118 0 118 C0 79.06 0 40.12 0 0 Z M19 25 C8.6999477 38.4708141 5.67774964 52.34036605 7 69 C9.5597288 82.92492468 17.41936648 95.439077 28.671875 104.04296875 C41.87065199 112.78622639 56.37853851 116.45017329 72.12548828 113.61767578 C86.53850197 110.10136413 98.26295718 102.13034537 106.625 90 C114.71780572 76.57288442 117.22035087 62.68475152 114.30078125 47.3203125 C110.26064836 32.8303844 101.11338337 20.18000733 88.05859375 12.5390625 C63.66703731 0.26540575 37.82613191 4.87660522 19 25 Z " fill="#FEFEFE" transform="translate(0,0)"/>
<path d="M0 0 C19 0 19 0 27 4 C29.31001745 6.74314572 29.91176286 8.40755066 30.4375 11.9375 C29.84764801 16.06646393 27.95095681 19.04904319 25 22 C25.639375 22.598125 26.27875 23.19625 26.9375 23.8125 C30.32829524 27.40879798 30.23238441 30.92440363 30.5625 35.6875 C30.64628906 36.86699219 30.73007813 38.04648438 30.81640625 39.26171875 C30.87699219 40.16535156 30.93757813 41.06898437 31 42 C29.02 42 27.04 42 25 42 C23.22263942 38.90580952 22.68621236 36.4204741 22.4375 32.875 C22.21950935 29.30201227 22.21950935 29.30201227 21 26 C17.83754459 24.9458482 15.13051782 24.68724328 11.8125 24.4375 C9.894375 24.293125 7.97625 24.14875 6 24 C6 29.94 6 35.88 6 42 C4.02 42 2.04 42 0 42 C0 28.14 0 14.28 0 0 Z " fill="#EDEFF0" transform="translate(45,39)"/>
<path d="M0 0 C1.48770605 0.11375872 2.97967324 0.17607202 4.47143555 0.20532227 C5.37214279 0.22526749 6.27285004 0.24521271 7.20085144 0.26576233 C8.16968765 0.28247482 9.13852386 0.29918732 10.13671875 0.31640625 C11.13129593 0.33718735 12.12587311 0.35796844 13.15058899 0.37937927 C16.32948867 0.44479412 19.50847134 0.5037224 22.6875 0.5625 C24.84180548 0.60569288 26.99610254 0.64930742 29.15039062 0.69335938 C34.43350588 0.80046726 39.71670379 0.90224873 45 1 C45 2.32 45 3.64 45 5 C5.07 5 -34.86 5 -76 5 C-76 3.68 -76 2.36 -76 1 C-68.92404099 0.85502902 -61.84802769 0.7129588 -54.77197266 0.57275391 C-52.37287121 0.52489394 -49.97378214 0.47640882 -47.57470703 0.42724609 C-44.09410691 0.35603549 -40.613477 0.2867387 -37.1328125 0.21875 C-36.00135803 0.19651367 -34.86990356 0.17427734 -33.7041626 0.15136719 C-26.22924671 0.01431505 -18.75872142 -0.04295625 -11.2829895 0.06237793 C-7.20278636 0.09837771 -3.79729683 -1.26576561 0 0 Z " fill="#F1F1F1" transform="translate(76,113)"/>
<path d="M0 0 C12.625 -0.25 12.625 -0.25 16 2 C16.3984375 4.09375 16.3984375 4.09375 16.375 6.5 C16.38273437 7.2940625 16.39046875 8.088125 16.3984375 8.90625 C16.26695313 9.5971875 16.13546875 10.288125 16 11 C11.0754853 14.2830098 5.82305673 13.11530805 0 13 C0 8.71 0 4.42 0 0 Z " fill="#465B65" transform="translate(52,45)"/>
</svg>
