<?xml version="1.0" encoding="UTF-8"?>
<svg version="1.1" xmlns="http://www.w3.org/2000/svg" width="121" height="114">
<path d="M0 0 C39.93 0 79.86 0 121 0 C121 37.62 121 75.24 121 114 C81.07 114 41.14 114 0 114 C0 76.38 0 38.76 0 0 Z " fill="#979D89" transform="translate(0,0)"/>
<path d="M0 0 C39.93 0 79.86 0 121 0 C121 37.62 121 75.24 121 114 C81.07 114 41.14 114 0 114 C0 76.38 0 38.76 0 0 Z M39 7 C39.99 7.33 40.98 7.66 42 8 C42 14.6 42 21.2 42 28 C41.34 28 40.68 28 40 28 C40 29.32 40 30.64 40 32 C40.66 32 41.32 32 42 32 C42 35.63 42 39.26 42 43 C41.01 43 40.02 43 39 43 C39 43.66 39 44.32 39 45 C39.99 45.495 39.99 45.495 41 46 C41 46.99 41 47.98 41 49 C38.03 49.495 38.03 49.495 35 50 C35.05800781 49.20335937 35.11601563 48.40671875 35.17578125 47.5859375 C35.67522979 40.3977839 35.67522979 40.3977839 32.5 34.25 C31.2625 33.13625 31.2625 33.13625 30 32 C30.66 31.67 31.32 31.34 32 31 C28.91190305 29.23537317 27.76687864 29 24 29 C24 25.04 24 21.08 24 17 C18.79150198 20.26994866 18.79150198 20.26994866 16.42236328 25.65136719 C16.31162603 28.75098964 16.38898369 31.77840117 16.5625 34.875 C16.59408203 35.94492187 16.62566406 37.01484375 16.65820312 38.1171875 C16.74035281 40.74597727 16.86590026 43.37334786 17 46 C13.37 46 9.74 46 6 46 C2.44284387 53.11431225 4.46197342 66.55872715 6.5625 73.9375 C11.68680747 88.03830413 19.89605929 98.42483473 32.8359375 106.00390625 C35.05714485 107.20906106 35.05714485 107.20906106 38 107 C38.24234375 106.03578125 38.4846875 105.0715625 38.734375 104.078125 C39.06953125 102.81484375 39.4046875 101.5515625 39.75 100.25 C40.07484375 98.99703125 40.3996875 97.7440625 40.734375 96.453125 C42.51320693 91.59976874 44.41555207 89.7799096 49.015625 87.515625 C50.08296875 87.09796875 51.1503125 86.6803125 52.25 86.25 C53.32765625 85.82203125 54.4053125 85.3940625 55.515625 84.953125 C56.33546875 84.63859375 57.1553125 84.3240625 58 84 C58.1546875 85.6396875 58.1546875 85.6396875 58.3125 87.3125 C59.07633372 91.42944834 59.07633372 91.42944834 62 94 C66.40242261 95.32491957 70.07306746 95.34330835 74.375 93.75 C77.49818112 91.69810217 77.49818112 91.69810217 80 89 C80 88.01 80 87.02 80 86 C80.98742187 86.5053125 81.97484375 87.010625 82.9921875 87.53125 C84.28635176 88.18771013 85.58062845 88.84394867 86.875 89.5 C87.52597656 89.83386719 88.17695312 90.16773437 88.84765625 90.51171875 C92.2524471 92.36843717 92.2524471 92.36843717 96 93 C96.33 93.99 96.66 94.98 97 96 C101.15796661 93.05175538 103.68693311 89.84569771 106.125 85.4375 C106.47046875 84.81327148 106.8159375 84.18904297 107.171875 83.54589844 C114.03089182 70.75069053 115.34968668 55.93636276 111.3125 41.9375 C110.58864956 39.9406712 109.82154841 37.95865845 109 36 C108.67257813 35.21625 108.34515625 34.4325 108.0078125 33.625 C101.38050511 20.08013818 89.80898595 11.60787696 76.296875 5.84765625 C64.64381149 1.96925935 50.4024014 2.78060918 39 7 Z " fill="#FEFEFE" transform="translate(0,0)"/>
<path d="M0 0 C-0.33 4.95 -0.66 9.9 -1 15 C0.32 15.33 1.64 15.66 3 16 C2.34 16.99 1.68 17.98 1 19 C1 18.34 1 17.68 1 17 C0.34 17 -0.32 17 -1 17 C-0.525625 17.33 -0.05125 17.66 0.4375 18 C2.85791615 21.09813267 2.68198917 24.12026792 3 28 C1.68 28 0.36 28 -1 28 C-1 27.34 -1 26.68 -1 26 C-1.66 26 -2.32 26 -3 26 C-3 26.99 -3 27.98 -3 29 C-2.34 29 -1.68 29 -1 29 C-0.525625 29.495 -0.05125 29.99 0.4375 30.5 C1.99969942 32.34626591 1.99969942 32.34626591 5 32 C5 32.99 5 33.98 5 35 C9.62 35.66 14.24 36.32 19 37 C19 37.99 19 38.98 19 40 C18.01 40 17.02 40 16 40 C16.020625 41.051875 16.04125 42.10375 16.0625 43.1875 C16.01103198 46.32704904 15.73482813 48.96883396 15 52 C13.02 52.495 13.02 52.495 11 53 C16.61 53 22.22 53 28 53 C28.33 51.35 28.66 49.7 29 48 C28.34 48 27.68 48 27 48 C26.54173938 42.2717423 27.44174139 39.5001506 31 35 C33.65115841 32.34884159 35.51389959 32.60927209 39.125 32.34375 C41.23902286 32.13964634 41.23902286 32.13964634 43 30 C44.2065625 29.5359375 44.2065625 29.5359375 45.4375 29.0625 C48.02688411 28.18022311 48.02688411 28.18022311 49.625 26.375 C50.07875 25.92125 50.5325 25.4675 51 25 C51.99 25 52.98 25 54 25 C54 24.34 54 23.68 54 23 C55.485 23.495 55.485 23.495 57 24 C56.38722388 26.96175123 55.74627478 28.38058783 54 31 C55.65 30.67 57.3 30.34 59 30 C59 30.66 59 31.32 59 32 C59.61875 32.144375 60.2375 32.28875 60.875 32.4375 C63 33 63 33 65 34 C65 35.98 65 37.96 65 40 C63.515 40.495 63.515 40.495 62 41 C61.505 41.99 61.505 41.99 61 43 C61.639375 43.20625 62.27875 43.4125 62.9375 43.625 C65 45 65 45 65.75 48.125 C65.8325 49.07375 65.915 50.0225 66 51 C65.34 51 64.68 51 64 51 C63.505 49.02 63.505 49.02 63 47 C61.68 47.33 60.36 47.66 59 48 C59 49.65 59 51.3 59 53 C59.94875 52.979375 60.8975 52.95875 61.875 52.9375 C65 53 65 53 67 54 C66.70703125 56.01822917 66.4140625 58.03645833 66.12109375 60.0546875 C65.8315703 62.08140667 65.8315703 62.08140667 67 64 C67.039992 65.99960012 67.04346799 68.00047242 67 70 C66.34 70 65.68 70 65 70 C65 69.34 65 68.68 65 68 C63.02 68 61.04 68 59 68 C59 67.01 59 66.02 59 65 C58.01 65 57.02 65 56 65 C54.68 65 53.36 65 52 65 C52.33 65.556875 52.66 66.11375 53 66.6875 C54.17817092 69.41202025 54.45181189 71.06322274 54 74 C51.6531979 76.85697647 49.07663754 77.30295006 45.5625 77.8125 C41.87251051 78.0977459 39.1773489 78.1182326 36 76 C34.16912915 72.6869956 34 70.85966823 34 67 C25.27198709 69.70484108 25.27198709 69.70484108 18.25 75.12109375 C17.23421218 77.41058427 16.55775163 79.55983663 16 82 C15.7834375 82.77730469 15.566875 83.55460937 15.34375 84.35546875 C14.84129311 86.22315391 14.41228468 88.1103619 14 90 C5.04797561 88.63603131 -2.44849262 81.87381524 -8 75 C-17.60460666 60.67946237 -19.87249802 48.03049021 -19 31 C-18.67 30.34 -18.34 29.68 -18 29 C-14.37 29 -10.74 29 -7 29 C-7.06960937 27.40929687 -7.13921875 25.81859375 -7.2109375 24.1796875 C-7.26722822 22.07816733 -7.32182695 19.97660136 -7.375 17.875 C-7.45041016 16.30492187 -7.45041016 16.30492187 -7.52734375 14.703125 C-7.67256833 7.05463069 -7.67256833 7.05463069 -5.67285156 3.91894531 C-1.81841564 0 -1.81841564 0 0 0 Z " fill="#A89B86" transform="translate(24,17)"/>
<path d="M0 0 C0.66 2.97 1.32 5.94 2 9 C9.31566067 10.11558732 9.31566067 10.11558732 16.5 8.875 C19.21529805 6.83852646 20.52361152 5.03479855 22 2 C25.66793048 2.73713857 28.82456481 4.19452266 32.1875 5.8125 C33.25355469 6.31394531 34.31960937 6.81539063 35.41796875 7.33203125 C38 9 38 9 38.86328125 11.19921875 C38.93095703 12.09060547 38.93095703 12.09060547 39 13 C31.67752787 20.27939876 22.59750593 26.51829519 12 27 C11.01 25.02 11.01 25.02 10 23 C10.495 24.485 10.495 24.485 11 26 C11 26.66 11 27.32 11 28 C28.16 28 45.32 28 63 28 C63 28.66 63 29.32 63 30 C23.07 30 -16.86 30 -58 30 C-58 29.34 -58 28.68 -58 28 C-35.725 27.505 -35.725 27.505 -13 27 C-15.64 26.01 -18.28 25.02 -21 24 C-17.88924923 9.64812713 -17.88924923 9.64812713 -14 5 C-4.67602041 0 -4.67602041 0 0 0 Z " fill="#EDF3F7" transform="translate(58,84)"/>
<path d="M0 0 C2.22855574 -0.0814222 4.45797655 -0.13938079 6.6875 -0.1875 C8.54955078 -0.23970703 8.54955078 -0.23970703 10.44921875 -0.29296875 C14.23578334 0.01945407 15.93611029 0.85473683 19 3 C19.9075 3.33 20.815 3.66 21.75 4 C22.86375 4.495 22.86375 4.495 24 5 C24.96070434 7.88211302 25.10581883 9.69850044 25.0625 12.6875 C25.05347656 13.49574219 25.04445313 14.30398437 25.03515625 15.13671875 C25.02355469 15.75160156 25.01195313 16.36648437 25 17 C24.21625 16.938125 23.4325 16.87625 22.625 16.8125 C21.325625 16.9053125 21.325625 16.9053125 20 17 C19.34 17.99 18.68 18.98 18 20 C17.01 20 16.02 20 15 20 C15 21.32 15 22.64 15 24 C16.65 23.67 18.3 23.34 20 23 C19.67 24.65 19.34 26.3 19 28 C20.65 27.67 22.3 27.34 24 27 C24.33 27.99 24.66 28.98 25 30 C24.01 30.33 23.02 30.66 22 31 C22 30.34 22 29.68 22 29 C21.34 29 20.68 29 20 29 C20.33 29.99 20.66 30.98 21 32 C20.34 32 19.68 32 19 32 C18.67 32.99 18.34 33.98 18 35 C17.01 35 16.02 35 15 35 C15.061875 35.78375 15.12375 36.5675 15.1875 37.375 C15.0946875 38.674375 15.0946875 38.674375 15 40 C12 42 12 42 9 42 C9 41.34 9 40.68 9 40 C8.649375 40.495 8.29875 40.99 7.9375 41.5 C5.07681453 43.71472423 2.51812 43.09761258 -1 43 C-1.20638953 14.06736359 -1.20638953 14.06736359 0 0 Z " fill="#F1F6FB" transform="translate(52,5)"/>
<path d="M0 0 C0.33 5.94 0.66 11.88 1 18 C1.33 17.01 1.66 16.02 2 15 C2.66 15.33 3.32 15.66 4 16 C4.0289337 19.79165074 4.04677601 23.58327327 4.0625 27.375 C4.07087891 28.45523438 4.07925781 29.53546875 4.08789062 30.6484375 C4.09272461 32.1953125 4.09272461 32.1953125 4.09765625 33.7734375 C4.10551147 35.20308838 4.10551147 35.20308838 4.11352539 36.66162109 C4 39 4 39 3 41 C2.34 41 1.68 41 1 41 C1 47.6 1 54.2 1 61 C2.98 60.505 2.98 60.505 5 60 C5.042721 61.66611905 5.04063832 63.33382885 5 65 C4 66 4 66 2.23413086 66.11352539 C1.48526611 66.10828857 0.73640137 66.10305176 -0.03515625 66.09765625 C-0.84404297 66.09443359 -1.65292969 66.09121094 -2.48632812 66.08789062 C-3.33646484 66.07951172 -4.18660156 66.07113281 -5.0625 66.0625 C-5.91650391 66.05798828 -6.77050781 66.05347656 -7.65039062 66.04882812 C-9.76695663 66.03700373 -11.88348685 66.01906769 -14 66 C-13.505 65.01 -13.505 65.01 -13 64 C-11.68 64 -10.36 64 -9 64 C-8.67 60.04 -8.34 56.08 -8 52 C-7.01 52 -6.02 52 -5 52 C-5 51.01 -5 50.02 -5 49 C-5.59167969 49.02320313 -6.18335937 49.04640625 -6.79296875 49.0703125 C-14.98676189 49.25744644 -14.98676189 49.25744644 -19 47 C-19.33 46.34 -19.66 45.68 -20 45 C-21.64363134 44.27840576 -23.31050386 43.60648579 -25 43 C-25 42.34 -25 41.68 -25 41 C-25.66 41 -26.32 41 -27 41 C-27 40.01 -27 39.02 -27 38 C-26.34 38 -25.68 38 -25 38 C-25 38.66 -25 39.32 -25 40 C-23.68 40 -22.36 40 -21 40 C-21.33 37.36 -21.66 34.72 -22 32 C-22.99 31.67 -23.98 31.34 -25 31 C-25 30.34 -25 29.68 -25 29 C-24.01 28.67 -23.02 28.34 -22 28 C-22.99 27.67 -23.98 27.34 -25 27 C-25 23.7 -25 20.4 -25 17 C-24.67 17 -24.34 17 -24 17 C-24 19.31 -24 21.62 -24 24 C-23.05125 24.12375 -22.1025 24.2475 -21.125 24.375 C-18 25 -18 25 -16 27 C-16.66 27 -17.32 27 -18 27 C-17.175 27.7425 -16.35 28.485 -15.5 29.25 C-11.60725064 33.78971334 -12.5898217 39.3668847 -13 45 C-10.03 44.505 -10.03 44.505 -7 44 C-7 43.01 -7 42.02 -7 41 C-7.66 40.67 -8.32 40.34 -9 40 C-9 39.34 -9 38.68 -9 38 C-8.01 38 -7.02 38 -6 38 C-6 34.37 -6 30.74 -6 27 C-6.66 27 -7.32 27 -8 27 C-8 25.68 -8 24.36 -8 23 C-7.34 23 -6.68 23 -6 23 C-6 16.4 -6 9.8 -6 3 C-6.99 2.67 -7.98 2.34 -9 2 C-3.375 0 -3.375 0 0 0 Z " fill="#ECB9A0" transform="translate(48,5)"/>
<path d="M0 0 C6.75 0.75 6.75 0.75 9 3 C11.58354218 3.16687448 11.58354218 3.16687448 14 3 C14 3.66 14 4.32 14 5 C14.99 5.33 15.98 5.66 17 6 C17 10.29 17 14.58 17 19 C17.66 19 18.32 19 19 19 C19 19.66 19 20.32 19 21 C18.01 21 17.02 21 16 21 C14.0176883 25.61972211 12.95916309 30.26504956 11.87890625 35.16015625 C10.99430941 38.01838694 9.93714588 39.74988905 8 42 C0.51128552 41.38617094 0.51128552 41.38617094 -1.66015625 39.74609375 C-3.24215099 37.68442713 -3.88797621 35.86144289 -4.625 33.375 C-5.36014144 30.42560369 -5.36014144 30.42560369 -7 28 C-7.375 25.625 -7.375 25.625 -7 23 C-3.71110421 20.27491491 -1.21712557 19.63853209 3 20 C3.33 20.66 3.66 21.32 4 22 C6.31 22 8.62 22 11 22 C11.33 20.35 11.66 18.7 12 17 C10.948125 17.226875 9.89625 17.45375 8.8125 17.6875 C4.61198583 18.03180444 3.2837938 17.48772258 0 15 C-0.66 16.32 -1.32 17.64 -2 19 C-3.32 18.67 -4.64 18.34 -6 18 C-5.625 16.0625 -5.625 16.0625 -5 14 C-2.70370006 12.85185003 -0.92301914 12.69230191 1.625 12.4375 C2.44226563 12.35371094 3.25953125 12.26992187 4.1015625 12.18359375 C4.72804688 12.12300781 5.35453125 12.06242187 6 12 C6 11.01 6 10.02 6 9 C4.22483971 9.39782879 2.45490837 9.81903661 0.6875 10.25 C-0.29863281 10.48203125 -1.28476562 10.7140625 -2.30078125 10.953125 C-5.34419645 12.13349443 -6.33415362 13.24822646 -8 16 C-7.85892253 14.54119891 -7.71197585 13.08296449 -7.5625 11.625 C-7.48128906 10.81289063 -7.40007813 10.00078125 -7.31640625 9.1640625 C-7 7 -7 7 -6 5 C-5.360625 4.690625 -4.72125 4.38125 -4.0625 4.0625 C-1.68028507 3.04654078 -1.68028507 3.04654078 0 0 Z " fill="#6F544B" transform="translate(62,53)"/>
<path d="M0 0 C0.99 0.33 1.98 0.66 3 1 C2.38722388 3.96175123 1.74627478 5.38058783 0 8 C1.65 7.67 3.3 7.34 5 7 C5 7.66 5 8.32 5 9 C5.928125 9.2165625 5.928125 9.2165625 6.875 9.4375 C9 10 9 10 11 11 C11 12.98 11 14.96 11 17 C10.01 17.33 9.02 17.66 8 18 C7.67 18.66 7.34 19.32 7 20 C7.9590625 20.309375 7.9590625 20.309375 8.9375 20.625 C11 22 11 22 11.75 25.125 C11.8325 26.07375 11.915 27.0225 12 28 C11.34 28 10.68 28 10 28 C9.505 26.02 9.505 26.02 9 24 C7.68 24.33 6.36 24.66 5 25 C5 26.65 5 28.3 5 30 C5.94875 29.979375 6.8975 29.95875 7.875 29.9375 C11 30 11 30 13 31 C12.70703125 33.01822917 12.4140625 35.03645833 12.12109375 37.0546875 C11.8315703 39.08140667 11.8315703 39.08140667 13 41 C13.039992 42.99960012 13.04346799 45.00047242 13 47 C12.34 47 11.68 47 11 47 C11 46.34 11 45.68 11 45 C9.02 45 7.04 45 5 45 C5 44.01 5 43.02 5 42 C4.01 42 3.02 42 2 42 C0.68 42 -0.64 42 -2 42 C-1.505 42.8353125 -1.505 42.8353125 -1 43.6875 C0.17817092 46.41202025 0.45181189 48.06322274 0 51 C-2.42082645 53.42082645 -4.65510004 54.40269644 -8 55 C-7.54947266 54.19175781 -7.54947266 54.19175781 -7.08984375 53.3671875 C-5.83936544 50.65109483 -5.21912114 48.04084303 -4.5625 45.125 C-3.49636635 40.67552385 -2.30049274 36.94370184 0 33 C1.485 33.495 1.485 33.495 3 34 C3 33.34 3 32.68 3 32 C2.34 32 1.68 32 1 32 C0.14256349 27.60563789 -0.08948558 23.47427924 0 19 C-0.66 18.67 -1.32 18.34 -2 18 C-2 17.34 -2 16.68 -2 16 C-3.175625 16.309375 -3.175625 16.309375 -4.375 16.625 C-5.24125 16.74875 -6.1075 16.8725 -7 17 C-7.66 16.34 -8.32 15.68 -9 15 C-11.32275177 14.59952556 -13.65739357 14.2602896 -16 14 C-16.6496875 14.99 -16.6496875 14.99 -17.3125 16 C-17.869375 16.66 -18.42625 17.32 -19 18 C-19.99 18 -20.98 18 -22 18 C-22.33 19.65 -22.66 21.3 -23 23 C-24.5625 21.875 -24.5625 21.875 -26 20 C-25.92646879 16.54403317 -25.37462257 14.55444141 -23.4375 11.6875 C-19.99679868 9.30547601 -17.15067225 9.40167796 -13 9 C-12.34 8.34 -11.68 7.68 -11 7 C-10.195625 6.690625 -9.39125 6.38125 -8.5625 6.0625 C-5.97311589 5.18022311 -5.97311589 5.18022311 -4.375 3.375 C-3.92125 2.92125 -3.4675 2.4675 -3 2 C-2.01 2 -1.02 2 0 2 C0 1.34 0 0.68 0 0 Z " fill="#6A6560" transform="translate(78,40)"/>
<path d="M0 0 C1.65 0 3.3 0 5 0 C5.33 3.63 5.66 7.26 6 11 C6.99 10.34 7.98 9.68 9 9 C11.38299617 8.55058745 13.78225484 8.18393057 16.1875 7.875 C17.45980469 7.70742187 18.73210937 7.53984375 20.04296875 7.3671875 C21.01878906 7.24601562 21.99460938 7.12484375 23 7 C22.505 6.505 22.505 6.505 22 6 C21.95936168 4.33382885 21.957279 2.66611905 22 1 C22.99 1.33 23.98 1.66 25 2 C26.05904443 13.38472763 20.60477045 25.00597787 14 34 C11.27734375 36.33984375 11.27734375 36.33984375 9 38 C8.67 37.01 8.34 36.02 8 35 C6.01578741 34.28771856 4.01032877 33.63484067 2 33 C-1.37362299 31.41122971 -4.68876169 29.7145147 -8 28 C-8.33 29.32 -8.66 30.64 -9 32 C-10.41377341 29.36095629 -11.37240135 26.92879371 -12 24 C-10.68 24 -9.36 24 -8 24 C-7.67 23.34 -7.34 22.68 -7 22 C-6.01 22.66 -5.02 23.32 -4 24 C-4.33 24.99 -4.66 25.98 -5 27 C-3.02 27 -1.04 27 1 27 C1 27.66 1 28.32 1 29 C1.66 29 2.32 29 3 29 C2.74863281 27.89591797 2.74863281 27.89591797 2.4921875 26.76953125 C2.28851563 25.79371094 2.08484375 24.81789063 1.875 23.8125 C1.66617188 22.84957031 1.45734375 21.88664062 1.2421875 20.89453125 C0.97108988 17.65447747 1.57618825 15.88453715 3 13 C0.36 12.67 -2.28 12.34 -5 12 C-5 10.35 -5 8.7 -5 7 C-3.68 6.67 -2.36 6.34 -1 6 C-0.67 7.32 -0.34 8.64 0 10 C0.66 10 1.32 10 2 10 C2 7.36 2 4.72 2 2 C1.34 2 0.68 2 0 2 C0 1.34 0 0.68 0 0 Z " fill="#ACB4AF" transform="translate(88,58)"/>
<path d="M0 0 C0.66 2.97 1.32 5.94 2 9 C4.64 9.66 7.28 10.32 10 11 C7.25 15.875 7.25 15.875 5 17 C5.185625 17.78375 5.37125 18.5675 5.5625 19.375 C6 22 6 22 5 24 C6.32 24.66 7.64 25.32 9 26 C8.34 26.33 7.68 26.66 7 27 C6.34 26.67 5.68 26.34 5 26 C5 26.66 5 27.32 5 28 C4.01 28 3.02 28 2 28 C2 27.34 2 26.68 2 26 C1.34 26 0.68 26 0 26 C-0.33 26.66 -0.66 27.32 -1 28 C-8.33813334 28.5644718 -14.16088115 26.55327104 -21 24 C-17.88924923 9.64812713 -17.88924923 9.64812713 -14 5 C-4.67602041 0 -4.67602041 0 0 0 Z " fill="#DEE7F3" transform="translate(58,84)"/>
<path d="M0 0 C0 6.6 0 13.2 0 20 C-0.66 20 -1.32 20 -2 20 C-2 21.32 -2 22.64 -2 24 C-1.34 24 -0.68 24 0 24 C0 27.63 0 31.26 0 35 C-0.99 35 -1.98 35 -3 35 C-3 35.66 -3 36.32 -3 37 C-2.01 37.33 -1.02 37.66 0 38 C-0.33 39.32 -0.66 40.64 -1 42 C-2.98 42 -4.96 42 -7 42 C-7.02578125 41.18015625 -7.0515625 40.3603125 -7.078125 39.515625 C-7.13484375 38.43796875 -7.1915625 37.3603125 -7.25 36.25 C-7.29640625 35.18265625 -7.3428125 34.1153125 -7.390625 33.015625 C-8.11368075 29.43742602 -9.37226072 28.41752014 -12 26 C-12 25.01 -12 24.02 -12 23 C-13.98 22.34 -15.96 21.68 -18 21 C-18.60578131 16.5239492 -18.8704937 12.45091721 -18 8 C-15.10127518 4.79144771 -11.85706893 2.89691914 -8 1 C-6 0 -6 0 0 0 Z " fill="#FBFAF5" transform="translate(42,8)"/>
<path d="M0 0 C-0.33 4.95 -0.66 9.9 -1 15 C0.32 15.33 1.64 15.66 3 16 C2.34 16.99 1.68 17.98 1 19 C1 18.34 1 17.68 1 17 C0.34 17 -0.32 17 -1 17 C-0.525625 17.33 -0.05125 17.66 0.4375 18 C2.85791615 21.09813267 2.68198917 24.12026792 3 28 C1.68 28 0.36 28 -1 28 C-1 27.34 -1 26.68 -1 26 C-1.66 26 -2.32 26 -3 26 C-3 26.99 -3 27.98 -3 29 C-2.34 29 -1.68 29 -1 29 C-0.525625 29.495 -0.05125 29.99 0.4375 30.5 C1.99969942 32.34626591 1.99969942 32.34626591 5 32 C4.8125 33.8125 4.8125 33.8125 4 36 C3.175 36.37125 2.35 36.7425 1.5 37.125 C-1.2136063 38.73948499 -1.2136063 38.73948499 -1.55078125 41.41015625 C-1.78968928 43.94543399 -1.94746404 46.45439381 -2 49 C-2.66 49 -3.32 49 -4 49 C-4 47.68 -4 46.36 -4 45 C-5.485 45.495 -5.485 45.495 -7 46 C-9.625 45.375 -9.625 45.375 -12 44 C-12.8125 41.375 -12.8125 41.375 -13 39 C-13.66 40.32 -14.32 41.64 -15 43 C-15.66 43 -16.32 43 -17 43 C-17 42.34 -17 41.68 -17 41 C-17.66 41 -18.32 41 -19 41 C-19.02698189 39.37509046 -19.04638757 37.75005367 -19.0625 36.125 C-19.07410156 35.22007813 -19.08570313 34.31515625 -19.09765625 33.3828125 C-19 31 -19 31 -18 29 C-14.37 29 -10.74 29 -7 29 C-7.06960937 27.40929687 -7.13921875 25.81859375 -7.2109375 24.1796875 C-7.26722822 22.07816733 -7.32182695 19.97660136 -7.375 17.875 C-7.45041016 16.30492187 -7.45041016 16.30492187 -7.52734375 14.703125 C-7.67256833 7.05463069 -7.67256833 7.05463069 -5.67285156 3.91894531 C-1.81841564 0 -1.81841564 0 0 0 Z " fill="#9C715C" transform="translate(24,17)"/>
<path d="M0 0 C0.07654536 4.51617599 0.10228696 8.59085217 -1 13 C-1.99 13.33 -2.98 13.66 -4 14 C-4.33 19.28 -4.66 24.56 -5 30 C-4.01 28.68 -3.02 27.36 -2 26 C-2.33 28.97 -2.66 31.94 -3 35 C-6.87791279 34.43818225 -9.40915326 33.34625496 -12.625 31.125 C-13.38039063 30.61195312 -14.13578125 30.09890625 -14.9140625 29.5703125 C-15.60242188 29.05210938 -16.29078125 28.53390625 -17 28 C-17.57234375 27.60683594 -18.1446875 27.21367188 -18.734375 26.80859375 C-20.81409547 23.83664752 -20.53810298 20.44751891 -20.625 16.9375 C-20.5930517 11.81217341 -20.5930517 11.81217341 -22 7 C-19.03 7 -16.06 7 -13 7 C-12.67 6.34 -12.34 5.68 -12 5 C-11.34 5 -10.68 5 -10 5 C-10 7.31 -10 9.62 -10 12 C-9.34 12 -8.68 12 -8 12 C-8.28875 10.72125 -8.5775 9.4425 -8.875 8.125 C-9.11863281 7.04605469 -9.11863281 7.04605469 -9.3671875 5.9453125 C-9.90474428 3.79280036 -9.90474428 3.79280036 -12 2 C-8.09971775 -0.60018816 -4.52565431 -0.15085514 0 0 Z " fill="#837768" transform="translate(41,72)"/>
<path d="M0 0 C11.71128382 4.20897338 22.18448059 10.91069396 29.125 21.4375 C29.125 22.4275 29.125 23.4175 29.125 24.4375 C26.815 24.7675 24.505 25.0975 22.125 25.4375 C22.125 26.7575 22.125 28.0775 22.125 29.4375 C23.115 29.7675 24.105 30.0975 25.125 30.4375 C24.795 31.7575 24.465 33.0775 24.125 34.4375 C21.815 34.1075 19.505 33.7775 17.125 33.4375 C17.125 34.0975 17.125 34.7575 17.125 35.4375 C17.785 35.4375 18.445 35.4375 19.125 35.4375 C19.125 36.0975 19.125 36.7575 19.125 37.4375 C18.135 37.9325 18.135 37.9325 17.125 38.4375 C17.125 40.0875 17.125 41.7375 17.125 43.4375 C10.375 40.5625 10.375 40.5625 8.125 39.4375 C8.125 38.1175 8.125 36.7975 8.125 35.4375 C10.1164056 35.05616701 12.11779077 34.72424418 14.125 34.4375 C14.455 34.7675 14.785 35.0975 15.125 35.4375 C15.30675781 34.28121094 15.30675781 34.28121094 15.4921875 33.1015625 C15.65976563 32.09867188 15.82734375 31.09578125 16 30.0625 C16.16242188 29.06476562 16.32484375 28.06703125 16.4921875 27.0390625 C17.125 24.4375 17.125 24.4375 19.125 22.4375 C18.465 22.1075 17.805 21.7775 17.125 21.4375 C17.08245644 19.43795254 17.08419217 17.43708364 17.125 15.4375 C17.62 14.9425 17.62 14.9425 18.125 14.4375 C17.465 14.1075 16.805 13.7775 16.125 13.4375 C16.125 12.7775 16.125 12.1175 16.125 11.4375 C15.135 11.1075 14.145 10.7775 13.125 10.4375 C12.63 9.4475 12.63 9.4475 12.125 8.4375 C9.155 8.4375 6.185 8.4375 3.125 8.4375 C3.125 10.0875 3.125 11.7375 3.125 13.4375 C4.115 13.7675 5.105 14.0975 6.125 14.4375 C5.465 16.0875 4.805 17.7375 4.125 19.4375 C5.445 21.0875 6.765 22.7375 8.125 24.4375 C7.135 24.9325 7.135 24.9325 6.125 25.4375 C3.625 23.1875 3.625 23.1875 1.125 20.4375 C1.125 18.35283165 1.12764371 16.26800856 1.16015625 14.18359375 C1.16917969 13.42175781 1.17820312 12.65992188 1.1875 11.875 C1.19910156 11.11058594 1.21070312 10.34617187 1.22265625 9.55859375 C1.21267007 7.24674107 1.21267007 7.24674107 0.125 4.4375 C-1.70803323 3.45538795 -1.70803323 3.45538795 -3.875 2.8125 C-7.80548128 1.50701872 -7.80548128 1.50701872 -8.875 0.4375 C-11.22487262 0.20222227 -13.58056039 0.02363583 -15.9375 -0.125 C-18.226875 -0.269375 -20.51625 -0.41375 -22.875 -0.5625 C-22.875 4.3875 -22.875 9.3375 -22.875 14.4375 C-23.535 14.4375 -24.195 14.4375 -24.875 14.4375 C-25.205 16.4175 -25.535 18.3975 -25.875 20.4375 C-26.205 20.4375 -26.535 20.4375 -26.875 20.4375 C-26.875 13.5075 -26.875 6.5775 -26.875 -0.5625 C-19.93172653 -4.03413674 -7.17885366 -2.04113215 0 0 Z " fill="#96AAAB" transform="translate(74.875,5.5625)"/>
<path d="M0 0 C4.59298395 5.77171434 8.09328432 12.17128709 7.91015625 19.6875 C7.40494974 23.16863098 6.75671574 26.56567472 6 30 C5.65703031 31.99837006 5.32057547 33.99791547 5 36 C4.34 36 3.68 36 3 36 C3.66 31.71 4.32 27.42 5 23 C3.72125 23.103125 2.4425 23.20625 1.125 23.3125 C0.40570313 23.37050781 -0.31359375 23.42851563 -1.0546875 23.48828125 C-3.39519216 23.87393036 -3.39519216 23.87393036 -5 27 C-4.34 27 -3.68 27 -3 27 C-2.875 30.375 -2.875 30.375 -3 34 C-3.66 34.66 -4.32 35.32 -5 36 C-5 35.01 -5 34.02 -5 33 C-7.475 33.495 -7.475 33.495 -10 34 C-9.979375 32.88625 -9.95875 31.7725 -9.9375 30.625 C-9.73619282 27.16784079 -9.73619282 27.16784079 -11 25 C-11 25.99 -11 26.98 -11 28 C-11.99 28 -12.98 28 -14 28 C-14.15620438 18.62773723 -14.15620438 18.62773723 -13 16 C-12.01 15.67 -11.02 15.34 -10 15 C-10 14.34 -10 13.68 -10 13 C-10.66 13 -11.32 13 -12 13 C-12 12.34 -12 11.68 -12 11 C-9.69 11 -7.38 11 -5 11 C-4.67 10.01 -4.34 9.02 -4 8 C-5.32 7.67 -6.64 7.34 -8 7 C-7.67 5.35 -7.34 3.7 -7 2 C-4.69 2 -2.38 2 0 2 C0 1.34 0 0.68 0 0 Z " fill="#C8CDC3" transform="translate(104,28)"/>
<path d="M0 0 C0.33 0 0.66 0 1 0 C1 1.65 1 3.3 1 5 C1.99 5 2.98 5 4 5 C4 5.66 4 6.32 4 7 C2.02 7.33 0.04 7.66 -2 8 C-0.02 8 1.96 8 4 8 C4 9.98 4 11.96 4 14 C5.32 14.33 6.64 14.66 8 15 C6.02 15.33 4.04 15.66 2 16 C1.01 14.02 1.01 14.02 0 12 C0.495 13.485 0.495 13.485 1 15 C1 15.66 1 16.32 1 17 C18.16 17 35.32 17 53 17 C53 17.66 53 18.32 53 19 C13.07 19 -26.86 19 -68 19 C-68 18.34 -68 17.68 -68 17 C-67.29256149 16.98969254 -66.58512299 16.97938507 -65.85624695 16.96876526 C-59.19068762 16.87080479 -52.52521568 16.76829237 -45.85980511 16.66066074 C-42.43301772 16.60548647 -39.00622172 16.55207534 -35.5793457 16.50268555 C-31.64004749 16.44583335 -27.7008926 16.38132688 -23.76171875 16.31640625 C-21.9147364 16.29133751 -21.9147364 16.29133751 -20.03044128 16.26576233 C-18.31900688 16.2358445 -18.31900688 16.2358445 -16.57299805 16.20532227 C-15.06409248 16.18200584 -15.06409248 16.18200584 -13.52470398 16.15821838 C-10.87395947 16.1003603 -10.87395947 16.1003603 -8 15 C-8 15.66 -8 16.32 -8 17 C-7.01 17 -6.02 17 -5 17 C-5 16.34 -5 15.68 -5 15 C-4.01 15 -3.02 15 -2 15 C-2.99 14.34 -3.98 13.68 -5 13 C-5.70052461 10.336937 -5.77744818 7.75964263 -6 5 C-5.01 5 -4.02 5 -3 5 C-2.5359375 4.0409375 -2.5359375 4.0409375 -2.0625 3.0625 C-1 1 -1 1 0 0 Z " fill="#F0F1F1" transform="translate(68,95)"/>
<path d="M0 0 C3.63 0.33 7.26 0.66 11 1 C11 6 11 6 10.03515625 8.65234375 C8.6042779 13.27975032 8.57459203 17.74421668 8.4375 22.5625 C8.37722869 24.4180868 8.31353661 26.27356627 8.24609375 28.12890625 C8.22216553 28.94431885 8.1982373 29.75973145 8.17358398 30.59985352 C7.99041549 33.13252505 7.54684567 35.5225274 7 38 C3.04 37.505 3.04 37.505 -1 37 C-1.11739981 24.61702895 -0.97815251 12.3491755 0 0 Z " fill="#FAFAFB" transform="translate(52,5)"/>
<path d="M0 0 C1.6875 1.4375 1.6875 1.4375 3 3 C3 3.66 3 4.32 3 5 C3.99 5.33 4.98 5.66 6 6 C5.34 8.31 4.68 10.62 4 13 C4.99 13.33 5.98 13.66 7 14 C6.34 14.66 5.68 15.32 5 16 C4.3162387 18.88717605 4.3162387 18.88717605 3.875 22.125 C3.62363281 23.76855469 3.62363281 23.76855469 3.3671875 25.4453125 C3.18542969 26.70988281 3.18542969 26.70988281 3 28 C2.54496094 27.4946875 2.08992188 26.989375 1.62109375 26.46875 C0.81865234 25.74171875 0.81865234 25.74171875 0 25 C-0.9590625 25.2475 -0.9590625 25.2475 -1.9375 25.5 C-2.9584375 25.7475 -2.9584375 25.7475 -4 26 C-6.25 24.5625 -6.25 24.5625 -8 23 C-7.835 22.071875 -7.67 21.14375 -7.5 20.1875 C-6.92251612 17.04378647 -6.92251612 17.04378647 -7 14 C-8.43750191 12.31201173 -8.43750191 12.31201173 -10 11 C-9.34 9.35 -8.68 7.7 -8 6 C-8.66 5.67 -9.32 5.34 -10 5 C-10 3.35 -10 1.7 -10 0 C-3.375 -1.125 -3.375 -1.125 0 0 Z " fill="#F0F7F9" transform="translate(88,14)"/>
<path d="M0 0 C0 0.66 0 1.32 0 2 C0.66 2.33 1.32 2.66 2 3 C2.625 5.5625 2.625 5.5625 3 8 C1.68 8.33 0.36 8.66 -1 9 C-1 9.66 -1 10.32 -1 11 C0.32 11.33 1.64 11.66 3 12 C3 13.32 3 14.64 3 16 C-6.24 16 -15.48 16 -25 16 C-26.20272819 13.59454362 -26.10071472 12.05003047 -26.0625 9.375 C-26.05347656 8.55773438 -26.04445313 7.74046875 -26.03515625 6.8984375 C-26.02355469 6.27195312 -26.01195312 5.64546875 -26 5 C-25.34 5 -24.68 5 -24 5 C-24 5.66 -24 6.32 -24 7 C-23.34 7 -22.68 7 -22 7 C-21.67 5.35 -21.34 3.7 -21 2 C-20.34 2.33 -19.68 2.66 -19 3 C-18.375 5.5625 -18.375 5.5625 -18 8 C-15.69 8.33 -13.38 8.66 -11 9 C-11 10.32 -11 11.64 -11 13 C-10.34 13 -9.68 13 -9 13 C-9.06960937 12.32453125 -9.13921875 11.6490625 -9.2109375 10.953125 C-9.37815877 8.19795555 -9.42304704 5.73057634 -9 3 C-4.34482759 -1.44827586 -4.34482759 -1.44827586 0 0 Z " fill="#786453" transform="translate(31,53)"/>
<path d="M0 0 C0.33 5.94 0.66 11.88 1 18 C1.33 17.01 1.66 16.02 2 15 C2.66 15.33 3.32 15.66 4 16 C4 23.59 4 31.18 4 39 C3.01 39.495 3.01 39.495 2 40 C0.5393715 37.35261084 0 36.10551666 0 33 C-1.98 33 -3.96 33 -6 33 C-6 31.02 -6 29.04 -6 27 C-6.66 27 -7.32 27 -8 27 C-8 25.68 -8 24.36 -8 23 C-7.34 23 -6.68 23 -6 23 C-6 16.4 -6 9.8 -6 3 C-6.99 2.67 -7.98 2.34 -9 2 C-3.375 0 -3.375 0 0 0 Z " fill="#FAD0BF" transform="translate(48,5)"/>
<path d="M0 0 C1.98 0 3.96 0 6 0 C6.99 2.64 7.98 5.28 9 8 C8.34 8 7.68 8 7 8 C7 14.6 7 21.2 7 28 C8.32 27.67 9.64 27.34 11 27 C11.042721 28.66611905 11.04063832 30.33382885 11 32 C10 33 10 33 8.23413086 33.11352539 C7.48526611 33.10828857 6.73640137 33.10305176 5.96484375 33.09765625 C5.15595703 33.09443359 4.34707031 33.09121094 3.51367188 33.08789062 C2.66353516 33.07951172 1.81339844 33.07113281 0.9375 33.0625 C0.08349609 33.05798828 -0.77050781 33.05347656 -1.65039062 33.04882812 C-3.76695663 33.03700373 -5.88348685 33.01906769 -8 33 C-7.67 32.34 -7.34 31.68 -7 31 C-5.68 31 -4.36 31 -3 31 C-2.67 27.04 -2.34 23.08 -2 19 C-1.01 19 -0.02 19 1 19 C1.33 18.01 1.66 17.02 2 16 C2.66 16.33 3.32 16.66 4 17 C3.835 16.01 3.67 15.02 3.5 14 C2.91525483 9.97267058 2.92867976 6.06525377 3 2 C2.01 2 1.02 2 0 2 C0 1.34 0 0.68 0 0 Z " fill="#F2AC8E" transform="translate(42,38)"/>
<path d="M0 0 C0.33 0 0.66 0 1 0 C1.02703562 2.58340384 1.04685611 5.16652308 1.0625 7.75 C1.07087891 8.47960938 1.07925781 9.20921875 1.08789062 9.9609375 C1.10391684 13.48670558 0.95292713 16.61034916 0 20 C0.66 20 1.32 20 2 20 C2.33 19.34 2.66 18.68 3 18 C3.33 18.66 3.66 19.32 4 20 C4.66 19.34 5.32 18.68 6 18 C6.66 18.33 7.32 18.66 8 19 C8 18.34 8 17.68 8 17 C7.34 16.67 6.68 16.34 6 16 C7.65 15.67 9.3 15.34 11 15 C10.67 16.65 10.34 18.3 10 20 C11.65 19.67 13.3 19.34 15 19 C15.33 19.99 15.66 20.98 16 22 C15.01 22.33 14.02 22.66 13 23 C13 22.34 13 21.68 13 21 C12.34 21 11.68 21 11 21 C11.33 21.99 11.66 22.98 12 24 C11.34 24 10.68 24 10 24 C9.67 24.99 9.34 25.98 9 27 C8.01 27 7.02 27 6 27 C6.061875 27.78375 6.12375 28.5675 6.1875 29.375 C6.0946875 30.674375 6.0946875 30.674375 6 32 C3 34 3 34 0 34 C0 33.34 0 32.68 0 32 C-0.350625 32.495 -0.70125 32.99 -1.0625 33.5 C-3.94374289 35.73063966 -6.47009026 35.19980621 -10 35 C-10 33.02 -10 31.04 -10 29 C-7.69 29 -5.38 29 -3 29 C-2.15090875 26.01271136 -1.83144377 23.25652757 -1.71875 20.15625 C-1.68136719 19.23972656 -1.64398438 18.32320312 -1.60546875 17.37890625 C-1.57066406 16.42886719 -1.53585938 15.47882812 -1.5 14.5 C-1.43092245 12.61443877 -1.35814522 10.7290086 -1.28125 8.84375 C-1.25095703 8.01037109 -1.22066406 7.17699219 -1.18945312 6.31835938 C-1.00875787 4.10717108 -0.60543523 2.1300535 0 0 Z " fill="#D5DFEB" transform="translate(61,13)"/>
<path d="M0 0 C2 2 2 2 2.1953125 4.6015625 C2.17210938 5.59929688 2.14890625 6.59703125 2.125 7.625 C2.10695313 8.62789062 2.08890625 9.63078125 2.0703125 10.6640625 C2.04710938 11.43492188 2.02390625 12.20578125 2 13 C1.01 12.67 0.02 12.34 -1 12 C-0.34 14.31 0.32 16.62 1 19 C-0.57201172 19.19916016 -0.57201172 19.19916016 -2.17578125 19.40234375 C-3.55470778 19.58057235 -4.93361293 19.75896641 -6.3125 19.9375 C-7.00279297 20.02451172 -7.69308594 20.11152344 -8.40429688 20.20117188 C-11.40142288 20.59210135 -14.12450119 21.0415004 -17 22 C-17.36247871 19.39674384 -17.71527655 16.79279598 -18.0625 14.1875 C-18.2181543 13.08051758 -18.2181543 13.08051758 -18.37695312 11.95117188 C-18.82086566 8.56825221 -19.09314992 6.27944975 -18 3 C-16.19380477 7.46236469 -15.88341499 10.31034294 -17 15 C-16.195625 14.814375 -15.39125 14.62875 -14.5625 14.4375 C-13.2940625 14.2209375 -13.2940625 14.2209375 -12 14 C-11.67 14.33 -11.34 14.66 -11 15 C-10.67 12.69 -10.34 10.38 -10 8 C-10.66 8 -11.32 8 -12 8 C-11.34 6.68 -10.68 5.36 -10 4 C-7.36 4 -4.72 4 -2 4 C-2.66 8.29 -3.32 12.58 -4 17 C-3.34 17 -2.68 17 -2 17 C-1.90912109 15.53626953 -1.90912109 15.53626953 -1.81640625 14.04296875 C-1.73261719 12.77066406 -1.64882812 11.49835937 -1.5625 10.1875 C-1.48128906 8.92292969 -1.40007812 7.65835938 -1.31640625 6.35546875 C-1 3 -1 3 0 0 Z " fill="#969387" transform="translate(111,47)"/>
<path d="M0 0 C0.99 0.33 1.98 0.66 3 1 C2.38722388 3.96175123 1.74627478 5.38058783 0 8 C1.65 7.67 3.3 7.34 5 7 C5 7.66 5 8.32 5 9 C5.61875 9.144375 6.2375 9.28875 6.875 9.4375 C9 10 9 10 11 11 C11 12.98 11 14.96 11 17 C10.01 17.33 9.02 17.66 8 18 C7.34 18.66 6.68 19.32 6 20 C5.67 19.01 5.34 18.02 5 17 C4.34 17 3.68 17 3 17 C2.67 16.34 2.34 15.68 2 15 C-0.80980673 14.30772968 -0.80980673 14.30772968 -4.0625 13.875 C-5.16722656 13.70742188 -6.27195312 13.53984375 -7.41015625 13.3671875 C-8.26480469 13.24601562 -9.11945313 13.12484375 -10 13 C-10 12.34 -10 11.68 -10 11 C-10.86625 11.165 -11.7325 11.33 -12.625 11.5 C-15.81225199 11.97218548 -18.78485027 12.07655118 -22 12 C-21.67 11.34 -21.34 10.68 -21 10 C-18.97456444 9.74280183 -16.94649776 9.49157878 -14.91015625 9.34375 C-12.76477844 9.14523788 -12.76477844 9.14523788 -11 7 C-10.195625 6.690625 -9.39125 6.38125 -8.5625 6.0625 C-5.97311589 5.18022311 -5.97311589 5.18022311 -4.375 3.375 C-3.92125 2.92125 -3.4675 2.4675 -3 2 C-2.01 2 -1.02 2 0 2 C0 1.34 0 0.68 0 0 Z " fill="#757C60" transform="translate(78,40)"/>
<path d="M0 0 C0.33 0 0.66 0 1 0 C1.0270043 1.45823212 1.04639787 2.91660675 1.0625 4.375 C1.07410156 5.18710938 1.08570313 5.99921875 1.09765625 6.8359375 C1 9 1 9 0 11 C0.99 10.67 1.98 10.34 3 10 C3.1799928 15.21979128 2.97094808 19.07262981 1 24 C-1.92540549 23.67495495 -3.72605062 23.19804781 -6.12890625 21.4609375 C-8.69292322 18.08863961 -8.6327811 14.95338207 -8.6875 10.875 C-8.61800445 5.78183865 -8.61800445 5.78183865 -10 1 C-9.36191406 1.01160156 -8.72382813 1.02320312 -8.06640625 1.03515625 C-7.24011719 1.04417969 -6.41382813 1.05320312 -5.5625 1.0625 C-4.32693359 1.07990234 -4.32693359 1.07990234 -3.06640625 1.09765625 C-1.00836062 1.23267348 -1.00836062 1.23267348 0 0 Z " fill="#6C5E4F" transform="translate(29,78)"/>
<path d="M0 0 C-0.33 4.95 -0.66 9.9 -1 15 C0.32 15.33 1.64 15.66 3 16 C2.34 16.99 1.68 17.98 1 19 C1 18.34 1 17.68 1 17 C0.34 17 -0.32 17 -1 17 C-0.525625 17.33 -0.05125 17.66 0.4375 18 C2.85791615 21.09813267 2.68198917 24.12026792 3 28 C1.68 28 0.36 28 -1 28 C-1 27.34 -1 26.68 -1 26 C-1.66 26 -2.32 26 -3 26 C-3 26.99 -3 27.98 -3 29 C-2.34 29.33 -1.68 29.66 -1 30 C-1.66 30 -2.32 30 -3 30 C-3 30.66 -3 31.32 -3 32 C-4.65 32 -6.3 32 -8 32 C-6.68 31.67 -5.36 31.34 -4 31 C-4.33 30.67 -4.66 30.34 -5 30 C-7.8252196 30.22220828 -10.62224564 30.58586418 -13.43359375 30.94140625 C-14.70396484 30.97041016 -14.70396484 30.97041016 -16 31 C-16.66 30.34 -17.32 29.68 -18 29 C-14.37 29 -10.74 29 -7 29 C-7.06960937 27.40929687 -7.13921875 25.81859375 -7.2109375 24.1796875 C-7.26722822 22.07816733 -7.32182695 19.97660136 -7.375 17.875 C-7.45041016 16.30492187 -7.45041016 16.30492187 -7.52734375 14.703125 C-7.67256833 7.05463069 -7.67256833 7.05463069 -5.67285156 3.91894531 C-1.81841564 0 -1.81841564 0 0 0 Z " fill="#C6A480" transform="translate(24,17)"/>
<path d="M0 0 C0.79921875 0.00902344 1.5984375 0.01804688 2.421875 0.02734375 C3.02515625 0.03894531 3.6284375 0.05054688 4.25 0.0625 C4.25 0.7225 4.25 1.3825 4.25 2.0625 C5.28125 2.041875 6.3125 2.02125 7.375 2 C10.80152969 2.05526661 13.89572414 2.40800715 17.25 3.0625 C17.25 4.0525 17.25 5.0425 17.25 6.0625 C17.91 6.0625 18.57 6.0625 19.25 6.0625 C19.58 6.7225 19.91 7.3825 20.25 8.0625 C21.075 8.475 21.9 8.8875 22.75 9.3125 C25.25 11.0625 25.25 11.0625 26.0625 14.25 C26.124375 15.178125 26.18625 16.10625 26.25 17.0625 C25.59 17.0625 24.93 17.0625 24.25 17.0625 C23.755 15.0825 23.755 15.0825 23.25 13.0625 C21.93 13.3925 20.61 13.7225 19.25 14.0625 C18.92 16.3725 18.59 18.6825 18.25 21.0625 C17.26 21.0625 16.27 21.0625 15.25 21.0625 C14.39256349 16.66813789 14.16051442 12.53677924 14.25 8.0625 C13.59 7.7325 12.93 7.4025 12.25 7.0625 C12.25 6.4025 12.25 5.7425 12.25 5.0625 C11.46625 5.26875 10.6825 5.475 9.875 5.6875 C9.00875 5.81125 8.1425 5.935 7.25 6.0625 C6.59 5.4025 5.93 4.7425 5.25 4.0625 C2.92724823 3.66202556 0.59260643 3.3227896 -1.75 3.0625 C-2.3996875 4.0525 -2.3996875 4.0525 -3.0625 5.0625 C-3.619375 5.7225 -4.17625 6.3825 -4.75 7.0625 C-5.74 7.0625 -6.73 7.0625 -7.75 7.0625 C-8.08 8.7125 -8.41 10.3625 -8.75 12.0625 C-10.3125 10.9375 -10.3125 10.9375 -11.75 9.0625 C-11.52669287 5.41515021 -11.36627165 3.67877165 -8.75 1.0625 C-5.80049953 0.06042612 -3.09837394 -0.04556432 0 0 Z " fill="#62634F" transform="translate(63.75,50.9375)"/>
<path d="M0 0 C0 0.66 0 1.32 0 2 C0.66 2 1.32 2 2 2 C2 1.34 2 0.68 2 0 C2.99 0 3.98 0 5 0 C5.66 1.98 6.32 3.96 7 6 C5.35 6.33 3.7 6.66 2 7 C2.33 7.33 2.66 7.66 3 8 C3.07313567 10.53049402 3.09247527 13.03304837 3.0625 15.5625 C3.05798828 16.27341797 3.05347656 16.98433594 3.04882812 17.71679688 C3.03700864 19.47790013 3.01907263 21.23896036 3 23 C-1.32359794 19.97120985 -3.80117502 16.55564834 -6.3125 12 C-6.67150391 11.38382813 -7.03050781 10.76765625 -7.40039062 10.1328125 C-9.31240788 6.73852663 -10 4.98653039 -10 1 C-6.78548731 -0.60725635 -3.56387464 -0.05748185 0 0 Z " fill="#82715F" transform="translate(18,73)"/>
<path d="M0 0 C0.33 0.99 0.66 1.98 1 3 C2.65 3.33 4.3 3.66 6 4 C5.67 4.99 5.34 5.98 5 7 C4.01 6.67 3.02 6.34 2 6 C2 7.32 2 8.64 2 10 C4.31 10.33 6.62 10.66 9 11 C8.49287967 14.71888239 7.88391785 17.73454239 6 21 C-0.4971865 20.38705788 -0.4971865 20.38705788 -2.62890625 18.74609375 C-4.24690646 16.68556357 -4.88220569 14.88091048 -5.625 12.375 C-6.36014144 9.42560369 -6.36014144 9.42560369 -8 7 C-8.375 4.625 -8.375 4.625 -8 2 C-3.92125984 -1.30708661 -3.92125984 -1.30708661 0 0 Z " fill="#44373D" transform="translate(63,74)"/>
<path d="M0 0 C2.52259061 1.97420135 2.9929808 2.96745642 3.6875 6.1875 C3.790625 7.115625 3.89375 8.04375 4 9 C4.66 8.01 5.32 7.02 6 6 C9.89165271 4.63071479 12.85843452 4 17 4 C17.33 4.99 17.66 5.98 18 7 C16.43694509 8.56305491 14.72321782 8.30639968 12.5625 8.5 C9.15502495 8.79146944 9.15502495 8.79146944 6 10 C6 10.99 6 11.98 6 13 C7.97536745 12.65213292 7.97536745 12.65213292 10 12 C10.33 11.34 10.66 10.68 11 10 C12.5778125 10.495 12.5778125 10.495 14.1875 11 C17.38873357 11.83966782 19.7411008 12.19750904 23 12 C22.67 13.65 22.34 15.3 22 17 C18.04 17.495 18.04 17.495 14 18 C14 17.34 14 16.68 14 16 C11.58354218 15.83312552 11.58354218 15.83312552 9 16 C8.34 16.66 7.68 17.32 7 18 C6.01 18 5.02 18 4 18 C4.66 20.64 5.32 23.28 6 26 C3 28 3 28 0 28 C-0.19282766 24.8183436 0.10935045 22.64621914 1.0625 19.5625 C2.04802223 15.81751551 1.76273038 13.72890409 1 10 C1.33 9.01 1.66 8.02 2 7 C1.34 7 0.68 7 0 7 C0 4.69 0 2.38 0 0 Z " fill="#907166" transform="translate(51,58)"/>
<path d="M0 0 C3.79598549 1.49128001 5.71720399 3.65733441 8 7 C8 7.99 8 8.98 8 10 C5.69 10.33 3.38 10.66 1 11 C1 12.32 1 13.64 1 15 C1.99 15.33 2.98 15.66 4 16 C3.67 17.32 3.34 18.64 3 20 C0.69 19.67 -1.62 19.34 -4 19 C-4 19.66 -4 20.32 -4 21 C-3.34 21 -2.68 21 -2 21 C-2 21.66 -2 22.32 -2 23 C-2.66 23.33 -3.32 23.66 -4 24 C-4 25.65 -4 27.3 -4 29 C-10.75 26.125 -10.75 26.125 -13 25 C-13 23.68 -13 22.36 -13 21 C-11.0085944 20.61866701 -9.00720923 20.28674418 -7 20 C-6.67 20.33 -6.34 20.66 -6 21 C-5.87882812 20.22914062 -5.75765625 19.45828125 -5.6328125 18.6640625 C-5.46523437 17.66117188 -5.29765625 16.65828125 -5.125 15.625 C-4.96257812 14.62726562 -4.80015625 13.62953125 -4.6328125 12.6015625 C-4 10 -4 10 -2 8 C-2.66 7.67 -3.32 7.34 -4 7 C-3.67 5.68 -3.34 4.36 -3 3 C-2.01 3 -1.02 3 0 3 C0 2.01 0 1.02 0 0 Z " fill="#88917C" transform="translate(96,20)"/>
<path d="M0 0 C6.75 0.75 6.75 0.75 9 3 C11.58354218 3.16687448 11.58354218 3.16687448 14 3 C14 3.66 14 4.32 14 5 C14.99 5.33 15.98 5.66 17 6 C17.28571429 13.42857143 17.28571429 13.42857143 15 17 C10.125 12.375 10.125 12.375 9 9 C3.84828377 8.90961901 -0.91913204 9.15318867 -6 10 C-6.33 11.98 -6.66 13.96 -7 16 C-7.33 16 -7.66 16 -8 16 C-7.85892253 14.54119891 -7.71197585 13.08296449 -7.5625 11.625 C-7.48128906 10.81289063 -7.40007813 10.00078125 -7.31640625 9.1640625 C-7 7 -7 7 -6 5 C-5.360625 4.690625 -4.72125 4.38125 -4.0625 4.0625 C-1.68028507 3.04654078 -1.68028507 3.04654078 0 0 Z " fill="#42353B" transform="translate(62,53)"/>
<path d="M0 0 C4.29 0.33 8.58 0.66 13 1 C12.04840558 5.75797209 11.04249682 7.88132298 8.4375 11.8125 C7.79683594 12.78832031 7.15617187 13.76414062 6.49609375 14.76953125 C6.00238281 15.50558594 5.50867188 16.24164063 5 17 C3.02 16.34 1.04 15.68 -1 15 C-2.41582579 9.50501181 -1.23971466 5.46932937 0 0 Z " fill="#5472BB" transform="translate(96,76)"/>
<path d="M0 0 C0.66 0 1.32 0 2 0 C1.67 7.26 1.34 14.52 1 22 C-2.63 22 -6.26 22 -10 22 C-8.14884195 13.61534293 -5.42618681 6.759852 0 0 Z " fill="#F7F2EA" transform="translate(16,24)"/>
<path d="M0 0 C0.99 0.33 1.98 0.66 3 1 C3.43171933 7.47578998 1.8404993 12.78831485 0 19 C-4.29 18.34 -8.58 17.68 -13 17 C-12.67 15.02 -12.34 13.04 -12 11 C-10.35 10.67 -8.7 10.34 -7 10 C-7 9.34 -7 8.68 -7 8 C-4.36 7.34 -1.72 6.68 1 6 C0.67 5.67 0.34 5.34 0 5 C-0.04063832 3.33382885 -0.042721 1.66611905 0 0 Z " fill="#CEDAD8" transform="translate(110,59)"/>
<path d="M0 0 C0 0.66 0 1.32 0 2 C0.66 2.33 1.32 2.66 2 3 C2.625 5.5625 2.625 5.5625 3 8 C1.68 8.33 0.36 8.66 -1 9 C-1 9.66 -1 10.32 -1 11 C0.32 11.33 1.64 11.66 3 12 C3 13.32 3 14.64 3 16 C1.35 16 -0.3 16 -2 16 C-2 14.68 -2 13.36 -2 12 C-2.66 12 -3.32 12 -4 12 C-4 12.99 -4 13.98 -4 15 C-5.32 15 -6.64 15 -8 15 C-7.67 13.02 -7.34 11.04 -7 9 C-7.66 9 -8.32 9 -9 9 C-9.375 6.25 -9.375 6.25 -9 3 C-4 -1.33333333 -4 -1.33333333 0 0 Z " fill="#826856" transform="translate(31,53)"/>
<path d="M0 0 C2.29013653 3.4352048 2.17842973 4.985331 2 9 C1.01 9 0.02 9 -1 9 C-1.33 9.99 -1.66 10.98 -2 12 C-3.29355827 13.37195574 -4.62298702 14.71182656 -6 16 C-7.32 14.35 -8.64 12.7 -10 11 C-9.34 9.35 -8.68 7.7 -8 6 C-8.66 5.67 -9.32 5.34 -10 5 C-10 3.35 -10 1.7 -10 0 C-3.375 -1.125 -3.375 -1.125 0 0 Z " fill="#B4C8D1" transform="translate(88,14)"/>
<path d="M0 0 C0.58523437 0.2165625 1.17046875 0.433125 1.7734375 0.65625 C0.7834375 1.64625 -0.2065625 2.63625 -1.2265625 3.65625 C-2.70691014 3.18074439 -4.18581271 2.70073784 -5.6640625 2.21875 C-6.48777344 1.95191406 -7.31148437 1.68507813 -8.16015625 1.41015625 C-10.2265625 0.65625 -10.2265625 0.65625 -11.2265625 -0.34375 C-13.57643512 -0.57902773 -15.93212289 -0.75761417 -18.2890625 -0.90625 C-20.5784375 -1.050625 -22.8678125 -1.195 -25.2265625 -1.34375 C-25.2265625 3.60625 -25.2265625 8.55625 -25.2265625 13.65625 C-25.8865625 13.65625 -26.5465625 13.65625 -27.2265625 13.65625 C-27.5565625 15.63625 -27.8865625 17.61625 -28.2265625 19.65625 C-28.5565625 19.65625 -28.8865625 19.65625 -29.2265625 19.65625 C-29.2265625 12.72625 -29.2265625 5.79625 -29.2265625 -1.34375 C-21.56632764 -5.17386743 -7.73011095 -2.50706301 0 0 Z " fill="#C6B4C0" transform="translate(77.2265625,6.34375)"/>
<path d="M0 0 C0.33 0.66 0.66 1.32 1 2 C2.98567708 1.96744792 4.97135417 1.93489583 6.95703125 1.90234375 C9 2 9 2 12 3 C13.8125 5.25 13.8125 5.25 15 8 C14.1875 10.8125 14.1875 10.8125 13 13 C11.02 13 9.04 13 7 13 C6.67 11.35 6.34 9.7 6 8 C5.34 9.32 4.68 10.64 4 12 C3.34 12 2.68 12 2 12 C2 11.34 2 10.68 2 10 C1.34 10 0.68 10 0 10 C0 6.7 0 3.4 0 0 Z " fill="#BBAB95" transform="translate(5,48)"/>
<path d="M0 0 C0.33 0 0.66 0 1 0 C1 2.31 1 4.62 1 7 C1.94875 7.12375 2.8975 7.2475 3.875 7.375 C7 8 7 8 9 10 C8.34 10 7.68 10 7 10 C7.825 10.845625 8.65 11.69125 9.5 12.5625 C11.73680773 15.23777288 12.00939115 16.07043363 12.5 19.75 C12.335 20.8225 12.17 21.895 12 23 C11.01 23.66 10.02 24.32 9 25 C8.67 24.01 8.34 23.02 8 22 C7.01 21.566875 7.01 21.566875 6 21.125 C4 20 4 20 3.25 17.375 C3.1675 16.59125 3.085 15.8075 3 15 C2.01 14.67 1.02 14.34 0 14 C0 13.34 0 12.68 0 12 C0.99 11.67 1.98 11.34 3 11 C2.01 10.67 1.02 10.34 0 10 C0 6.7 0 3.4 0 0 Z " fill="#EDCAA0" transform="translate(23,22)"/>
<path d="M0 0 C4.29 0.66 8.58 1.32 13 2 C13 2.99 13 3.98 13 5 C12.01 5 11.02 5 10 5 C10.020625 6.051875 10.04125 7.10375 10.0625 8.1875 C10.01103198 11.32704904 9.73482813 13.96883396 9 17 C7.35 17 5.7 17 4 17 C3.896875 16.360625 3.79375 15.72125 3.6875 15.0625 C3.460625 14.381875 3.23375 13.70125 3 13 C2.01 12.67 1.02 12.34 0 12 C0 11.34 0 10.68 0 10 C0.99 9.34 1.98 8.68 3 8 C2.01 5.36 1.02 2.72 0 0 Z " fill="#987F5A" transform="translate(30,52)"/>
<path d="M0 0 C0.66 0 1.32 0 2 0 C2 0.66 2 1.32 2 2 C4.97 1.34 7.94 0.68 11 0 C11 0.66 11 1.32 11 2 C7.99874026 4.34473417 5.65110891 5.13205362 1.9375 5.375 C-1.98965409 5.66005682 -1.98965409 5.66005682 -4.375 7.9375 C-6.60164174 12.13386329 -7.31093482 16.33067677 -8 21 C-8.66 21 -9.32 21 -10 21 C-10 14.4 -10 7.8 -10 1 C-9.34 1 -8.68 1 -8 1 C-8 1.66 -8 2.32 -8 3 C-5.69 3 -3.38 3 -1 3 C-0.67 2.01 -0.34 1.02 0 0 Z " fill="#B1867F" transform="translate(59,45)"/>
<path d="M0 0 C1.32 0.66 2.64 1.32 4 2 C4 2.66 4 3.32 4 4 C4.825 4.515625 5.65 5.03125 6.5 5.5625 C9 8 9 8 9.33203125 10.26171875 C9.3142594 12.52585287 9.21666999 14.74663208 9 17 C7.68 17 6.36 17 5 17 C4.67 15.02 4.34 13.04 4 11 C2.35 11.33 0.7 11.66 -1 12 C-0.67 10.35 -0.34 8.7 0 7 C-1.65 7.33 -3.3 7.66 -5 8 C-5 6.68 -5 5.36 -5 4 C-4.01 3.67 -3.02 3.34 -2 3 C-1.34 2.01 -0.68 1.02 0 0 Z " fill="#B6C3C9" transform="translate(72,21)"/>
<path d="M0 0 C0.66 0 1.32 0 2 0 C2.99 2.64 3.98 5.28 5 8 C4.34 8 3.68 8 3 8 C3 14.6 3 21.2 3 28 C4.32 27.67 5.64 27.34 7 27 C7.042721 28.66611905 7.04063832 30.33382885 7 32 C6 33 6 33 4.23413086 33.11352539 C3.48526611 33.10828857 2.73640137 33.10305176 1.96484375 33.09765625 C1.15595703 33.09443359 0.34707031 33.09121094 -0.48632812 33.08789062 C-1.33646484 33.07951172 -2.18660156 33.07113281 -3.0625 33.0625 C-3.91650391 33.05798828 -4.77050781 33.05347656 -5.65039062 33.04882812 C-7.76695663 33.03700373 -9.88348685 33.01906769 -12 33 C-11.34 32.34 -10.68 31.68 -10 31 C-6.375 31.375 -6.375 31.375 -3 32 C-3 31.34 -3 30.68 -3 30 C-1.68 30.33 -0.36 30.66 1 31 C0.67 20.77 0.34 10.54 0 0 Z " fill="#C8A18F" transform="translate(46,38)"/>
<path d="M0 0 C2 3 2 3 2 5 C4.64 5.66 7.28 6.32 10 7 C7.25 11.875 7.25 11.875 5 13 C5.185625 13.78375 5.37125 14.5675 5.5625 15.375 C6 18 6 18 5 20 C6.32 20.66 7.64 21.32 9 22 C8.34 22.33 7.68 22.66 7 23 C6.34 22.67 5.68 22.34 5 22 C5 22.66 5 23.32 5 24 C4.01 24 3.02 24 2 24 C2 23.34 2 22.68 2 22 C1.34 22 0.68 22 0 22 C-0.33 22.66 -0.66 23.32 -1 24 C-2.65 24 -4.3 24 -6 24 C-2.87091256 20.26916498 -0.75256914 19.61848503 4 19 C3.71125 18.04738281 3.4225 17.09476563 3.125 16.11328125 C2.75375 14.85902344 2.3825 13.60476562 2 12.3125 C1.62875 11.07113281 1.2575 9.82976562 0.875 8.55078125 C0.12296543 5.4989981 -0.19034899 3.11101638 0 0 Z " fill="#C9CCD1" transform="translate(58,88)"/>
<path d="M0 0 C1.67542976 0.28604898 3.34385343 0.61781233 5 1 C6.62243819 5.77187704 7.33814883 9.09345428 6 14 C5.01 15.485 5.01 15.485 4 17 C0.125 15.125 0.125 15.125 -1 14 C-1.0989294 11.83519203 -1.129711 9.66706215 -1.125 7.5 C-1.12757812 6.3140625 -1.13015625 5.128125 -1.1328125 3.90625 C-1 1 -1 1 0 0 Z " fill="#5A4F41" transform="translate(22,83)"/>
<path d="M0 0 C1.32 0.66 2.64 1.32 4 2 C3.67 2.99 3.34 3.98 3 5 C4.98 5 6.96 5 9 5 C9 5.66 9 6.32 9 7 C9.66 7 10.32 7 11 7 C11.33 6.34 11.66 5.68 12 5 C14 6 14 6 14.875 8.4375 C15.77050152 11.13605515 15.77050152 11.13605515 18.125 12.3125 C18.74375 12.539375 19.3625 12.76625 20 13 C19.01 13.99 18.02 14.98 17 16 C16.67 15.01 16.34 14.02 16 13 C14.01578741 12.28771856 12.01032877 11.63484067 10 11 C6.62637701 9.41122971 3.31123831 7.7145147 0 6 C-0.33 7.32 -0.66 8.64 -1 10 C-2.41377341 7.36095629 -3.37240135 4.92879371 -4 2 C-2.68 2 -1.36 2 0 2 C0 1.34 0 0.68 0 0 Z " fill="#A7A9A0" transform="translate(80,80)"/>
<path d="M0 0 C0.79921875 0.00902344 1.5984375 0.01804688 2.421875 0.02734375 C3.02515625 0.03894531 3.6284375 0.05054688 4.25 0.0625 C4.25 0.7225 4.25 1.3825 4.25 2.0625 C5.343125 2.000625 6.43625 1.93875 7.5625 1.875 C11.25 2.0625 11.25 2.0625 13.1875 3.4375 C14.25 5.0625 14.25 5.0625 14.25 7.0625 C13.59 7.0625 12.93 7.0625 12.25 7.0625 C12.25 6.4025 12.25 5.7425 12.25 5.0625 C11.46625 5.26875 10.6825 5.475 9.875 5.6875 C9.00875 5.81125 8.1425 5.935 7.25 6.0625 C6.59 5.4025 5.93 4.7425 5.25 4.0625 C2.92724823 3.66202556 0.59260643 3.3227896 -1.75 3.0625 C-2.3996875 4.0525 -2.3996875 4.0525 -3.0625 5.0625 C-3.619375 5.7225 -4.17625 6.3825 -4.75 7.0625 C-5.74 7.0625 -6.73 7.0625 -7.75 7.0625 C-8.08 8.7125 -8.41 10.3625 -8.75 12.0625 C-10.3125 10.9375 -10.3125 10.9375 -11.75 9.0625 C-11.52669287 5.41515021 -11.36627165 3.67877165 -8.75 1.0625 C-5.80049953 0.06042612 -3.09837394 -0.04556432 0 0 Z " fill="#735B61" transform="translate(63.75,50.9375)"/>
<path d="M0 0 C1.65 0.33 3.3 0.66 5 1 C5.96070434 3.88211302 6.10581883 5.69850044 6.0625 8.6875 C6.05347656 9.49574219 6.04445313 10.30398437 6.03515625 11.13671875 C6.02355469 11.75160156 6.01195313 12.36648437 6 13 C5.21625 12.95875 4.4325 12.9175 3.625 12.875 C0.83883881 12.71271266 0.83883881 12.71271266 -1 15 C-3 12 -3 12 -3 9 C-3.66 9 -4.32 9 -5 9 C-4.67 7.68 -4.34 6.36 -4 5 C-2.35 5 -0.7 5 1 5 C0.67 3.35 0.34 1.7 0 0 Z " fill="#D1DEE5" transform="translate(71,9)"/>
<path d="M0 0 C2.64 0 5.28 0 8 0 C7.34 4.29 6.68 8.58 6 13 C3.69 13 1.38 13 -1 13 C-0.67 10.03 -0.34 7.06 0 4 C-0.66 4 -1.32 4 -2 4 C-1.34 2.68 -0.68 1.36 0 0 Z " fill="#BAAFA6" transform="translate(101,51)"/>
<path d="M0 0 C0.66 0 1.32 0 2 0 C2 1.32 2 2.64 2 4 C1.34 4 0.68 4 0 4 C0.33 4.721875 0.66 5.44375 1 6.1875 C2.00603529 9.01697427 2.16977402 11.02895466 2 14 C3.32 13.67 4.64 13.34 6 13 C6 13.66 6 14.32 6 15 C6.66 15 7.32 15 8 15 C8.125 18.375 8.125 18.375 8 22 C7.34 22.66 6.68 23.32 6 24 C6 23.01 6 22.02 6 21 C4.35 21.33 2.7 21.66 1 22 C1.020625 20.88625 1.04125 19.7725 1.0625 18.625 C1.26380718 15.16784079 1.26380718 15.16784079 0 13 C0 13.99 0 14.98 0 16 C-0.99 16 -1.98 16 -3 16 C-3.15620438 6.62773723 -3.15620438 6.62773723 -2 4 C-1.01 3.67 -0.02 3.34 1 3 C0.67 2.01 0.34 1.02 0 0 Z " fill="#B2B0A3" transform="translate(93,40)"/>
<path d="M0 0 C0.66 0 1.32 0 2 0 C2.33 5.94 2.66 11.88 3 18 C3.33 17.01 3.66 16.02 4 15 C4.66 15.33 5.32 15.66 6 16 C6 23.59 6 31.18 6 39 C5.01 39.495 5.01 39.495 4 40 C1.52657135 34.93508615 0.54107613 30.76309969 0.48828125 25.09765625 C0.47033005 24.3750914 0.45237885 23.65252655 0.43388367 22.9080658 C0.38019994 20.62626789 0.34602237 18.34467394 0.3125 16.0625 C0.27928964 14.50452915 0.24479659 12.94658509 0.20898438 11.38867188 C0.1244988 7.5925962 0.0574902 3.79657656 0 0 Z " fill="#D8C1BC" transform="translate(46,5)"/>
<path d="M0 0 C0.33 0 0.66 0 1 0 C1 1.65 1 3.3 1 5 C1.99 5 2.98 5 4 5 C4 5.66 4 6.32 4 7 C2.02 7.33 0.04 7.66 -2 8 C-0.02 8 1.96 8 4 8 C4 9.98 4 11.96 4 14 C5.32 14.33 6.64 14.66 8 15 C6.02 15.33 4.04 15.66 2 16 C1.34 14.68 0.68 13.36 0 12 C0.185625 12.639375 0.37125 13.27875 0.5625 13.9375 C0.706875 14.618125 0.85125 15.29875 1 16 C0 17 0 17 -2.5625 17.0625 C-3.366875 17.041875 -4.17125 17.02125 -5 17 C-5 16.34 -5 15.68 -5 15 C-4.01 15 -3.02 15 -2 15 C-2.99 14.34 -3.98 13.68 -5 13 C-5.70052461 10.336937 -5.77744818 7.75964263 -6 5 C-5.01 5 -4.02 5 -3 5 C-2.5359375 4.0409375 -2.5359375 4.0409375 -2.0625 3.0625 C-1 1 -1 1 0 0 Z " fill="#D2DAE2" transform="translate(68,95)"/>
<path d="M0 0 C-0.99 0.66 -1.98 1.32 -3 2 C-2.505 2.721875 -2.01 3.44375 -1.5 4.1875 C0.07919285 7.14848659 0.28178312 8.71253029 0 12 C-0.66 12 -1.32 12 -2 12 C-2 9.69 -2 7.38 -2 5 C-2.66 5 -3.32 5 -4 5 C-4.33 6.32 -4.66 7.64 -5 9 C-5 8.34 -5 7.68 -5 7 C-6.32 6.67 -7.64 6.34 -9 6 C-9.33 4.35 -9.66 2.7 -10 1 C-10.99 1 -11.98 1 -13 1 C-13 1.66 -13 2.32 -13 3 C-13.66 3 -14.32 3 -15 3 C-15 2.34 -15 1.68 -15 1 C-18.63 1.66 -22.26 2.32 -26 3 C-26 2.01 -26 1.02 -26 0 C-17.26956048 -1.42861738 -8.77089601 -0.65454448 0 0 Z " fill="#9D8D79" transform="translate(33,72)"/>
<path d="M0 0 C0.66 0 1.32 0 2 0 C3.33583899 4.84241633 4.25328119 8.93437617 4 14 C3.34 14 2.68 14 2 14 C2 13.34 2 12.68 2 12 C0.02 12 -1.96 12 -4 12 C-4 11.01 -4 10.02 -4 9 C-4.99 9 -5.98 9 -7 9 C-7.99 9 -8.98 9 -10 9 C-9.34 7.68 -8.68 6.36 -8 5 C-7.01 5.33 -6.02 5.66 -5 6 C-5 5.01 -5 4.02 -5 3 C-4.360625 2.87625 -3.72125 2.7525 -3.0625 2.625 C-2.0415625 2.315625 -2.0415625 2.315625 -1 2 C-0.67 1.34 -0.34 0.68 0 0 Z " fill="#8A918A" transform="translate(87,73)"/>
<path d="M0 0 C2.31 0 4.62 0 7 0 C7 1.98 7 3.96 7 6 C7.99 6 8.98 6 10 6 C10.25 8.8125 10.25 8.8125 10 12 C8.1875 13.875 8.1875 13.875 6 15 C5.01 15 4.02 15 3 15 C2.34 11.7 1.68 8.4 1 5 C1.66 5 2.32 5 3 5 C3 3.68 3 2.36 3 1 C2.01 1.33 1.02 1.66 0 2 C0 1.34 0 0.68 0 0 Z " fill="#EAEBE0" transform="translate(92,39)"/>
<path d="M0 0 C1.98 0 3.96 0 6 0 C8 3 8 3 8 6 C7.01 6 6.02 6 5 6 C5 7.65 5 9.3 5 11 C5.66 11 6.32 11 7 11 C7 11.66 7 12.32 7 13 C6.34 13 5.68 13 5 13 C4.34 13.66 3.68 14.32 3 15 C1.68 14.67 0.36 14.34 -1 14 C-0.67 9.38 -0.34 4.76 0 0 Z " fill="#F0F6F9" transform="translate(62,19)"/>
<path d="M0 0 C0.33 0.99 0.66 1.98 1 3 C2.65 3.33 4.3 3.66 6 4 C5.67 4.99 5.34 5.98 5 7 C4.01 6.67 3.02 6.34 2 6 C2 7.32 2 8.64 2 10 C0.02 10 -1.96 10 -4 10 C-4.33 11.32 -4.66 12.64 -5 14 C-8.8490566 5.82075472 -8.8490566 5.82075472 -8 2 C-3.92125984 -1.30708661 -3.92125984 -1.30708661 0 0 Z " fill="#584343" transform="translate(63,74)"/>
<path d="M0 0 C0.33 0.99 0.66 1.98 1 3 C2.32 3 3.64 3 5 3 C5 3.66 5 4.32 5 5 C7.64 5 10.28 5 13 5 C12.01 11.27 11.02 17.54 10 24 C9.34 24 8.68 24 8 24 C8.66 19.71 9.32 15.42 10 11 C7.69 11 5.38 11 3 11 C2.67 9.35 2.34 7.7 2 6 C1.01 5.67 0.02 5.34 -1 5 C-0.67 3.35 -0.34 1.7 0 0 Z " fill="#BDC1B7" transform="translate(99,40)"/>
<path d="M0 0 C-0.33 1.65 -0.66 3.3 -1 5 C0.65 4.67 2.3 4.34 4 4 C4.33 4.99 4.66 5.98 5 7 C4.01 7.33 3.02 7.66 2 8 C2 7.34 2 6.68 2 6 C1.34 6 0.68 6 0 6 C0.33 6.99 0.66 7.98 1 9 C0.34 9 -0.32 9 -1 9 C-1.33 9.99 -1.66 10.98 -2 12 C-2.99 12 -3.98 12 -5 12 C-4.9071875 13.175625 -4.9071875 13.175625 -4.8125 14.375 C-4.874375 15.24125 -4.93625 16.1075 -5 17 C-5.99 17.66 -6.98 18.32 -8 19 C-8.99 18.67 -9.98 18.34 -11 18 C-10.34 18 -9.68 18 -9 18 C-9 16.35 -9 14.7 -9 13 C-8.34 13 -7.68 13 -7 13 C-6.896875 12.360625 -6.79375 11.72125 -6.6875 11.0625 C-6.460625 10.381875 -6.23375 9.70125 -6 9 C-5.01 8.67 -4.02 8.34 -3 8 C-3 7.34 -3 6.68 -3 6 C-3.66 6 -4.32 6 -5 6 C-5 5.34 -5 4.68 -5 4 C-4.34 4 -3.68 4 -3 4 C-3 3.34 -3 2.68 -3 2 C-3.66 1.67 -4.32 1.34 -5 1 C-2 0 -2 0 0 0 Z " fill="#D4DCDD" transform="translate(72,28)"/>
<path d="M0 0 C2.31 0 4.62 0 7 0 C7.3152595 5.98993047 6.68219822 9.63560356 4 15 C1.7522025 12.94766315 0.9977758 11.99332739 0 9 C-0.06740865 7.43881572 -0.08514456 5.8749748 -0.0625 4.3125 C-0.05347656 3.50425781 -0.04445312 2.69601563 -0.03515625 1.86328125 C-0.02355469 1.24839844 -0.01195312 0.63351563 0 0 Z " fill="#7B6F61" transform="translate(42,71)"/>
<path d="M0 0 C4.29 0.33 8.58 0.66 13 1 C12 6 12 6 10 8 C8.125 7.625 8.125 7.625 6 7 C4.68 7 3.36 7 2 7 C0 6 0 6 -0.6875 4.0625 C-1 2 -1 2 0 0 Z " fill="#5777B6" transform="translate(96,76)"/>
<path d="M0 0 C0.33 0 0.66 0 1 0 C1.10957031 0.61488281 1.21914063 1.22976562 1.33203125 1.86328125 C1.49058594 2.67152344 1.64914063 3.47976562 1.8125 4.3125 C1.96332031 5.11300781 2.11414062 5.91351563 2.26953125 6.73828125 C3.07572236 9.23445587 4.02052002 10.32422106 6 12 C4.07728016 17.26218062 2.61258547 19.58774365 -2 23 C-1.85823579 20.29139876 -1.71171784 17.58319248 -1.5625 14.875 C-1.50352539 13.73417969 -1.50352539 13.73417969 -1.44335938 12.5703125 C-1.20490998 8.31490797 -0.79769763 4.19629174 0 0 Z " fill="#AE9F8E" transform="translate(37,80)"/>
<path d="M0 0 C2.64 0.33 5.28 0.66 8 1 C8 2.32 8 3.64 8 5 C8.66 5 9.32 5 10 5 C10 3.68 10 2.36 10 1 C10.66 1 11.32 1 12 1 C11.67 2.98 11.34 4.96 11 7 C12.32 7 13.64 7 15 7 C15 6.01 15 5.02 15 4 C15.66 4 16.32 4 17 4 C17 5.32 17 6.64 17 8 C12.05 8 7.1 8 2 8 C0 2 0 2 0 0 Z " fill="#8D7A67" transform="translate(12,61)"/>
<path d="M0 0 C1.18851563 0.00902344 2.37703125 0.01804687 3.6015625 0.02734375 C4.51679687 0.03894531 5.43203125 0.05054687 6.375 0.0625 C6.705 1.3825 7.035 2.7025 7.375 4.0625 C3.6733569 5.00943195 1.98387535 5.36693767 -1.5 3.625 C-2.20125 3.109375 -2.9025 2.59375 -3.625 2.0625 C-4.285 3.3825 -4.945 4.7025 -5.625 6.0625 C-6.945 5.7325 -8.265 5.4025 -9.625 5.0625 C-9.25 3.125 -9.25 3.125 -8.625 1.0625 C-5.74084117 -0.37957941 -3.20778472 -0.03144887 0 0 Z " fill="#593F3C" transform="translate(65.625,65.9375)"/>
<path d="M0 0 C0.66 0 1.32 0 2 0 C1.67 2.64 1.34 5.28 1 8 C-2.01031744 8.93423645 -2.86650268 9.04449911 -6 8 C-6 7.34 -6 6.68 -6 6 C-7.299375 6.2475 -7.299375 6.2475 -8.625 6.5 C-11.81225199 6.97218548 -14.78485027 7.07655118 -18 7 C-17.67 6.34 -17.34 5.68 -17 5 C-14.97456444 4.74280183 -12.94649776 4.49157878 -10.91015625 4.34375 C-8.76477844 4.14523788 -8.76477844 4.14523788 -7 2 C-3.875 2.375 -3.875 2.375 -1 3 C-0.67 2.01 -0.34 1.02 0 0 Z " fill="#696068" transform="translate(74,45)"/>
<path d="M0 0 C-0.33 3.96 -0.66 7.92 -1 12 C-1.99 12.33 -2.98 12.66 -4 13 C-4.12375 14.134375 -4.2475 15.26875 -4.375 16.4375 C-4.58125 17.613125 -4.7875 18.78875 -5 20 C-5.66 20.33 -6.32 20.66 -7 21 C-7.91752388 7.6449302 -7.91752388 7.6449302 -5.69921875 3.66796875 C-1.95985401 0 -1.95985401 0 0 0 Z " fill="#D4AE93" transform="translate(24,17)"/>
<path d="M0 0 C-0.99 0.33 -1.98 0.66 -3 1 C-3 1.66 -3 2.32 -3 3 C-4.63064764 4.05771739 -6.30280873 5.05273046 -8 6 C-8.99 6.66 -9.98 7.32 -11 8 C-11.33 7.34 -11.66 6.68 -12 6 C-12.12375 6.680625 -12.2475 7.36125 -12.375 8.0625 C-13.09100877 11.4277412 -14.02945125 14.70013425 -15 18 C-15.33 18 -15.66 18 -16 18 C-16.7752545 8.16288175 -16.7752545 8.16288175 -14 4 C-9.56538978 1.04359319 -5.28746041 -1.7624868 0 0 Z " fill="#F0F5F8" transform="translate(57,86)"/>
<path d="M0 0 C0.66 0 1.32 0 2 0 C2 0.66 2 1.32 2 2 C2.66 2.33 3.32 2.66 4 3 C2.52307692 9.52307692 2.52307692 9.52307692 -0.125 11.9375 C-0.74375 12.288125 -1.3625 12.63875 -2 13 C-2 12.34 -2 11.68 -2 11 C-3.65 11.33 -5.3 11.66 -7 12 C-6.34 11.67 -5.68 11.34 -5 11 C-5 9.35 -5 7.7 -5 6 C-4.01 5.67 -3.02 5.34 -2 5 C-0.78130071 2.49552484 -0.78130071 2.49552484 0 0 Z " fill="#B8BC9D" transform="translate(72,34)"/>
<path d="M0 0 C2.46800047 1.15173355 4.04783565 2.04783565 6 4 C6.66 3.67 7.32 3.34 8 3 C8 4.65 8 6.3 8 8 C6.68 7.67 5.36 7.34 4 7 C4 7.66 4 8.32 4 9 C0.5625 8.1875 0.5625 8.1875 -3 7 C-3.33 6.01 -3.66 5.02 -4 4 C-4.66 4 -5.32 4 -6 4 C-6 3.01 -6 2.02 -6 1 C-5.34 1 -4.68 1 -4 1 C-4 1.66 -4 2.32 -4 3 C-2.68 3 -1.36 3 0 3 C0 2.01 0 1.02 0 0 Z " fill="#F3D2B2" transform="translate(27,42)"/>
<path d="M0 0 C0.99 0.33 1.98 0.66 3 1 C2.38722388 3.96175123 1.74627478 5.38058783 0 8 C0.66 8 1.32 8 2 8 C1.6875 9.9375 1.6875 9.9375 1 12 C0.01 12.33 -0.98 12.66 -2 13 C-2.79953138 9.71303767 -3.09658936 8.28976808 -2 5 C-2.66 5 -3.32 5 -4 5 C-4.33 6.32 -4.66 7.64 -5 9 C-5.99 8.34 -6.98 7.68 -8 7 C-5.6875 4.5 -5.6875 4.5 -3 2 C-2.01 2 -1.02 2 0 2 C0 1.34 0 0.68 0 0 Z " fill="#858470" transform="translate(78,40)"/>
<path d="M0 0 C0.07654536 4.51617599 0.10228696 8.59085217 -1 13 C-1.66 13 -2.32 13 -3 13 C-3 10.03 -3 7.06 -3 4 C-3.99 3.67 -4.98 3.34 -6 3 C-6 3.66 -6 4.32 -6 5 C-6.66 5 -7.32 5 -8 5 C-8.33 5.66 -8.66 6.32 -9 7 C-9.33 6.01 -9.66 5.02 -10 4 C-10.66 3.34 -11.32 2.68 -12 2 C-8.09971775 -0.60018816 -4.52565431 -0.15085514 0 0 Z " fill="#8E7E6B" transform="translate(41,72)"/>
<path d="M0 0 C0.33 1.65 0.66 3.3 1 5 C0.01 5.495 0.01 5.495 -1 6 C-1.65555119 8.52733235 -1.65555119 8.52733235 -2 11 C-1.01 11.33 -0.02 11.66 1 12 C0.34 13.65 -0.32 15.3 -1 17 C0.32 18.65 1.64 20.3 3 22 C2.34 22.33 1.68 22.66 1 23 C-1.5 20.75 -1.5 20.75 -4 18 C-4 12.33333333 -4 6.66666667 -4 1 C-2 0 -2 0 0 0 Z " fill="#7A8489" transform="translate(80,8)"/>
<path d="M0 0 C2.35424675 -0.02726927 4.70816962 -0.04696719 7.0625 -0.0625 C8.37347656 -0.07410156 9.68445313 -0.08570312 11.03515625 -0.09765625 C14.79604214 -0.00502359 18.31263595 0.25313263 22 1 C22.33 1.66 22.66 2.32 23 3 C15.41 3 7.82 3 0 3 C0 2.01 0 1.02 0 0 Z " fill="#BBB2A2" transform="translate(6,69)"/>
<path d="M0 0 C6.75 -0.125 6.75 -0.125 9 1 C9 2.32 9 3.64 9 5 C8.34 5 7.68 5 7 5 C7 4.34 7 3.68 7 3 C6.34 3 5.68 3 5 3 C4.67 4.65 4.34 6.3 4 8 C3.67 7.34 3.34 6.68 3 6 C2.01 6 1.02 6 0 6 C-0.33 6.99 -0.66 7.98 -1 9 C-1.125 2.25 -1.125 2.25 0 0 Z " fill="#386885" transform="translate(82,70)"/>
<path d="M0 0 C1.98 0.66 3.96 1.32 6 2 C6 4.64 6 7.28 6 10 C6.99 10 7.98 10 9 10 C9 10.66 9 11.32 9 12 C7.35 12.66 5.7 13.32 4 14 C4.66 14 5.32 14 6 14 C6 16.31 6 18.62 6 21 C5.67 21 5.34 21 5 21 C4.71125 20.030625 4.4225 19.06125 4.125 18.0625 C3.35785318 14.89335797 3.35785318 14.89335797 1 14 C1.33 13.01 1.66 12.02 2 11 C2.99 11 3.98 11 5 11 C5 9.02 5 7.04 5 5 C4.360625 4.731875 3.72125 4.46375 3.0625 4.1875 C1 3 1 3 0 0 Z " fill="#AAAD9C" transform="translate(84,46)"/>
<path d="M0 0 C0.33 0.66 0.66 1.32 1 2 C1.99 1.67 2.98 1.34 4 1 C4.1799928 6.21979128 3.97094808 10.07262981 2 15 C0.35 14.67 -1.3 14.34 -3 14 C-2.505 13.175 -2.01 12.35 -1.5 11.5 C0.32352081 7.24511812 0.23673689 4.57691329 0 0 Z " fill="#756758" transform="translate(28,87)"/>
<path d="M0 0 C1.6875 5.0625 1.6875 5.0625 2 7 C1.34 7.66 0.68 8.32 0 9 C-0.21398438 8.35546875 -0.42796875 7.7109375 -0.6484375 7.046875 C-1.8473523 4.72160885 -1.8473523 4.72160885 -4.6015625 4.390625 C-5.59929688 4.34421875 -6.59703125 4.2978125 -7.625 4.25 C-9.12933594 4.16492187 -9.12933594 4.16492187 -10.6640625 4.078125 C-11.43492188 4.05234375 -12.20578125 4.0265625 -13 4 C-13 3.01 -13 2.02 -13 1 C-6.565 0.505 -6.565 0.505 0 0 Z " fill="#AF917B" transform="translate(19,46)"/>
<path d="M0 0 C0.33 0.66 0.66 1.32 1 2 C1.99 1.67 2.98 1.34 4 1 C4.0270043 2.45823212 4.04639787 3.91660675 4.0625 5.375 C4.07410156 6.18710938 4.08570313 6.99921875 4.09765625 7.8359375 C4 10 4 10 3 12 C0.69 12 -1.62 12 -4 12 C-3.01 11.67 -2.02 11.34 -1 11 C-0.67 7.37 -0.34 3.74 0 0 Z " fill="#F3BBA1" transform="translate(40,58)"/>
<path d="M0 0 C2.16874252 0.50603992 3.99967627 0.99983813 6 2 C7.26229508 6.47540984 7.26229508 6.47540984 6 9 C1.25 8.25 1.25 8.25 -1 6 C-0.625 2.875 -0.625 2.875 0 0 Z " fill="#C4CFD7" transform="translate(81,31)"/>
<path d="M0 0 C0.66 0 1.32 0 2 0 C2 6.93 2 13.86 2 21 C1.34 21 0.68 21 0 21 C0 19.35 0 17.7 0 16 C-0.66 16 -1.32 16 -2 16 C-2 14.68 -2 13.36 -2 12 C-1.34 12 -0.68 12 0 12 C0 8.04 0 4.08 0 0 Z " fill="#FFCFB7" transform="translate(42,16)"/>
<path d="M0 0 C0 4.62 0 9.24 0 14 C-0.66 13.67 -1.32 13.34 -2 13 C-2 12.34 -2 11.68 -2 11 C-2.66 11 -3.32 11 -4 11 C-4 8.36 -4 5.72 -4 3 C-4.99 2.67 -5.98 2.34 -7 2 C-1.125 0 -1.125 0 0 0 Z " fill="#F8DBC9" transform="translate(46,5)"/>
<path d="M0 0 C2.716903 3.0652239 4.3738876 5.93026937 5 10 C4.01 10.495 4.01 10.495 3 11 C2.7525 10.21625 2.505 9.4325 2.25 8.625 C0.84610901 5.67682892 -0.00675737 5.0975223 -3 4 C-3 3.01 -3 2.02 -3 1 C-6.96 1.99 -10.92 2.98 -15 4 C-15 3.34 -15 2.68 -15 2 C-9.79353935 0.26451312 -5.49371291 -0.72048694 0 0 Z " fill="#735752" transform="translate(71,61)"/>
<path d="M0 0 C0.33 0.99 0.66 1.98 1 3 C5.62 3 10.24 3 15 3 C13.68 3.33 12.36 3.66 11 4 C11 4.66 11 5.32 11 6 C9.44240657 6.53532823 7.87861955 7.05265378 6.3125 7.5625 C5.44238281 7.85253906 4.57226562 8.14257812 3.67578125 8.44140625 C0.75368926 9.05141961 -1.14400553 8.77703633 -4 8 C-4 7.67 -4 7.34 -4 7 C-1.69 7 0.62 7 3 7 C3 6.34 3 5.68 3 5 C2.01 5 1.02 5 0 5 C0 3.35 0 1.7 0 0 Z " fill="#DEE7F1" transform="translate(69,95)"/>
<path d="M0 0 C1.32 0.66 2.64 1.32 4 2 C3.67 2.99 3.34 3.98 3 5 C4.32 5.33 5.64 5.66 7 6 C6.67 6.66 6.34 7.32 6 8 C4.02 7.34 2.04 6.68 0 6 C-0.33 7.32 -0.66 8.64 -1 10 C-2.41377341 7.36095629 -3.37240135 4.92879371 -4 2 C-2.68 2 -1.36 2 0 2 C0 1.34 0 0.68 0 0 Z " fill="#B4BAB5" transform="translate(80,80)"/>
<path d="M0 0 C1.65 0 3.3 0 5 0 C4.67 0.66 4.34 1.32 4 2 C3.01 2 2.02 2 1 2 C1.66 4.64 2.32 7.28 3 10 C0 12 0 12 -3 12 C-3.43200679 7.24792529 -1.98489083 4.21789302 0 0 Z " fill="#7E6D62" transform="translate(54,74)"/>
<path d="M0 0 C2.46800047 1.15173355 4.04783565 2.04783565 6 4 C6.3125 7.5 6.3125 7.5 6 11 C5.01 11.66 4.02 12.32 3 13 C2.67 12.01 2.34 11.02 2 10 C1.34 10 0.68 10 0 10 C0.185625 9.278125 0.37125 8.55625 0.5625 7.8125 C1.01995307 4.87173027 0.73516357 2.85896942 0 0 Z " fill="#E6C092" transform="translate(29,34)"/>
<path d="M0 0 C3.33523252 1.38009621 5.18607951 2.84950652 7 6 C6.67 6.99 6.34 7.98 6 9 C5.67 8.34 5.34 7.68 5 7 C3.68 7 2.36 7 1 7 C-0.66666667 7 -2.33333333 7 -4 7 C-3.67 5.68 -3.34 4.36 -3 3 C-2.01 3 -1.02 3 0 3 C0 2.01 0 1.02 0 0 Z " fill="#707F6F" transform="translate(96,20)"/>
<path d="M0 0 C0.875 1.875 0.875 1.875 1 4 C-0.3125 5.75 -0.3125 5.75 -2 7 C-2.66 7 -3.32 7 -4 7 C-4 5.68 -4 4.36 -4 3 C-5.65 3.33 -7.3 3.66 -9 4 C-9 2.68 -9 1.36 -9 0 C-3.375 -1.125 -3.375 -1.125 0 0 Z " fill="#D6E3E9" transform="translate(88,14)"/>
<path d="M0 0 C7.87690257 -0.41136629 14.50298299 0.563832 22 3 C21.01 3.99 20.02 4.98 19 6 C17.51965236 5.52449439 16.04074979 5.04448784 14.5625 4.5625 C13.73878906 4.29566406 12.91507813 4.02882813 12.06640625 3.75390625 C10 3 10 3 9 2 C7.48530552 1.76807135 5.96245438 1.58784762 4.4375 1.4375 C3.61121094 1.35371094 2.78492188 1.26992187 1.93359375 1.18359375 C1.29550781 1.12300781 0.65742187 1.06242188 0 1 C0 0.67 0 0.34 0 0 Z " fill="#95A0A3" transform="translate(57,4)"/>
<path d="M0 0 C2.5 1.5625 2.5 1.5625 5 4 C5.3125 7.75 5.3125 7.75 5 11 C3.68 11 2.36 11 1 11 C0.67 9.02 0.34 7.04 0 5 C-0.66 5 -1.32 5 -2 5 C-2.33 4.01 -2.66 3.02 -3 2 C-2.01 1.34 -1.02 0.68 0 0 Z " fill="#97A6A5" transform="translate(76,27)"/>
<path d="M0 0 C2.64 0 5.28 0 8 0 C7.67 1.65 7.34 3.3 7 5 C0.25 5.125 0.25 5.125 -2 4 C-1.34 2.68 -0.68 1.36 0 0 Z " fill="#6F6F67" transform="translate(101,51)"/>
<path d="M0 0 C0.99 0.33 1.98 0.66 3 1 C3.33 1.99 3.66 2.98 4 4 C5.65 4.33 7.3 4.66 9 5 C8.67 5.99 8.34 6.98 8 8 C7.01 7.67 6.02 7.34 5 7 C5 7.66 5 8.32 5 9 C2.69 8.67 0.38 8.34 -2 8 C-1.33333333 5.33333333 -0.66666667 2.66666667 0 0 Z " fill="#433130" transform="translate(60,73)"/>
<path d="M0 0 C0.33 0.66 0.66 1.32 1 2 C2.32 2 3.64 2 5 2 C5.33 2.99 5.66 3.98 6 5 C4.88625 5.12375 3.7725 5.2475 2.625 5.375 C-1.03103677 5.6465813 -1.03103677 5.6465813 -3 8 C-3.99 8 -4.98 8 -6 8 C-5.65120368 4.74456771 -4.97866739 3.98126893 -2.4375 1.75 C-1.633125 1.1725 -0.82875 0.595 0 0 Z " fill="#7F8975" transform="translate(98,25)"/>
<path d="M0 0 C0.33 0 0.66 0 1 0 C0.67 3.63 0.34 7.26 0 11 C-1.32 11 -2.64 11 -4 11 C-4 8.36 -4 5.72 -4 3 C-2.68 2.67 -1.36 2.34 0 2 C0 1.34 0 0.68 0 0 Z " fill="#D48075" transform="translate(39,58)"/>
<path d="M0 0 C0.33 0 0.66 0 1 0 C1 2.97 1 5.94 1 9 C1.66 9 2.32 9 3 9 C3.33 10.65 3.66 12.3 4 14 C1.69 13.34 -0.62 12.68 -3 12 C-2.01 8.04 -1.02 4.08 0 0 Z " fill="#C8C8D3" transform="translate(40,96)"/>
<path d="M0 0 C0.99 0.33 1.98 0.66 3 1 C3.22577402 6.4185766 2.46670113 10.77487721 1 16 C0.87753906 15.37609375 0.75507812 14.7521875 0.62890625 14.109375 C-0.20092382 11.32609401 -1.612225 10.5405 -4 9 C-3.34 9 -2.68 9 -2 9 C-2 8.34 -2 7.68 -2 7 C-1.01 6.67 -0.02 6.34 1 6 C0.67 5.67 0.34 5.34 0 5 C-0.04063832 3.33382885 -0.042721 1.66611905 0 0 Z " fill="#B8C0BD" transform="translate(110,59)"/>
<path d="M0 0 C0 0.66 0 1.32 0 2 C1.093125 1.938125 2.18625 1.87625 3.3125 1.8125 C7 2 7 2 8.9375 3.375 C10 5 10 5 10 7 C9.34 7 8.68 7 8 7 C8 6.34 8 5.68 8 5 C7.21625 5.20625 6.4325 5.4125 5.625 5.625 C4.75875 5.74875 3.8925 5.8725 3 6 C2.34 5.34 1.68 4.68 1 4 C-0.98821313 3.60235737 -2.98944339 3.26224651 -5 3 C-5 2.34 -5 1.68 -5 1 C-2 0 -2 0 0 0 Z " fill="#504954" transform="translate(68,51)"/>
<path d="M0 0 C2.0234375 0.43359375 2.0234375 0.43359375 4.0234375 3.43359375 C2.7034375 3.10359375 1.3834375 2.77359375 0.0234375 2.43359375 C0.0234375 3.09359375 0.0234375 3.75359375 0.0234375 4.43359375 C-0.9665625 4.43359375 -1.9565625 4.43359375 -2.9765625 4.43359375 C-2.9765625 3.77359375 -2.9765625 3.11359375 -2.9765625 2.43359375 C-3.6365625 2.43359375 -4.2965625 2.43359375 -4.9765625 2.43359375 C-5.3065625 3.09359375 -5.6365625 3.75359375 -5.9765625 4.43359375 C-7.6265625 4.43359375 -9.2765625 4.43359375 -10.9765625 4.43359375 C-7.82309755 0.04616425 -5.03942621 -0.00837114 0 0 Z " fill="#406878" transform="translate(62.9765625,107.56640625)"/>
<path d="M0 0 C0.66 0 1.32 0 2 0 C2.05416188 1.60379341 2.09286638 3.20811406 2.125 4.8125 C2.14820313 5.70582031 2.17140625 6.59914063 2.1953125 7.51953125 C2 10 2 10 0 13 C-2.10633718 11.29171079 -2.93801608 10.47851584 -3.29296875 7.73828125 C-3.25816406 6.93777344 -3.22335938 6.13726562 -3.1875 5.3125 C-3.16042969 4.50425781 -3.13335938 3.69601563 -3.10546875 2.86328125 C-3.07066406 2.24839844 -3.03585938 1.63351563 -3 1 C-1.02 1.99 -1.02 1.99 1 3 C0.67 2.01 0.34 1.02 0 0 Z " fill="#66594C" transform="translate(24,87)"/>
<path d="M0 0 C2.97 0 5.94 0 9 0 C8.67 1.32 8.34 2.64 8 4 C5.36 4.33 2.72 4.66 0 5 C0 3.35 0 1.7 0 0 Z " fill="#2B282E" transform="translate(61,85)"/>
<path d="M0 0 C0.763125 0.20625 1.52625 0.4125 2.3125 0.625 C2.3125 2.605 2.3125 4.585 2.3125 6.625 C1.6525 6.625 0.9925 6.625 0.3125 6.625 C0.3125 5.965 0.3125 5.305 0.3125 4.625 C-1.6675 4.625 -3.6475 4.625 -5.6875 4.625 C-5.6875 3.635 -5.6875 2.645 -5.6875 1.625 C-2.6875 -0.375 -2.6875 -0.375 0 0 Z " fill="#7E7565" transform="translate(88.6875,80.375)"/>
<path d="M0 0 C7.26153846 -0.49230769 7.26153846 -0.49230769 11 2 C11.66 2.66 12.32 3.32 13 4 C9.375 7 9.375 7 6 7 C5.67 5.02 5.34 3.04 5 1 C3.35 1 1.7 1 0 1 C0 0.67 0 0.34 0 0 Z " fill="#CEDDE4" transform="translate(58,5)"/>
<path d="M0 0 C0.28875 0.639375 0.5775 1.27875 0.875 1.9375 C1.82823451 4.15206079 1.82823451 4.15206079 4 5 C1.69 5.33 -0.62 5.66 -3 6 C-3.33 7.98 -3.66 9.96 -4 12 C-4.33 12 -4.66 12 -5 12 C-4.85892253 10.54119891 -4.71197585 9.08296449 -4.5625 7.625 C-4.48128906 6.81289063 -4.40007813 6.00078125 -4.31640625 5.1640625 C-4 3 -4 3 -3 1 C-2.01 0.67 -1.02 0.34 0 0 Z " fill="#4C373B" transform="translate(59,57)"/>
<path d="M0 0 C0.33 0.99 0.66 1.98 1 3 C1.99 3.33 2.98 3.66 4 4 C3.34 4.66 2.68 5.32 2 6 C1.3162387 8.88717605 1.3162387 8.88717605 0.875 12.125 C0.70742187 13.22070312 0.53984375 14.31640625 0.3671875 15.4453125 C0.18542969 16.70988281 0.18542969 16.70988281 0 18 C-1.51953125 16.66796875 -1.51953125 16.66796875 -3 15 C-2.6875 12.3125 -2.6875 12.3125 -2 10 C-1.34 10 -0.68 10 0 10 C-0.185625 8.72125 -0.37125 7.4425 -0.5625 6.125 C-1.125 2.25 -1.125 2.25 0 0 Z " fill="#C4D3D4" transform="translate(91,24)"/>
<path d="M0 0 C1.65 0 3.3 0 5 0 C4.67 1.98 4.34 3.96 4 6 C3.34 6 2.68 6 2 6 C2 7.65 2 9.3 2 11 C1.34 11 0.68 11 0 11 C0 7.37 0 3.74 0 0 Z " fill="#F6F7F5" transform="translate(61,35)"/>
<path d="M0 0 C0.66 0 1.32 0 2 0 C2 1.32 2 2.64 2 4 C1.34 4 0.68 4 0 4 C0.061875 4.78375 0.12375 5.5675 0.1875 6.375 C0.125625 7.24125 0.06375 8.1075 0 9 C-0.99 9.66 -1.98 10.32 -3 11 C-3.99 10.67 -4.98 10.34 -6 10 C-5.34 10 -4.68 10 -4 10 C-4 8.35 -4 6.7 -4 5 C-3.34 5 -2.68 5 -2 5 C-1.855625 4.360625 -1.71125 3.72125 -1.5625 3.0625 C-1 1 -1 1 0 0 Z " fill="#D4D5BD" transform="translate(67,36)"/>
<path d="M0 0 C3 1 3 1 4 3 C4.04022391 5.3329866 4.04320247 7.66706666 4 10 C3.01 10.495 3.01 10.495 2 11 C-0.30694043 7.53958935 -0.62056512 5.09789669 -1 1 C-0.67 0.67 -0.34 0.34 0 0 Z " fill="#332B2E" transform="translate(74,59)"/>
<path d="M0 0 C2.31 0 4.62 0 7 0 C6.01 0.33 5.02 0.66 4 1 C4 1.99 4 2.98 4 4 C5.32 3.34 6.64 2.68 8 2 C7.67 3.32 7.34 4.64 7 6 C4.69 6 2.38 6 0 6 C0 4.02 0 2.04 0 0 Z " fill="#ECE6E0" transform="translate(51,42)"/>
<path d="M0 0 C0.99 0 1.98 0 3 0 C3 0.99 3 1.98 3 3 C4.32 3.33 5.64 3.66 7 4 C6.01 5.485 6.01 5.485 5 7 C5 6.34 5 5.68 5 5 C4.01 5.66 3.02 6.32 2 7 C1.01 7 0.02 7 -1 7 C-1.04254356 5.00045254 -1.04080783 2.99958364 -1 1 C-0.67 0.67 -0.34 0.34 0 0 Z " fill="#CDA86A" transform="translate(20,29)"/>
<path d="M0 0 C0.99 0.33 1.98 0.66 3 1 C3.99 0.67 4.98 0.34 6 0 C4.44191344 9.59453303 4.44191344 9.59453303 0 13 C0 9.13304322 1.41909971 6.4911548 3 3 C1.35 2.67 -0.3 2.34 -2 2 C-1.34 1.34 -0.68 0.68 0 0 Z " fill="#5B4846" transform="translate(69,82)"/>
<path d="M0 0 C2.66315194 2.66315194 2.94426493 4.65344068 3.09765625 8.359375 C3.08605469 9.14828125 3.07445313 9.9371875 3.0625 10.75 C3.05347656 11.54921875 3.04445313 12.3484375 3.03515625 13.171875 C3.01775391 14.07679687 3.01775391 14.07679687 3 15 C4.32 15 5.64 15 7 15 C7 15.66 7 16.32 7 17 C5.35 17.66 3.7 18.32 2 19 C1.66440045 16.39610703 1.33143142 13.7919239 1 11.1875 C0.90460938 10.44951172 0.80921875 9.71152344 0.7109375 8.95117188 C0.33015323 5.94569605 0 3.03285559 0 0 Z " fill="#766D61" transform="translate(92,50)"/>
<path d="M0 0 C3.00617269 3.00617269 2.59585316 5.82381598 3 10 C1.02 10 -0.96 10 -3 10 C-2.01 6.7 -1.02 3.4 0 0 Z " fill="#EFD3C4" transform="translate(9,36)"/>
<path d="M0 0 C2 3 2 3 2 5 C3.98 5.66 5.96 6.32 8 7 C7.01 8.485 7.01 8.485 6 10 C4.35 9.67 2.7 9.34 1 9 C0.67 6.03 0.34 3.06 0 0 Z " fill="#B4B4BC" transform="translate(58,88)"/>
<path d="M0 0 C1.32 1.65 2.64 3.3 4 5 C4.66 4.01 5.32 3.02 6 2 C5.8125 4.8125 5.8125 4.8125 5 8 C2.4375 9.875 2.4375 9.875 0 11 C0 7.37 0 3.74 0 0 Z " fill="#9A8979" transform="translate(42,80)"/>
<path d="M0 0 C1.65 0 3.3 0 5 0 C5.08131463 1.43655854 5.13933559 2.8744483 5.1875 4.3125 C5.22230469 5.11300781 5.25710937 5.91351563 5.29296875 6.73828125 C5 9 5 9 2 12 C2 8.7 2 5.4 2 2 C1.34 2 0.68 2 0 2 C0 1.34 0 0.68 0 0 Z " fill="#CED0CD" transform="translate(88,58)"/>
<path d="M0 0 C0.66 0.33 1.32 0.66 2 1 C1.67 2.65 1.34 4.3 1 6 C-0.32 6 -1.64 6 -3 6 C-2.67 6.99 -2.34 7.98 -2 9 C-2.66 9 -3.32 9 -4 9 C-4.33 9.99 -4.66 10.98 -5 12 C-5 9.03 -5 6.06 -5 3 C-4.34 3 -3.68 3 -3 3 C-3 3.66 -3 4.32 -3 5 C-2.34 5 -1.68 5 -1 5 C-0.67 3.35 -0.34 1.7 0 0 Z " fill="#907D6A" transform="translate(10,55)"/>
<path d="M0 0 C1.67542976 0.28604898 3.34385343 0.61781233 5 1 C4.67 3.31 4.34 5.62 4 8 C3.67 7.01 3.34 6.02 3 5 C1.68 5.33 0.36 5.66 -1 6 C-1.042721 4.33388095 -1.04063832 2.66617115 -1 1 C-0.67 0.67 -0.34 0.34 0 0 Z " fill="#D2CBC6" transform="translate(96,56)"/>
<path d="M0 0 C0.33 0.99 0.66 1.98 1 3 C2.32 3 3.64 3 5 3 C5 3.66 5 4.32 5 5 C5.66 5.33 6.32 5.66 7 6 C6.34 6 5.68 6 5 6 C4.67 7.32 4.34 8.64 4 10 C5.98 10 7.96 10 10 10 C10 10.33 10 10.66 10 11 C7.69 11 5.38 11 3 11 C2.67 9.35 2.34 7.7 2 6 C1.01 5.67 0.02 5.34 -1 5 C-0.67 3.35 -0.34 1.7 0 0 Z " fill="#ADB3A2" transform="translate(99,40)"/>
<path d="M0 0 C0.66 0 1.32 0 2 0 C2.33 1.65 2.66 3.3 3 5 C-0.63 5.33 -4.26 5.66 -8 6 C-7.67 4.68 -7.34 3.36 -7 2 C-5.35 2.33 -3.7 2.66 -2 3 C-1.34 2.01 -0.68 1.02 0 0 Z " fill="#9F7D73" transform="translate(62,68)"/>
<path d="M0 0 C0.99 0.33 1.98 0.66 3 1 C2.34 1 1.68 1 1 1 C1 1.66 1 2.32 1 3 C1.66 3 2.32 3 3 3 C3 3.99 3 4.98 3 6 C2.34 6 1.68 6 1 6 C1 5.34 1 4.68 1 4 C-0.299375 4.2475 -0.299375 4.2475 -1.625 4.5 C-4.81225199 4.97218548 -7.78485027 5.07655118 -11 5 C-10.67 4.34 -10.34 3.68 -10 3 C-7.97456444 2.74280183 -5.94649776 2.49157878 -3.91015625 2.34375 C-1.76477844 2.14523788 -1.76477844 2.14523788 0 0 Z " fill="#766772" transform="translate(67,47)"/>
<path d="M0 0 C0.99 0 1.98 0 3 0 C3.33 0.33 3.66 0.66 4 1 C4.99 0.67 5.98 0.34 7 0 C7 2.97 7 5.94 7 9 C6.01 9.495 6.01 9.495 5 10 C5 8.02 5 6.04 5 4 C2.525 3.01 2.525 3.01 0 2 C0 1.34 0 0.68 0 0 Z " fill="#E1E4D8" transform="translate(96,31)"/>
<path d="M0 0 C2.31 0 4.62 0 7 0 C6.01 0.33 5.02 0.66 4 1 C4.33 3.31 4.66 5.62 5 8 C2.5625 7.25 2.5625 7.25 0 6 C-0.875 4 -0.875 4 -1 2 C-0.67 1.34 -0.34 0.68 0 0 Z " fill="#6C92BF" transform="translate(96,76)"/>
<path d="M0 0 C2.31 0 4.62 0 7 0 C7 1.98 7 3.96 7 6 C6.01 6.495 6.01 6.495 5 7 C2.875 6.0625 2.875 6.0625 1 5 C1.66 5 2.32 5 3 5 C3 3.68 3 2.36 3 1 C2.01 1.33 1.02 1.66 0 2 C0 1.34 0 0.68 0 0 Z " fill="#D3D5C3" transform="translate(92,39)"/>
<path d="M0 0 C0.33 0.66 0.66 1.32 1 2 C2.32 2 3.64 2 5 2 C4.6875 3.9375 4.6875 3.9375 4 6 C3.01 6.33 2.02 6.66 1 7 C0.34 7.99 -0.32 8.98 -1 10 C-1.125 3.375 -1.125 3.375 0 0 Z " fill="#3267C4" transform="translate(101,81)"/>
<path d="M0 0 C1.65 0 3.3 0 5 0 C5.33 0.99 5.66 1.98 6 3 C5.34 3 4.68 3 4 3 C4.33 4.65 4.66 6.3 5 8 C3.0625 7.375 3.0625 7.375 1 6 C0.25 2.875 0.25 2.875 0 0 Z " fill="#7B6858" transform="translate(8,74)"/>
<path d="M0 0 C1.33333333 0.66666667 2.66666667 1.33333333 4 2 C5.0828125 2.37125 5.0828125 2.37125 6.1875 2.75 C8 4 8 4 8.75 7.125 C8.87375 8.548125 8.87375 8.548125 9 10 C8.34 10 7.68 10 7 10 C6.938125 9.38125 6.87625 8.7625 6.8125 8.125 C6.17948312 5.74397155 6.17948312 5.74397155 3.5625 4.8125 C2.2940625 4.4103125 2.2940625 4.4103125 1 4 C0.34 3.67 -0.32 3.34 -1 3 C-0.67 2.01 -0.34 1.02 0 0 Z " fill="#72775B" transform="translate(81,58)"/>
<path d="M0 0 C1.65 1.65 3.3 3.3 5 5 C4.67 5.99 4.34 6.98 4 8 C1.9375 8.6875 1.9375 8.6875 0 9 C0.33 7.68 0.66 6.36 1 5 C0.34 4.67 -0.32 4.34 -1 4 C-1 3.34 -1 2.68 -1 2 C-1.66 1.67 -2.32 1.34 -3 1 C-2.01 0.67 -1.02 0.34 0 0 Z " fill="#A1B0AA" transform="translate(92,15)"/>
<path d="M0 0 C2.475 0.495 2.475 0.495 5 1 C5.96070434 3.88211302 6.10581883 5.69850044 6.0625 8.6875 C6.05347656 9.49574219 6.04445313 10.30398437 6.03515625 11.13671875 C6.02355469 11.75160156 6.01195313 12.36648437 6 13 C5.67 13 5.34 13 5 13 C5 10.36 5 7.72 5 5 C3.68 4.67 2.36 4.34 1 4 C0.67 2.68 0.34 1.36 0 0 Z " fill="#BCC8CF" transform="translate(71,9)"/>
<path d="M0 0 C0.33 0 0.66 0 1 0 C1 6.6 1 13.2 1 20 C0.34 20 -0.32 20 -1 20 C-1.33 21.32 -1.66 22.64 -2 24 C-2 21.69 -2 19.38 -2 17 C-1.34 17 -0.68 17 0 17 C0 11.39 0 5.78 0 0 Z " fill="#FEF7DE" transform="translate(41,8)"/>
<path d="M0 0 C0.66 0.66 1.32 1.32 2 2 C0.6875 4 0.6875 4 -1 6 C-1.99 6 -2.98 6 -4 6 C-4.33 7.65 -4.66 9.3 -5 11 C-6.5 9.625 -6.5 9.625 -8 8 C-8 7.34 -8 6.68 -8 6 C-6.02 5.67 -4.04 5.34 -2 5 C-1.855625 4.360625 -1.71125 3.72125 -1.5625 3.0625 C-1 1 -1 1 0 0 Z " fill="#5E4A52" transform="translate(60,52)"/>
<path d="M0 0 C0.99 0.33 1.98 0.66 3 1 C3 1.66 3 2.32 3 3 C3.66 3.33 4.32 3.66 5 4 C4.34 4.66 3.68 5.32 3 6 C2.67 5.67 2.34 5.34 2 5 C1.67 5.66 1.34 6.32 1 7 C0.01 6.67 -0.98 6.34 -2 6 C-2.6875 3.9375 -2.6875 3.9375 -3 2 C-2.01 1.34 -1.02 0.68 0 0 Z " fill="#906E58" transform="translate(28,52)"/>
<path d="M0 0 C0.99 0 1.98 0 3 0 C3.66 1.98 4.32 3.96 5 6 C2.36 6.33 -0.28 6.66 -3 7 C-3 6.01 -3 5.02 -3 4 C-2.01 4 -1.02 4 0 4 C0 2.68 0 1.36 0 0 Z " fill="#806F5D" transform="translate(20,73)"/>
<path d="M0 0 C1.32 0.33 2.64 0.66 4 1 C4 3.31 4 5.62 4 8 C3.34 8 2.68 8 2 8 C2 6.68 2 5.36 2 4 C1.01 4.33 0.02 4.66 -1 5 C-3.1875 4.0625 -3.1875 4.0625 -5 3 C-3.35 2.67 -1.7 2.34 0 2 C0 1.34 0 0.68 0 0 Z " fill="#A18B76" transform="translate(18,58)"/>
<path d="M0 0 C1.10844919 3.32534757 0.84454356 5.62182575 0 9 C-4.75 8.25 -4.75 8.25 -7 6 C-6.030625 5.566875 -5.06125 5.13375 -4.0625 4.6875 C-0.72268235 3.2985139 -0.72268235 3.2985139 0 0 Z " fill="#91806D" transform="translate(38,98)"/>
<path d="M0 0 C0.33 0 0.66 0 1 0 C1 3.96 1 7.92 1 12 C0.01 11.67 -0.98 11.34 -2 11 C-2.6875 8.9375 -2.6875 8.9375 -3 7 C-2.34 7 -1.68 7 -1 7 C-0.67 4.69 -0.34 2.38 0 0 Z " fill="#A99B88" transform="translate(41,78)"/>
<path d="M0 0 C0 0.66 0 1.32 0 2 C-0.99 2.33 -1.98 2.66 -3 3 C-3.33 3.66 -3.66 4.32 -4 5 C-6.0625 5.625 -6.0625 5.625 -8 6 C-8 4.35 -8 2.7 -8 1 C-5.07175348 0.02391783 -3.04386724 -0.08226668 0 0 Z " fill="#B96855" transform="translate(43,55)"/>
<path d="M0 0 C0.66 0.66 1.32 1.32 2 2 C2.66 1.34 3.32 0.68 4 0 C4 1.98 4 3.96 4 6 C3.34 6 2.68 6 2 6 C1.67 6.99 1.34 7.98 1 9 C0.01 7.68 -0.98 6.36 -2 5 C-1.34 4.34 -0.68 3.68 0 3 C0 2.01 0 1.02 0 0 Z " fill="#918272" transform="translate(12,77)"/>
<path d="M0 0 C1.32 0 2.64 0 4 0 C4 1.65 4 3.3 4 5 C-0.455 4.01 -0.455 4.01 -5 3 C-3.68 2.34 -2.36 1.68 -1 1 C-0.67 0.67 -0.34 0.34 0 0 Z " fill="#B9CFD1" transform="translate(106,73)"/>
<path d="M0 0 C2.31 0 4.62 0 7 0 C7 2.64 7 5.28 7 8 C6.67 8 6.34 8 6 8 C5.67 6.35 5.34 4.7 5 3 C3.68 3 2.36 3 1 3 C0.67 2.01 0.34 1.02 0 0 Z " fill="#847667" transform="translate(42,71)"/>
<path d="M0 0 C0.33 0.99 0.66 1.98 1 3 C0 4 0 4 -1.84765625 4.09765625 C-3.8984375 4.06510417 -5.94921875 4.03255208 -8 4 C-4.5 0 -4.5 0 0 0 Z " fill="#8F736D" transform="translate(68,62)"/>
<path d="M0 0 C0.33 0 0.66 0 1 0 C1 3.3 1 6.6 1 10 C-0.98 10.33 -2.96 10.66 -5 11 C-5 10.01 -5 9.02 -5 8 C-3.68 8 -2.36 8 -1 8 C-0.67 5.36 -0.34 2.72 0 0 Z " fill="#D9D4D2" transform="translate(60,35)"/>
<path d="M0 0 C1.2065625 0.0309375 1.2065625 0.0309375 2.4375 0.0625 C2.1075 1.3825 1.7775 2.7025 1.4375 4.0625 C0.1175 4.3925 -1.2025 4.7225 -2.5625 5.0625 C-3.125 3.125 -3.125 3.125 -3.5625 1.0625 C-2.5625 0.0625 -2.5625 0.0625 0 0 Z " fill="#4B3635" transform="translate(59.5625,66.9375)"/>
<path d="M0 0 C2.475 0.99 2.475 0.99 5 2 C5 3.32 5 4.64 5 6 C3.35 6 1.7 6 0 6 C0 4.02 0 2.04 0 0 Z " fill="#765D47" transform="translate(29,63)"/>
<path d="M0 0 C0.33 0 0.66 0 1 0 C1 2.31 1 4.62 1 7 C3.97 7.495 3.97 7.495 7 8 C6.67 8.66 6.34 9.32 6 10 C4.02 10 2.04 10 0 10 C0 6.7 0 3.4 0 0 Z " fill="#F6DBB5" transform="translate(23,22)"/>
<path d="M0 0 C0.99 0 1.98 0 3 0 C3 1.32 3 2.64 3 4 C2.34 4 1.68 4 1 4 C1 8.29 1 12.58 1 17 C0.67 17 0.34 17 0 17 C0 11.39 0 5.78 0 0 Z " fill="#A58591" transform="translate(48,5)"/>
<path d="M0 0 C0.66 0.66 1.32 1.32 2 2 C1.9375 5 1.9375 5 1 8 C-1.5625 9.375 -1.5625 9.375 -4 10 C-3.71125 9.46375 -3.4225 8.9275 -3.125 8.375 C-1.83288192 5.64719516 -0.91441408 2.87387282 0 0 Z " fill="#6D5754" transform="translate(74,85)"/>
<path d="M0 0 C0.33 0 0.66 0 1 0 C1.08159574 4.16138263 0.98248524 7.9472484 0 12 C-0.66 12 -1.32 12 -2 12 C-2.05422947 10.5629191 -2.09289723 9.12524538 -2.125 7.6875 C-2.14820313 6.88699219 -2.17140625 6.08648437 -2.1953125 5.26171875 C-2 3 -2 3 0 0 Z " fill="#6A6053" transform="translate(35,80)"/>
<path d="M0 0 C0.66 0 1.32 0 2 0 C2 3.96 2 7.92 2 12 C-1 9 -1 9 -1.07421875 6.73828125 C-0.94660156 5.93777344 -0.81898437 5.13726562 -0.6875 4.3125 C-0.56761719 3.50425781 -0.44773437 2.69601563 -0.32421875 1.86328125 C-0.21722656 1.24839844 -0.11023438 0.63351563 0 0 Z " fill="#9C8B74" transform="translate(17,82)"/>
<path d="M0 0 C2.475 0.495 2.475 0.495 5 1 C4.67 2.65 4.34 4.3 4 6 C3.01 6 2.02 6 1 6 C0.67 4.02 0.34 2.04 0 0 Z " fill="#766F5E" transform="translate(78,66)"/>
<path d="M0 0 C0.66 0 1.32 0 2 0 C2 0.66 2 1.32 2 2 C3.32 1.67 4.64 1.34 6 1 C5.67 1.99 5.34 2.98 5 4 C1.04 4 -2.92 4 -7 4 C-7 3.67 -7 3.34 -7 3 C-5.02 3 -3.04 3 -1 3 C-0.67 2.01 -0.34 1.02 0 0 Z " fill="#B9A5A4" transform="translate(59,45)"/>
<path d="M0 0 C0.99 0 1.98 0 3 0 C3 2.31 3 4.62 3 7 C2.34 7 1.68 7 1 7 C0.67 7.99 0.34 8.98 0 10 C0 6.7 0 3.4 0 0 Z " fill="#B9AF9E" transform="translate(36,90)"/>
<path d="M0 0 C0.33 3.3 0.66 6.6 1 10 C0.34 10 -0.32 10 -1 10 C-1 8.35 -1 6.7 -1 5 C-1.66 5 -2.32 5 -3 5 C-3 3.68 -3 2.36 -3 1 C-1 0 -1 0 0 0 Z " fill="#FFCDA8" transform="translate(43,27)"/>
<path d="M0 0 C1.98 0.66 3.96 1.32 6 2 C6 3.32 6 4.64 6 6 C5.67 5.34 5.34 4.68 5 4 C3.68 4 2.36 4 1 4 C0.34 4 -0.32 4 -1 4 C-0.67 2.68 -0.34 1.36 0 0 Z " fill="#626D5A" transform="translate(96,23)"/>
<path d="M0 0 C0.66 0 1.32 0 2 0 C2.33 1.65 2.66 3.3 3 5 C1.35 5 -0.3 5 -2 5 C-2.33 5.66 -2.66 6.32 -3 7 C-2.25 2.25 -2.25 2.25 0 0 Z " fill="#E1ECF4" transform="translate(69,9)"/>
<path d="M0 0 C0.99 0 1.98 0 3 0 C3.33 0.99 3.66 1.98 4 3 C3 4 3 4 0.4375 4.0625 C-0.7690625 4.0315625 -0.7690625 4.0315625 -2 4 C-2 4.66 -2 5.32 -2 6 C-2.99 6 -3.98 6 -5 6 C-4.34 4.68 -3.68 3.36 -3 2 C-2.01 2.33 -1.02 2.66 0 3 C0 2.01 0 1.02 0 0 Z " fill="#75838E" transform="translate(82,76)"/>
<path d="M0 0 C0.33 1.65 0.66 3.3 1 5 C-0.98 5 -2.96 5 -5 5 C-5 3.68 -5 2.36 -5 1 C-2 0 -2 0 0 0 Z " fill="#C3CBC6" transform="translate(108,66)"/>
<path d="M0 0 C4.29 0.66 8.58 1.32 13 2 C13 2.33 13 2.66 13 3 C10.03 3 7.06 3 4 3 C4 3.99 4 4.98 4 6 C3.34 6 2.68 6 2 6 C1.34 4.02 0.68 2.04 0 0 Z " fill="#A3826E" transform="translate(30,52)"/>
<path d="M0 0 C0.33 1.98 0.66 3.96 1 6 C-0.32 6 -1.64 6 -3 6 C-3.33 4.35 -3.66 2.7 -4 1 C-2 0 -2 0 0 0 Z " fill="#D8B188" transform="translate(26,39)"/>
<path d="M0 0 C0.66 0 1.32 0 2 0 C2 0.66 2 1.32 2 2 C3.65 1.67 5.3 1.34 7 1 C6.34 2.98 5.68 4.96 5 7 C3.29115995 5.37660195 1.62553283 3.70680947 0 2 C0 1.34 0 0.68 0 0 Z " fill="#C3D1DB" transform="translate(78,23)"/>
<path d="M0 0 C2.475 0.495 2.475 0.495 5 1 C4.1875 2.9375 4.1875 2.9375 3 5 C2.01 5.33 1.02 5.66 0 6 C0 4.02 0 2.04 0 0 Z " fill="#DDECF2" transform="translate(84,15)"/>
<path d="M0 0 C0.99 0 1.98 0 3 0 C3 0.66 3 1.32 3 2 C3.66 2 4.32 2 5 2 C5 3.32 5 4.64 5 6 C3.68 5.67 2.36 5.34 1 5 C0.67 3.35 0.34 1.7 0 0 Z " fill="#6180B0" transform="translate(94,86)"/>
<path d="M0 0 C2.97 0 5.94 0 9 0 C8.67 0.99 8.34 1.98 8 3 C7.01 3 6.02 3 5 3 C5 2.34 5 1.68 5 1 C4.34 1 3.68 1 3 1 C2.67 2.32 2.34 3.64 2 5 C1.34 3.35 0.68 1.7 0 0 Z " fill="#776655" transform="translate(19,79)"/>
<path d="M0 0 C0.66 0.33 1.32 0.66 2 1 C2.75 3.875 2.75 3.875 3 7 C2.01 8.485 2.01 8.485 1 10 C0.01 9.34 -0.98 8.68 -2 8 C-1.67 7.05125 -1.34 6.1025 -1 5.125 C0.10159191 2.22937548 0.10159191 2.22937548 0 0 Z " fill="#9F826B" transform="translate(20,49)"/>
<path d="M0 0 C0 1.98 0 3.96 0 6 C-1.98 6.99 -1.98 6.99 -4 8 C-3.34 6.35 -2.68 4.7 -2 3 C-2.66 3 -3.32 3 -4 3 C-4 2.34 -4 1.68 -4 1 C-1 0 -1 0 0 0 Z " fill="#D8DACC" transform="translate(102,45)"/>
<path d="M0 0 C2.7839183 1.39195915 2.97898997 3.15575779 4 6 C3.01 6.66 2.02 7.32 1 8 C0.67 7.01 0.34 6.02 0 5 C-0.66 5 -1.32 5 -2 5 C-1 2 -1 2 0 0 Z " fill="#DAA977" transform="translate(31,39)"/>
<path d="M0 0 C1.98 0.495 1.98 0.495 4 1 C4 2.65 4 4.3 4 6 C2.68 6 1.36 6 0 6 C-1 3 -1 3 0 0 Z " fill="#B4BDB4" transform="translate(77,32)"/>
<path d="M0 0 C2.00240521 2.25270587 2.94368221 3.60577544 3.375 6.625 C3.25125 7.40875 3.1275 8.1925 3 9 C2.01 9.66 1.02 10.32 0 11 C-0.33 10.34 -0.66 9.68 -1 9 C-0.34 9 0.32 9 1 9 C0.67 6.03 0.34 3.06 0 0 Z " fill="#7E6C68" transform="translate(75,82)"/>
<path d="M0 0 C3.96 0.33 7.92 0.66 12 1 C12 1.99 12 2.98 12 4 C10.1858073 3.71905418 8.37364999 3.42493567 6.5625 3.125 C5.04849609 2.88136719 5.04849609 2.88136719 3.50390625 2.6328125 C2.67761719 2.42398438 1.85132812 2.21515625 1 2 C0.67 1.34 0.34 0.68 0 0 Z " fill="#A59680" transform="translate(20,68)"/>
<path d="M0 0 C0 1.65 0 3.3 0 5 C-1.65 5 -3.3 5 -5 5 C-5.33 3.68 -5.66 2.36 -6 1 C-1.125 0 -1.125 0 0 0 Z " fill="#616A4E" transform="translate(89,52)"/>
<path d="M0 0 C1.65 0 3.3 0 5 0 C4.6875 1.9375 4.6875 1.9375 4 4 C3.01 4.33 2.02 4.66 1 5 C0.67 3.35 0.34 1.7 0 0 Z " fill="#928D7A" transform="translate(75,48)"/>
<path d="M0 0 C0.33 1.32 0.66 2.64 1 4 C-0.98 4 -2.96 4 -5 4 C-5.33 3.01 -5.66 2.02 -6 1 C-4.02 0.67 -2.04 0.34 0 0 Z " fill="#FEDAC4" transform="translate(41,49)"/>
<path d="M0 0 C0.66 0 1.32 0 2 0 C2.33 1.98 2.66 3.96 3 6 C1.68 6 0.36 6 -1 6 C-0.67 4.02 -0.34 2.04 0 0 Z " fill="#DEE9EA" transform="translate(81,31)"/>
<path d="M0 0 C0.99 1.32 1.98 2.64 3 4 C2.34 4.66 1.68 5.32 1 6 C0.67 5.01 0.34 4.02 0 3 C-1.65 3.66 -3.3 4.32 -5 5 C-5 4.34 -5 3.68 -5 3 C-5.66 2.67 -6.32 2.34 -7 2 C-4.69 2 -2.38 2 0 2 C0 1.34 0 0.68 0 0 Z " fill="#C3C6B9" transform="translate(104,28)"/>
<path d="M0 0 C0 0.99 0 1.98 0 3 C-2.31 3 -4.62 3 -7 3 C-7 2.34 -7 1.68 -7 1 C-3.375 -1.125 -3.375 -1.125 0 0 Z " fill="#89999C" transform="translate(74,24)"/>
<path d="M0 0 C0.66 0 1.32 0 2 0 C2.26218749 3.14624993 2.24754367 4.61837017 0.5 7.3125 C-0.2425 8.1478125 -0.2425 8.1478125 -1 9 C-1.09765625 2.84765625 -1.09765625 2.84765625 -1 1 C-0.67 0.67 -0.34 0.34 0 0 Z " fill="#CFD5E2" transform="translate(57,93)"/>
<path d="M0 0 C1.70840281 1.63412443 2.93453047 2.86906094 4 5 C3.0625 7.125 3.0625 7.125 2 9 C1.34 8.67 0.68 8.34 0 8 C0 5.36 0 2.72 0 0 Z " fill="#4682C4" transform="translate(95,79)"/>
<path d="M0 0 C1.9375 0.8125 1.9375 0.8125 4 2 C4.33 2.99 4.66 3.98 5 5 C3.0625 5.5625 3.0625 5.5625 1 6 C0 5 0 5 -0.0625 2.4375 C-0.041875 1.633125 -0.02125 0.82875 0 0 Z " fill="#7E624C" transform="translate(29,56)"/>
<path d="M0 0 C0.99 0.99 1.98 1.98 3 3 C2.34 4.65 1.68 6.3 1 8 C0.34 8 -0.32 8 -1 8 C-1.625 5.6875 -1.625 5.6875 -2 3 C-1.34 2.01 -0.68 1.02 0 0 Z " fill="#B7A68E" transform="translate(17,53)"/>
<path d="M0 0 C0.66 0 1.32 0 2 0 C3.03115279 3.26913624 2.9638984 5.86041348 2.5625 9.25 C2.46066406 10.14203125 2.35882813 11.0340625 2.25390625 11.953125 C2.12822266 12.96632813 2.12822266 12.96632813 2 14 C1.67 14 1.34 14 1 14 C0.67 9.38 0.34 4.76 0 0 Z " fill="#D6A696" transform="translate(46,38)"/>
<path d="M0 0 C0 1.65 0 3.3 0 5 C-0.639375 5.12375 -1.27875 5.2475 -1.9375 5.375 C-2.9584375 5.684375 -2.9584375 5.684375 -4 6 C-4.33 6.66 -4.66 7.32 -5 8 C-3.91891892 0 -3.91891892 0 0 0 Z " fill="#DDEAF2" transform="translate(88,23)"/>
<path d="M0 0 C0.33 1.32 0.66 2.64 1 4 C2.65 3.67 4.3 3.34 6 3 C6 3.99 6 4.98 6 6 C5.34 6 4.68 6 4 6 C4 6.66 4 7.32 4 8 C2 7 2 7 0 5 C-0.125 2.375 -0.125 2.375 0 0 Z " fill="#9DAFB3" transform="translate(78,14)"/>
<path d="M0 0 C1.65 0 3.3 0 5 0 C4.67 1.65 4.34 3.3 4 5 C3.34 5 2.68 5 2 5 C2 4.34 2 3.68 2 3 C1.01 3 0.02 3 -1 3 C-0.67 2.01 -0.34 1.02 0 0 Z " fill="#ACBDC4" transform="translate(67,15)"/>
<path d="M0 0 C0.66 0 1.32 0 2 0 C2 1.65 2 3.3 2 5 C0.02 5.99 0.02 5.99 -2 7 C-2 3 -2 3 0 1 C0 0.67 0 0.34 0 0 Z " fill="#CCCFDD" transform="translate(56,84)"/>
<path d="M0 0 C0.66 0.33 1.32 0.66 2 1 C2 2.98 2 4.96 2 7 C0.62437146 5.71034824 -0.70766393 4.37310707 -2 3 C-2 2.34 -2 1.68 -2 1 C-1.34 0.67 -0.68 0.34 0 0 Z " fill="#736354" transform="translate(15,84)"/>
<path d="M0 0 C0.66 0 1.32 0 2 0 C2 1.98 2 3.96 2 6 C0.68 5.67 -0.64 5.34 -2 5 C-1.34 3.35 -0.68 1.7 0 0 Z " fill="#8F7F67" transform="translate(26,73)"/>
<path d="M0 0 C0.66 1.32 1.32 2.64 2 4 C1.01 5.485 1.01 5.485 0 7 C-1.5 5.6875 -1.5 5.6875 -3 4 C-3 3.01 -3 2.02 -3 1 C-2.01 0.67 -1.02 0.34 0 0 Z " fill="#998E7B" transform="translate(52,70)"/>
<path d="M0 0 C2.4375 0.375 2.4375 0.375 5 1 C5.33 1.66 5.66 2.32 6 3 C3.03 3 0.06 3 -3 3 C-2.01 2.67 -1.02 2.34 0 2 C0 1.34 0 0.68 0 0 Z " fill="#D2B5A4" transform="translate(47,67)"/>
<path d="M0 0 C-0.66 1.65 -1.32 3.3 -2 5 C-3.65 4.67 -5.3 4.34 -7 4 C-6.67 3.01 -6.34 2.02 -6 1 C-6 1.66 -6 2.32 -6 3 C-5.38125 2.505 -4.7625 2.01 -4.125 1.5 C-2 0 -2 0 0 0 Z " fill="#6E7064" transform="translate(82,50)"/>
<path d="M0 0 C0 0.66 0 1.32 0 2 C1.32 2.33 2.64 2.66 4 3 C0.52176885 4.15941038 -1.45895578 3.70820884 -5 3 C-5 2.34 -5 1.68 -5 1 C-2 0 -2 0 0 0 Z " fill="#5B4F5B" transform="translate(68,51)"/>
<path d="M0 0 C1.98 0.66 3.96 1.32 6 2 C6 2.99 6 3.98 6 5 C4.125 4.75 4.125 4.75 2 4 C0.75 1.9375 0.75 1.9375 0 0 Z " fill="#A4B091" transform="translate(84,46)"/>
<path d="M0 0 C0.99 0 1.98 0 3 0 C2.67 1.32 2.34 2.64 2 4 C1.34 4 0.68 4 0 4 C-0.33 4.66 -0.66 5.32 -1 6 C-1.66 5.67 -2.32 5.34 -3 5 C-3 4.34 -3 3.68 -3 3 C-2.01 3 -1.02 3 0 3 C0 2.01 0 1.02 0 0 Z " fill="#FED9B6" transform="translate(42,40)"/>
<path d="M0 0 C1.65 0.33 3.3 0.66 5 1 C4.01 1.33 3.02 1.66 2 2 C2 2.66 2 3.32 2 4 C1.34 4 0.68 4 0 4 C0 4.66 0 5.32 0 6 C-0.66 6 -1.32 6 -2 6 C-1.34 4.02 -0.68 2.04 0 0 Z " fill="#D4DFE7" transform="translate(65,23)"/>
<path d="M0 0 C0.33 0.66 0.66 1.32 1 2 C1.99 2.33 2.98 2.66 4 3 C3.25 4.9375 3.25 4.9375 2 7 C-0.125 7.75 -0.125 7.75 -2 8 C-2 7.34 -2 6.68 -2 6 C-1.34 6 -0.68 6 0 6 C0 4.02 0 2.04 0 0 Z " fill="#EBF4F6" transform="translate(90,17)"/>
<path d="M0 0 C2.97 1.98 2.97 1.98 6 4 C5.01 4.99 4.02 5.98 3 7 C2.67 6.01 2.34 5.02 2 4 C1.34 4 0.68 4 0 4 C0 2.68 0 1.36 0 0 Z " fill="#8D8F93" transform="translate(94,89)"/>
<path d="M0 0 C0.99 0.495 0.99 0.495 2 1 C2.40729228 3.32156597 2.74438677 5.6568787 3 8 C2.01 7.67 1.02 7.34 0 7 C0 4.69 0 2.38 0 0 Z " fill="#C2C8C5" transform="translate(91,78)"/>
<path d="M0 0 C2.475 0.495 2.475 0.495 5 1 C4.67 1.99 4.34 2.98 4 4 C4.99 4.33 5.98 4.66 7 5 C4.69 5 2.38 5 0 5 C0.66 3.68 1.32 2.36 2 1 C1.34 0.67 0.68 0.34 0 0 Z " fill="#5E443E" transform="translate(61,73)"/>
<path d="M0 0 C0.66 0.33 1.32 0.66 2 1 C2 2.65 2 4.3 2 6 C1.01 6.33 0.02 6.66 -1 7 C-0.67 4.69 -0.34 2.38 0 0 Z " fill="#635850" transform="translate(46,73)"/>
<path d="M0 0 C0.99 0.33 1.98 0.66 3 1 C3 2.98 3 4.96 3 7 C2.01 6.34 1.02 5.68 0 5 C-0.1875 2.375 -0.1875 2.375 0 0 Z " fill="#B1AB9E" transform="translate(110,59)"/>
<path d="M0 0 C2.5654594 2.5654594 2.54046087 4.47686668 3 8 C2.01 8 1.02 8 0 8 C0 5.36 0 2.72 0 0 Z " fill="#D0D5CB" transform="translate(90,48)"/>
<path d="M0 0 C1.32 0 2.64 0 4 0 C3.67 1.32 3.34 2.64 3 4 C1.68 4.33 0.36 4.66 -1 5 C-0.67 3.35 -0.34 1.7 0 0 Z " fill="#A88066" transform="translate(25,49)"/>
</svg>
