<?xml version="1.0" encoding="UTF-8"?>
<svg version="1.1" xmlns="http://www.w3.org/2000/svg" width="124" height="123">
<path d="M0 0 C40.92 0 81.84 0 124 0 C124 40.59 124 81.18 124 123 C83.08 123 42.16 123 0 123 C0 82.41 0 41.82 0 0 Z " fill="#D7ECF7" transform="translate(0,0)"/>
<path d="M0 0 C40.92 0 81.84 0 124 0 C124 38.61 124 77.22 124 117 C107.5 117 91 117 74 117 C77.21589379 115.3920531 80.34946415 114.05903366 83.6875 112.75 C97.9847719 106.7913557 107.94175796 97.35748134 114.2578125 83.17578125 C118.71758317 70.99717673 119.15629087 55.77256183 114.25 43.66015625 C113.8375 42.78230469 113.425 41.90445313 113 41 C112.5875 40.07058594 112.175 39.14117187 111.75 38.18359375 C105.39199562 25.1966473 94.53464129 16.55728186 81.125 11.625 C66.90549031 7.6247124 51.20001995 8.72930696 38.08203125 15.5078125 C24.95464997 23.2937076 15.80690259 34.42824026 11.703125 49.19140625 C8.60406933 65.97795779 11.18415437 80.96672454 20.875 95.0625 C29.55756196 105.98098487 40.51139477 112.477498 54 116 C54 116.33 54 116.66 54 117 C36.18 117 18.36 117 0 117 C0 78.39 0 39.78 0 0 Z " fill="#FEFEFE" transform="translate(0,0)"/>
<path d="M0 0 C1.9375 1.5625 1.9375 1.5625 3 3 C2 6 2 6 0 7 C-0.36321485 8.66041075 -0.68676972 10.32943851 -1 12 C-1.43214822 13.5492106 -1.89270744 15.09065993 -2.375 16.625 C-2.60960937 17.38039063 -2.84421875 18.13578125 -3.0859375 18.9140625 C-4.1042103 21.23781324 -4.96419859 22.48520938 -7 24 C-8.32 24 -9.64 24 -11 24 C-10.34 25.65 -9.68 27.3 -9 29 C-9.99 29 -10.98 29 -12 29 C-12 28.34 -12 27.68 -12 27 C-12.66 27 -13.32 27 -14 27 C-11.68767578 29.56249975 -11.68767578 29.56249975 -9 32 C-8.01 32 -7.02 32 -6 32 C-6.42683239 33.58624235 -6.86696158 35.1689098 -7.3125 36.75 C-7.55613281 37.63171875 -7.79976562 38.5134375 -8.05078125 39.421875 C-9.02125331 42.05772505 -10.21005644 43.85407326 -12 46 C-11.071875 46.185625 -11.071875 46.185625 -10.125 46.375 C-8 47 -8 47 -6 49 C-6.66 50.65 -7.32 52.3 -8 54 C-9.65 53.67 -11.3 53.34 -13 53 C-13 52.01 -13 51.02 -13 50 C-15.97 50.495 -15.97 50.495 -19 51 C-17.515 51.495 -17.515 51.495 -16 52 C-15.484375 52.763125 -14.96875 53.52625 -14.4375 54.3125 C-9.09518155 60.20274855 -2.03700548 61.19163523 5.625 61.75 C7.7492975 61.84964722 9.87424918 61.93873917 12 62 C12 61.01 12 60.02 12 59 C10.8553125 58.814375 10.8553125 58.814375 9.6875 58.625 C8.470625 58.41875 7.25375 58.2125 6 58 C4.62521484 57.79890625 4.62521484 57.79890625 3.22265625 57.59375 C2.24167969 57.4390625 1.26070312 57.284375 0.25 57.125 C-0.69359375 56.98320313 -1.6371875 56.84140625 -2.609375 56.6953125 C-5 56 -5 56 -7 53 C-3.37 50.69 0.26 48.38 4 46 C1.09245003 42.53774984 1.09245003 42.53774984 -4 42 C-4 38.37 -4 34.74 -4 31 C-0.94894899 32.017017 -0.17353952 32.82646048 2 35 C2.66 35 3.32 35 4 35 C4 35.99 4 36.98 4 38 C4.66 38 5.32 38 6 38 C6 38.66 6 39.32 6 40 C6.99 40.33 7.98 40.66 9 41 C9 41.66 9 42.32 9 43 C9.66 43 10.32 43 11 43 C11.495 42.01 11.495 42.01 12 41 C13.65 41 15.3 41 17 41 C17 41.66 17 42.32 17 43 C17.99 43.495 17.99 43.495 19 44 C19 45.32 19 46.64 19 48 C16.03 47.505 16.03 47.505 13 47 C12.67 49.31 12.34 51.62 12 54 C12.99 54 13.98 54 15 54 C14.7215625 55.3303125 14.7215625 55.3303125 14.4375 56.6875 C14.01653569 59.87480119 14.04264733 61.95387787 15 65 C15.99 65.495 15.99 65.495 17 66 C17 70.29 17 74.58 17 79 C15.02 79.495 15.02 79.495 13 80 C12.32779649 78.06441401 11.66241923 76.12645628 11 74.1875 C10.62875 73.10855469 10.2575 72.02960938 9.875 70.91796875 C9 68 9 68 9 65 C8.05125 65.165 7.1025 65.33 6.125 65.5 C2.96318483 65.98296566 0.00460798 65.94964242 -3.1875 65.8125 C-7.22521628 65.73815601 -7.22521628 65.73815601 -10.625 68 C-11.305625 68.99 -11.305625 68.99 -12 70 C-10.68 70.66 -9.36 71.32 -8 72 C-8 73.65 -8 75.3 -8 77 C-17.90035188 75.57015028 -26.82888559 68.60749449 -33 61 C-38.73741754 53.08791614 -43.95600153 45.13361618 -43 35 C-42 32.0625 -42 32.0625 -41 30 C-40.34 30 -39.68 30 -39 30 C-38.67 29.01 -38.34 28.02 -38 27 C-37.030625 26.87625 -36.06125 26.7525 -35.0625 26.625 C-34.051875 26.41875 -33.04125 26.2125 -32 26 C-31.67 25.34 -31.34 24.68 -31 24 C-29.35 24 -27.7 24 -26 24 C-26.66 23.67 -27.32 23.34 -28 23 C-27.67 21.35 -27.34 19.7 -27 18 C-23.08060535 21.80411834 -19.50897269 25.81576108 -16 30 C-17.85913574 26.28172852 -19.91934486 23.03501071 -22.6875 19.9375 C-25 17 -25 17 -25 13 C-24.34 13 -23.68 13 -23 13 C-23.33 10.69 -23.66 8.38 -24 6 C-23.01 6 -22.02 6 -21 6 C-21 5.34 -21 4.68 -21 4 C-20.32453125 3.80664062 -19.6490625 3.61328125 -18.953125 3.4140625 C-18.06109375 3.15367188 -17.1690625 2.89328125 -16.25 2.625 C-15.36828125 2.36976562 -14.4865625 2.11453125 -13.578125 1.8515625 C-11.02312253 1.087027 -11.02312253 1.087027 -8.89453125 -0.11328125 C-5.77457569 -1.57354911 -3.25859812 -0.7702141 0 0 Z " fill="#3B4564" transform="translate(55,37)"/>
<path d="M0 0 C0.80179688 0.00451172 1.60359375 0.00902344 2.4296875 0.01367188 C4.41149006 0.02546832 6.39325433 0.04340395 8.375 0.0625 C9.04720351 1.99808599 9.71258077 3.93604372 10.375 5.875 C10.74625 6.95394531 11.1175 8.03289062 11.5 9.14453125 C12.375 12.0625 12.375 12.0625 12.375 15.0625 C13.1273291 14.89500244 13.8796582 14.72750488 14.65478516 14.55493164 C19.76204282 13.87890206 24.75608077 14.05277492 29.8984375 14.18359375 C30.99975006 14.20720474 32.10106262 14.23081573 33.23574829 14.25514221 C36.74063944 14.33149096 40.24529345 14.41563901 43.75 14.5 C46.13149895 14.5532495 48.51300936 14.60598969 50.89453125 14.65820312 C56.72149972 14.78706703 62.54829316 14.92232864 68.375 15.0625 C68.375 17.0425 68.375 19.0225 68.375 21.0625 C27.455 21.0625 -13.465 21.0625 -55.625 21.0625 C-55.625 19.0825 -55.625 17.1025 -55.625 15.0625 C-39.125 14.7325 -22.625 14.4025 -5.625 14.0625 C-6.615 13.7325 -7.605 13.4025 -8.625 13.0625 C-9.32991267 10.74043475 -9.99712429 8.40656932 -10.625 6.0625 C-11.285 5.7325 -11.945 5.4025 -12.625 5.0625 C-9.87304944 -1.03110481 -6.13756978 -0.06476332 0 0 Z " fill="#F1F1F1" transform="translate(55.625,101.9375)"/>
<path d="M0 0 C3.05105101 1.017017 3.82646048 1.82646048 6 4 C6.66 4 7.32 4 8 4 C8 4.99 8 5.98 8 7 C8.66 7 9.32 7 10 7 C10 7.66 10 8.32 10 9 C10.99 9.33 11.98 9.66 13 10 C13 10.66 13 11.32 13 12 C13.66 12 14.32 12 15 12 C15.33 11.34 15.66 10.68 16 10 C17.65 10 19.3 10 21 10 C21 10.66 21 11.32 21 12 C21.66 12.33 22.32 12.66 23 13 C23 14.32 23 15.64 23 17 C21.02 16.67 19.04 16.34 17 16 C16.67 18.31 16.34 20.62 16 23 C16.99 23 17.98 23 19 23 C18.7215625 24.3303125 18.7215625 24.3303125 18.4375 25.6875 C18.01653569 28.87480119 18.04264733 30.95387787 19 34 C19.99 34.495 19.99 34.495 21 35 C21 39.29 21 43.58 21 48 C19.02 48.495 19.02 48.495 17 49 C16.32779649 47.06441401 15.66241923 45.12645628 15 43.1875 C14.62875 42.10855469 14.2575 41.02960938 13.875 39.91796875 C13 37 13 37 13 34 C12.05125 34.165 11.1025 34.33 10.125 34.5 C6.96318483 34.98296566 4.00460798 34.94964242 0.8125 34.8125 C-3.22521628 34.73815601 -3.22521628 34.73815601 -6.625 37 C-7.07875 37.66 -7.5325 38.32 -8 39 C-6.68 39.66 -5.36 40.32 -4 41 C-4 42.65 -4 44.3 -4 46 C-8.29802556 45.40525477 -11.39447463 43.87065207 -15.125 41.6875 C-16.15882812 41.09324219 -17.19265625 40.49898437 -18.2578125 39.88671875 C-20.8428252 38.10814163 -22.32388387 36.61820899 -24 34 C-22.02 33.34 -20.04 32.68 -18 32 C-19.65 29.69 -21.3 27.38 -23 25 C-24.32 25.33 -25.64 25.66 -27 26 C-27.33 25.01 -27.66 24.02 -28 23 C-26.40084119 22.30093058 -24.79544955 21.61610532 -23.1875 20.9375 C-22.29417969 20.55464844 -21.40085937 20.17179687 -20.48046875 19.77734375 C-17.11977637 18.72415039 -15.28184008 19.90605331 -12 21 C-11.484375 21.763125 -10.96875 22.52625 -10.4375 23.3125 C-5.09518155 29.20274855 1.96299452 30.19163523 9.625 30.75 C11.7492975 30.84964722 13.87424918 30.93873917 16 31 C16 30.01 16 29.02 16 28 C15.236875 27.87625 14.47375 27.7525 13.6875 27.625 C12.470625 27.41875 11.25375 27.2125 10 27 C9.08347656 26.8659375 8.16695312 26.731875 7.22265625 26.59375 C6.24167969 26.4390625 5.26070312 26.284375 4.25 26.125 C2.83460937 25.91230469 2.83460937 25.91230469 1.390625 25.6953125 C-1 25 -1 25 -3 22 C2.445 18.535 2.445 18.535 8 15 C5.09245003 11.53774984 5.09245003 11.53774984 0 11 C0 7.37 0 3.74 0 0 Z " fill="#B68888" transform="translate(51,68)"/>
<path d="M0 0 C0.99 0.33 1.98 0.66 3 1 C3 1.66 3 2.32 3 3 C2.34 3 1.68 3 1 3 C1.99 5.97 2.98 8.94 4 12 C2.35 12.33 0.7 12.66 -1 13 C-0.43410156 13.25394531 0.13179687 13.50789063 0.71484375 13.76953125 C1.44832031 14.11371094 2.18179688 14.45789063 2.9375 14.8125 C3.66839844 15.14894531 4.39929688 15.48539063 5.15234375 15.83203125 C7 17 7 17 8 20 C7.34 20 6.68 20 6 20 C6.33 21.32 6.66 22.64 7 24 C5.0429132 24.67031719 3.08428887 25.33614683 1.125 26 C0.03445312 26.37125 -1.05609375 26.7425 -2.1796875 27.125 C-5 28 -5 28 -7 28 C-6.34 28.66 -5.68 29.32 -5 30 C-3.68 30 -2.36 30 -1 30 C0.484375 31.75 0.484375 31.75 1.75 34 C2.17796875 34.7425 2.6059375 35.485 3.046875 36.25 C3.36140625 36.8275 3.6759375 37.405 4 38 C0.93681462 38.85984151 -0.90885056 39.36398421 -4 39 C-11.16747526 34.06770414 -15.33537553 23.99387341 -18 16 C-18.25343766 11.43812214 -18.00169177 8.12848928 -16 4 C-15.34 4 -14.68 4 -14 4 C-13.67 3.01 -13.34 2.02 -13 1 C-10.75 0.6875 -10.75 0.6875 -8 1 C-6.62131719 2.62935241 -5.28725907 4.29749607 -4 6 C-1.87053397 6.86965506 -1.87053397 6.86965506 0 7 C0 4.69 0 2.38 0 0 Z M4 4 C4.66 4.66 5.32 5.32 6 6 C5.67 6.99 5.34 7.98 5 9 C4.01 8.01 3.02 7.02 2 6 C2.66 6 3.32 6 4 6 C4 5.34 4 4.68 4 4 Z " fill="#293452" transform="translate(30,63)"/>
<path d="M0 0 C0 1.98 0 3.96 0 6 C4.455 5.505 4.455 5.505 9 5 C9 4.34 9 3.68 9 3 C10.65 3 12.3 3 14 3 C14.33 3.99 14.66 4.98 15 6 C16.2375 6 17.475 6 18.75 6 C21.5 6 24.25 6 27 6 C29.96743313 9.62686272 31 11.2453678 31 16 C27.32864748 17.83567626 22.70801564 17.03215817 18.6484375 16.9609375 C14.96087452 16.92198437 11.44155562 17.02280841 7.7890625 17.55859375 C4.28521747 17.96677364 1.8943061 17.86393339 -1.5 17.0625 C-2.3559375 16.86785156 -3.211875 16.67320313 -4.09375 16.47265625 C-4.7228125 16.31667969 -5.351875 16.16070312 -6 16 C-6 15.01 -6 14.02 -6 13 C-5.01 12.01 -4.02 11.02 -3 10 C-7.29 9.67 -11.58 9.34 -16 9 C-16 8.34 -16 7.68 -16 7 C-15.01 7 -14.02 7 -13 7 C-13 6.34 -13 5.68 -13 5 C-12.34 5 -11.68 5 -11 5 C-11 4.34 -11 3.68 -11 3 C-7.14243493 0.84694043 -4.44870215 -0.39253254 0 0 Z " fill="#DEF1FD" transform="translate(80,23)"/>
<path d="M0 0 C1.81102607 1.60980095 3.37358044 3.21702669 5 5 C10.68555193 10.94516617 15.85635584 13.6186064 24 15 C24.99 15 25.98 15 27 15 C28.4783226 17.95664519 28.06032783 20.74229737 28 24 C27.01 24.495 27.01 24.495 26 25 C25.34 22.69 24.68 20.38 24 18 C22.35 18 20.7 18 19 18 C18.67 19.32 18.34 20.64 18 22 C18 21.34 18 20.68 18 20 C17.34 20 16.68 20 16 20 C14.375 18.625 14.375 18.625 13 17 C13 16.34 13 15.68 13 15 C12.34 15 11.68 15 11 15 C10.34 14.34 9.68 13.68 9 13 C7.96597185 12.1159863 6.92381815 11.24141499 5.875 10.375 C4.92625 9.59125 3.9775 8.8075 3 8 C3 11.63 3 15.26 3 19 C4.093125 19.103125 5.18625 19.20625 6.3125 19.3125 C10 20 10 20 13 23 C7.06 26.465 7.06 26.465 1 30 C1.33 30.66 1.66 31.32 2 32 C4.899616 32.88280507 4.899616 32.88280507 8.3125 33.5625 C9.46363281 33.81128906 10.61476563 34.06007812 11.80078125 34.31640625 C12.85652344 34.54199219 13.91226563 34.76757812 15 35 C16.33521488 35.32571478 17.66961551 35.6550855 19 36 C19 36.99 19 37.98 19 39 C8.97888942 39.51982706 0.43804946 39.40223052 -7.625 32.875 C-9 31 -9 31 -9 29 C-10.32 28.67 -11.64 28.34 -13 28 C-12 27 -12 27 -8.9375 26.9375 C-7.4834375 26.9684375 -7.4834375 26.9684375 -6 27 C-6 27.99 -6 28.98 -6 30 C-4.35 30.33 -2.7 30.66 -1 31 C-0.67 29.35 -0.34 27.7 0 26 C-1.65 25.01 -3.3 24.02 -5 23 C-4.67 21.02 -4.34 19.04 -4 17 C-3.34 17 -2.68 17 -2 17 C-1.67 14.69 -1.34 12.38 -1 10 C-1.66 10 -2.32 10 -3 10 C-5.125 8.125 -5.125 8.125 -7 6 C-7 5.34 -7 4.68 -7 4 C-6.34 4 -5.68 4 -5 4 C-4.34 4.66 -3.68 5.32 -3 6 C-3.33 4.35 -3.66 2.7 -4 1 C-2.3125 0.1875 -2.3125 0.1875 0 0 Z " fill="#D5B6B4" transform="translate(48,60)"/>
<path d="M0 0 C1.9375 1.5625 1.9375 1.5625 3 3 C2 6 2 6 0 7 C-0.38929201 8.65449105 -0.708776 10.32546201 -1 12 C-1.65146849 14.33762223 -2.31526605 16.67190457 -3 19 C-3.66 17.68 -4.32 16.36 -5 15 C-5.9075 15 -6.815 15 -7.75 15 C-15 15 -15 15 -17.25 13 C-17.8275 12.34 -18.405 11.68 -19 11 C-19.33 12.32 -19.66 13.64 -20 15 C-21.65 14.67 -23.3 14.34 -25 14 C-24.34 13.67 -23.68 13.34 -23 13 C-23.33 10.69 -23.66 8.38 -24 6 C-23.01 6 -22.02 6 -21 6 C-21 5.34 -21 4.68 -21 4 C-20.32453125 3.80664062 -19.6490625 3.61328125 -18.953125 3.4140625 C-17.61507812 3.02347656 -17.61507812 3.02347656 -16.25 2.625 C-15.36828125 2.36976562 -14.4865625 2.11453125 -13.578125 1.8515625 C-11.02312253 1.087027 -11.02312253 1.087027 -8.89453125 -0.11328125 C-5.77457569 -1.57354911 -3.25859812 -0.7702141 0 0 Z " fill="#636079" transform="translate(55,37)"/>
<path d="M0 0 C2 0 2 0 3.375 1.3125 C3.91125 1.869375 4.4475 2.42625 5 3 C5.721875 3.45375 6.44375 3.9075 7.1875 4.375 C9 6 9 6 9.25 8.6875 C9.1675 9.450625 9.085 10.21375 9 11 C9.66 10.67 10.32 10.34 11 10 C13.10374996 9.84558791 15.21195119 9.75007361 17.3203125 9.68359375 C19.20556641 9.62075195 19.20556641 9.62075195 21.12890625 9.55664062 C22.44761719 9.51732422 23.76632813 9.47800781 25.125 9.4375 C26.46485751 9.39430488 27.80470156 9.35069027 29.14453125 9.30664062 C32.42957815 9.20029019 35.71470281 9.09826192 39 9 C39.495 10.98 39.495 10.98 40 13 C40.66 13 41.32 13 42 13 C41.67 17.29 41.34 21.58 41 26 C40.34 26 39.68 26 39 26 C38.32779649 24.06441401 37.66241923 22.12645628 37 20.1875 C36.62875 19.10855469 36.2575 18.02960938 35.875 16.91796875 C35 14 35 14 35 11 C34.05125 11.165 33.1025 11.33 32.125 11.5 C28.96318483 11.98296566 26.00460798 11.94964242 22.8125 11.8125 C18.77478372 11.73815601 18.77478372 11.73815601 15.375 14 C14.92125 14.66 14.4675 15.32 14 16 C15.32 16.66 16.64 17.32 18 18 C18 19.65 18 21.3 18 23 C13.70197444 22.40525477 10.60552537 20.87065207 6.875 18.6875 C5.84117188 18.09324219 4.80734375 17.49898437 3.7421875 16.88671875 C1.1571748 15.10814163 -0.32388387 13.61820899 -2 11 C-0.02 10.34 1.96 9.68 4 9 C2.35 6.69 0.7 4.38 -1 2 C-0.67 1.34 -0.34 0.68 0 0 Z " fill="#A06764" transform="translate(29,91)"/>
<path d="M0 0 C1.03447266 0.39832031 1.03447266 0.39832031 2.08984375 0.8046875 C8.02501087 3.03546362 13.77890211 4.77617746 20 6 C16.99049877 7.61725534 14.02896392 8.67582623 10.75 9.625 C9.85796875 9.88539062 8.9659375 10.14578125 8.046875 10.4140625 C7.37140625 10.60742188 6.6959375 10.80078125 6 11 C6.66 11.66 7.32 12.32 8 13 C9.32 13 10.64 13 12 13 C13.484375 14.75 13.484375 14.75 14.75 17 C15.17796875 17.7425 15.6059375 18.485 16.046875 19.25 C16.36140625 19.8275 16.6759375 20.405 17 21 C12.08695652 22.37909992 12.08695652 22.37909992 9 22 C3.56037018 18.02573985 -0.37925727 11.1231178 -3 5 C-3 4.01 -3 3.02 -3 2 C-2.01 2 -1.02 2 0 2 C0 1.34 0 0.68 0 0 Z " fill="#20273D" transform="translate(17,80)"/>
<path d="M0 0 C0.99 0.99 1.98 1.98 3 3 C-2.94 6.465 -2.94 6.465 -9 10 C-8.67 10.66 -8.34 11.32 -8 12 C-5.100384 12.88280507 -5.100384 12.88280507 -1.6875 13.5625 C-0.53636719 13.81128906 0.61476563 14.06007813 1.80078125 14.31640625 C2.85652344 14.54199219 3.91226563 14.76757812 5 15 C6.33521488 15.32571478 7.66961551 15.6550855 9 16 C9 16.99 9 17.98 9 19 C-1.02111058 19.51982706 -9.56195054 19.40223052 -17.625 12.875 C-19 11 -19 11 -19 9 C-20.32 8.67 -21.64 8.34 -23 8 C-22 7 -22 7 -18.9375 6.9375 C-17.4834375 6.9684375 -17.4834375 6.9684375 -16 7 C-16 7.99 -16 8.98 -16 10 C-14.35 10.33 -12.7 10.66 -11 11 C-10.87625 10.29875 -10.7525 9.5975 -10.625 8.875 C-9.95731453 5.80364682 -9.13303617 2.9325642 -8 0 C-5.06317146 -1.46841427 -3.13175678 -0.76696084 0 0 Z " fill="#E2C1C2" transform="translate(58,80)"/>
<path d="M0 0 C0.515625 0.763125 1.03125 1.52625 1.5625 2.3125 C6.08223933 7.29580234 11.35550732 8.83682366 17.98828125 9.24609375 C21.66382995 9.28898887 25.32836533 9.17623846 29 9 C29 9.66 29 10.32 29 11 C26.20879909 12.39560045 23.79794308 12.21808288 20.6796875 12.31640625 C18.79443359 12.37924805 18.79443359 12.37924805 16.87109375 12.44335938 C14.89302734 12.50233398 14.89302734 12.50233398 12.875 12.5625 C11.53514249 12.60569512 10.19529844 12.64930973 8.85546875 12.69335938 C5.57042185 12.79970981 2.28529719 12.90173808 -1 13 C-1.41378906 11.56914063 -1.41378906 11.56914063 -1.8359375 10.109375 C-3.23438496 6.37392473 -4.5703081 5.805101 -8 4 C-8 3.34 -8 2.68 -8 2 C-11.465 3.485 -11.465 3.485 -15 5 C-15.33 4.01 -15.66 3.02 -16 2 C-14.40084119 1.30093058 -12.79544955 0.61610532 -11.1875 -0.0625 C-10.29417969 -0.44535156 -9.40085937 -0.82820313 -8.48046875 -1.22265625 C-5.11977637 -2.27584961 -3.28184008 -1.09394669 0 0 Z " fill="#C7A0A2" transform="translate(39,89)"/>
<path d="M0 0 C3.875 1.75 3.875 1.75 5 4 C5.63808594 3.91621094 6.27617188 3.83242188 6.93359375 3.74609375 C7.75988281 3.64425781 8.58617187 3.54242188 9.4375 3.4375 C10.26121094 3.33308594 11.08492187 3.22867188 11.93359375 3.12109375 C12.95646484 3.06115234 12.95646484 3.06115234 14 3 C15 4 15 4 15.25 6.875 C15 10 15 10 13.77734375 11.68359375 C11.47853506 13.38622788 10.14017258 13.31044229 7.3125 13.1875 C6.10013672 13.14689453 6.10013672 13.14689453 4.86328125 13.10546875 C4.24839844 13.07066406 3.63351563 13.03585938 3 13 C2.67 13.66 2.34 14.32 2 15 C0.65772954 13.57084149 -0.67357096 12.13137328 -2 10.6875 C-2.7425 9.88699219 -3.485 9.08648437 -4.25 8.26171875 C-6 6 -6 6 -6 3 C-4.35 3 -2.7 3 -1 3 C-0.67 2.01 -0.34 1.02 0 0 Z " fill="#242945" transform="translate(36,48)"/>
<path d="M0 0 C2.97 0.495 2.97 0.495 6 1 C7.9679704 11.10341946 8.22102569 20.7468639 8 31 C8.66 31.33 9.32 31.66 10 32 C7.36 32.33 4.72 32.66 2 33 C2.99 32.505 2.99 32.505 4 32 C4 27.71 4 23.42 4 19 C3.01 18.67 2.02 18.34 1 18 C-0.0257259 13.58937864 -0.03684712 11.07369424 2 7 C1.01 7 0.02 7 -1 7 C-2 4 -2 4 -1.0625 1.8125 C-0.5365625 0.9153125 -0.5365625 0.9153125 0 0 Z " fill="#D7B8B5" transform="translate(68,84)"/>
<path d="M0 0 C3.05105101 1.017017 3.82646048 1.82646048 6 4 C6.66 4 7.32 4 8 4 C8 4.99 8 5.98 8 7 C8.66 7 9.32 7 10 7 C10 7.66 10 8.32 10 9 C10.99 9.33 11.98 9.66 13 10 C13 10.66 13 11.32 13 12 C13.66 12 14.32 12 15 12 C15.33 11.34 15.66 10.68 16 10 C17.65 10 19.3 10 21 10 C21 10.66 21 11.32 21 12 C21.66 12.33 22.32 12.66 23 13 C23 14.32 23 15.64 23 17 C21.63875 16.9690625 21.63875 16.9690625 20.25 16.9375 C17.57327412 16.9889755 15.53011948 17.2215017 13 18 C13 17.34 13 16.68 13 16 C12.13375 15.8453125 12.13375 15.8453125 11.25 15.6875 C9 15 9 15 7.0625 13.5 C4.72949834 11.58350854 4.72949834 11.58350854 0 11 C0 7.37 0 3.74 0 0 Z " fill="#6D4C55" transform="translate(51,68)"/>
<path d="M0 0 C3.82601307 1.45124634 5.22329124 3.35774704 7 7 C7 7.99 7 8.98 7 10 C3.04 10 -0.92 10 -5 10 C-5 9.34 -5 8.68 -5 8 C-5.598125 8.350625 -6.19625 8.70125 -6.8125 9.0625 C-9 10 -9 10 -12 9 C-12.66 8.34 -13.32 7.68 -14 7 C-12.63016497 3.83884224 -12.0109362 3.0072908 -9 1 C-6.9921875 0.83984375 -6.9921875 0.83984375 -4.875 0.9375 C-2.956875 0.9684375 -2.956875 0.9684375 -1 1 C-0.67 0.67 -0.34 0.34 0 0 Z " fill="#EBF2F9" transform="translate(104,28)"/>
<path d="M0 0 C0.66 0 1.32 0 2 0 C2.33 1.98 2.66 3.96 3 6 C3.66 4.35 4.32 2.7 5 1 C5.66 1.33 6.32 1.66 7 2 C6.25749403 6.08378283 5.17076699 10.01939223 4 14 C3.34 12.68 2.68 11.36 2 10 C1.0925 10 0.185 10 -0.75 10 C-8 10 -8 10 -10.25 8 C-10.8275 7.34 -11.405 6.68 -12 6 C-12.33 7.32 -12.66 8.64 -13 10 C-14.65 9.67 -16.3 9.34 -18 9 C-17.34 8.67 -16.68 8.34 -16 8 C-16.33 5.69 -16.66 3.38 -17 1 C-13.75 0.75 -13.75 0.75 -10 1 C-8.64691687 2.31328657 -7.31129922 3.64499081 -6 5 C-3.29294488 4.85974801 -3.29294488 4.85974801 -1 4 C-0.67 2.68 -0.34 1.36 0 0 Z " fill="#927377" transform="translate(48,42)"/>
<path d="M0 0 C1.32 0 2.64 0 4 0 C4.66 1.65 5.32 3.3 6 5 C5.34 5 4.68 5 4 5 C4.33 6.98 4.66 8.96 5 11 C5.804375 11.12375 6.60875 11.2475 7.4375 11.375 C8.283125 11.58125 9.12875 11.7875 10 12 C10.33 12.66 10.66 13.32 11 14 C9.22880197 13.85866501 7.45804713 13.71176792 5.6875 13.5625 C4.70136719 13.48128906 3.71523438 13.40007812 2.69921875 13.31640625 C0 13 0 13 -3 12 C-3.70491267 9.67793475 -4.37212429 7.34406932 -5 5 C-5.66 4.67 -6.32 4.34 -7 4 C-6.67 3.34 -6.34 2.68 -6 2 C-4.515 2.99 -4.515 2.99 -3 4 C-2.5875 3.34 -2.175 2.68 -1.75 2 C-1.1725 1.34 -0.595 0.68 0 0 Z " fill="#D7BAB7" transform="translate(50,103)"/>
<path d="M0 0 C2.60469425 1.77881558 3.56235692 2.94236255 4.75 5.8125 C5.10090788 8.88294393 5.05935782 11.91339359 5 15 C0.15544041 13.41450777 0.15544041 13.41450777 -2 12 C-2.9375 8.8125 -2.9375 8.8125 -3 6 C-2.34 6 -1.68 6 -1 6 C-1.66 4.35 -2.32 2.7 -3 1 C-6.65316671 2.24976756 -7.78065836 2.67098753 -10 6 C-10.99 5.34 -11.98 4.68 -13 4 C-12.67 3.01 -12.34 2.02 -12 1 C-8.30568392 -0.84715804 -4.03285167 -0.47560286 0 0 Z " fill="#E3C8C7" transform="translate(57,102)"/>
<path d="M0 0 C7.25 7.25 7.25 7.25 8 14 C6.35 13.67 4.7 13.34 3 13 C3 12.34 3 11.68 3 11 C3.66 11 4.32 11 5 11 C4.01 10.01 3.02 9.02 2 8 C2 10.31 2 12.62 2 15 C-1.67420866 14.69381595 -2.78135513 14.24228216 -5.3125 11.4375 C-5.869375 10.633125 -6.42625 9.82875 -7 9 C-6.34 8.67 -5.68 8.34 -5 8 C-4.67 7.34 -4.34 6.68 -4 6 C-2.35 6 -0.7 6 1 6 C0.34 5.67 -0.32 5.34 -1 5 C-0.67 3.35 -0.34 1.7 0 0 Z " fill="#3E4B71" transform="translate(28,55)"/>
<path d="M0 0 C1.66666667 1.66666667 3.33333333 3.33333333 5 5 C6.32 5 7.64 5 9 5 C10.484375 6.75 10.484375 6.75 11.75 9 C12.17796875 9.7425 12.6059375 10.485 13.046875 11.25 C13.36140625 11.8275 13.6759375 12.405 14 13 C9.05718771 14.38745608 9.05718771 14.38745608 6 14 C2.9116002 11.81427588 0.81233656 9.31482204 -1 6 C-0.9375 2.5 -0.9375 2.5 0 0 Z " fill="#181C2F" transform="translate(20,88)"/>
<path d="M0 0 C0.99 0.66 1.98 1.32 3 2 C3.29296875 5.2578125 3.29296875 5.2578125 3.1875 9.125 C3.16042969 10.40632813 3.13335937 11.68765625 3.10546875 13.0078125 C3.07066406 13.99523437 3.03585938 14.98265625 3 16 C2.34 16 1.68 16 1 16 C1 17.65 1 19.3 1 21 C-1.38564077 20.42415568 -3.66682784 19.77772405 -6 19 C-5.67 17.02 -5.34 15.04 -5 13 C-4.34 13 -3.68 13 -3 13 C-2.7834375 11.329375 -2.7834375 11.329375 -2.5625 9.625 C-2 6 -2 6 -1 4 C-0.64830932 2.67139075 -0.31229724 1.33841672 0 0 Z " fill="#777E98" transform="translate(49,64)"/>
<path d="M0 0 C0.99 0.33 1.98 0.66 3 1 C2.67 1.66 2.34 2.32 2 3 C3.32 3.66 4.64 4.32 6 5 C6 6.65 6 8.3 6 10 C1.96522658 9.41841104 -0.85241201 8.13243941 -4.3125 6 C-5.19550781 5.46375 -6.07851563 4.9275 -6.98828125 4.375 C-7.65214844 3.92125 -8.31601562 3.4675 -9 3 C-9 2.67 -9 2.34 -9 2 C-6.03 2 -3.06 2 0 2 C0 1.34 0 0.68 0 0 Z " fill="#757789" transform="translate(41,104)"/>
<path d="M0 0 C0.763125 0.20625 1.52625 0.4125 2.3125 0.625 C2.126875 1.511875 1.94125 2.39875 1.75 3.3125 C1.32903569 6.49980119 1.35514733 8.57887787 2.3125 11.625 C2.9725 11.955 3.6325 12.285 4.3125 12.625 C4.3125 16.915 4.3125 21.205 4.3125 25.625 C3.6525 25.625 2.9925 25.625 2.3125 25.625 C2.28537934 24.18760487 2.26604933 22.75006137 2.25 21.3125 C2.23839844 20.51199219 2.22679688 19.71148437 2.21484375 18.88671875 C2.3125 16.625 2.3125 16.625 3.3125 13.625 C2.3225 13.955 1.3325 14.285 0.3125 14.625 C-1.1658226 11.66835481 -0.74782783 8.88270263 -0.6875 5.625 C-2.3375 5.295 -3.9875 4.965 -5.6875 4.625 C-5.6875 3.635 -5.6875 2.645 -5.6875 1.625 C-2.6875 -0.375 -2.6875 -0.375 0 0 Z " fill="#B2807E" transform="translate(67.6875,90.375)"/>
<path d="M0 0 C0.67220351 1.93558599 1.33758077 3.87354372 2 5.8125 C2.556875 7.43091797 2.556875 7.43091797 3.125 9.08203125 C4 12 4 12 4 15 C2.02 15 0.04 15 -2 15 C-2.13277344 14.24074219 -2.26554687 13.48148438 -2.40234375 12.69921875 C-2.57894531 11.70535156 -2.75554688 10.71148437 -2.9375 9.6875 C-3.11152344 8.70136719 -3.28554688 7.71523437 -3.46484375 6.69921875 C-3.95746847 3.91810787 -3.95746847 3.91810787 -5 1 C-2 0 -2 0 0 0 Z " fill="#C9DBEF" transform="translate(64,102)"/>
<path d="M0 0 C0.66 0 1.32 0 2 0 C1.96519531 0.65226562 1.93039063 1.30453125 1.89453125 1.9765625 C1.72220392 7.54027348 2.06254074 11.10423457 5 16 C5 16.66 5 17.32 5 18 C2.36 17.67 -0.28 17.34 -3 17 C-2.01 16.67 -1.02 16.34 0 16 C0.33 15.01 0.66 14.02 1 13 C-0.305239 10.38952199 -1.35826574 10.31933577 -4.0625 9.375 C-4.79597656 9.11460938 -5.52945312 8.85421875 -6.28515625 8.5859375 C-6.85105469 8.39257812 -7.41695312 8.19921875 -8 8 C-6 6 -6 6 -4 5 C-4 3.68 -4 2.36 -4 1 C-3.01 1.33 -2.02 1.66 -1 2 C-0.67 1.34 -0.34 0.68 0 0 Z " fill="#3C4869" transform="translate(36,69)"/>
<path d="M0 0 C3.05105101 1.017017 3.82646048 1.82646048 6 4 C6.66 4 7.32 4 8 4 C8 4.99 8 5.98 8 7 C8.66 7 9.32 7 10 7 C10 7.66 10 8.32 10 9 C9.34 9 8.68 9 8 9 C8 9.66 8 10.32 8 11 C5 12 5 12 0 11 C0 7.37 0 3.74 0 0 Z " fill="#5F5B70" transform="translate(51,68)"/>
<path d="M0 0 C1.69140625 1.546875 1.69140625 1.546875 3 3 C1.04480616 4.17192047 -0.9142539 5.3373929 -2.875 6.5 C-3.96554688 7.1496875 -5.05609375 7.799375 -6.1796875 8.46875 C-9 10 -9 10 -11 10 C-10.21205747 6.58558238 -9.23882213 3.27923505 -8 0 C-5.06317146 -1.46841427 -3.13175678 -0.76696084 0 0 Z " fill="#E0E9F6" transform="translate(58,80)"/>
<path d="M0 0 C2.375 2.125 2.375 2.125 5 5 C6.96059964 6.7195803 8.97691224 8.35330066 11 10 C10.67 10.99 10.34 11.98 10 13 C5.79373966 11.49776416 4.26099979 8.71449966 2 5 C1.731875 5.639375 1.46375 6.27875 1.1875 6.9375 C0 9 0 9 -3 10 C-4.37562854 8.71034824 -5.70766393 7.37310707 -7 6 C-7 5.34 -7 4.68 -7 4 C-6.34 4 -5.68 4 -5 4 C-4.34 4.66 -3.68 5.32 -3 6 C-3.33 4.35 -3.66 2.7 -4 1 C-2.3125 0.1875 -2.3125 0.1875 0 0 Z " fill="#959CB4" transform="translate(48,60)"/>
<path d="M0 0 C3 0 3 0 4.5625 1.4375 C5.036875 1.953125 5.51125 2.46875 6 3 C6.66 3.33 7.32 3.66 8 4 C8 4.66 8 5.32 8 6 C9.98 6 11.96 6 14 6 C12.68 6.33 11.36 6.66 10 7 C10 7.99 10 8.98 10 10 C17.92 10 25.84 10 34 10 C34 10.33 34 10.66 34 11 C20.635 11.495 20.635 11.495 7 12 C6.34 10.02 5.68 8.04 5 6 C3.36504293 4.94895617 1.70116376 3.94011682 0 3 C0 2.01 0 1.02 0 0 Z " fill="#B88483" transform="translate(31,90)"/>
<path d="M0 0 C1 1 1 1 1.3125 3.875 C1 7 1 7 -1 8.875 C-1.99 9.431875 -1.99 9.431875 -3 10 C-7.875 5.375 -7.875 5.375 -9 2 C-5.55892734 -0.29404844 -4.03160191 -0.26293056 0 0 Z " fill="#63596B" transform="translate(50,51)"/>
<path d="M0 0 C0.66 0 1.32 0 2 0 C2.33 1.98 2.66 3.96 3 6 C3.66 4.35 4.32 2.7 5 1 C5.66 1.33 6.32 1.66 7 2 C6.25749403 6.08378283 5.17076699 10.01939223 4 14 C3.34 12.68 2.68 11.36 2 10 C1.0925 10 0.185 10 -0.75 10 C-3.16666667 10 -5.58333333 10 -8 10 C-7.34 9.34 -6.68 8.68 -6 8 C-5.01 8 -4.02 8 -3 8 C-3 7.01 -3 6.02 -3 5 C-2.34 4.67 -1.68 4.34 -1 4 C-0.34786708 1.97536745 -0.34786708 1.97536745 0 0 Z " fill="#9C7277" transform="translate(48,42)"/>
<path d="M0 0 C1.8125 1.375 1.8125 1.375 3 3 C3 3.66 3 4.32 3 5 C1.89140625 4.98839844 0.7828125 4.97679687 -0.359375 4.96484375 C-1.82291498 4.95546208 -3.28645678 4.94636229 -4.75 4.9375 C-5.47960938 4.92912109 -6.20921875 4.92074219 -6.9609375 4.91210938 C-10.48670558 4.89608316 -13.61034916 5.04707287 -17 6 C-17 5.34 -17 4.68 -17 4 C-16.30132812 3.79503906 -15.60265625 3.59007812 -14.8828125 3.37890625 C-13.97273438 3.10949219 -13.06265625 2.84007812 -12.125 2.5625 C-11.22007813 2.29566406 -10.31515625 2.02882812 -9.3828125 1.75390625 C-2.93451174 -0.28629383 -2.93451174 -0.28629383 0 0 Z " fill="#463E58" transform="translate(51,37)"/>
<path d="M0 0 C0.33 0.33 0.66 0.66 1 1 C2.68608966 1.07205511 4.37500659 1.08386068 6.0625 1.0625 C6.98160156 1.05347656 7.90070312 1.04445313 8.84765625 1.03515625 C9.55792969 1.02355469 10.26820312 1.01195313 11 1 C10.67 1.66 10.34 2.32 10 3 C8.68 3 7.36 3 6 3 C6 3.66 6 4.32 6 5 C4.23050905 5.10815225 2.45912513 5.18566083 0.6875 5.25 C-0.29863281 5.29640625 -1.28476562 5.3428125 -2.30078125 5.390625 C-5 5 -5 5 -6.85546875 2.984375 C-7.42201172 2.00210938 -7.42201172 2.00210938 -8 1 C-5.05549278 0.01849759 -3.06481021 -0.1613058 0 0 Z " fill="#5E5C6B" transform="translate(35,101)"/>
<path d="M0 0 C1.4540625 0.0309375 1.4540625 0.0309375 2.9375 0.0625 C2.9375 1.0525 2.9375 2.0425 2.9375 3.0625 C3.845 2.98 4.7525 2.8975 5.6875 2.8125 C8.9375 3.0625 8.9375 3.0625 11.3125 5.0625 C11.84875 5.7225 12.385 6.3825 12.9375 7.0625 C11.9475 7.3925 10.9575 7.7225 9.9375 8.0625 C9.2775 7.7325 8.6175 7.4025 7.9375 7.0625 C7.6075 7.7225 7.2775 8.3825 6.9375 9.0625 C3.19827165 7.09448508 1.78876866 5.76503733 -0.0625 2.0625 C-2.11250871 1.25721111 -2.11250871 1.25721111 -4.0625 1.0625 C-3.0625 0.0625 -3.0625 0.0625 0 0 Z " fill="#CABDC8" transform="translate(39.0625,86.9375)"/>
<path d="M0 0 C0.33 0.66 0.66 1.32 1 2 C0.67 2.99 0.34 3.98 0 5 C0.99 5.33 1.98 5.66 3 6 C3 6.33 3 6.66 3 7 C2.154375 6.938125 1.30875 6.87625 0.4375 6.8125 C-3.79193829 7.04319663 -6.23802916 8.08213251 -10 10 C-10.33 10.66 -10.66 11.32 -11 12 C-11.66 11.67 -12.32 11.34 -13 11 C-9.11995791 6.16716651 -5.93008355 2.31417894 0 0 Z " fill="#9FAECA" transform="translate(27,55)"/>
<path d="M0 0 C0.66 0.99 1.32 1.98 2 3 C2.66 3 3.32 3 4 3 C3.67 7.29 3.34 11.58 3 16 C2.34 16 1.68 16 1 16 C0.32779649 14.06441401 -0.33758077 12.12645628 -1 10.1875 C-1.37125 9.10855469 -1.7425 8.02960938 -2.125 6.91796875 C-3 4 -3 4 -3 1 C-2.01 0.67 -1.02 0.34 0 0 Z " fill="#855657" transform="translate(67,101)"/>
<path d="M0 0 C1.60717771 2.41076656 2.61542515 4.28099245 3.625 6.9375 C3.88539062 7.60652344 4.14578125 8.27554688 4.4140625 8.96484375 C5 11 5 11 5 15 C6.98 15 8.96 15 11 15 C10.67 16.65 10.34 18.3 10 20 C7.67578125 19.81640625 7.67578125 19.81640625 5 19 C0.86362753 13.188652 -0.66107865 7.00743368 0 0 Z " fill="#202844" transform="translate(37,71)"/>
<path d="M0 0 C5.76538473 1.05058122 11.79312423 0.617428 17.63671875 0.48046875 C17.63671875 1.14046875 17.63671875 1.80046875 17.63671875 2.48046875 C14.4437505 3.5447915 12.43226934 3.51835211 9.09375 3.359375 C8.02060547 3.31103516 6.94746094 3.26269531 5.84179688 3.21289062 C4.72224609 3.15681641 3.60269531 3.10074219 2.44921875 3.04296875 C0.75249023 2.9646582 0.75249023 2.9646582 -0.97851562 2.88476562 C-3.77371405 2.75503068 -6.56856065 2.62006234 -9.36328125 2.48046875 C-9.36328125 1.49046875 -9.36328125 0.50046875 -9.36328125 -0.51953125 C-5.72584006 -1.65276456 -3.63972529 -1.0329887 0 0 Z " fill="#C79A9C" transform="translate(50.36328125,97.51953125)"/>
<path d="M0 0 C3.465 1.485 3.465 1.485 7 3 C7 4.98 7 6.96 7 9 C3.32579134 8.69381595 2.21864487 8.24228216 -0.3125 5.4375 C-0.869375 4.633125 -1.42625 3.82875 -2 3 C-1.34 2.67 -0.68 2.34 0 2 C0 1.34 0 0.68 0 0 Z " fill="#637090" transform="translate(23,61)"/>
<path d="M0 0 C0.87527344 -0.01417969 1.75054687 -0.02835937 2.65234375 -0.04296875 C5.0625 0.1875 5.0625 0.1875 8.0625 2.1875 C8.0625 3.1775 8.0625 4.1675 8.0625 5.1875 C6.4125 4.8575 4.7625 4.5275 3.0625 4.1875 C2.7325 3.1975 2.4025 2.2075 2.0625 1.1875 C-1.59066671 2.43726756 -2.71815836 2.85848753 -4.9375 6.1875 C-5.9275 5.5275 -6.9175 4.8675 -7.9375 4.1875 C-7.6075 3.1975 -7.2775 2.2075 -6.9375 1.1875 C-4.47380468 -0.04434766 -2.7480499 0.02017658 0 0 Z " fill="#F1E4E2" transform="translate(51.9375,101.8125)"/>
<path d="M0 0 C3.19448727 0.0696979 3.95878065 0.25033549 6.625 2.25 C8.125 4.375 8.125 4.375 8.125 6.375 C6.145 6.705 4.165 7.035 2.125 7.375 C1.815625 6.4159375 1.815625 6.4159375 1.5 5.4375 C0.22961791 3.02574923 0.22961791 3.02574923 -3 2.625 C-3.94875 2.5425 -4.8975 2.46 -5.875 2.375 C-3.875 0.375 -3.875 0.375 0 0 Z " fill="#DBF3FC" transform="translate(41.875,29.625)"/>
<path d="M0 0 C0.556875 0.70125 1.11375 1.4025 1.6875 2.125 C3.27241031 4.09542903 4.90018466 6.031919 6.5625 7.9375 C8.88402986 10.85429393 10.46875292 13.61513804 12 17 C8.01227333 15.44157808 5.88921805 12.88102854 3.1875 9.625 C1.97126953 8.19027344 1.97126953 8.19027344 0.73046875 6.7265625 C-1 4 -1 4 -0.76171875 1.6484375 C-0.51035156 1.10445312 -0.25898438 0.56046875 0 0 Z " fill="#8599B8" transform="translate(29,51)"/>
<path d="M0 0 C3.465 1.485 3.465 1.485 7 3 C4.11912454 5.40072955 1.43595166 7.47291037 -2 9 C-2.125 5.625 -2.125 5.625 -2 2 C-1.34 1.34 -0.68 0.68 0 0 Z " fill="#51B3F0" transform="translate(35,33)"/>
<path d="M0 0 C1.65 0 3.3 0 5 0 C5 0.66 5 1.32 5 2 C5.66 2.33 6.32 2.66 7 3 C7 4.32 7 5.64 7 7 C4.69 6.67 2.38 6.34 0 6 C0 4.02 0 2.04 0 0 Z " fill="#B37E7F" transform="translate(67,78)"/>
<path d="M0 0 C0.99 0.33 1.98 0.66 3 1 C2.32517578 1.82757813 2.32517578 1.82757813 1.63671875 2.671875 C-0.09332499 5.13274867 -1.11709018 7.44478805 -2.1875 10.25 C-2.53167969 11.14203125 -2.87585938 12.0340625 -3.23046875 12.953125 C-3.48441406 13.62859375 -3.73835937 14.3040625 -4 15 C-4.33 15 -4.66 15 -5 15 C-5.17835515 10.45194365 -4.99785435 7.1205746 -3 3 C-2.34 3 -1.68 3 -1 3 C-0.67 2.01 -0.34 1.02 0 0 Z " fill="#303D5B" transform="translate(17,64)"/>
<path d="M0 0 C1.8125 1.4375 1.8125 1.4375 3 3 C2.01 3.495 2.01 3.495 1 4 C1 4.66 1 5.32 1 6 C-1.31 6 -3.62 6 -6 6 C-5.67 4.35 -5.34 2.7 -5 1 C-2.6875 0.3125 -2.6875 0.3125 0 0 Z " fill="#333F60" transform="translate(35,79)"/>
<path d="M0 0 C2.97 0.495 2.97 0.495 6 1 C5.814375 1.598125 5.62875 2.19625 5.4375 2.8125 C4.77906313 5.16408762 4.77906313 5.16408762 6 8 C3.61435923 7.42415568 1.33317216 6.77772405 -1 6 C-0.67 4.02 -0.34 2.04 0 0 Z " fill="#9CA1B8" transform="translate(44,77)"/>
<path d="M0 0 C0.625 2.5625 0.625 2.5625 1 5 C0.01 5 -0.98 5 -2 5 C-2 4.34 -2 3.68 -2 3 C-2.66 3 -3.32 3 -4 3 C-3.34 4.32 -2.68 5.64 -2 7 C-2.99 7.495 -2.99 7.495 -4 8 C-5.5625 6.25 -5.5625 6.25 -7 4 C-6.6875 1.75 -6.6875 1.75 -6 0 C-2.25 -1.125 -2.25 -1.125 0 0 Z " fill="#6D667A" transform="translate(45,61)"/>
<path d="M0 0 C-0.33 3.3 -0.66 6.6 -1 10 C-1.66 10 -2.32 10 -3 10 C-3.33 9.34 -3.66 8.68 -4 8 C-4.66 8 -5.32 8 -6 8 C-3.18918919 0 -3.18918919 0 0 0 Z " fill="#C2A2A2" transform="translate(60,83)"/>
<path d="M0 0 C3 4 3 4 3 6 C4.32 6.33 5.64 6.66 7 7 C3.375 10 3.375 10 0 10 C0 6.7 0 3.4 0 0 Z " fill="#0F1733" transform="translate(51,68)"/>
<path d="M0 0 C1.9375 0.6875 1.9375 0.6875 4 2 C4.75 4.625 4.75 4.625 5 7 C3.02 7.99 3.02 7.99 1 9 C-0.37562854 7.71034824 -1.70766393 6.37310707 -3 5 C-3 4.34 -3 3.68 -3 3 C-2.34 3 -1.68 3 -1 3 C-0.34 3.66 0.32 4.32 1 5 C0.67 3.35 0.34 1.7 0 0 Z " fill="#C3C1CF" transform="translate(44,61)"/>
<path d="M0 0 C6.52307692 0.61538462 6.52307692 0.61538462 8.9375 2.5625 C9.288125 3.036875 9.63875 3.51125 10 4 C7.64031256 6.09749995 6.45383006 6.96905704 3.25 7.1875 C2.13625 7.0946875 2.13625 7.0946875 1 7 C1.99 5.68 2.98 4.36 4 3 C2.68 2.01 1.36 1.02 0 0 Z " fill="#96D6F7" transform="translate(36,33)"/>
<path d="M0 0 C-1.47563225 2.9512645 -3.50079352 3.06923915 -6.5625 4.125 C-7.57441406 4.47820312 -8.58632813 4.83140625 -9.62890625 5.1953125 C-10.41136719 5.46085937 -11.19382812 5.72640625 -12 6 C-12.33 5.01 -12.66 4.02 -13 3 C-11.40084119 2.30093058 -9.79544955 1.61610532 -8.1875 0.9375 C-7.29417969 0.55464844 -6.40085937 0.17179687 -5.48046875 -0.22265625 C-3 -1 -3 -1 0 0 Z " fill="#9098AA" transform="translate(36,88)"/>
<path d="M0 0 C0.66 0 1.32 0 2 0 C2.67119549 1.4562545 3.33681807 2.91507867 4 4.375 C4.556875 5.59316406 4.556875 5.59316406 5.125 6.8359375 C6 9 6 9 6 11 C3.36 10.67 0.72 10.34 -2 10 C-1.01 9.67 -0.02 9.34 1 9 C1.33 8.01 1.66 7.02 2 6 C0.62831762 3.80961577 0.62831762 3.80961577 -1 2 C-0.67 1.34 -0.34 0.68 0 0 Z " fill="#525F7F" transform="translate(35,76)"/>
<path d="M0 0 C1.9375 0.8125 1.9375 0.8125 4 2 C4.33 2.99 4.66 3.98 5 5 C1.37 5.33 -2.26 5.66 -6 6 C-6 5.01 -6 4.02 -6 3 C-4.35 3 -2.7 3 -1 3 C-0.67 2.01 -0.34 1.02 0 0 Z " fill="#575165" transform="translate(36,48)"/>
<path d="M0 0 C3.11373372 1.49920512 6.12228205 3.08152136 9 5 C9 5.66 9 6.32 9 7 C6.6875 7.6875 6.6875 7.6875 4 8 C1.48017068 6.38010972 1.05657891 5.22117209 0.3125 2.3125 C0.209375 1.549375 0.10625 0.78625 0 0 Z " fill="#B48A87" transform="translate(36,43)"/>
<path d="M0 0 C0.66 0.33 1.32 0.66 2 1 C1.25749403 5.08378283 0.17076699 9.01939223 -1 13 C-2.20628008 10.66785852 -3.1654738 8.50357861 -4 6 C-4.66 5.67 -5.32 5.34 -6 5 C-5.01 4.67 -4.02 4.34 -3 4 C-2.67 4.33 -2.34 4.66 -2 5 C-1.34 3.35 -0.68 1.7 0 0 Z " fill="#AAAEC5" transform="translate(53,43)"/>
<path d="M0 0 C0.99 0.33 1.98 0.66 3 1 C3 4.3 3 7.6 3 11 C2.67 9.68 2.34 8.36 2 7 C1.01 7 0.02 7 -1 7 C-2 4 -2 4 -1.0625 1.8125 C-0.5365625 0.9153125 -0.5365625 0.9153125 0 0 Z " fill="#C79E9D" transform="translate(68,84)"/>
<path d="M0 0 C0.99 0 1.98 0 3 0 C2.01 3.3 1.02 6.6 0 10 C-0.99 9.67 -1.98 9.34 -3 9 C-4.1875 6.4375 -4.1875 6.4375 -5 4 C-4.34 4 -3.68 4 -3 4 C-2.67 4.66 -2.34 5.32 -2 6 C-1.34 4.02 -0.68 2.04 0 0 Z " fill="#4B5574" transform="translate(46,69)"/>
<path d="M0 0 C6.52307692 0.61538462 6.52307692 0.61538462 8.9375 2.5625 C9.288125 3.036875 9.63875 3.51125 10 4 C9.67 4.99 9.34 5.98 9 7 C8.01 7 7.02 7 6 7 C4.96210419 5.35666496 3.96432076 3.68756133 3 2 C2.01 1.34 1.02 0.68 0 0 Z " fill="#4478B1" transform="translate(48,36)"/>
<path d="M0 0 C7.42857143 1 7.42857143 1 11 2 C11 2.99 11 3.98 11 5 C9.02 5 7.04 5 5 5 C4.67 3.68 4.34 2.36 4 1 C2.68 0.67 1.36 0.34 0 0 Z " fill="#D5B8BC" transform="translate(56,94)"/>
<path d="M0 0 C0.66 0.33 1.32 0.66 2 1 C0.02 3.97 0.02 3.97 -2 7 C-3.65 6.67 -5.3 6.34 -7 6 C-4.74259377 3.66475218 -2.7194239 1.81294927 0 0 Z " fill="#6D718A" transform="translate(55,85)"/>
<path d="M0 0 C1.26237731 2.52475462 1.09856404 4.31200466 1.0625 7.125 C1.05347656 8.03507812 1.04445313 8.94515625 1.03515625 9.8828125 C1.02355469 10.58148438 1.01195313 11.28015625 1 12 C-1.44839588 8.32740617 -3 5.45351799 -3 1 C-2.01 0.67 -1.02 0.34 0 0 Z " fill="#72454A" transform="translate(67,101)"/>
<path d="M0 0 C5.75 0.75 5.75 0.75 8 3 C8.125 5.625 8.125 5.625 8 8 C7.67 7.34 7.34 6.68 7 6 C6.34 6 5.68 6 5 6 C3.375 4.625 3.375 4.625 2 3 C2 2.34 2 1.68 2 1 C1.34 0.67 0.68 0.34 0 0 Z " fill="#D4B0AF" transform="translate(59,74)"/>
<path d="M0 0 C3.63 1.32 7.26 2.64 11 4 C10.67 4.99 10.34 5.98 10 7 C6.56224696 5.85408232 3.3240073 4.44249373 0 3 C0 2.01 0 1.02 0 0 Z " fill="#E0D1D3" transform="translate(59,71)"/>
<path d="M0 0 C1.9453125 0.2421875 1.9453125 0.2421875 4.125 0.875 C4.84945312 1.07867187 5.57390625 1.28234375 6.3203125 1.4921875 C6.87460937 1.65976563 7.42890625 1.82734375 8 2 C8 2.66 8 3.32 8 4 C1.375 4.25 1.375 4.25 -2 2 C-1.34 1.34 -0.68 0.68 0 0 Z " fill="#EBD2D1" transform="translate(52,93)"/>
<path d="M0 0 C0.33 0.99 0.66 1.98 1 3 C2.65 2.67 4.3 2.34 6 2 C5.67 2.99 5.34 3.98 5 5 C1.37 4.34 -2.26 3.68 -6 3 C-3 1 -3 1 0 0 Z " fill="#9D8B96" transform="translate(56,90)"/>
<path d="M0 0 C2.31 0 4.62 0 7 0 C6.67 0.99 6.34 1.98 6 3 C4.35 3.33 2.7 3.66 1 4 C0.67 2.68 0.34 1.36 0 0 Z " fill="#2C344F" transform="translate(41,44)"/>
<path d="M0 0 C1.32 0.33 2.64 0.66 4 1 C3.67 2.65 3.34 4.3 3 6 C2.01 6 1.02 6 0 6 C0 4.02 0 2.04 0 0 Z " fill="#C2988F" transform="translate(47,109)"/>
<path d="M0 0 C2.96404505 2.80804268 5.44499019 5.18315774 7 9 C6.4225 8.525625 5.845 8.05125 5.25 7.5625 C3.07417916 6.0515133 1.57397552 5.45963849 -1 5 C-0.67 3.35 -0.34 1.7 0 0 Z " fill="#24345A" transform="translate(28,55)"/>
<path d="M0 0 C1.7578125 1.04166667 3.515625 2.08333333 5.2734375 3.125 C6.97472667 4.15068348 6.97472667 4.15068348 9 4 C9 4.66 9 5.32 9 6 C3.25 6.125 3.25 6.125 1 5 C0.375 2.4375 0.375 2.4375 0 0 Z " fill="#151D36" transform="translate(35,64)"/>
<path d="M0 0 C1.98 0.495 1.98 0.495 4 1 C3.34 1 2.68 1 2 1 C2 1.66 2 2.32 2 3 C2.66 3 3.32 3 4 3 C4 3.99 4 4.98 4 6 C3.34 6 2.68 6 2 6 C2 6.66 2 7.32 2 8 C1.01 7.67 0.02 7.34 -1 7 C-0.34 7 0.32 7 1 7 C0.67 4.69 0.34 2.38 0 0 Z " fill="#B18F96" transform="translate(31,43)"/>
<path d="M0 0 C1.32 0.66 2.64 1.32 4 2 C4 2.99 4 3.98 4 5 C2.35 4.67 0.7 4.34 -1 4 C-1 1 -1 1 0 0 Z " fill="#6F7080" transform="translate(41,108)"/>
<path d="M0 0 C0.33 0.66 0.66 1.32 1 2 C3.01669827 3.13350534 3.01669827 3.13350534 5 4 C5 5.65 5 7.3 5 9 C4.01 8.67 3.02 8.34 2 8 C1.375 6.1875 1.375 6.1875 1 4 C0.814375 3.2575 0.62875 2.515 0.4375 1.75 C0.293125 1.1725 0.14875 0.595 0 0 Z " fill="#808295" transform="translate(42,105)"/>
<path d="M0 0 C1.11375 0.1546875 1.11375 0.1546875 2.25 0.3125 C2.25 0.9725 2.25 1.6325 2.25 2.3125 C1.280625 2.60125 0.31125 2.89 -0.6875 3.1875 C-3.85664203 3.95464682 -3.85664203 3.95464682 -4.75 6.3125 C-5.41 5.9825 -6.07 5.6525 -6.75 5.3125 C-3.42692308 0.38942308 -3.42692308 0.38942308 0 0 Z " fill="#91A2C1" transform="translate(20.75,60.6875)"/>
<path d="M0 0 C0.99 0.33 1.98 0.66 3 1 C2.34 2.65 1.68 4.3 1 6 C-0.32 5.34 -1.64 4.68 -3 4 C-2.67 3.01 -2.34 2.02 -2 1 C-1.34 0.67 -0.68 0.34 0 0 Z " fill="#D5D0D9" transform="translate(47,102)"/>
<path d="M0 0 C6.4 0.49230769 6.4 0.49230769 9.4375 3.0625 C10.2109375 4.0215625 10.2109375 4.0215625 11 5 C9.53932801 4.54917531 8.08151968 4.08906463 6.625 3.625 C5.81289063 3.36976562 5.00078125 3.11453125 4.1640625 2.8515625 C2 2 2 2 0 0 Z " fill="#131930" transform="translate(36,56)"/>
<path d="M0 0 C1.32 0 2.64 0 4 0 C3.34 1.32 2.68 2.64 2 4 C0.68 4 -0.64 4 -2 4 C-1.34 2.68 -0.68 1.36 0 0 Z " fill="#94656C" transform="translate(65,92)"/>
<path d="M0 0 C1.65 0 3.3 0 5 0 C5.33 1.32 5.66 2.64 6 4 C3.03 3.505 3.03 3.505 0 3 C0 2.01 0 1.02 0 0 Z " fill="#A06564" transform="translate(68,81)"/>
<path d="M0 0 C0.99 0.33 1.98 0.66 3 1 C-1.75 5.875 -1.75 5.875 -4 7 C-3.67 5.68 -3.34 4.36 -3 3 C-2.34 3 -1.68 3 -1 3 C-0.67 2.01 -0.34 1.02 0 0 Z " fill="#4A5A7C" transform="translate(17,64)"/>
<path d="M0 0 C2.31 0.66 4.62 1.32 7 2 C7 2.66 7 3.32 7 4 C5.68 4 4.36 4 3 4 C2.67 4.66 2.34 5.32 2 6 C1.34 4.02 0.68 2.04 0 0 Z " fill="#3C2E3F" transform="translate(36,57)"/>
<path d="M0 0 C1.32 0 2.64 0 4 0 C4 0.66 4 1.32 4 2 C3.34 2 2.68 2 2 2 C2 2.66 2 3.32 2 4 C0.68 4 -0.64 4 -2 4 C-1.34 2.68 -0.68 1.36 0 0 Z " fill="#ECC8C2" transform="translate(50,103)"/>
<path d="M0 0 C0.99 0.495 0.99 0.495 2 1 C2.33333333 2.66666667 2.66666667 4.33333333 3 6 C3.66 6.33 4.32 6.66 5 7 C4.67 7.99 4.34 8.98 4 10 C4 9.34 4 8.68 4 8 C3.01 8.33 2.02 8.66 1 9 C-0.4783226 6.04335481 -0.06032783 3.25770263 0 0 Z " fill="#A37976" transform="translate(67,96)"/>
<path d="M0 0 C1.65 1.32 3.3 2.64 5 4 C1.71023192 5.09658936 0.28696233 4.79953138 -3 4 C-2.67 3.01 -2.34 2.02 -2 1 C-1.34 0.67 -0.68 0.34 0 0 Z " fill="#D7C5C8" transform="translate(47,90)"/>
<path d="M0 0 C0.66 0 1.32 0 2 0 C2 4 2 4 0.625 5.75 C-1 7 -1 7 -3 7 C-1.125 2.25 -1.125 2.25 0 0 Z " fill="#D2C2C4" transform="translate(57,84)"/>
<path d="M0 0 C0.99 0.33 1.98 0.66 3 1 C2.39816251 3.02045442 1.72693904 5.02111039 1 7 C0.01 7.495 0.01 7.495 -1 8 C-0.67 5.36 -0.34 2.72 0 0 Z " fill="#BB9496" transform="translate(60,84)"/>
<path d="M0 0 C0.99 0 1.98 0 3 0 C2.67 2.97 2.34 5.94 2 9 C0.11656068 5.23312136 -0.22057835 3.97041037 0 0 Z " fill="#C0C9D0" transform="translate(10,68)"/>
<path d="M0 0 C-0.99 0.33 -1.98 0.66 -3 1 C-3.33 1.66 -3.66 2.32 -4 3 C-6.97 2.505 -6.97 2.505 -10 2 C-10 1.34 -10 0.68 -10 0 C-6.30458414 -0.95024979 -3.69541586 -0.95024979 0 0 Z " fill="#B6DCF1" transform="translate(78,10)"/>
</svg>
