<?xml version="1.0" encoding="UTF-8"?>
<svg version="1.1" xmlns="http://www.w3.org/2000/svg" width="158" height="148">
<path d="M0 0 C3.73147965 2.13227408 7.3703601 4.37796559 11.00390625 6.671875 C13.85763785 8.45642571 16.71735228 10.22906269 19.59082031 11.98168945 C21.55540212 13.18013594 23.50955106 14.39587569 25.45214844 15.62963867 C26.81001465 16.45878784 26.81001465 16.45878784 28.1953125 17.3046875 C29.00170166 17.80887207 29.80809082 18.31305664 30.63891602 18.83251953 C33.009474 19.92803179 33.009474 19.92803179 35.51318359 18.98071289 C37.91883212 17.7165802 40.30909066 16.4542001 42.6640625 15.09765625 C43.53434082 14.59782227 44.40461914 14.09798828 45.30126953 13.58300781 C46.21376465 13.05545898 47.12625977 12.52791016 48.06640625 11.984375 C49.00726074 11.44780273 49.94811523 10.91123047 50.91748047 10.35839844 C54.88477251 8.08922502 58.83595789 5.82273565 62.6640625 3.32421875 C68.29650991 -0.28974948 72.71738726 -2.46454173 79.53515625 -1.92578125 C85.2262952 -0.54802135 87.79518298 2.72053743 90.796875 7.56640625 C95.08596626 15.52625295 95.08596626 15.52625295 94.8046875 19.453125 C94.00390625 21.671875 94.00390625 21.671875 91.69140625 23.109375 C89.00390625 23.671875 89.00390625 23.671875 87.0078125 23.01953125 C84.39552624 21.26273055 83.58775354 19.50424209 82.25390625 16.671875 C81.8259375 15.785 81.39796875 14.898125 80.95703125 13.984375 C80.00390625 11.671875 80.00390625 11.671875 80.00390625 9.671875 C75.34447397 9.37361347 72.75078667 9.98000255 68.78125 12.41015625 C67.83056641 12.98314453 66.87988281 13.55613281 65.90039062 14.14648438 C64.92392578 14.75298828 63.94746094 15.35949219 62.94140625 15.984375 C61.96107422 16.57927734 60.98074219 17.17417969 59.97070312 17.78710938 C58.14214936 18.8981451 56.31680566 20.01449462 54.49584961 21.13793945 C53.6735083 21.64413818 52.85116699 22.15033691 52.00390625 22.671875 C51.11517822 23.23156982 50.2264502 23.79126465 49.31079102 24.36791992 C47.00390625 25.671875 47.00390625 25.671875 45.00390625 25.671875 C45.00390625 26.331875 45.00390625 26.991875 45.00390625 27.671875 C45.865 27.92582031 46.72609375 28.17976563 47.61328125 28.44140625 C51.17997175 29.73576974 54.03313379 31.35593242 57.25390625 33.359375 C65.67353932 38.53289774 74.24108752 43.44354485 82.81542969 48.35424805 C88.04613341 51.35777318 93.23949465 54.37207012 98.28051758 57.68652344 C100.21562659 58.79292661 102.13657406 59.48517954 104.25390625 60.171875 C108.76340952 61.72229361 110.89042815 64.4449188 113.00390625 68.671875 C113.13969331 71.49512213 113.21666786 74.29242236 113.2421875 77.1171875 C113.25025925 77.96102997 113.25833099 78.80487244 113.26664734 79.67428589 C113.28049362 81.46480249 113.29121334 83.25534555 113.29907227 85.04589844 C113.31620853 87.76549572 113.36007906 90.48385278 113.40429688 93.203125 C113.41443083 94.94530358 113.42294473 96.68749249 113.4296875 98.4296875 C113.44719559 99.2352005 113.46470367 100.0407135 113.48274231 100.87063599 C113.45594508 107.95792721 111.21848555 112.96516697 106.75390625 118.421875 C98.36814352 125.28295359 90.50679685 125.52346072 80.00390625 124.671875 C70.75306721 123.14894776 60.75177631 118.18705988 54.00390625 111.671875 C54.00390625 111.011875 54.00390625 110.351875 54.00390625 109.671875 C53.34390625 109.671875 52.68390625 109.671875 52.00390625 109.671875 C50.27734375 107.7734375 50.27734375 107.7734375 48.37890625 105.296875 C47.74726562 104.48476562 47.115625 103.67265625 46.46484375 102.8359375 C45.00390625 100.671875 45.00390625 100.671875 45.00390625 98.671875 C42.10800973 98.64481055 39.2123683 98.62500471 36.31640625 98.609375 C35.49978516 98.60099609 34.68316406 98.59261719 33.84179688 98.58398438 C27.84631824 98.49900413 27.84631824 98.49900413 22.00390625 99.671875 C20.86845063 101.96721758 20.86845063 101.96721758 20.00390625 104.671875 C18.00390625 107.484375 18.00390625 107.484375 16.00390625 109.671875 C15.34390625 109.671875 14.68390625 109.671875 14.00390625 109.671875 C14.00390625 110.331875 14.00390625 110.991875 14.00390625 111.671875 C1.51301849 122.42866989 -11.92979626 125.8309666 -27.99609375 124.671875 C-34.80164414 122.82494097 -39.19339109 118.31640972 -43.10351562 112.58032227 C-45.51853229 108.25163184 -45.57544892 104.32097432 -45.52734375 99.44921875 C-45.53117065 98.58551163 -45.53499756 97.7218045 -45.53894043 96.83192444 C-45.54164899 95.01578599 -45.53436214 93.19960783 -45.51757812 91.38354492 C-45.49612595 88.61353237 -45.51742809 85.84610531 -45.54296875 83.07617188 C-45.5403258 81.30468182 -45.53520148 79.53319335 -45.52734375 77.76171875 C-45.53544067 76.93969467 -45.5435376 76.11767059 -45.55187988 75.27073669 C-45.46557974 69.94718253 -44.51527541 66.9011598 -40.99609375 62.671875 C-38.43963087 60.80634803 -36.01500675 59.67935929 -33.07421875 58.515625 C-27.47715477 56.12458257 -22.30491902 52.92478792 -17.05859375 49.859375 C-15.929375 49.20445068 -14.80015625 48.54952637 -13.63671875 47.87475586 C-8.32590578 44.79354925 -3.02648291 41.69316516 2.26454163 38.57810974 C3.94339886 37.58983459 5.62317965 36.60312887 7.30297852 35.61645508 C9.40879182 34.3782799 11.51221994 33.13603762 13.61303711 31.8894043 C14.55671143 31.33422119 15.50038574 30.77903809 16.47265625 30.20703125 C17.30216797 29.715979 18.13167969 29.22492676 18.98632812 28.71899414 C21.00390625 27.671875 21.00390625 27.671875 23.00390625 27.671875 C23.00390625 27.011875 23.00390625 26.351875 23.00390625 25.671875 C22.34003906 25.43082031 21.67617187 25.18976562 20.9921875 24.94140625 C17.22762583 23.34208266 13.74281281 21.38074698 10.19140625 19.359375 C9.12237061 18.75814819 9.12237061 18.75814819 8.03173828 18.14477539 C4.38938856 16.08350057 0.84845814 13.9538489 -2.62109375 11.609375 C-6.15146213 9.58268204 -8.00085832 9.17247057 -11.99609375 9.671875 C-12.24359375 10.5175 -12.49109375 11.363125 -12.74609375 12.234375 C-14.13583002 16.05614974 -15.90730213 19.19055563 -17.99609375 22.671875 C-21.37109375 22.859375 -21.37109375 22.859375 -24.99609375 22.671875 C-26.99609375 19.671875 -26.99609375 19.671875 -26.796875 17.33203125 C-25.89846186 14.34754664 -24.68418642 11.84083357 -23.18359375 9.109375 C-22.43142578 7.71525391 -22.43142578 7.71525391 -21.6640625 6.29296875 C-16.53824604 -1.76188568 -8.79061744 -3.89675349 0 0 Z M27.7890625 35.56640625 C26.71833496 36.18757324 25.64760742 36.80874023 24.54443359 37.44873047 C23.38500115 38.12712485 22.22566049 38.80567613 21.06640625 39.484375 C19.89165411 40.16850136 18.71668542 40.85225601 17.54150391 41.53564453 C15.75886075 42.57259488 13.97652391 43.61004956 12.19525146 44.64935303 C8.49117971 46.81034863 4.7775127 48.95352293 1.0546875 51.08203125 C0.17353271 51.58694092 -0.70762207 52.09185059 -1.61547852 52.61206055 C-3.26171216 53.55475909 -4.90929818 54.49510064 -6.55834961 55.43286133 C-8.38732274 56.48452596 -10.1946837 57.57366598 -11.99609375 58.671875 C-11.99609375 59.001875 -11.99609375 59.331875 -11.99609375 59.671875 C18.36390625 59.671875 48.72390625 59.671875 80.00390625 59.671875 C77.3710974 57.69726837 75.04132226 56.03374981 72.23046875 54.4296875 C71.49820068 54.00921143 70.76593262 53.58873535 70.01147461 53.15551758 C69.22522705 52.70716553 68.43897949 52.25881348 67.62890625 51.796875 C62.03770836 48.59129887 56.46374097 45.36209835 50.9296875 42.05859375 C49.93179199 41.46353027 48.93389648 40.8684668 47.90576172 40.25537109 C45.94831484 39.08593281 43.99286546 37.91314372 42.03955078 36.73681641 C41.14993652 36.20620605 40.26032227 35.6755957 39.34375 35.12890625 C38.55347412 34.65428955 37.76319824 34.17967285 36.94897461 33.69067383 C33.15487836 31.70338079 31.26325568 33.5410355 27.7890625 35.56640625 Z M-34.99609375 71.671875 C-35.22034713 74.18275911 -35.32420236 76.58021683 -35.33203125 79.09375 C-35.33868805 79.83135559 -35.34534485 80.56896118 -35.35220337 81.32891846 C-35.36233782 82.89243068 -35.36702014 84.45598622 -35.36669922 86.01953125 C-35.37105223 88.39917635 -35.40730271 90.77693581 -35.4453125 93.15625 C-35.45118481 94.67707701 -35.45515143 96.19791281 -35.45703125 97.71875 C-35.47140228 98.42521667 -35.48577332 99.13168335 -35.50057983 99.85955811 C-35.45430566 104.92669326 -34.16267477 107.76411725 -30.99609375 111.671875 C-25.67215465 115.75125691 -20.43802259 115.46670758 -13.99609375 114.671875 C-1.93754975 111.51335067 7.38755016 105.26207911 14.00390625 94.671875 C17.55032394 88.43154388 19.14516541 83.66771744 19.06640625 76.421875 C19.05738281 75.34421875 19.04835937 74.2665625 19.0390625 73.15625 C19.02746094 72.33640625 19.01585937 71.5165625 19.00390625 70.671875 C16.55669325 69.4482685 14.9544507 69.53849135 12.21875 69.52661133 C11.22431885 69.52023148 10.2298877 69.51385162 9.20532227 69.50727844 C8.12822998 69.50616562 7.0511377 69.5050528 5.94140625 69.50390625 C4.83917725 69.50057785 3.73694824 69.49724945 2.60131836 69.49382019 C0.26774514 69.48875107 -2.06583534 69.48641186 -4.39941406 69.48657227 C-7.98124029 69.48438407 -11.5627595 69.46622331 -15.14453125 69.44726562 C-17.40755102 69.44433213 -19.67057227 69.44234704 -21.93359375 69.44140625 C-23.01068604 69.43422073 -24.08777832 69.42703522 -25.19750977 69.41963196 C-26.68915649 69.4242469 -26.68915649 69.4242469 -28.2109375 69.42895508 C-29.52759399 69.42681755 -29.52759399 69.42681755 -30.87084961 69.42463684 C-33.21218883 69.47419645 -33.21218883 69.47419645 -34.99609375 71.671875 Z M30.00390625 69.671875 C29.34390625 75.611875 28.68390625 81.551875 28.00390625 87.671875 C31.96390625 87.671875 35.92390625 87.671875 40.00390625 87.671875 C39.34390625 81.731875 38.68390625 75.791875 38.00390625 69.671875 C35.36390625 69.671875 32.72390625 69.671875 30.00390625 69.671875 Z M49.00390625 70.671875 C48.24240942 82.98274046 51.28725921 92.03503905 59.00390625 101.671875 C65.38427589 108.78183848 75.09170446 113.96448593 84.67578125 114.9453125 C91.78520167 115.23701954 91.78520167 115.23701954 98.12890625 112.421875 C101.82754806 108.8840437 102.88754959 107.26508311 103.26269531 102.12841797 C103.27583556 100.72369242 103.27746543 99.3188271 103.26953125 97.9140625 C103.2714447 97.16980011 103.27335815 96.42553772 103.27532959 95.65872192 C103.27668729 94.09034892 103.27301985 92.52196453 103.26464844 90.95361328 C103.25391238 88.54824781 103.26457289 86.14362403 103.27734375 83.73828125 C103.27602267 82.21354002 103.27346136 80.68879924 103.26953125 79.1640625 C103.27357971 78.44322479 103.27762817 77.72238708 103.28179932 76.97970581 C103.36636173 72.8731504 103.36636173 72.8731504 101.00390625 69.671875 C98.79490827 69.3728303 98.79490827 69.3728303 96.21875 69.42895508 C95.22431885 69.42587845 94.2298877 69.42280182 93.20532227 69.41963196 C92.12822998 69.42681747 91.0511377 69.43400299 89.94140625 69.44140625 C88.83917725 69.44186447 87.73694824 69.44232269 86.60131836 69.4427948 C84.26772996 69.44581978 81.93414362 69.45371334 79.60058594 69.46606445 C76.01880783 69.48429914 72.43728838 69.48657433 68.85546875 69.48632812 C66.59244567 69.491244 64.32942435 69.49707262 62.06640625 69.50390625 C60.98931396 69.50501907 59.91222168 69.5061319 58.80249023 69.50727844 C57.31084351 69.51684822 57.31084351 69.51684822 55.7890625 69.52661133 C54.47240601 69.53232903 54.47240601 69.53232903 53.12915039 69.53816223 C50.94940281 69.53655674 50.94940281 69.53655674 49.00390625 70.671875 Z " fill="#1D1D1D" transform="translate(44.99609375,12.328125)"/>
</svg>
