<?xml version="1.0" encoding="UTF-8"?>
<svg version="1.1" xmlns="http://www.w3.org/2000/svg" width="500" height="500">
<path d="M0 0 C1.90724854 0.01123901 1.90724854 0.01123901 3.85302734 0.02270508 C22.4669125 0.23571399 41.85224823 2.59937678 58.625 11.25 C59.85686913 11.83457475 61.09008399 12.41631743 62.32421875 12.99609375 C79.10346165 20.98052048 93.78252011 31.9291045 104.625 47.25 C104.625 47.91 104.625 48.57 104.625 49.25 C105.285 49.25 105.945 49.25 106.625 49.25 C106.85445312 48.54230469 107.08390625 47.83460937 107.3203125 47.10546875 C116.04271483 28.01542055 140.55198141 15.19478868 159.09912109 8.15039062 C163.16306204 6.70173277 167.26984696 5.48677171 171.4375 4.375 C172.50967773 4.08858643 172.50967773 4.08858643 173.60351562 3.79638672 C185.38940033 0.86585677 197.1956326 -0.11685692 209.3125 -0.0625 C210.62323486 -0.05758545 211.93396973 -0.0526709 213.28442383 -0.04760742 C223.66537187 0.07701764 233.50511151 0.97223341 243.625 3.25 C244.3768457 3.41097168 245.12869141 3.57194336 245.90332031 3.73779297 C273.87427637 9.85754187 301.19043846 22.78287812 319.625 45.25 C320.49125 46.24128906 321.3575 47.23257813 322.25 48.25390625 C343.86806597 73.0037346 355.69036228 104.62835613 355.828125 137.51953125 C355.83382507 138.59514816 355.83952515 139.67076508 355.84539795 140.77897644 C355.85481222 143.0524295 355.86136766 145.32589598 355.86523438 147.59936523 C355.87486257 151.01376436 355.9058888 154.42754065 355.9375 157.84179688 C356.02015833 174.70701231 354.73149235 190.79596663 349.8125 207 C349.55388184 207.87358154 349.29526367 208.74716309 349.02880859 209.6472168 C345.13062358 222.51642176 339.74629939 234.56357476 333.54492188 246.47070312 C332.74516119 248.01758632 331.97174938 249.57803698 331.203125 251.140625 C327.42896919 258.55573112 322.48452265 264.95506418 317.4375 271.53125 C315.36504995 274.24054668 313.43791933 276.98296202 311.625 279.875 C303.95545763 291.56718419 293.8424315 301.15671036 283.60546875 310.55859375 C278.54447363 315.21566543 273.58413368 319.95119992 269.1875 325.25 C265.64493719 329.33997869 261.76419768 332.77797563 257.625 336.25 C256.56166013 337.16308533 255.4992277 338.07722804 254.4375 338.9921875 C253.291954 339.97429358 252.1461199 340.95606371 251 341.9375 C250.46165527 342.4013208 249.92331055 342.8651416 249.36865234 343.34301758 C246.83763066 345.49481211 244.35559043 347.42765164 241.57421875 349.26171875 C238.41734888 351.38999261 235.81566264 353.74819948 233.0625 356.375 C227.50070728 361.57995588 221.60789508 366.23584253 215.52050781 370.80908203 C213.36931111 372.44436835 211.2422733 374.10827153 209.1171875 375.77734375 C208.33230957 376.39311279 207.54743164 377.00888184 206.73876953 377.64331055 C205.20947793 378.84453577 203.68170374 380.04769642 202.15576172 381.25317383 C197.85087039 384.62341875 193.45563556 387.73863263 188.88427734 390.73583984 C185.00968074 393.33258159 181.29723497 396.14516015 177.5625 398.9375 C170.90943947 403.87749704 164.19136266 408.68736313 157.3359375 413.34204102 C153.61035932 415.87391926 149.93540968 418.45877125 146.29589844 421.11279297 C139.83718118 425.81583075 133.20748897 430.045628 126.3046875 434.06640625 C123.84179376 435.50558269 121.44383317 437.00771629 119.0703125 438.58984375 C108.58576587 445.54317834 108.58576587 445.54317834 103.703125 444.96875 C98.59227297 443.20108689 94.13485918 440.17654994 89.625 437.25 C88.68011719 436.651875 87.73523438 436.05375 86.76171875 435.4375 C84.92470471 434.2734515 83.09261751 433.10159017 81.265625 431.921875 C78.7943655 430.35723141 76.28609525 428.89370953 73.75 427.4375 C69.07233751 424.66198824 64.83707367 421.40775443 60.56933594 418.05444336 C57.13818883 415.37230029 53.65355199 412.87787043 50 410.5 C42.00668968 405.27727932 34.40938061 399.5132002 26.74707031 393.82128906 C24.15734446 391.903724 21.55001138 390.01137528 18.9375 388.125 C3.07489961 376.59523953 -12.68985878 364.87506189 -26.9453125 351.37109375 C-29.60829227 349.04633809 -32.43375529 347.20836645 -35.375 345.25 C-37.63995809 343.46028793 -39.82170262 341.58124363 -42 339.6875 C-42.60465088 339.16446289 -43.20930176 338.64142578 -43.83227539 338.10253906 C-60.27579719 323.81579147 -60.27579719 323.81579147 -66.73828125 316.1484375 C-70.8662988 311.36033122 -75.42562413 307.01443735 -80.25 302.9375 C-89.92566116 294.58987076 -99.06110713 284.23883961 -105.29003906 273.06640625 C-106.74856416 270.62459105 -108.44281009 268.41694874 -110.17993164 266.16845703 C-134.59186831 234.50148073 -144.97287026 194.64110972 -144.76611328 155.27246094 C-144.74999545 151.62397052 -144.76606207 147.97658251 -144.78515625 144.328125 C-144.79610976 131.94033463 -144.37464162 120.30074979 -141.375 108.25 C-141.07015715 106.93706133 -140.76696269 105.62373895 -140.46533203 104.31005859 C-138.20785672 94.74628607 -134.61498786 86.06665508 -130.375 77.25 C-130.07078125 76.60498535 -129.7665625 75.9599707 -129.453125 75.29541016 C-124.70250143 65.33872718 -118.7759146 57.39211233 -111.375 49.25 C-110.08048275 47.77332742 -108.78836626 46.29454223 -107.5 44.8125 C-107.00757813 44.25691406 -106.51515625 43.70132813 -106.0078125 43.12890625 C-104.64522691 41.56095489 -103.33514535 39.94757336 -102.0390625 38.32421875 C-79.10823204 10.80636561 -34.03652839 -0.26665822 0 0 Z " fill="#010101" transform="translate(144.375,27.75)"/>
</svg>
